<?xml version="1.0" encoding="UTF-8"?>
<svg id="Layer_2" data-name="Layer 2" xmlns="http://www.w3.org/2000/svg" viewBox="0 0 480.63 474.7">
  <defs>
    <style>
      .cls-1 {
        fill: #e18126;
      }

      .cls-1, .cls-2 {
        stroke-width: 0px;
      }

      .cls-2 {
        fill: #080d0c;
      }
    </style>
  </defs>
  <g id="Layer_1-2" data-name="Layer 1">
    <g>
      <path class="cls-1" d="m37.7,151.15c24.36-23.5,61.86-57,61.86-57,0,0,12-13,30.5-36.5s33.5-34.5,59.5-34,74,.5,82,37,17,55,47,52,53.5-6.6,51.5-55.05-2.92-61.95,21.54-56.45,32.96,10.5,50.96,2.5,48.5-1.37,34.5,22.81-8,43.69-11.5,58.19,3.5-1.5-25,46.5-55.5,126-96,128.5-45.5,5.39-45.5,5.39c0,0-7.5,29.11,16,56.11s7,50.5-23,60-41.42,6.54-23.46,40.02,42.46,61.48-8.54,51.48-21.5-52.96-43.5-51.48-39.5,9.48-48.5,11.98-30.5,2-46-39.5-51.5-101.5-57.5-54.5,17.7,82,6.35,88-49.35,10.5-57.35,7.5-4.5-32-6.5-58S.02,296.65,11.29,269.15s-18.23-18.5-9.73-54.5,33.5-61.46,33.5-61.46l2.64-2.04Z"/>
      <g>
        <path class="cls-2" d="m171.68,135c9.73.22,19.31,1.72,29.19,3.31-.23-.78-.34-1.28-.52-1.76-3.66-10.08-6.36-20.44-8.97-30.82-1.33-5.27-2.46-10.59-3.1-15.99-1.01-8.49-.66-16.89,2.2-25.02,2.5-7.11,6.55-13.21,12.63-17.76,5.24-3.92,11.23-5.89,17.81-5.58,3.51.17,6.9,1.09,10.13,2.51,7.63,3.37,13.85,8.6,19.36,14.74,3.39,3.78,6.35,7.86,8.77,12.33,3.22,5.96,5.58,12.26,6.85,18.89,1.74,9.08,3.33,18.2,4.78,27.33,1.51,9.51,2.96,19.03,3.69,28.64.36,4.66.48,9.35.69,14.02.03.59-.04,1.18-.09,1.77-.13,1.44-.29,2.88-.43,4.32-.09.88-.5,1.38-1.22,1.46-.74.09-1.25-.28-1.56-1.11-1.43-3.79-2.33-7.69-2.64-11.75-1-13.05-2.91-25.98-5.16-38.86-1.44-8.23-3.35-16.34-6.85-23.99-5.79-12.69-14.23-23.27-25.4-31.61-1.96-1.47-4.16-2.71-6.41-3.7-5.87-2.6-11.15-1.34-15.74,2.99-2.75,2.59-4.67,5.76-5.98,9.29-1.75,4.71-2.27,9.61-2.11,14.6.22,6.55,1.56,12.92,3.12,19.24,3.16,12.8,6.56,25.53,10.48,38.12.34,1.09.85,1.71,1.98,2.05,6.89,2.05,13.35,5.12,19.7,8.44,5.64,2.95,10.97,6.38,15.91,10.41,5.37,4.38,9.83,9.48,12.66,15.87,1.87,4.22,2.9,8.66,3.46,13.22.98,8.05.82,16.11,0,24.16-.75,7.4-3.08,14.26-7.09,20.56-6.12,9.61-14.12,17.3-23.74,23.33-3.32,2.08-6.79,3.94-10.2,5.89-.32.18-.67.3-1.07.48-1.55-3.89-3.07-7.72-4.67-11.72.64-.41,1.34-.88,2.06-1.31,5.56-3.31,10.95-6.85,15.75-11.22,4.28-3.89,8.11-8.17,11.08-13.16,2.26-3.79,3.72-7.87,4.33-12.24,1.11-7.98,1.26-15.97.32-23.98-.89-7.55-4.2-13.77-9.91-18.82-10.41-9.22-22.3-15.67-35.67-19.47-14.75-4.19-29.8-6.17-45.1-6.33-11.36-.12-22.23,2.18-32.59,6.86-2.45,1.11-4.89,2.25-7.36,3.3-.93.4-1.93.71-2.92.85-1.87.25-3.49-.7-4.24-2.3-.73-1.57-.43-3.26.84-4.62,1.91-2.03,4.31-3.38,6.7-4.72,4.18-2.35,8.51-4.39,13.02-6.03,2.29-.84,4.42-1.93,6.43-3.32,5.13-3.55,10.33-7.01,15.42-10.62,3.52-2.5,6.6-5.51,9.4-8.81,3.69-4.35,5.45-9.32,5.03-15.04-.38-5.23-2.77-9.3-6.94-12.39-3.08-2.28-6.51-3.77-10.32-4.32-4.39-.63-8.79-.72-13.19-.05-4.23.65-8.05,2.29-11.47,4.86-5.59,4.2-10.34,9.24-14.73,14.64-3.53,4.34-7.05,8.69-10.6,13.01-.54.66-1.18,1.27-1.89,1.74-.43.28-1.15.44-1.6.27-.28-.11-.44-.92-.41-1.4.04-.68.2-1.4.49-2.02.97-2.09,1.85-4.26,3.08-6.2,4.65-7.34,10.04-14.12,16.44-20.03,5.53-5.1,11.76-9.25,18.4-12.74,5.48-2.88,11.43-3.68,17.55-3.33,6.18.35,11.8,2.44,16.77,6.06,6.72,4.89,10.68,11.49,11.81,19.78.72,5.28.17,10.42-1.53,15.43-1.15,3.39-2.9,6.47-5.12,9.28-2.72,3.44-5.85,6.45-9.34,9.09-.21.16-.49.25-.73.37.09.2.18.41.28.61Z"/>
        <path class="cls-2" d="m211.34,258.41c-.99-1.45-1.87-2.78-2.79-4.09-1.76-2.51-3.6-4.96-5.3-7.51-.86-1.29-1.52-2.72-2.17-4.14-.63-1.38-.53-2.38.16-2.82.99-.63,1.86-.12,2.69.42.58.38,1.17.78,1.66,1.27,3.13,3.11,6.29,6.18,9.32,9.39,2.18,2.31,3.52,5.09,4.13,8.26.38,1.99,1.11,3.92,1.68,5.88,2.23,7.68,4.85,15.25,5.93,23.24,1.22,9.06,2.62,18.1,4.13,27.12,1.84,10.99,3.04,22.06,4.22,33.14.43,4.06,1.24,8.08,1.72,12.14,1.44,12.13,2.81,24.26,4.18,36.4.81,7.21.41,14.4-.57,21.57-.28,2.07-.64,4.14-.9,6.22-.09.74-.05,1.5.04,2.25.26,2.24.57,4.48.87,6.72.03.2.12.4.18.6,6.7.7,13.32.52,19.97-.47,0-.37.06-.6,0-.77-2.14-5.04-3.33-10.33-4.1-15.73-.62-4.37-1.36-8.72-1.9-13.09-.22-1.8-.07-3.64-.09-5.46,0-.64,0-1.29-.06-1.93-.39-4.66-.78-9.33-1.19-13.99-.3-3.48-.62-6.96-.95-10.45-.04-.43-.08-.87-.23-1.26-1.44-3.76-1.97-7.7-2.3-11.68-1.11-13.52-1.76-27.06-1.15-40.63.09-2.04.11-4.09.06-6.13-.2-8.17.92-16.2,2.46-24.2,1.27-6.6,2.45-13.22,3.71-19.83.85-4.44,1.73-8.88,3.79-12.97.24-.47.31-1.03.5-1.53.29-.8.82-1.15,1.43-.97.68.21.82.73.82,1.39-.06,4.97-.85,9.84-1.89,14.69-1.31,6.16-2.56,12.33-3.65,18.53-1.32,7.49-1.79,15.07-1.73,22.67.09,12.75.36,25.5.43,38.25.03,5.86,0,11.74-.43,17.58-.32,4.39.13,8.7.5,13.02.52,6,1.18,11.99,1.79,17.98.04.37.03.76.14,1.12,1.76,6.17,2.31,12.58,3.72,18.82,1.91,8.43,4.5,16.62,9.13,24.02,2,3.19,4.12,6.31,6.16,9.47.61.95,1.23,1.91,1.7,2.92.29.61.4,1.33.43,2.01.04.96-.48,1.73-1.41,1.91-1.2.24-2.43.3-3.66.39-.85.06-1.71.04-2.57.03-1.07,0-2.16.09-3.21-.06-3.35-.47-6.68-1.14-10.04-1.52-2.45-.27-4.93-.19-7.4-.29-2.09-.08-4.19-.08-6.26-.35-1.14-.15-2.26-.69-3.31-1.21-2.19-1.1-2.93-2.54-2.68-4.99.06-.64.2-1.28.3-1.91.13-.8.34-1.59.37-2.39.12-3.17.53-6.31.83-9.46.36-3.75-.83-7.25-2.73-10.45-1.07-1.8-1.53-3.61-1.19-5.69.57-3.56,1.27-7.11,1.52-10.7.29-4.23.17-8.49.21-12.74,0-.2-.08-.4-.14-.72-.36.13-.65.22-.93.35-3.09,1.39-6.18,2.77-9.25,4.2-1.06.5-2.07,1.12-3.07,1.75-1.41.88-2.78,1.84-4.19,2.73-4.04,2.56-8.12,5.06-12.14,7.66-2.63,1.7-5.02,1-5.87-2.01-.45-1.59-.62-3.27-.76-4.92-.38-4.34-.71-8.69-1-13.03-.11-1.61-.14-3.23-.04-4.83.16-2.49,1.23-4.61,3.3-6.02,1.68-1.15,3.45-2.23,5.31-3.01,3.72-1.55,7.53-2.89,11.31-4.28,1.48-.54,3.01-.81,4.59-.4.28.07.64,0,.93-.11,3.21-1.24,6.41-2.5,9.61-3.77.35-.14.66-.35,1.12-.61-.08-.92-.1-1.88-.26-2.82-.88-5.2-1.68-10.41-2.73-15.57-.81-4.02-1.24-8.07-1.71-12.13-.86-7.32-1.8-14.63-2.84-21.93-1.09-7.67-2.22-15.34-3.55-22.97-.74-4.23-1.71-8.44-2.95-12.56-1.12-3.75-2.74-7.35-4.14-11.02-.07-.19-.21-.36-.41-.69-.49.15-.99.29-1.47.46-7.38,2.55-14.88,4.7-22.57,6.09-7.2,1.3-14.45,1.41-21.71.72-7.04-.67-13.95-2.02-20.57-4.61-4.58-1.79-8.83-4.21-12.99-6.81-9.37-5.84-16.87-13.62-23.44-22.38-3.33-4.44-6.32-9.1-8.97-13.98-.2-.37-.46-.71-.78-1.22-.52.41-1.01.73-1.41,1.13-.94.96-1.86,1.94-2.75,2.95-1.95,2.22-3.89,4.46-5.8,6.72-1.43,1.68-2.76,3.44-4.22,5.09-3.62,4.12-7.2,8.29-10.95,12.28-3.1,3.3-6.12,6.65-8.85,10.26-5.51,7.3-10.96,14.65-16.54,21.9-2.72,3.54-5.68,6.89-8.5,10.35-1.08,1.33-2.06,2.76-3.09,4.13-.87,1.16-1.74,2.32-2.67,3.43-.2.24-.73.49-.93.39-.3-.16-.63-.63-.62-.95.04-1.12.09-2.28.39-3.35.82-2.92,1.95-5.75,3.92-8.08,8.84-10.44,16.67-21.66,25.27-32.28,2.06-2.54,4.37-4.89,6.59-7.31,4.77-5.19,9.5-10.41,14.36-15.51,3.08-3.23,6.39-6.23,9.53-9.41,2.27-2.29,4.3-4.83,6.66-7.01,2.2-2.03,4.63-3.85,7.1-5.56,2.97-2.06,5.82-4.21,8.39-6.78,4.3-4.3,8.73-8.46,13.12-12.67.46-.44.99-.83,1.53-1.19.4-.27.94-.55,1.29-.04.19.28.19.81.07,1.17-.18.55-.49,1.07-.8,1.58-2.48,4.15-5.68,7.72-9.37,10.8-2.1,1.76-4.41,3.26-6.57,4.95-2.92,2.28-5.79,4.63-8.68,6.96-.2.16-.34.4-.56.65.11.26.19.52.33.73,6.33,9.66,13.29,18.85,21.83,26.66,13.06,11.95,28.51,17.81,46.28,17.17,11.29-.41,21.95-3.46,32.17-8.17.19-.09.34-.24.77-.54Zm24.68,132.9c-.31-6.92-.39-13.76-.79-20.94-2.23,1.28-4.16,2.39-6.15,3.53.61,1.87-.8,2.69-1.8,3.7,2.17,5.2,3.13,10.62,3.65,16.4,1.74-.92,3.34-1.76,5.09-2.69Z"/>
        <path class="cls-2" d="m410.93,149.78c-.32.53-.68,1.04-.95,1.59-3.61,7.39-8.75,13.79-13.21,20.64-1.56,2.39-3.17,4.74-4.7,7.14-5.59,8.78-12.1,16.87-18.73,24.86-6.09,7.33-12.57,14.32-19.63,20.73-2.58,2.34-5.38,4.48-8.25,6.47-6.15,4.26-12.37,8.39-19.43,11.1-5.35,2.06-10.8,3.62-16.53,4.14-8.04.74-15.27-1.37-21.64-6.24-8.47-6.47-13.35-15.15-15.25-25.57-1.31-7.22-.75-14.37.9-21.46,1.48-6.35,3.41-12.56,5.74-18.65,1.34-3.5,3.18-6.7,5.81-9.4,2.96-3.04,6.56-5.04,10.6-6.21,5.95-1.73,11.99-1.94,18.03-.53,1.92.45,3.76,1.27,5.61,1.97.78.3,1.51.73,2.42,1.18.06-.66.14-1.07.12-1.48-.18-3.98-.38-7.95-.55-11.93-.03-.68-.31-1.09-.92-1.35-5.81-2.46-10.42-6.6-14.98-10.79-4.32-3.97-8.53-8.05-13.36-11.42-3.96-2.77-8.22-4.88-12.92-6.07-1.09-.28-2.18-.62-3.22-1.05-.73-.3-1.44-.74-2.06-1.24-.68-.56-.64-1.33.15-1.7.85-.4,1.82-.7,2.75-.75,3.15-.16,6.2.46,9.17,1.51,5.83,2.06,10.78,5.56,15.45,9.49,3.05,2.56,5.99,5.24,9.06,7.78,3.12,2.57,6.56,4.68,10.17,6.52,1.01.51,2.08.43,3.07.73.99.3,1.79,1.2,2.77,1.51,1.53.49,3.13.87,4.72,1,6.56.56,13.12.8,19.53-1.13,6.41-1.93,12.47-4.65,18.22-8.13,4.08-2.48,8.35-4.65,12.54-6.97.47-.26.93-.39,1.29.11.34.48.06.87-.25,1.3-3.65,4.98-8.56,8.43-13.84,11.41-3.65,2.07-7.36,4.04-11.12,5.9-5.79,2.87-11.95,4.56-18.36,5.3-3.61.42-7.2,0-10.76-.61-.26-.05-.53-.07-.79-.09-.04,0-.09.05-.23.14,0,.3-.03.66,0,1.02.49,5.84.95,11.69,1.49,17.52.15,1.65.47,3.3.83,4.92.33,1.47.25,2.89-.13,4.31-.46,1.71-1.78,2.81-3.45,2.93-1.64.12-3.11-.8-3.83-2.42-.17-.39-.32-.8-.43-1.22-.71-2.67-2.43-4.5-4.78-5.81-1.95-1.09-4.05-1.73-6.25-2.07-3.44-.52-6.86-.39-10.27.33-5.11,1.07-8.91,3.84-10.69,8.82-1.78,4.96-3.34,9.99-4.86,15.04-1.14,3.77-1.79,7.64-1.96,11.59-.32,7.36,1.19,14.21,5.44,20.36,3.88,5.61,9,9.25,15.8,10.54,6.36,1.21,12.72,1.56,19.09.41,5.49-.99,10.7-2.93,15.41-5.95,13.01-8.36,24.46-18.46,33.83-30.82,4.03-5.32,8.03-10.66,12.04-15.98.78-1.03,1.53-2.09,2.38-3.05,6.37-7.18,11.87-15.02,17.47-22.79,1.82-2.53,3.78-4.95,5.69-7.42.08-.1.27-.13.4-.19.1.07.2.14.3.21Z"/>
        <path class="cls-2" d="m65.26,156c-.08.14-.16.27-.25.41-1.72,2.71-3.86,5.04-6.34,7.06-4.92,4.01-9.88,7.97-14.84,11.93-3.11,2.49-6.18,5.01-8.84,8.01-4.63,5.2-7.26,11.25-7.97,18.16-.34,3.27-.92,6.5-1.91,9.64-.92,2.95-2.19,5.74-4.07,8.2-.77,1.01-1.7,1.97-2.73,2.7-2.42,1.7-4.84.99-6.15-1.65-.69-1.38-.9-2.87-.88-4.39.03-3.14.48-6.24,1.41-9.23,2.68-8.57,6.64-16.46,12.99-22.96,5-5.13,10.35-9.87,16.11-14.16,6-4.47,12.1-8.77,18.44-12.74,1.36-.85,2.55-1.98,3.88-2.9.57-.4,1.28-.59,1.93-.88.07.09.15.17.22.26.52-1.46,1.03-2.92,1.58-4.37.38-1,.79-2,1.27-2.96.28-.56.61-1.17,1.54-1.14.08.32.19.65.25,1,.03.15-.01.32-.06.48-1.62,6.1-1.58,12.48-3.09,18.6-1.44,5.83-3.55,11.39-6.46,16.65-1.19,2.15-2.65,4.06-4.62,5.52-.48.35-1.13.46-2.01.81-2,3.53-4.33,7.24-5.24,11.68-2.59,12.59-5.43,25.13-7.99,37.73-1.86,9.17-3.45,18.4-5.13,27.61-1.96,10.76-4.96,21.26-7.75,31.82-1.84,6.97-3.56,13.97-5.38,20.94-.57,2.18-1.14,4.39-1.99,6.47-2.12,5.16-2.5,10.51-2.29,16,.39,10.19,1.95,20.22,3.71,30.24,1.49,8.47,2.56,17.02,3.79,25.54.15,1.01.05,2.06.24,3.05.26,1.35.7,2.67,1.05,3.98,4.48.52,8.84,1.02,13.31,1.54.79-2.08,1.9-3.88,4-4.77-.05-.29-.04-.45-.1-.6-4.04-9.75-6.5-19.93-8.07-30.34-.64-4.2-1.41-8.38-1.92-12.6-.78-6.43-.66-12.89-.37-19.35.17-3.87.39-7.74.66-11.6.08-1.06.37-2.12.7-3.14.3-.91.98-1.3,1.7-1.18.8.13,1.22.7,1.32,1.44.15,1.06.27,2.14.28,3.21.07,7.1.03,14.21.19,21.31.2,8.72.71,17.42,1.79,26.07,1.22,9.77,4.33,18.95,8.63,27.77,2.46,5.04,5.14,9.94,8.25,14.6.51.76.99,1.54,1.42,2.35,1.05,1.99.52,3.76-1.56,4.64-1.17.49-2.47.8-3.73.91-3.22.27-6.44.4-9.67.56-3.92.2-7.84.38-11.76.59-.86.05-1.71.19-2.56.32-1.8.27-2.75-.25-3.3-2.02-.91-2.95-1.21-6-1.39-9.07-.04-.74-.17-1.49-.39-2.2-.71-2.4-.83-4.87-.91-7.34-.03-.85-.12-1.72-.37-2.52-1.23-3.93-1.65-8.01-2.18-12.06-1.25-9.44-2.3-18.91-3.6-28.34-.74-5.32-1.7-10.63-2.8-15.89-1.49-7.07-1-13.92.99-20.87,3.65-12.77,7.05-25.62,10.32-38.49,1.27-4.99,1.86-10.15,2.81-15.23,2.25-12,4.41-24.02,6.84-35.99,2.41-11.91,5.12-23.77,7.67-35.66.8-3.72,2.38-6.95,4.99-9.78,1.55-1.68,2.76-3.7,4.01-5.64,2.44-3.8,4.87-7.62,7.16-11.51,1.01-1.7,1.75-3.57,2.5-5.4,1.42-3.44,2.32-7.03,2.73-10.88Z"/>
        <path class="cls-2" d="m147.88,401.42c2.11-.15,4.09-.25,6.05-.44,3.48-.34,6.94-.79,10.42-1.09,1.2-.1,2.42.11,3.69.18-.14-.27-.3-.64-.52-.97-1.89-2.88-3.67-5.83-5.7-8.61-4.21-5.77-6.93-12.22-9.1-18.97-3.71-11.53-6.66-23.26-9.31-35.08-1.03-4.58-2.38-9.05-4.11-13.4-1.99-5.01-3.75-10.09-4.77-15.39-.38-1.94-.54-3.94-.62-5.92-.11-2.69.7-5.15,1.93-7.56,1.79-3.49,3.31-7.11,4.95-10.67.9-1.95,1.77-3.92,2.73-5.84.32-.64.69-1.61,1.56-1.38.96.26.86,1.32.71,2.08-.35,1.79-.65,3.63-1.33,5.3-1.11,2.73-2.5,5.35-3.81,8-.38.77-.85,1.49-1.28,2.24-1.46,2.53-1.88,5.22-1.39,8.09.81,4.74,2.07,9.38,3.87,13.8,2.99,7.36,5.02,14.98,6.91,22.66,2.99,12.18,6.38,24.24,10.67,36.03,2.93,8.05,6.57,15.78,10.63,23.32.36.66.74,1.32,1.01,2.02,1.81,4.61,4.89,8.31,8.32,11.77.7.7,1.42,1.43,1.18,2.5-.28,1.22-1.2,1.92-2.39,2.13-2.06.36-4.14.65-6.21.96-3.08.47-6.17.89-9.24,1.43-1.37.24-2.72.65-4.05,1.06-2.74.84-5.55,1.28-8.4,1.49-.8.06-1.62.06-2.41-.05-2.93-.41-4.77-2.23-5.12-5.17-.17-1.38-.18-2.79-.16-4.19.03-1.94.12-3.87.23-5.8.4-6.65-.64-13.08-2.9-19.33-2.55-7.07-6.06-13.64-10.11-19.96-5.72-8.92-11.42-17.86-16.23-27.32-3.31-6.5-5.05-13.34-4.71-20.68.13-2.8.97-5.38,1.76-8,.17-.59.59-1.02,1.18-.78.35.14.73.68.75,1.06.11,2.2.26,4.41.12,6.6-.46,7.12.9,13.83,4.3,20.08,2.62,4.82,5.34,9.58,8.16,14.28,4.7,7.84,9.57,15.59,14.25,23.44,1.68,2.81,3.07,5.79,4.54,8.73,2.44,4.89,3.57,10.12,3.81,15.56.02.58.09,1.15.14,1.83Z"/>
        <path class="cls-2" d="m293.72,251.82c-.2.81-.43,1.91-.73,3-1.29,4.78-2.69,9.52-3.86,14.33-1.19,4.92-.96,9.82.72,14.63,1.54,4.42,3.12,8.82,4.53,13.28,1.64,5.18,2.98,10.45,4.67,15.61,2.13,6.49,4.49,12.9,6.73,19.35.79,2.29,1.58,4.58,2.26,6.9,1.78,6.1.21,11.35-4.18,15.84-2.46,2.52-5.35,4.51-8.36,6.3-8.84,5.24-17.71,10.42-26.57,15.61-1.16.68-2.33,1.34-3.49,2.02-1.19.71-2.48,1.04-3.85,1.04-1.25,0-1.71-.8-1.18-1.94.66-1.4,1.64-2.52,2.99-3.28,3.5-2,7.03-3.95,10.52-5.98,4.65-2.71,9.27-5.46,13.89-8.21,3.28-1.95,6.58-3.88,9.8-5.91,1.22-.77,2.36-1.72,3.36-2.76,3.04-3.17,4.31-6.91,3.16-11.26-.75-2.81-1.64-5.57-2.49-8.35-2.33-7.56-4.6-15.13-7.03-22.65-1.85-5.73-3.98-11.37-5.85-17.1-1.17-3.57-2.18-7.2-3.08-10.86-.78-3.18-.52-6.4.19-9.6,1.43-6.4,2.8-12.82,4.2-19.23.17-.79.37-1.58.65-2.33.37-.97.93-1.34,1.66-1.23.7.11,1.13.66,1.26,1.66.04.27.03.54.06,1.11Z"/>
        <path class="cls-2" d="m451.18,29.31c-.49-2.31.76-4.52.74-7-3.58,1.41-6.7,3.24-9.82,5.51.5.31.82.56,1.18.73,1.26.6,2.53,1.2,3.81,1.74,1.6.67,2.79,1.78,3.72,3.22,1.77,2.74,3.13,5.67,3.58,8.91.56,3.99,1.73,7.78,3.48,11.37,1.91,3.91.52,5.84-2.73,7.37-.48.23-.97.46-1.55.73.11.45.32.9.31,1.34-.02.79.07,1.71-.29,2.35-1.93,3.4-4.69,5.65-8.81,5.81-3.25.12-6.3-.68-9.2-2.05-2.83-1.34-5.49-2.95-7.8-5.11-.08-.07-.21-.12-.24-.2-.11-.31-.18-.64-.26-.96.29-.02.63-.15.87-.06,1.25.5,2.49,1.02,3.69,1.6,1.6.77,3.14,1.67,4.75,2.4,3.12,1.42,6.37,2.5,9.83,1.88,1.77-.32,3.56-.96,5.1-1.86.76-.44,1.07-1.78,1.41-2.77.2-.57.04-1.27.04-2.05-.39.1-.77.19-1.15.31-.66.22-1.33.44-1.98.69-3.32,1.25-6.63,1.21-9.94,0-1.46-.54-2.93-1.07-4.36-1.69-.6-.26-1.36-.57-1.33-1.43.01-.51.84-.78,1.97-.55.99.2,2,.47,2.92.88,3.92,1.76,7.81,1.72,11.7-.06,1.27-.58,2.6-1.05,3.82-1.72,1.69-.91,1.79-1.49,1.1-3.28-1.08-2.81-2.11-5.63-3.11-8.47-.32-.9-.44-1.87-.7-3-.37.36-.64.58-.86.84-.28.33-.48.72-.77,1.03-.45.48-.97.92-1.69.66-.71-.26-.92-.9-.88-1.58.11-1.91.75-3.56,2.39-4.7.26-.18.51-.36.84-.6-.75-2.07-1.66-4.01-3.09-5.65-.44-.51-1.06-.93-1.68-1.21-5.71-2.55-11.16-5.55-16.55-8.71-3.13-1.83-6.6-2.85-10.1-3.75-1-.26-1.8.06-2.6.53-3.1,1.84-6.19,3.69-9.27,5.56-1.93,1.17-3.82,2.4-5.75,3.59-.41.25-.85.49-1.31.61-.28.07-.62-.09-.94-.15-.09-.17-.18-.33-.26-.5.29-.14.61-.24.87-.42,4.93-3.36,9.89-6.69,14.77-10.12,2.07-1.45,4.13-1.67,6.54-.94,3.98,1.21,7.84,2.64,11.44,4.75,2.36,1.38,4.78,2.66,7.01,3.89,2.23-1.52,4.22-2.96,6.3-4.27,1.27-.8,2.65-1.42,4-2.09.43-.22.89-.39,1.36-.51,1.6-.39,2.53.29,2.53,1.97,0,2.27-.8,4.32-1.92,6.25-.22.38-.52.72-.78,1.08l-.41-.14Z"/>
        <path class="cls-2" d="m105.24,214.93c-1.74,1.54-3.45,3.06-5.34,4.74-.57-1.27-1.08-2.31-1.51-3.39-4.29-10.69-7.92-21.6-10.42-32.86-1.37-6.21-2.21-12.49-2.46-18.85-.08-2.14.09-4.3.13-6.44.02-.8-.02-1.61-.03-2.42-.01-.97.35-1.56,1.01-1.54.81.02,1,.6,1.14,1.29,1.28,6.22,1.99,12.51,2.78,18.81,1.12,8.91,3.75,17.43,7.31,25.66,2.07,4.79,4.21,9.54,6.88,14.03.16.27.29.56.49.96Z"/>
        <path class="cls-2" d="m275.27,338.39c-.1,1.13-.27,3.32-.49,5.51-.31,3.02-1.73,5.49-3.85,7.61-.38.38-.77.61-1.28.38-.59-.27-.59-.77-.53-1.36.5-5.02.99-10.04,1.44-15.07.56-6.18-.49-12.22-1.73-18.23-1.66-8.05-3.37-16.1-5.04-24.15-.61-2.95-1.17-5.9-1.74-8.86-.07-.37-.13-.75-.12-1.12.02-.95.56-1.69,1.4-1.97.9-.3,1.84,0,2.36.9.4.69.69,1.46.93,2.22.9,2.84,1.23,5.78,1.48,8.73.81,9.34,2.44,18.53,4.81,27.6,1.43,5.47,2.31,11.04,2.37,17.8Z"/>
        <path class="cls-2" d="m147.31,63.67c.65-.74,1.44-.59,2.17-.58,3.44.04,6.88-.09,10.28-.64,2.76-.45,5.52-.92,8.09-2.09,1.02-.46,2.08-.94,2.97-1.61,5.31-4.04,9.3-9.05,11.14-15.58.19-.67.29-1.37.47-2.04.18-.67.33-1.37.62-2,.47-1.04,1.6-1.72,2.41-1.56.78.15,1.77,1.24,1.82,2.25.05,1.01-.02,2.04-.19,3.04-.7,3.98-2.46,7.55-4.43,11.02-4.81,8.45-12.17,12.81-21.81,13.31-2.56.13-5.16,0-7.7-.32-1.55-.2-3.04-.98-4.52-1.59-.63-.26-1.21-.72-1.31-1.6Z"/>
        <path class="cls-2" d="m383.64,24.61c-.68.94-.78,1.88-.79,2.86-.01,4.75,1.11,9.27,2.83,13.64.66,1.69,1.58,3.28,2.33,4.93.11.23-.03.57-.05.86-.29-.06-.7-.03-.84-.2-1.11-1.44-2.38-2.81-3.22-4.4-2.39-4.55-3.32-9.51-3.43-14.62-.03-1.36.18-2.68.83-3.9.83-1.54,1.86-2.02,3.45-1.31,2.94,1.3,5.87,2.65,8.71,4.15,2.21,1.17,3.97,2.93,5.46,4.94.35.47,1.05,1.08.4,1.66-.66.59-1.19-.15-1.61-.58-3.73-3.86-8.45-6.02-13.36-7.85-.2-.07-.41-.1-.73-.18Z"/>
        <path class="cls-2" d="m120.4,274.7c.04.73.18,1.48.11,2.2-.69,7-1.17,14.03-2.86,20.89-.53,2.13-1.36,4.18-2.06,6.26-.17.51-.47.88-1.06.75-.58-.14-.66-.61-.64-1.14.13-4.89.44-9.77,1.49-14.56.89-4.03,1.99-8.02,3.03-12.02.17-.67.48-1.31.82-1.92.15-.27.51-.43.78-.65.13.06.26.12.39.18Z"/>
        <path class="cls-2" d="m413.6,48.46c-3.29,0-6.39-.75-9.18-2.56-1.73-1.12-1.91-2.34-.47-3.8,2.11-2.13,4.73-2.65,7.59-2.17,2.05.34,4,1.03,5.23,2.85.56.82.99,1.8,1.21,2.76.31,1.36-.33,2.24-1.67,2.71-.25.09-.52.19-.78.2-.64.03-1.29,0-1.93,0Zm-4.61-2.74v-3.96c-1.55-.17-2.68.61-3.6,2.21,1.22.59,2.39,1.16,3.6,1.75Zm4.44-3.13c.09,1.39.17,2.48.25,3.75.69-.09,1.39-.19,2.13-.29-.18-1.68-1.02-2.61-2.38-3.46Z"/>
        <path class="cls-2" d="m442.02,76.02c-4.11,1.67-10.79,2.29-13.27,1.31-.12-.62.34-.7.76-.77,2.16-.38,4.33-.76,6.5-1.1,1.75-.27,3.5-.51,5.26-.73.67-.09,1.35-.1,2.16-.15.33-.3.74-.73,1.2-1.09.5-.4,1.07-.57,1.58,0,.44.5.03.88-.25,1.27-1.94,2.7-3.84,5.44-5.84,8.11-1.92,2.56-4.25,4.69-7.11,6.19-.19.1-.37.28-.56.3-.23.03-.48-.07-.71-.11.05-.24.07-.5.16-.72.05-.14.23-.22.34-.34,3.49-3.59,6.59-7.5,9.54-11.53.09-.12.12-.27.26-.62Z"/>
        <path class="cls-2" d="m169.7,47.04c.11,1.91-1.14,3.5-3.07,4.61-1.83,1.05-3.44.16-4.93-.85-1.3-.88-1.68-2.4-1.17-4.03.19-.61.44-1.21.71-1.79.48-1.03,1.28-1.71,2.4-1.97.63-.15,1.26-.29,1.9-.35,2.51-.25,4.21,1.36,4.17,4.38Z"/>
        <path class="cls-2" d="m394.53,97.72c-.08-1.46-.31-2.93-.22-4.39.27-4.48,0-8.92-.75-13.34-.72-4.23-.74-8.45-.02-12.68.44-2.6.84-5.2,1.32-7.79.13-.69.3-1.48,1.33-1.92.06.54.17.93.14,1.32-.25,3.7-.64,7.4-.76,11.1-.12,3.76.04,7.53.03,11.29-.02,4.25-.07,8.5-.16,12.74-.03,1.24-.11,2.5-.54,3.68h-.37Z"/>
        <path class="cls-2" d="m439.31,46.5c-1.33-.14-2.69-.15-3.99-.44-1.77-.39-3.07-1.51-3.79-3.21-.29-.68-.33-1.38.23-1.96.52-.54,1.19-.44,1.81-.2,1.65.64,3.34,1.22,4.93,2,.9.43,1.68,1.14,2.42,1.83.28.27.46.87.37,1.25-.06.26-.63.46-1.01.58-.29.09-.64.02-.96.02,0,.04,0,.09,0,.13Z"/>
        <path class="cls-2" d="m417.71,139.82c5.91-13.09,13.06-25.62,17.11-39.52.1.03.21.06.31.08-.04.36-.04.73-.11,1.08-1.04,4.74-2.45,9.36-4.65,13.71-3.9,7.72-7.83,15.43-11.76,23.14-.27.52-.6,1.01-.9,1.51Z"/>
        <path class="cls-2" d="m419.38,41.56c-1.2.34-1.77-.16-2.27-.73-.49-.57-.86-1.25-1.4-1.76-1.08-1.03-2.17-2.09-3.41-2.9-.9-.59-2.04-.81-3.26-1.27-.25-.52.09-.94.77-1.07.4-.08.86-.02,1.27.08,3.43.86,5.88,3.01,7.72,5.93.29.46.36,1.06.58,1.72Z"/>
        <path class="cls-2" d="m392.54,114.24c1.44-5.13,2.67-10.28,2.85-15.87,1.83,3.12.06,12.66-2.85,15.87Z"/>
        <path class="cls-2" d="m391.57,36.44c-3.06-2.92-5.05-6.47-8.3-8.86.13-.53.53-.7.96-.52.58.25,1.15.58,1.63.99,2.44,2.08,4.13,4.75,5.7,7.49.08.15.01.39.01.9Z"/>
        <path class="cls-2" d="m441.78,39.95c-.68-.23-1.37-.43-2.05-.68-.9-.33-1.78-.71-2.68-1.04-.56-.2-1-.51-.83-1.15.17-.63.74-.77,1.29-.64,1.48.34,2.83.98,3.86,2.15.26.3.47.63.71.95-.1.14-.2.28-.3.42Z"/>
        <path class="cls-2" d="m448.39,26.46c-.51.8-.99,1.61-1.54,2.38-.14.19-.51.22-.77.33-.1-.32-.38-.74-.27-.95.51-1,1.36-1.63,2.59-1.75Z"/>
        <path class="cls-2" d="m449.23,36.99c.03.31.1.5.04.6-.21.32-.47.61-.71.91-.15-.13-.46-.31-.44-.38.13-.36.31-.71.53-1.03.06-.09.29-.05.58-.1Z"/>
      </g>
    </g>
  </g>
</svg>