<?xml version="1.0" encoding="UTF-8"?>
<svg id="Layer_2" data-name="Layer 2" xmlns="http://www.w3.org/2000/svg" viewBox="0 0 422.82 481.85">
  <defs>
    <style>
      .cls-1 {
        fill: #1d1e1e;
        stroke-width: 0px;
      }
    </style>
  </defs>
  <g id="Layer_1-2" data-name="Layer 1">
    <g>
      <path class="cls-1" d="m355.62,155.76c.97-.55,1.93-1.03,2.82-1.62,2.16-1.41,4.67-1.82,7.06-2.57.96-.3,1.93.13,2.43.83.61.84.41,1.87-.08,2.89-1.32,2.73-2.98,5.18-5.15,7.29-.08.07-.09.22-.21.53.31.42.67.95,1.07,1.45,10.11,12.63,19.2,25.95,26.74,40.27,2.46,4.67,4.62,9.49,6.91,14.25,2.37,4.92,4.71,9.85,7.09,14.76,2.28,4.72,4.07,9.61,5.04,14.78.14.75.4,1.52.76,2.2,1.68,3.19,2.5,6.62,2.87,10.15.18,1.71.33,3.48.1,5.18-.52,4.01-2.72,6.87-6.56,8.29-1.21.45-2.2,1.12-3.15,1.98-2.23,1.99-4.6,3.82-7.41,5.17.65.45,1.32.94,2.02,1.38,1.66,1.04,2.58,2.64,3.29,4.38.52,1.28-.5,2.45-1.89,2.16-1.58-.33-3.17-.67-4.53-1.64-.34-.24-.71-.44-1.08-.65-3.9-2.18-7.98-2.87-12.31-1.5-6.2,1.96-12.57,3.14-18.98,4.07-7.52,1.09-15.05,1.39-22.59.15-3.28-.54-6.42-1.52-9.32-3.17-2.23-1.27-4.1-2.94-5.32-5.23-.38-.71-.65-1.58-.63-2.38.02-1.52,1.32-2.18,2.67-1.48.26.14.53.3.74.51,1.75,1.67,3.93,2.49,6.18,3.19,4.34,1.36,8.81,1.77,13.33,1.81,7.67.06,15.17-1.2,22.64-2.77,3.11-.65,6.23-1.25,9.37-1.72,5.28-.8,10.43-.52,15.28,2.38.14-.6.12-1.16.39-1.49.27-.33.86-.36,1.26-.61,1.36-.86,2.69-1.76,4.38-2.87-.69-.12-.99-.19-1.29-.23-2.19-.25-3.7-1.46-4.4-3.48-.41-1.16-.65-2.47-.56-3.69.15-1.96.61-3.9,1.01-5.83.09-.43.4-.91.75-1.17.97-.69,1.94-1.48,3.04-1.84,1.15-.38,2.45-.39,3.69-.39,1.01,0,2.02.21,3.01.43,1.26.28,2.5.65,3.79.99.03-.15.12-.32.1-.48-.66-4.23-1.58-8.35-4.09-11.97-1.15-1.67-2.06-3.51-3.06-5.28-1.59-2.82-3.15-5.66-4.75-8.47-1.4-2.45-2.81-4.88-4.26-7.3-.68-1.13-1.33-2.3-2.21-3.27-6.21-6.91-11.16-14.69-15.72-22.74-3.23-5.69-6.22-11.52-9.76-17.01-3.25-5.03-7.08-9.68-10.66-14.49-.17-.23-.42-.41-.79-.76-.53.33-1.12.61-1.6,1.01-2.55,2.18-5.07,4.39-7.61,6.58-3.72,3.21-7.37,6.52-11.2,9.59-4.86,3.9-9.91,7.58-14.82,11.43-2.17,1.7-4.26,3.51-6.27,5.4-5.61,5.28-11.85,9.76-18.09,14.23-.86.61-1.7,1.26-2.73,2.03.59.34.9.59,1.26.72,10.55,3.58,17.84,10.85,22.74,20.58,3.52,6.99,4.31,14.45,2.1,22.06-1.44,4.99-4.06,9.35-7.76,13-5.42,5.34-11.9,8.86-19.22,10.84-1.72.47-3.51.71-5.43,1.08.19.39.28.73.49.97,6.3,7.55,12.19,15.46,19,22.58,4.07,4.26,8.38,8.25,13.28,11.56,6.36,4.29,13.26,6.92,20.99,7.22,2.64.1,5.26.38,7.9.5.76.03,1.57-.09,2.28-.35,3.49-1.28,6.95-2.63,10.42-3.97.44-.17.86-.42,1.27-.68,3.5-2.21,6.95-4.5,10.5-6.63,2.25-1.35,4.6-2.57,6.98-3.69,1.4-.65,2.96-.83,4.52-.34,1.33.41,2.35,1.16,2.91,2.47.31.71.63,1.43,1,2.11.88,1.61.32,3.09-.23,4.62-1.31-.02-2.18-.63-2.5-1.62-.63-1.94-2.19-3.08-3.43-4.5-.13.03-.29.01-.35.08-3.56,3.94-7.81,7.11-11.92,10.4-5.89,4.72-12.5,8.28-19.7,10.62-5.96,1.94-11.98,1.36-17.95-.02-7.1-1.65-13.17-5.35-18.94-9.65-7.71-5.74-14.35-12.55-20.42-19.95-5.22-6.35-10.42-12.71-15.63-19.07-.42-.51-.91-.96-1.3-1.49-1.09-1.45-2.54-2.31-4.25-2.86-2.31-.73-4.36-1.93-6.28-3.43-1.47-1.15-2.46-2.62-3.3-4.21-1.33-2.51-.26-5.34,2.38-6.39,2.16-.86,4.31-1.04,6.34.43,1.12.81,2.21,1.65,3.38,2.37.8.48,1.69,1.03,2.58,1.1,10.83.85,19.81-2.7,26.47-11.47,3.02-3.98,3.65-8.49,2.74-13.33-1.38-7.41-10.12-18.74-21.6-20.35-1.25-.17-2.51-.18-3.76-.34-.95-.12-1.91-.26-2.8-.57-.87-.31-1.56-.23-2.38.18-5.66,2.77-11.32,5.51-17.02,8.2-1.73.82-3.58,1.4-5.33,2.18-2,.88-3.96,1.86-5.97,2.81-.03.15-.11.33-.09.49.63,7.04-.24,14.02-.84,21.01-.31,3.59-.68,7.17-1.14,10.74-.26,1.95-.68,3.9-1.21,5.79-.25.88-.84,1.72-1.44,2.44-1.91,2.33-4.31,3.25-7.35,2.54-8.37-1.96-15.32,1.03-21.5,6.44-2.92,2.55-5.29,5.56-7.04,9.03-1.48,2.95-2.25,6.04-2,9.38.21,2.86,1.57,4.78,4.37,5.45,2.09.5,4.22.91,6.36,1.15,5.96.68,11.95,1.1,17.89,1.9,5.73.77,11.24,2.45,16.48,4.97,9.76,4.68,16.03,12.36,19.42,22.51,3.56,10.66,3.87,21.56,2.01,32.55-2.3,13.58-7.47,26.02-15.43,37.27-8.39,11.86-18.01,22.61-29.13,31.99-4.51,3.8-9.37,7.12-14.71,9.64-1.77.84-3.73,1.27-5.63,1.81-.81.23-1.56-.08-2.05-.8-.52-.77-.54-1.62.01-2.36,1.98-2.63,3.88-5.3,6.33-7.56,5.74-5.28,11.43-10.61,17.02-16.06,8.79-8.57,16.85-17.8,23.11-28.41,7.53-12.77,11.6-26.55,10.94-41.53-.23-5.07-1.2-9.99-2.98-14.76-2.66-7.11-7.41-12.24-14.33-15.35-.6-.27-1.21-.53-1.81-.8-2.62-1.18-5.19-1.48-8.17-1-11.61,1.85-22.19,6.06-31.71,12.91-7.7,5.55-14.32,12.2-19.9,19.9-3.4,4.68-6.31,9.64-8.7,14.9-2.33,5.14-4.53,10.33-6.84,15.48-4.88,10.89-6.37,22.3-5.49,34.11.35,4.68,1,9.3,2.33,13.81,1.21,4.08,3.12,7.8,5.83,11.08,7.48,9.06,16.7,15.39,28.23,18.19,7.7,1.87,15.42,3.62,23.34,4.24,4.88.38,9.72-.02,14.52-.84,2.77-.47,5.49-1.21,8.25-1.8,1.04-.22,2.07-.24,3.16-.13,2.2.21,4.44.21,6.65.14,6.88-.21,13.49.91,19.84,3.59,1.04.44,2.12.85,3.46.07-.5-.59-.87-1.22-1.41-1.62-1.01-.75-2.07-1.44-3.18-2.02-4.83-2.53-10.01-3.99-15.39-4.75-1.01-.14-2-.37-3-.59-.4-.09-.82-.23-1.16-.46-.7-.47-.65-1.22.13-1.51.54-.2,1.18-.28,1.76-.25,6.93.4,13.7,1.52,20.13,4.27,1.78.76,3.42,1.73,4.81,3.11.91.91,1.58,1.95,1.88,3.22.24.97-.01,1.79-.78,2.42-1.68,1.36-3.49,2.21-5.76,2.08-3.6-.21-7.18-.51-10.7-1.32-3.53-.81-7.1-1.14-10.72-1.03-1.43.04-2.87-.17-4.3-.21-3.62-.12-7.21.27-10.66,1.36-6.12,1.94-12.39,2.11-18.7,1.69-9.83-.65-19.56-2.18-29.25-3.84-7.41-1.27-13.98-4.68-20.03-9.01-5.57-3.99-10.31-8.8-13.61-14.89-2.43-4.48-3.95-9.28-4.81-14.27-2.15-12.49-2.28-24.95,1-37.31,1.41-5.29,3.48-10.35,5.67-15.35,2.99-6.81,5.8-13.71,9.6-20.13,8.75-14.8,20.3-26.83,35.34-35.35,1.98-1.12,4.08-2.04,6.12-3.06.51-.25,1-.52,1.51-.78-.02-.12-.04-.25-.07-.37-.56-.14-1.12-.29-1.68-.41-2.47-.53-4.88-1.24-7.13-2.42-4.65-2.44-6.94-6.44-7.62-11.5-.78-5.81.44-11.28,3.27-16.31,5.63-10.01,13.74-17,25.07-19.85,3.35-.84,6.75-1.04,10.18-.59,1.76.23,1.86.23,2.14-1.5.75-4.56,1.46-9.12,2.1-13.7.62-4.4,1.1-8.81,1.74-13.2.16-1.12-.04-1.96-.92-2.83-.37.06-.84.09-1.29.2-7.89,1.92-15.88,3.17-23.97,3.8-.12,0-.24.04-.36.03-1.77-.15-2.52.74-3.19,2.37-2.03,4.93-4.23,9.8-6.54,14.61-6.26,13.04-12.77,25.95-18.87,39.06-7.77,16.7-15.22,33.54-22.85,50.31-2.51,5.51-5.09,10.99-7.79,16.42-.84,1.69-2.16,3.15-3.27,4.71-.66.92-1.4,1.8-2.02,2.74-1.02,1.54-2.35,2.12-3.79,1.54-1.38-.56-1.95-1.84-1.74-3.55.24-1.96.31-3.94.56-5.89.54-4.14,2.11-7.99,3.52-11.88,3.18-8.82,7.23-17.26,11.21-25.73,4.4-9.33,8.95-18.59,13.44-27.89.21-.43.4-.87.42-1.56-.39.25-.81.48-1.18.77-6.9,5.49-13.81,10.97-20.68,16.5-2.29,1.84-4.95,2.91-7.64,3.9-1.78.66-3.15-.2-4.34-1.42-1.1-1.13-.91-2.45-.25-3.67,1.8-3.32,3.6-6.64,5.55-9.88,2.26-3.75,4.71-7.39,7.03-11.1,2.61-4.19,4.59-8.7,6.27-13.33.99-2.72,1.58-5.54,1.53-8.46-.03-1.94-.4-3.82-1.3-5.56-.92-1.75-2.36-2.64-4.35-2.7-1.8-.05-3.43.46-5,1.29-2.8,1.48-5.08,3.6-7.16,5.95-4.29,4.84-7.69,10.29-10.57,16.04-9.27,18.49-15.73,37.89-18.12,58.5-2.55,22-.2,43.47,7.49,64.29,1.2,3.26,2.49,6.5,3.71,9.75.42,1.12.7,2.29,1.1,3.42.65,1.87,1.19,3.79,2.04,5.56,1.79,3.73,3.69,7.41,5.64,11.06,2.69,5.02,5.46,10,8.21,14.98.33.59.46,1.14-.12,1.6-.61.48-1.1.11-1.58-.3-4.88-4.08-9.02-8.79-12.09-14.38-2.39-4.36-4.63-8.81-6.98-13.2-.53-.99-1.27-1.87-1.89-2.82-.76-1.14-1.6-2.25-2.26-3.45-4.07-7.36-6.6-15.28-8.47-23.45-3.66-15.96-5.17-32.08-3.89-48.43,1.31-16.77,5.53-32.85,11.62-48.48,3.6-9.24,7.64-18.27,12.99-26.65,3.27-5.13,6.87-9.99,11.59-13.91,3.23-2.69,6.78-4.72,11.02-5.35,7.01-1.04,12.59,2.48,14.67,9.23,1.07,3.47,1.14,6.96.33,10.49-1.11,4.83-2.88,9.42-5.45,13.65-3.21,5.28-6.58,10.46-9.89,15.68-.37.59-.75,1.17-.88,2,.47-.31.95-.62,1.41-.94,4.79-3.3,9.52-6.7,14.39-9.87,2.14-1.4,4.55-2.41,6.88-3.5.91-.42,1.96-.78,2.94-.76,1.42.02,1.94-.74,2.52-1.82,3.68-6.81,7.39-13.6,11.15-20.36,4.58-8.24,9.83-16.07,15.11-23.87.3-.45.59-.9.86-1.37.05-.09,0-.23,0-.51-.62-.05-1.25-.13-1.88-.16-6.83-.32-13.45-1.6-19.81-4.16-3.19-1.29-6.18-2.94-8.82-5.16-2.09-1.75-3.81-3.78-4.98-6.3-.75-1.62-1.77-3.11-2.72-4.73-.37.21-.65.31-.86.49-10.17,8.71-20.14,17.61-29.15,27.55-10.99,12.13-19.8,25.73-27.48,40.14-11.09,20.8-16.93,43.14-19.83,66.35-1.27,10.19-1.7,20.44-1.46,30.72.16,6.82,1.32,13.42,3.43,19.95,3.09,9.54,6.68,18.89,10.23,28.25.34.89.66,1.81.83,2.74.27,1.44-.22,2.43-1.25,2.88-1.05.46-2.06.15-2.87-1.15-1.61-2.6-3.18-5.23-4.65-7.91-3.21-5.84-6.06-11.85-8.4-18.1-.8-2.13-1.94-4.13-2.7-6.26-.89-2.54-1.7-5.13-2.26-7.76-1.58-7.42-2.11-14.96-2.21-22.53-.22-17.38,2.66-34.31,7.81-50.85,2.4-7.73,5.23-15.33,8.02-22.93,2.26-6.13,4.61-12.24,7.18-18.25,6.07-14.18,14.47-26.91,24.53-38.58,9.51-11.04,20.29-20.75,31.37-30.15,1.46-1.24,2.95-2.45,4.43-3.68,1.32-1.09,1.28-1.1.82-2.74-1.46-5.13-3.21-10.21-4.28-15.42-3.59-17.55-6.01-35.25-5.64-53.23.04-1.8.12-3.6.17-5.4,0-.28-.09-.57-.18-1.06-.56,0-1.08-.05-1.59,0-13.89,1.49-27.52,4.18-40.74,8.74-15.1,5.21-28.58,13.26-40.76,23.54-26.07,22.01-42.64,49.83-50.52,82.91-4.39,18.42-6.48,37.09-5.87,56.05.42,13.19,2.32,26.16,5.33,38.99.62,2.63,1.29,5.24,1.88,7.88,1.33,5.84,3.89,11.21,6.42,16.58,4.71,9.99,9.55,19.9,15.47,29.26,6.27,9.9,12.99,19.45,21,28.06,1.42,1.53,2.57,3.31,3.87,4.95.7.89,1.42,1.77,2.18,2.61.93,1.03,1.07,2.15.3,3.07-.72.85-1.79.98-2.92.34-.57-.32-1.11-.75-1.72-.96-5.18-1.81-9.27-5.23-13.22-8.84-8.58-7.85-15.43-17.07-21.23-27.1-6.3-10.88-11.43-22.3-15.69-34.13-1.24-3.44-2.84-6.75-4.24-10.14-3.22-7.75-5.25-15.82-6.51-24.09-3.2-20.99-2.93-41.97.12-62.94,1.71-11.77,4.1-23.4,7.65-34.77,5.45-17.46,13.74-33.48,24.51-48.24,11.48-15.73,25.43-28.86,41.65-39.6,10.72-7.09,22.27-12.49,34.39-16.72,12.77-4.46,25.97-6.81,39.36-8.29.18-.02.36-.04.54-.06,2.2-.25,2.16-.26,2.68-2.39.49-1.98,1.02-3.95,1.64-5.89.48-1.49,1.18-2.9,2.46-3.91.73-.57,1.55-1,2.49-.6.92.39,1.48,1.54,1.24,2.74-.5,2.41-1.07,4.8-1.67,7.18-.89,3.57-1.39,7.19-1.45,10.86-.33,20.78,1.17,41.38,6.43,61.57,1.07,4.11,2.54,8.13,3.9,12.16.48,1.41,1.17,2.76,1.83,4.11,5.55,11.32,14.81,17.15,27.21,18.13,8.64.68,17.11-.54,25.48-2.71,10.5-2.71,20.51-6.71,30.35-11.2,10.05-4.59,19.82-9.72,29.38-15.26,1.41-.82,1.93-1.75,2.02-3.4.57-10,1.25-20,1.96-29.99.59-8.32,1.44-16.62,2.97-24.83,1.31-7.05,3.18-13.92,6.52-20.32,2.24-4.29,5.01-8.2,8.79-11.28,5.59-4.55,11.81-5.57,18.57-3.09,5.81,2.14,10.26,6.1,14.18,10.75,4.05,4.81,7.02,10.3,9.92,15.83,2.4,4.58,4.59,9.24,6.17,14.17.45,1.4.91,2.85,2.01,4.09Zm-5.33,3.7c-1.06-1.38-2.04-2.73-3.1-4.01-2.18-2.64-4.29-5.32-5.93-8.35-1.86-3.43-3.67-6.88-5.54-10.29-2.35-4.27-5.07-8.28-8.59-11.7-1.9-1.85-3.99-3.44-6.44-4.53-3.88-1.74-7.34-1.18-10.43,1.76-2.02,1.92-3.63,4.15-4.99,6.56-2.32,4.11-3.79,8.54-4.95,13.08-1.61,6.35-2.56,12.82-3.23,19.32-1.17,11.39-2.27,22.79-3.39,34.19-.04.39,0,.8,0,1.23,3.47-.97,51.77-32.76,56.58-37.27Z"/>
      <path class="cls-1" d="m267.86,98.47c-.4,17.38-5.54,35.07-16.7,50.88-4.18,5.93-8.16,12-12.87,17.55-9.09,10.69-19.14,20.36-30.18,29-1.65,1.29-3.48,2.33-5.21,3.52-1.13.78-2.31,1.52-3.32,2.44-4.19,3.78-8.44,7.48-13.25,10.48-.74.46-1.37,1.16-1.93,1.86-1.32,1.63-3.11,2.53-5.04,2.92-2.17.43-5.13-1.7-5.55-3.44-.75-3.11,0-6.08,3.46-7.8.96-.48,1.87-1.07,2.75-1.67,5-3.41,9.95-6.91,15.01-10.25,3.16-2.08,6.22-4.28,9.15-6.67,8.88-7.26,17.56-14.73,25.49-23.03,10.99-11.51,19.66-24.48,24.61-39.75,2.92-9.01,3.9-18.26,3.69-27.69-.58-26.11-10.19-48.57-27.47-67.87-5.53-6.17-12.02-11.21-19.64-14.64-8.79-3.96-18.06-5.19-27.61-4.37-13.9,1.19-26.48,6.01-37.79,14.15-3.88,2.8-7.22,6.16-9.55,10.38-.84,1.51-1.55,3.13-2.07,4.77-1.72,5.37-.97,10.42,2.22,15.09,2.26,3.31,5.18,5.97,8.34,8.39,5.2,3.99,10.86,7.27,16.48,10.62,7.01,4.19,14.01,8.37,20.42,13.45,3.58,2.84,7.06,5.78,9.8,9.48,4.27,5.77,6.37,12.21,5.56,19.41-.56,4.96-2.68,9.29-6,13.03-4.57,5.15-10.54,7.78-17.01,9.52-1.56.42-3.13.85-4.61,1.48-3.54,1.5-7.02-1.03-6.87-4.78.15-3.68,2-6.48,5.03-8.47.65-.43,1.59-.49,2.41-.6,3.72-.48,7.07-1.89,10.01-4.18,5-3.91,6.33-9.7,3.65-15.46-1.4-3-3.56-5.39-5.99-7.57-4.93-4.42-10.38-8.13-15.98-11.65-6.76-4.24-13.54-8.44-20.16-12.89-5.05-3.39-9.53-7.49-12.98-12.57-7.08-10.43-7.12-21.08-.78-31.81,4.28-7.25,10.43-12.66,17.6-16.91C160.07,3.84,176.36-.84,194.03.12c11.97.65,23.14,3.97,33.02,10.99,6.31,4.48,11.68,9.94,16.46,16,9.44,11.96,15.57,25.56,19.76,40.1,3.1,10.75,4.57,20.59,4.59,31.25Z"/>
      <path class="cls-1" d="m118.8,156.88c4.65.04,9.04.6,13.28,2.07,7.04,2.44,11.97,7.14,14.83,14,2.9,6.94,3.01,14.12,1.65,21.4-2.12,11.36-7,21.53-13.57,30.91-10.5,15-24.09,26.47-40.48,34.58-8.63,4.27-17.76,6.93-27.38,7.73-3.77.32-7.57.36-11.3-.37-5.64-1.1-9.98-4.02-12.36-9.39-.93-2.1-1.24-4.39-1.12-6.69.24-4.47,1.79-8.53,4.07-12.35,3.52-5.9,8.2-10.77,13.41-15.16,6.6-5.56,13.79-10.18,21.68-13.71,4.49-2.01,9.15-3.4,14.07-3.37,2.54.02,5.1.64,7.62,1.12,1.08.2,1.72,1.09,1.85,2.2.13,1.12-.37,1.96-1.29,2.59-3.72,2.55-7.67,4.7-11.88,6.31-6.36,2.43-12.42,5.42-17.99,9.38-4.81,3.42-9.39,7.12-13.12,11.71-1.73,2.13-3.22,4.48-4.58,6.86-.72,1.27-1.1,2.8-1.33,4.25-.3,1.87.49,3.03,2.31,3.5,1.38.35,2.84.51,4.26.55,6.24.14,12.31-.95,18.23-2.84,10.19-3.26,19.24-8.61,27.53-15.3,9.5-7.66,17.32-16.74,23.14-27.5,3.57-6.6,6.13-13.55,7.06-21.04.39-3.13.2-6.23-.67-9.27-1.4-4.9-4.45-8.26-9.26-10.03-3.82-1.4-7.77-2.02-11.81-2.16-6.96-.25-13.75.84-20.44,2.67-1.39.38-2.78.74-4.18,1.08-.78.19-1.6.21-2.16-.49-.62-.77-.34-1.59.05-2.36.76-1.49,1.94-2.64,3.35-3.44,2.45-1.37,4.92-2.77,7.53-3.81,6.13-2.45,12.55-3.6,18.98-3.63Z"/>
      <path class="cls-1" d="m366.62,345.19c0,.67.11,1.05-.02,1.3-.34.63-.72,1.26-1.2,1.78-6.83,7.38-14.15,14.18-23.08,19.01-5.24,2.84-10.91,4.63-16.52,6.57-6.34,2.19-12.67,4.43-18.96,6.77-9.95,3.69-17.75,10.07-23.48,19.01-2.52,3.94-5.07,7.86-7.69,11.74-1.54,2.28-3.23,4.46-4.9,6.65-.24.31-.82.65-1.12.56-.69-.21-.47-.8-.27-1.35,2.05-5.61,5-10.75,8.21-15.75,2.86-4.44,5.97-8.7,9.6-12.55,4.36-4.62,9.69-7.79,15.4-10.4,6.77-3.11,13.89-5.27,20.94-7.6,4.43-1.47,8.86-2.98,13.19-4.73,6.63-2.68,12.28-6.96,17.74-11.49,3.32-2.76,6.67-5.48,10.03-8.19.57-.46,1.26-.78,2.12-1.31Z"/>
      <path class="cls-1" d="m364.5,229.43c-1.42,1.49-2.72,2.81-4.58,3.58-3.55,1.47-7.64.87-10.35-1.79-1.61-1.58-2.15-3.73-2.53-5.84-.56-3.12,0-5.98,2.99-8.39-.82.07-1.18.08-1.54.15-2.56.48-4.96,1.37-7.14,2.81-.4.26-.8.54-1.22.76-.51.26-1.15.82-1.56.11-.22-.39-.11-1.24.19-1.62.73-.93,1.52-1.92,2.51-2.51,5.9-3.51,12.1-4.5,18.52-1.53,6.8,3.14,10.21,11,7.89,17.91-.21.62-.46,1.25-.81,1.79-.57.88-1.66,1.12-2.53.65-.79-.43-1.15-1.36-.86-2.32.31-1.03.68-2.04.99-3.06.06-.21,0-.46,0-.69Z"/>
      <path class="cls-1" d="m351.29,210.03c-2,.37-3.99.73-5.99,1.1-.82.15-1.63.41-2.46.49-1,.1-1.97-.13-2.43-1.15-.43-.94-.36-1.96.37-2.69.79-.79,1.69-1.55,2.67-2.05,2.33-1.19,4.9-1.56,7.48-1.7,5.94-.31,10.95,1.57,14.77,6.27,1.36,1.68,1.95,3.53,1.62,5.68-.23,1.5-1.22,2.04-2.57,1.33-1.28-.67-2.45-1.49-3.34-2.66-2.54-3.32-5.97-4.66-10.11-4.64Z"/>
      <path class="cls-1" d="m422.82,312.43c0,2.01-.41,3.28-1.36,4.25-.87.89-1.87,1.68-2.9,2.38-1.84,1.23-3.74,2.37-5.64,3.51-.66.4-1.38.74-2.11.96-.83.25-1.36-.26-1.02-1.05.39-.92.88-1.88,1.58-2.56,1.81-1.75,3.74-3.37,5.66-4.99.84-.71,1.61-1.43,1.96-2.5.45-1.37.29-2.38-.88-3.18-1.38-.96-1.95-2.32-2.55-3.79-1.19-2.94-2.34-5.93-3.89-8.68-1-1.79-2.67-3.2-4.03-4.78-.44-.51-1.34-.79-.97-1.71.22-.55,1.29-.62,2.29,0,1.06.66,2.11,1.4,2.99,2.28,3.87,3.88,6.91,8.27,8.29,13.68.23.91.75,1.75,1.12,2.63.57,1.37,1.13,2.75,1.46,3.58Z"/>
      <path class="cls-1" d="m270.41,463.58c3.56.17,6.59,1.01,9.35,2.72,1.44.9,2.68,2.02,3.47,3.57.45.89.6,1.81.34,2.79-.21.76-.67,1.27-1.49,1.36-.72.08-1.28-.22-1.67-.83-.06-.1-.14-.2-.17-.31-.86-2.71-3.07-3.88-5.5-4.73-1.35-.47-2.77-.74-4.17-1.08-.64-.16-1.3-.22-1.93-.41-.72-.21-1.4-.61-1.32-1.47.07-.81.7-1.23,1.46-1.37.64-.12,1.3-.18,1.63-.23Z"/>
      <path class="cls-1" d="m409.95,312.46c-.38.75.32,1.96-.8,2.19-.96.2-1.1-.96-1.43-1.58-.59-1.1-1.01-2.3-1.47-3.46-1.32-3.34-3.2-6.28-6.03-8.56-.65-.52-1.27-1.12-1.72-1.81-.23-.36-.23-1.08-.02-1.46.16-.29.82-.39,1.25-.4.4-.01.82.17,1.2.34,2.58,1.14,4.77,2.78,6.26,5.2,1.8,2.93,2.34,6.24,2.75,9.55Z"/>
      <path class="cls-1" d="m389.73,305.95c.74-.51,1.38-.09,1.98.27,2,1.17,3.32,2.89,4.02,5.09.73,2.31,1,4.67.77,7.09-.28,2.91.21,5.72,1.07,8.49.51,1.66,1.52,2.81,3.26,3.27.66.18,1.52.23,1.49,1.23-.02.62-1.03,1.31-1.94,1.32-1.4.01-2.46-.71-3.02-1.91-.68-1.45-1.25-2.97-1.68-4.51-.3-1.08-.19-2.27-.4-3.38-.65-3.52-1.34-7.04-2.05-10.55-.35-1.7-1.37-3.03-2.52-4.28-.93-1.01-.91-1.03-.99-2.13Z"/>
      <path class="cls-1" d="m405.29,294.63c2.21.29,4.51,2.78,4.52,4.62,0,.64-.45,1.04-1.06.78-1.84-.79-3.42-1.94-4.37-3.76-.16-.31-.2-.89-.02-1.13.24-.32.76-.42.92-.5Z"/>
      <path class="cls-1" d="m407.66,322.25c-.12.49-.18,1.16-.46,1.72-.5,1.02-1.45,1.04-2.09.11-.77-1.1-.31-3.29.83-4.01.62-.39,1.18-.27,1.43.43.18.49.18,1.04.3,1.74Z"/>
      <path class="cls-1" d="m372.14,227.15c-.07.59-.14,1.18-.2,1.77-.13,0-.26-.01-.4-.02.03-.59.06-1.17.09-1.76.17,0,.34,0,.51,0Z"/>
    </g>
  </g>
</svg>