<?xml version="1.0" encoding="UTF-8"?>
<svg id="Layer_2" data-name="Layer 2" xmlns="http://www.w3.org/2000/svg" xmlns:xlink="http://www.w3.org/1999/xlink" viewBox="0 0 237.19 276.9">
  <defs>
    <style>
      .cls-1, .cls-2 {
        fill: #869e57;
      }

      .cls-3 {
        clip-path: url(#clippath);
      }

      .cls-2, .cls-4 {
        stroke-width: 0px;
      }

      .cls-4 {
        fill: #d94e26;
      }
    </style>
    <clipPath id="clippath">
      <path class="cls-2" d="m58.01,189.8c-6.48-5.05-12.71-9.93-18.99-14.75-.62-.47-1.58-.8-2.34-.74-9.07.68-14.22-5.39-19.55-11.19-7.08-7.71-12.13-16.67-16.11-26.27C-.97,132.04,0,127.33,3.58,123.96c3.44-3.24,8.37-4.09,12.62-1.82,12.09,6.47,22.8,14.8,28.33,27.76,1.75,4.1.69,9.37,1.13,14.08.18,1.93.3,4.75,1.53,5.58,16.53,11.21,33.25,22.14,49.94,33.11.34.23.9.13,1.22.17-.63-5.33-1.66-10.56-1.69-15.8-.02-2.5,1.28-6.46,3.02-7.16,2.21-.89,5.88.2,8.21,1.61,7.1,4.29,10.8,15.54,7.95,24.51-1.32,4.16.11,5.73,3.56,7.12,9.11,3.68,9.37,3.78,10.48-6.02.93-8.26,1.04-16.61,1.59-24.91.21-3.11-.93-4.92-4.08-5.84-12.03-3.49-22.84-9.68-32.17-17.73-6.32-5.46-11.18-12.7-16.22-19.5-2.41-3.26-4.19-4.75-8.46-2.95-6.69,2.81-13.49,2.03-19.42-2.38-1.54-1.15-3.3-3.53-3.09-5.08.21-1.53,2.6-3.43,4.39-3.95,4.75-1.4,9.7-2.14,15.43-3.33-4.21-6.64-3.26-15.75-12.57-19.22-2.54-.94-4.88-4.24-5.95-6.99-4.3-11.06-6.21-22.4-2.03-34.08,3.66-10.25,14.73-12.65,21.37-3.92,6.62,8.7,10.77,18.76,10.95,30.01.09,5.29-1.67,9.92-6.06,13.08-2.86,2.06-2.95,4.19-1.83,7.31,6.17,17.18,16.96,31.62,29.65,43.97,6.89,6.71,17.63,9.56,26.8,13.77,3.43,1.58,4.48-1.09,4.19-4-.96-9.59-1.41-19.31-3.28-28.73-2.46-12.39-5.87-24.61-9.39-36.75-.77-2.65-3.6-4.77-5.68-6.96-1-1.06-2.68-1.49-3.65-2.57-9.63-10.69-15.62-23.23-16.74-37.55-.72-9.27,6.25-16.61,14.21-15.49,3.54.5,7.92,2.69,9.86,5.53,7.08,10.29,10.48,22.23,12.65,34.43.56,3.15.65,7.26-.92,9.74-4.05,6.38-.06,11.28,1.49,17.86,4.01-6.12,7.22-11.49,10.96-16.46,1.53-2.03,4.42-4.59,6.36-4.35,1.99.25,4.35,3.35,5.24,5.7,4.75,12.52-.02,25.81-11.88,32.71-4.22,2.45-5.06,5.03-4.24,9.71,2.65,15.07,5.67,30.16,3.35,45.62-.28,1.89-.04,3.85.57,6.02,11.55-10.86,24.09-20.78,28.35-36.93.6-2.27-.42-5.05-.97-7.53-.95-4.34-3.09-8.66-2.98-12.93.2-7.25,1.17-14.63,3.04-21.63.77-2.91,4.44-6.5,7.24-6.94,2.21-.35,6.45,3.12,7.47,5.78,3.97,10.3,6.43,21.09,4.13,32.23-.54,2.6-2.44,4.96-3.92,7.31-1.79,2.84-4.48,5.28-5.61,8.33-4.61,12.38-13.01,22-21.8,31.39-3.3,3.52-6.52,7.2-10.24,10.25-7.99,6.56-6.64,15.58-7.69,25.29,6.94-2.64,13-4.8,18.89-7.36.84-.36,1.37-2.86,1.07-4.15-1.66-7.23-1.13-14.37,1.46-21.14.98-2.57,3.65-5.75,6-6.17,1.95-.35,5.68,2.46,6.62,4.7,1.91,4.57,2.48,9.71,3.82,15.61,2.98-3.46,5.89-6.7,8.66-10.06,14.94-18.18,21.14-39.08,20.89-62.56-.15-14.51-1.76-28.49-6.33-42.25-2.14-6.46-3.26-13.25-5.03-19.84-.49-1.83-1.23-4.14-2.63-5.1-7.05-4.86-9.13-12.16-9.96-19.88-.83-7.77-1.04-15.61-1.27-23.42-.07-2.44.35-5.02,1.11-7.35,1.73-5.26,7.27-7.2,11.56-3.67,2.71,2.23,5.39,5.36,6.44,8.62,3.3,10.27,6.38,20.69,8.36,31.27.74,3.95-1.83,8.49-2.79,12.78-.5,2.23-1.5,4.66-1.03,6.72,1.5,6.61,3.57,13.09,5.65,20.43,4.08-3.95,7.69-7.45,11.31-10.94.84-.81,1.69-1.62,2.59-2.36,2.94-2.41,5.9-5.85,10.06-3.66,4.32,2.27,3.51,6.71,2.88,10.71-1.62,10.32-7.99,16.85-17.51,19.84-5.18,1.63-5.53,4.38-5.18,8.85,1.35,17.16,1.97,34.4-3.23,51.06-9.06,29.02-25.38,51.89-55.27,62.68-4.7,1.7-9.29,3.7-14.04,5.24-3.25,1.05-5.09,2.97-5.58,6.28-2.4,16.44-10.04,30.57-19.43,43.91-1.68,2.39-3.6,5.01-6.86,2.91-3.22-2.07-2.47-5.15-.75-7.94,3.67-5.95,8.05-11.57,10.96-17.86,2.97-6.43,4.55-13.5,6.67-20.32,1-3.21-.6-4.68-3.54-5.94-11.17-4.78-22.52-9.3-33.21-15.04-7.13-3.83-12.41-8.12-20.23-.25-5.15,5.18-13.52,5.53-20.84,2.74-2.35-.9-5.29-3.17-5.74-5.29-.45-2.09,1.36-5.34,3.16-7.08,3.53-3.42,7.74-6.13,11.96-9.36Z"/>
    </clipPath>
  </defs>
  <g id="Layer_1-2" data-name="Layer 1">
    <g>
      <path class="cls-1" d="m58.01,189.8c-6.48-5.05-12.71-9.93-18.99-14.75-.62-.47-1.58-.8-2.34-.74-9.07.68-14.22-5.39-19.55-11.19-7.08-7.71-12.13-16.67-16.11-26.27C-.97,132.04,0,127.33,3.58,123.96c3.44-3.24,8.37-4.09,12.62-1.82,12.09,6.47,22.8,14.8,28.33,27.76,1.75,4.1.69,9.37,1.13,14.08.18,1.93.3,4.75,1.53,5.58,16.53,11.21,33.25,22.14,49.94,33.11.34.23.9.13,1.22.17-.63-5.33-1.66-10.56-1.69-15.8-.02-2.5,1.28-6.46,3.02-7.16,2.21-.89,5.88.2,8.21,1.61,7.1,4.29,10.8,15.54,7.95,24.51-1.32,4.16.11,5.73,3.56,7.12,9.11,3.68,9.37,3.78,10.48-6.02.93-8.26,1.04-16.61,1.59-24.91.21-3.11-.93-4.92-4.08-5.84-12.03-3.49-22.84-9.68-32.17-17.73-6.32-5.46-11.18-12.7-16.22-19.5-2.41-3.26-4.19-4.75-8.46-2.95-6.69,2.81-13.49,2.03-19.42-2.38-1.54-1.15-3.3-3.53-3.09-5.08.21-1.53,2.6-3.43,4.39-3.95,4.75-1.4,9.7-2.14,15.43-3.33-4.21-6.64-3.26-15.75-12.57-19.22-2.54-.94-4.88-4.24-5.95-6.99-4.3-11.06-6.21-22.4-2.03-34.08,3.66-10.25,14.73-12.65,21.37-3.92,6.62,8.7,10.77,18.76,10.95,30.01.09,5.29-1.67,9.92-6.06,13.08-2.86,2.06-2.95,4.19-1.83,7.31,6.17,17.18,16.96,31.62,29.65,43.97,6.89,6.71,17.63,9.56,26.8,13.77,3.43,1.58,4.48-1.09,4.19-4-.96-9.59-1.41-19.31-3.28-28.73-2.46-12.39-5.87-24.61-9.39-36.75-.77-2.65-3.6-4.77-5.68-6.96-1-1.06-2.68-1.49-3.65-2.57-9.63-10.69-15.62-23.23-16.74-37.55-.72-9.27,6.25-16.61,14.21-15.49,3.54.5,7.92,2.69,9.86,5.53,7.08,10.29,10.48,22.23,12.65,34.43.56,3.15.65,7.26-.92,9.74-4.05,6.38-.06,11.28,1.49,17.86,4.01-6.12,7.22-11.49,10.96-16.46,1.53-2.03,4.42-4.59,6.36-4.35,1.99.25,4.35,3.35,5.24,5.7,4.75,12.52-.02,25.81-11.88,32.71-4.22,2.45-5.06,5.03-4.24,9.71,2.65,15.07,5.67,30.16,3.35,45.62-.28,1.89-.04,3.85.57,6.02,11.55-10.86,24.09-20.78,28.35-36.93.6-2.27-.42-5.05-.97-7.53-.95-4.34-3.09-8.66-2.98-12.93.2-7.25,1.17-14.63,3.04-21.63.77-2.91,4.44-6.5,7.24-6.94,2.21-.35,6.45,3.12,7.47,5.78,3.97,10.3,6.43,21.09,4.13,32.23-.54,2.6-2.44,4.96-3.92,7.31-1.79,2.84-4.48,5.28-5.61,8.33-4.61,12.38-13.01,22-21.8,31.39-3.3,3.52-6.52,7.2-10.24,10.25-7.99,6.56-6.64,15.58-7.69,25.29,6.94-2.64,13-4.8,18.89-7.36.84-.36,1.37-2.86,1.07-4.15-1.66-7.23-1.13-14.37,1.46-21.14.98-2.57,3.65-5.75,6-6.17,1.95-.35,5.68,2.46,6.62,4.7,1.91,4.57,2.48,9.71,3.82,15.61,2.98-3.46,5.89-6.7,8.66-10.06,14.94-18.18,21.14-39.08,20.89-62.56-.15-14.51-1.76-28.49-6.33-42.25-2.14-6.46-3.26-13.25-5.03-19.84-.49-1.83-1.23-4.14-2.63-5.1-7.05-4.86-9.13-12.16-9.96-19.88-.83-7.77-1.04-15.61-1.27-23.42-.07-2.44.35-5.02,1.11-7.35,1.73-5.26,7.27-7.2,11.56-3.67,2.71,2.23,5.39,5.36,6.44,8.62,3.3,10.27,6.38,20.69,8.36,31.27.74,3.95-1.83,8.49-2.79,12.78-.5,2.23-1.5,4.66-1.03,6.72,1.5,6.61,3.57,13.09,5.65,20.43,4.08-3.95,7.69-7.45,11.31-10.94.84-.81,1.69-1.62,2.59-2.36,2.94-2.41,5.9-5.85,10.06-3.66,4.32,2.27,3.51,6.71,2.88,10.71-1.62,10.32-7.99,16.85-17.51,19.84-5.18,1.63-5.53,4.38-5.18,8.85,1.35,17.16,1.97,34.4-3.23,51.06-9.06,29.02-25.38,51.89-55.27,62.68-4.7,1.7-9.29,3.7-14.04,5.24-3.25,1.05-5.09,2.97-5.58,6.28-2.4,16.44-10.04,30.57-19.43,43.91-1.68,2.39-3.6,5.01-6.86,2.91-3.22-2.07-2.47-5.15-.75-7.94,3.67-5.95,8.05-11.57,10.96-17.86,2.97-6.43,4.55-13.5,6.67-20.32,1-3.21-.6-4.68-3.54-5.94-11.17-4.78-22.52-9.3-33.21-15.04-7.13-3.83-12.41-8.12-20.23-.25-5.15,5.18-13.52,5.53-20.84,2.74-2.35-.9-5.29-3.17-5.74-5.29-.45-2.09,1.36-5.34,3.16-7.08,3.53-3.42,7.74-6.13,11.96-9.36Z"/>
      <g class="cls-3">
        <path class="cls-4" d="m50.39,154.95s-4.12,15-5.25,16.5-11.25,7.12-12.38,8.25-7.88,1.12-7.88,1.12l-23.25-13.5-16.12-32.25-.75-13.5,18.38-8.25,21.75,7.88s23.62,28.5,25.5,33.75Z"/>
        <path class="cls-4" d="m51.2,43.08c1.75-.5,14.75-1,14.75-1,0,0,29.5,52,11.75,57.75s-38.75,12.25-46.25-11.5,19.75-45.25,19.75-45.25Z"/>
        <path class="cls-4" d="m91.09,28.81l-10.25,9.25s.5,32.75,2.25,34.25,18,15,18,15c0,0,34.75,4.25,34.5-7s-12.75-62-12.75-62l-26.25-2-5.5,12.5Z"/>
        <path class="cls-4" d="m173.64-4.67l4.25,37,4.25,22.25,4.25,1.75s18.75,11.75,24.25-7.75-13-62.5-13-62.5l-9.25-1.5-14.75,10.75Z"/>
      </g>
    </g>
  </g>
</svg>