<?xml version="1.0" encoding="UTF-8"?>
<svg id="Layer_2" data-name="Layer 2" xmlns="http://www.w3.org/2000/svg" viewBox="0 0 612.69 458.14">
  <defs>
    <style>
      .cls-1 {
        fill: #f9faed;
      }

      .cls-1, .cls-2 {
        stroke-width: 0px;
      }

      .cls-2 {
        fill: #45382f;
      }
    </style>
  </defs>
  <g id="Layer_1-2" data-name="Layer 1">
    <g>
      <path class="cls-2" d="m57.01,368.92c21.47-6.85,62.59-33.78,62.59-33.78,0,0,11.51-33.85-15.83-48.24s-41.01-23.74,21.58-79.86,76.98-63.31,95.69-100.73-2.16-41.73-5.76-74.11,22.3-29.5,53.24-7.91,37.41,12.95,70.51,11.51,20.86,22.3,47.48,2.88,81.3-64.75,73.39-18.71.11,81.51.78,102.99,3.65,42.34,0,57.45-2.93,29.5,11.46,47.48,7.19,45.33,30.94,38.85,10.07,14.39,43.89-15.11,80.58-27.34,61.15,4.32-20.86,46.29-38.13,57.32-22.3,18.23-31.66,25.42-54.68,15.11-100.01,17.99-189.94,33.81-219.44,46.77-63.31,20.86-97.13,22.3-82.02,32.38-82.02,32.38c0,0-100.01-51.8,17.27-89.21Z"/>
      <g>
        <path class="cls-1" d="m139.26,227.87c-.61.75-1.24,1.49-1.84,2.25-8.81,10.97-18.97,20.6-29.55,29.81-.63.55-1.32,1.04-2.01,1.5-1.84,1.21-3.39,1.24-4.6.14-1.31-1.2-1.43-2.75-.13-4.76.99-1.53,2.1-3,3.31-4.36,4.2-4.72,8.47-9.38,12.7-14.08,6.58-7.3,12.79-14.9,18.66-22.79,7.58-10.18,16.22-19.37,26-27.47,3.28-2.72,6.51-5.5,9.88-8.11,2.9-2.25,6.35-3.56,9.64-5.15,10.4-5.03,21.17-9.36,30.54-16.36,7.88-5.89,14.62-12.73,20.18-20.92,7.15-10.53,13.99-21.22,20.3-32.27,5.64-9.87,12.8-18.54,21.63-25.74,2.18-1.77,4.56-3.29,6.85-4.93,3.06-2.19,6.7-2.82,10.21-3.77,1.08-.29,1.96.08,2.53,1.05.53.92.26,1.89-.68,2.85-3.19,3.28-6.54,6.36-10.17,9.15-10.24,7.88-18.15,17.71-24.28,29.06-3.51,6.5-7.01,13.01-10.92,19.27-3.78,6.06-8,11.86-12.17,17.68-4.9,6.85-11.45,11.99-18.18,16.86-3.87,2.8-8.09,5.12-12.16,7.64-.76.47-1.57.85-2.6,1.4.6.49.95.86,1.36,1.11,6.1,3.7,10.22,9.01,12.73,15.62,2.83,7.46,3.05,15.17,2.09,22.96-.89,7.22-2.94,14.15-5.57,20.91-.19.5-.38.99-.54,1.5-.04.12.05.28.15.77,1.03-.56,1.96-1.16,2.96-1.58,3.14-1.34,6.22-2.91,9.48-3.87,8.43-2.47,16.82-1.69,24.81,1.7,14.94,6.32,25.9,16.97,32.53,31.77,4.61,10.28,4.72,20.99,1.38,31.7-4.22,13.52-12.63,23.98-23.95,32.25-6.51,4.75-13.5,8.55-21.35,10.6-12.07,3.16-23.85,2.29-35.3-2.65-8.3-3.58-15.52-8.68-21.44-15.56-1.54-1.79-2.96-3.65-3.62-6.01-.26-.93-.87-1.76-1.34-2.62-.77-1.42-.63-2.78.42-3.75,1.07-.99,2.38-.99,3.77-.14,1.16.7,2.41,1.25,3.58,1.92,1.51.87,3.02,1.76,4.49,2.7,5,3.2,9.81,6.74,15,9.58,10.66,5.85,22.06,7.39,33.53,3.1,15.42-5.77,27.17-15.83,33.14-31.62,3.74-9.9,3.01-19.62-2.39-28.8-4.81-8.19-11.41-14.64-19.72-19.23-6.25-3.45-12.93-4.92-20.05-3.23-3.91.93-7.39,2.81-10.76,4.92-9.09,5.67-16.81,12.81-23.04,21.55-.44.62-.89,1.24-1.36,1.83-2.2,2.72-5.25,3.4-7.87,1.77-2.61-1.63-3.39-4.76-1.86-7.85,1.73-3.48,3.49-6.94,5.31-10.36,5.05-9.49,9.82-19.1,13.17-29.35,2.23-6.84,3.86-13.79,3.65-21.05-.11-3.69-.62-7.31-2.3-10.63-.85-1.68-1.86-3.36-3.12-4.74-4.03-4.45-8.94-5.82-14.69-3.75-4.54,1.63-8.33,4.42-11.73,7.74-10.73,10.47-17.82,23.07-21.72,37.49-3.1,11.48-4.04,23.23-4.22,35.06-.04,2.51.09,5.01-.96,7.41-.96,2.2-2.35,3.77-4.86,3.88-2.51.12-4.03-1.31-5.22-3.4-1.38-2.43-1.56-5.08-1.69-7.73-.45-9.55.38-19.02,1.95-28.43.63-3.74,1.53-7.43,2.3-11.15-.1-.09-.2-.18-.31-.27Z"/>
        <path class="cls-1" d="m416.13,220.64c-.63-.83-.46-1.69-.2-2.61,1.85-6.67,3.66-13.35,5.51-20.03,4.27-15.36,7.57-30.91,8.8-46.84.93-12.03.7-24.04-1.02-36-.36-2.54-.57-2.72-3.16-2.82-3.2-.13-6.19.74-9.06,2.01-8.33,3.69-14.78,9.54-19.59,17.24-2.03,3.25-3.59,6.57-4.03,10.53-.34,3.04-1.57,6.02-2.74,8.9-.57,1.41-1.77,2.65-2.91,3.74-1.44,1.38-3.28,1.58-5.11.79-1.84-.79-2.82-2.27-2.94-4.27-.15-2.39.2-4.76,1.17-6.92,1.87-4.15,1.32-8.2-.29-12.19-.79-1.96-1.77-3.9-2.97-5.63-3.98-5.76-8.94-10.56-14.84-14.36-9.53-6.12-19.8-7.54-30.66-4.63-8.42,2.26-15.77,6.45-21.65,12.97-5.32,5.9-8.38,12.82-9.03,20.77-.58,7.1.35,13.97,2.92,20.63,3.93,10.18,11.09,17.33,20.75,22.1,8.69,4.28,17.87,6.89,27.54,7.78,2.72.25,5.4.85,8.11,1.26,1.5.23,3.01.42,4.52.56,1.67.15,2.72.99,2.86,2.39.14,1.37-.74,2.44-2.37,2.86-1.25.33-2.54.56-3.74,1.02-3.96,1.52-8.08,2.13-12.29,2.29-6.87.25-13.69,0-20.41-1.72-7.65-1.96-14.46-5.57-20.69-10.33-10.35-7.91-16.64-18.41-19.69-30.96-.12-.49-.31-.97-.55-1.74-.52.54-.91.85-1.18,1.25-5.39,7.98-9.86,16.45-13.13,25.52-.41,1.13-.94,2.27-1.64,3.23-1.41,1.93-3.76,2.58-5.9,1.82-2.18-.78-3.56-2.7-3.44-5.12.11-2.28.58-4.55.59-6.82,0-3.03-.16-6.08-.51-9.08-.16-1.39-.83-2.77-1.49-4.04-.99-1.89-2.13-2.37-4.18-1.64-1.56.55-3.08,1.33-4.45,2.26-2.49,1.68-4.47,3.92-6.05,6.46-6.51,10.52-8.11,21.72-4.23,33.51,3.9,11.84,15.88,20.58,28.39,20.95,4.58.13,9.13-.23,13.63-1.11,1.56-.31,3.17-.4,4.74-.65,1.56-.25,3.13-.51,4.66-.88,1.61-.39,3.01.07,3.72,1.41.71,1.33.34,2.75-.95,3.85-1.27,1.08-2.57,2.15-3.74,3.32-2.74,2.73-6.19,4.11-9.78,5.2-10.34,3.13-20.34,1.99-29.93-2.79-7.08-3.52-13-8.44-17.39-15.09-4.67-7.06-6.76-14.92-7.25-23.27-.65-11.28,2.41-21.57,8.59-30.92,3.94-5.97,9.03-10.7,16.05-12.91,4.57-1.44,9-1.31,13.13,1.42,2.93,1.94,4.51,4.86,5.83,7.98.24.55.45,1.12.69,1.67.02.06.13.08.32.19.41-.49.86-.98,1.26-1.51,3.33-4.39,6.91-8.52,11.61-11.51.95-.61.98-1.4,1.01-2.34.1-3.19.08-6.4.41-9.57,1.01-9.66,4.75-18.23,11.04-25.61,10.56-12.37,24.09-19.07,40.27-20.29,10.59-.8,20.38,1.8,29.36,7.49,8.1,5.14,14.72,11.76,19.9,19.82.9,1.4,1.67,2.88,2.67,4.62.65-.78,1.18-1.38,1.67-2.01,5.71-7.26,12.65-12.93,21.23-16.47,3.7-1.53,7.53-2.43,11.57-2.16.44.03.88,0,1.48,0-.06-.69-.05-1.2-.16-1.69-1.66-7.6-4-15-6.88-22.23-.6-1.5-1.55-2.53-2.86-3.42-7.95-5.42-16.49-9.47-25.97-11.39-1.19-.24-2.37-.6-3.5-1.03-1.62-.62-2.43-1.82-2.39-3.26.05-1.47.9-2.75,2.6-3.06,2.3-.42,4.68-.74,7-.64,6.42.27,12.38,2.33,18.08,5.19.68.34,1.36.69,2.04,1.03.13.07.29.09.43.14,3.43-1.51,4.64-1.3,7.24,1.41,3.74,3.9,6.37,8.52,8.63,13.37,4.85,10.44,7.74,21.47,9.61,32.77,2.41,14.57,2.95,29.23,1.38,43.93-1.83,17.08-6.05,33.54-13.35,49.14-2.69,5.75-6.03,11.1-10.52,15.66-.64.65-1.17,1.47-2.29,1.08l.07.04Z"/>
        <path class="cls-1" d="m155.88,357.23c5.11,1.32,9.45,3.83,13.13,7.58,2.77,2.82,4.48,6.19,4.88,10.08.18,1.77-.23,3.61-.45,5.41-.11.9-.65,1.55-1.63,1.64-.97.08-1.5-.46-1.91-1.31-1.68-3.51-3.61-6.85-6.22-9.78-3.61-4.05-7.81-6.97-13.36-7.65-1.68-.21-2.27-1.25-1.93-2.96.08-.42.23-.82.43-1.5-9.75,1.8-18.87,4.66-28.18,8.6,1.16.52,1.83.82,2.51,1.11,3.29,1.42,5.97,3.56,8.1,6.48,1.84,2.52,2.09,5.51,2.85,8.36.22.83-.22,1.52-1.05,1.78-.85.27-1.47-.14-1.89-.88-1.77-3.11-4.47-5.36-7.11-7.64-2.87-2.48-6.22-4.07-9.94-4.91-1.55-.35-2.93-.23-4.4.49-7.97,3.91-15.26,8.87-22.34,14.18-6.46,4.84-13.01,9.56-20.01,13.6-3.38,1.95-6.88,3.6-10.68,4.53-.28.07-.53.24-.77.36,1.15,1.37,2.25,2.68,3.36,3.98.54.63.96,1.4.32,2.02-.38.37-1.27.51-1.83.37-2.05-.52-4.12-1.06-6.08-1.85-4.2-1.69-8.42-1.98-12.73-.64-2.55.79-3.53,2.16-3.09,4.79.27,1.61.85,3.27,1.7,4.66,2.78,4.55,6.82,7.74,11.67,9.89,2.35,1.04,4.85,1.27,7.39.99,3.76-.41,5.57-2.35,5.77-6.11.04-.76-.01-1.53.05-2.28.08-1.05.67-1.71,1.74-1.75,1.07-.05,1.82.56,1.91,1.58.13,1.49.03,3,.03,5.03,1.42-.96,2.42-1.59,3.37-2.3,6.09-4.52,12.46-8.59,19.75-10.79,5.82-1.76,11.75-3.23,17.72-4.35,12.14-2.28,24.4-3.44,36.76-3.84,15.89-.52,31.21-3.94,46.03-9.72,13.57-5.29,26.66-11.61,39.75-17.94,28.42-13.73,58-24.21,88.62-31.82,21.29-5.29,42.63-10.28,64.23-14.17,18.3-3.29,36.66-6.04,55.29-6.54,12.87-.35,25.73-.04,38.6.36,6.15.19,12.33-.12,18.48-.49,2.54-.15,5.08-.94,7.55-1.66,2.89-.84,4.75-2.85,5.81-5.68,1.15-3.06,2.27-6.15,3.74-9.06.86-1.72,2.19-3.31,3.62-4.62,2.89-2.65,6.44-2.87,10.09-2.01,2.92.69,5.84.94,8.83.52,4.77-.66,8.83-2.72,12.31-5.99.17-.16.26-.43.45-.51.52-.2,1.21-.59,1.58-.41.37.19.64.99.6,1.5-.3,4.32-3.4,8.16-7.7,9.14-2.27.52-4.67.51-7.02.63-1.36.07-2.74-.12-4.11-.08-3.23.09-5.98,1.31-7.88,3.95-1.77,2.46-3.32,5.09-4.96,7.65-1.19,1.86-2.2,3.85-3.57,5.56-2.89,3.59-6.99,5.29-11.23,6.66-4.3,1.39-8.77,1.94-13.26,2.23-10.71.69-21.43,1.46-32.15,1.89-28.91,1.16-57.48,4.98-85.84,10.56-25.64,5.04-51.05,11.04-76.2,18.13-18.64,5.26-36.78,11.94-54.66,19.35-10.13,4.2-20.28,8.34-30.45,12.43-15.74,6.33-32.01,10.77-48.76,13.5-4.5.73-8.97,1.75-13.37,2.97-11.26,3.12-22.68,5.22-34.27,6.66-6.11.76-12.17,1.99-18.2,3.24-6.52,1.36-12.65,3.87-18.57,6.91-1.9.97-3.78,1.98-5.72,2.86-2.44,1.1-3.65,1.12-6.17.35-4.79,5.02-10.7,5.87-17.01,4.05-7.22-2.08-13.33-6.07-17.52-12.42-3.16-4.8-3.96-10.02-1.23-15.38,1.87-3.67,5.03-5.87,8.82-7.16,2.22-.76,4.53-1.37,6.85-1.75,6.47-1.06,12.24-3.61,17.37-7.66,5.2-4.11,10.37-8.24,15.53-12.4,15.76-12.72,33.74-20.46,53.55-24.22,7.43-1.41,14.94-1.94,22.44-2.72,1.44-.15,2.88-.31,4.32-.46,1.26-.13,2.55-.01,3.48-1.28.31-.43,1.24-.52,1.89-.57,2.43-.18,4.86-.37,7.29-.4,2.53-.03,4.98-.36,7.41-1.13,1.49-.47,3.13-.61,4.71-.64,1.5-.02,2.12,1.16,1.48,2.53-1.01,2.17-2.55,3.84-4.94,4.39-1.76.4-3.59.6-5.39.75-.97.08-1.98-.1-2.95-.27-3.38-.6-6.6-.97-9.74,1.27-1.6,1.14-3.78,1.46-5.7,2.15Z"/>
        <path class="cls-1" d="m416.07,220.6c2.7,1.02,5.42,2,8.11,3.06,14.03,5.5,25.83,14.19,35.81,25.38,7.76,8.7,14.84,17.94,21.62,27.43,1.9,2.66,3.99,5.18,5.97,7.78,1.1,1.44,2.14,2.92,3.24,4.36.84,1.09.98,2.32.3,3.38-.74,1.15-2.06,1.58-3.4,1.07-1.7-.64-3.43-1.24-5.08-2-1.44-.66-2.89-1.39-4.16-2.33-7.17-5.26-13.22-11.66-18.75-18.59-4.75-5.95-9.46-11.93-15-17.19-16.23-15.4-35.59-22.72-57.87-22.38-12.49.19-24.5,2.64-35.77,8.21-7.47,3.7-14.04,8.53-18.99,15.36-8.9,12.29-9.63,29.14-1.69,41.53,13.14,20.49,42.16,20.13,55.86,2.38,4.2-5.44,5.97-11.74,6.17-18.54.19-6.49-1.13-12.72-3.41-18.75-1.1-2.91-2.47-5.73-3.68-8.61-.56-1.33-1.17-2.67-1.48-4.07-.57-2.56,1.5-4.48,3.94-3.54,1.51.58,2.95,1.6,4.16,2.71,3.44,3.18,6.09,7.01,8.2,11.18,4.91,9.68,6.6,19.89,4.55,30.59-1.72,9.02-5.99,16.71-12.74,22.96-10.21,9.47-22.39,13.65-36.19,12.8-13.51-.84-24.66-6.64-33.41-17.01-12.95-15.34-14.75-39.57-4.06-57.37,5.31-8.84,12.58-15.6,21.34-20.82,12.27-7.31,25.68-10.97,39.83-12.21,11.71-1.03,23.27-.17,34.64,2.89.66.18,1.34.26,2.01.39,0,0-.07-.04-.07-.04Z"/>
        <path class="cls-1" d="m542.84,287.76c.63,1.25,1.29,2.15,1.53,3.16.21.89.19,1.99-.13,2.83-.69,1.78-2.04,2.31-3.66,1.3-1.38-.85-2.48-2.15-3.91-3.43.01,0-.36.07-.64.28-4.06,2.98-8.63,4.75-13.55,5.76-6.63,1.36-13.26,2.76-19.87,4.23-9.82,2.18-19.62,1.85-29.5.36-8.05-1.21-16.16-2-24.24-3-1.65-.21-3.29-.59-4.94-.83-1.42-.21-2.85-.42-4.28-.5-1.77-.11-2.89-.94-3.04-2.45-.14-1.43.66-2.51,2.25-2.98.73-.22,1.53-.28,2.18-.64,4.35-2.4,9.15-2.66,13.94-2.96,6.46-.4,12.73.79,18.98,2.22,4.89,1.12,9.76,2.38,14.7,3.25,5.88,1.03,11.82.92,17.73-.04,4.11-.67,7.89-2.22,11.57-4.11,4.54-2.33,9.02-4.76,13.62-6.97,4.04-1.94,8.16-3.78,12.71-4.26,1.67-.18,3.33-.28,4.84.76.31.21.88.22,1.28.12,3.08-.83,6.16-1.7,9.23-2.58,3.09-.89,5.3-2.79,6.79-5.68,2.94-5.68,6.03-11.29,10.09-16.27,2.11-2.59,4.32-5.12,6.69-7.48,1.03-1.03,2.48-1.73,3.86-2.29,1.67-.67,3.39.14,4.28,1.69.8,1.39.62,2.86-.74,4.1-6.83,6.24-12.02,13.71-16.51,21.72-.22.4-.48.78-.7,1.18-2.56,4.83-6.53,7.63-11.91,8.69-4.33.85-8.6,1.97-12.88,3.05-1.91.48-3.76,1.15-5.8,1.79Z"/>
        <path class="cls-1" d="m286.27,68.8c-6.87.27-13.47-1.08-19.8-3.7-10.59-4.38-19.25-11.27-26.09-20.45-3.22-4.31-5.57-9.07-7-14.26-.32-1.16-.43-2.39-.48-3.6-.06-1.18.57-2.04,1.7-2.44,1.16-.41,2.16,0,2.82.93.79,1.11,1.47,2.31,2.09,3.52,3.77,7.43,8.82,13.82,15.18,19.22,4.45,3.78,9.34,6.83,14.74,9.01,4.44,1.8,8.94,3.45,13.42,5.15,2.84,1.08,5.7,2.11,8.54,3.18.89.33,1.38.99,1.22,1.94-.16.95-.84,1.45-1.77,1.48-1.52.05-3.04.01-4.56.01Z"/>
        <path class="cls-1" d="m340.69,49.81c6.95-.08,13.59,1.57,20.15,3.61,3.63,1.13,7.24,2.31,10.88,3.43.71.22,1.5.21,2.24.33,1.28.22,2.02.95,2.09,2.05.08,1.11-.61,1.85-1.78,2.34-6.27,2.61-12.47,1.98-18.7-.17-4.69-1.61-9.47-2.91-14.47-3.12-9.37-.39-18.32,1.39-26.91,5.12-.63.27-1.22.62-1.87.86-.92.34-1.81.3-2.52-.49-.63-.7-.72-1.56-.31-2.34.45-.87.93-1.82,1.65-2.41,1.52-1.24,3.12-2.47,4.86-3.35,7.74-3.92,16-5.75,24.66-5.84Z"/>
        <path class="cls-1" d="m341.34,129.82c-.03-3.02.76-5.69,2.29-8.12,2.82-4.5,8.23-5.66,12.41-2.58,3.96,2.91,5.38,6.85,4.68,11.58-.28,1.86-.73,3.76-1.48,5.48-2.11,4.84-7.02,6.51-11.74,4.17-4.1-2.04-6.3-6.37-6.17-10.52Z"/>
        <path class="cls-1" d="m403.11,137.32c.06-2.69.51-5.28,2.09-7.57.47-.68.84-1.45,1.15-2.22.7-1.71,2.03-2.86,3.51-3.8.73-.46,1.7-.74,2.57-.77,2.63-.06,5.76,2.35,6.57,4.83,1.59,4.92.67,9.56-2.02,13.74-1,1.56-2.92,2.59-4.55,3.66-.63.41-1.62.44-2.43.36-3.52-.32-6.76-3.81-6.89-7.33-.01-.3,0-.61,0-.91Z"/>
        <path class="cls-1" d="m440.89,31.42c-.7,7.63-3.05,14.16-9.43,18.67-.43.31-.84.65-1.24,1-.64.55-1.36.77-2.08.26-.84-.6-.69-1.43-.3-2.25,1.23-2.61,2.45-5.22,3.7-7.83.72-1.51,1.66-2.93,2.2-4.5.76-2.21,1.25-4.52,1.82-6.8.16-.66.15-1.36.27-2.03.19-1.07.74-1.83,1.89-1.99,1.07-.14,2.03.42,2.41,1.66.4,1.29.55,2.66.78,3.81Z"/>
        <path class="cls-1" d="m288.53,301.51c.58-1.54,1.57-1.68,2.53-1.83,1.73-.27,3.3.25,4.83,1.01.87.43,1.68.89,2.78.78.59-.06,1.44.49,1.87,1.02,3.84,4.66,7.15,9.66,9.21,15.38.95,2.66,1.12,5.35-.47,7.9-1.01,1.62-2.09,1.61-2.97-.1-.45-.87-.88-1.8-1.07-2.75-.81-4.16-2.54-7.95-4.39-11.7-.81-1.64-1.64-3.26-2.38-4.93-1.44-3.25-4.2-4.38-7.45-4.76-.73-.08-1.47-.01-2.51-.01Z"/>
        <path class="cls-1" d="m310.46,303.34c1.68,2.31,3.07,4.68,3.47,7.45.25,1.72.34,3.47.35,5.21,0,.47-.44,1.15-.87,1.38-.73.39-1.27-.16-1.63-.82-1.42-2.59-2.85-5.18-4.27-7.78-.8-1.47-1.53-2.97-2.4-4.4-.82-1.34-1.4-2.6.29-3.98-2.51-1.51-4.95-2.41-7.63-2.66-.38-.04-.76,0-1.14,0-.88.03-1.71-.08-2.02-1.08-.26-.86.38-1.84,1.51-2.25.56-.2,1.19-.34,1.78-.32,4.32.15,8.21,1.45,11.41,4.45,1.4,1.31,2.33,2.84,1.15,4.79Z"/>
        <path class="cls-1" d="m304.9,331.94c.02,1.76-.75,2.79-2,3.12-1.22.31-2.43-.26-3.03-1.46-.17-.34-.25-.72-.36-1.08-2.27-7.82-6.23-14.65-12.02-20.39-1.41-1.4-1.64-2.39-.84-3.34.78-.93,1.97-.96,3.44.25,1.69,1.39,3.47,2.81,4.75,4.55,2.24,3.05,4.21,6.31,6.12,9.58,1.19,2.03,2.1,4.22,3.07,6.36.41.89.66,1.85.86,2.4Z"/>
        <path class="cls-1" d="m285.99,321.69c0-1.39.74-1.93,1.81-1.52.42.16.82.41,1.16.7,2.74,2.29,4.83,5.04,5.87,8.49.13.42.02,1.23-.25,1.38-.42.24-1.16.25-1.62.04-3.34-1.52-5.06-4.46-6.48-7.63-.25-.55-.39-1.14-.5-1.48Z"/>
        <path class="cls-1" d="m255.77,36.82c0-.15-.01-.31,0-.46.08-.74,0-1.74.98-1.76.45,0,1.05.72,1.35,1.25,1.53,2.71,3,5.45,4.44,8.21.18.34.25.96.05,1.22-.18.24-.84.35-1.18.22-3.36-1.31-5.72-4.96-5.65-8.67Z"/>
        <path class="cls-1" d="m421.18,46.04c-.72-.02-1.24-.78-.85-1.31,1.52-2.04,2.58-4.49,4.85-5.89.42-.26,1.28-.35,1.58-.1.34.29.53,1.16.35,1.59-.43,1.02-.97,2.1-1.75,2.85-1.07,1.04-2.4,1.81-3.64,2.67-.17.12-.42.14-.55.18Z"/>
      </g>
    </g>
  </g>
</svg>