<?xml version="1.0" encoding="UTF-8"?>
<svg id="Layer_2" data-name="Layer 2" xmlns="http://www.w3.org/2000/svg" viewBox="0 0 575.39 490.06">
  <defs>
    <style>
      .cls-1 {
        fill: #fbbd43;
      }

      .cls-1, .cls-2 {
        stroke-width: 0px;
      }

      .cls-2 {
        fill: #1d1e1e;
      }
    </style>
  </defs>
  <g id="Layer_1-2" data-name="Layer 1">
    <g>
      <path class="cls-1" d="m25.65,215.62s5.84,1.96,70.98-85.64S217.4-30.76,257.09,13.12s25.06,68.36,77.94,83.12,94.5,24.88,135-3.24,105.75-54,104.62,9-1.1,78.75.01,91.12,3.88,35.74-18.88,39.25-38.51,8-44.13,22.63-6.75,61.89-6.75,61.89c0,0,13.5,44.98-5.62,58.48s-111.38,39.38-120.38,46.12-80.08,22.18-88.42,22.34-43.21,21.54-43.21,21.54c0,0-78.75,42.74-79.88,15.74s-97.88,0-114.75-30.38-91.12-111.38-27-235.12Z"/>
      <g>
        <path class="cls-2" d="m555.78,110.6c-.11.58-.3,1.16-.32,1.75-.26,7.35-1.99,14.43-4,21.44-1.54,5.38-3.34,10.69-5.1,16-.37,1.1-.39,2.03.12,3.09,5.42,11.28,7.64,23.27,7.75,35.71.01,1.67-.2,3.36-.46,5.02-.12.77-.5,1.55-.93,2.22-2.1,3.31-6.45,3.29-8.55-.03-1.12-1.77-1.36-3.78-1.48-5.82-.26-4.45-.45-8.9-.85-13.34-.22-2.48-.76-4.93-1.2-7.38-.11-.63-.39-1.23-.69-2.19-.38.68-.64,1.04-.8,1.44-12.53,29.89-28.8,57.69-47.27,84.25-14.18,20.39-30.1,39.35-47.4,57.15-19.27,19.82-39.55,38.54-61.16,55.79-.84.67-1.69,1.37-2.62,1.89-2.88,1.61-6.4.93-8.43-1.55-2.03-2.47-2.02-6.08.1-8.58.65-.77,1.44-1.42,2.23-2.05,20.95-16.78,40.65-34.93,59.42-54.11,28.41-29.02,52.37-61.36,72.29-96.73,8.46-15.01,16.12-30.4,22.46-46.44.2-.5.38-1.01.55-1.52.04-.12,0-.26,0-.65-.81-.07-1.64-.19-2.48-.21-5.44-.15-6.63-5.14-4.1-8.21.42-.51.72-1.15.97-1.77.84-2.08-.6-3.93-2.82-3.42-1.41.33-2.74,1.08-4.06,1.73-.72.35-1.32.96-2.04,1.31-2.55,1.22-5.32.03-6.17-2.67-.24-.76-.3-1.58-.4-2.39-.34-2.89-1.18-4.65-3.09-6.26-.58,1.08-1.19,2.12-1.72,3.2-7.71,15.83-15.45,31.65-23.12,47.51-10.42,21.57-20.63,43.24-31.24,64.72-7.54,15.26-16.11,29.96-25.84,43.95-7.79,11.21-16.05,22.05-25.12,32.26-1.3,1.47-2.8,2.54-4.78,2.79-4.73.58-8.58-3.92-7.14-8.48.41-1.31,1.21-2.58,2.12-3.62,19.07-21.67,34.81-45.58,47.82-71.29,7.34-14.51,14.31-29.21,21.43-43.83.2-.42.34-.86.6-1.54-.69.13-1.19.2-1.68.33-13.83,3.62-26.66,9.5-38.72,17.13-1.85,1.17-3.71,2.18-6.01,2.06-4.33-.23-7.34-3.93-6.57-8.19.17-.92.46-1.83.76-2.72.32-.96.68-1.91,1.1-2.83,2.4-5.27,1.2-9.84-2.66-13.92-1.64-1.73-3.43-3.26-5.55-4.34-4.92-2.52-9.64-2.25-14.03,1.21-3.64,2.87-6.59,6.37-9.09,10.26-4.77,7.4-7.36,15.57-8.8,24.18-1.17,7-1.95,14.04-2.26,21.13-.41,9.24.4,18.34,3.35,27.17,2.48,7.42,6.31,14.01,12.08,19.38,1.32,1.23,2.32,2.66,2.56,4.48.34,2.63-.52,4.82-2.68,6.38-2.16,1.56-4.55,1.74-6.89.54-1.18-.6-2.23-1.52-3.19-2.45-7.97-7.81-12.99-17.32-15.92-28-2.56-9.34-3.28-18.87-2.81-28.5.46-9.45,1.53-18.83,3.56-28.09,2.51-11.4,7.2-21.78,14.97-30.57,2.4-2.71,5.07-5.29,8.01-7.39,8.38-5.99,17.4-6.42,26.63-2.06,5.95,2.81,10.54,7.23,13.96,12.84,1.85,3.04,3.09,6.29,3.4,9.86.02.27.07.54.13.8.03.12.11.24.26.53.51-.21,1.05-.38,1.55-.64,12.33-6.52,25.5-10.66,39.04-13.7,2.3-.51,3.49-1.46,4.5-3.56,7.61-15.96,15.37-31.84,23.08-47.75.17-.36.34-.72.75-1.57-1.16.51-2.01.71-2.64,1.19-1.33,1.02-2.61,2.12-3.8,3.3-1.33,1.32-2.76,2.19-4.69,1.73-2.01-.48-3-1.93-3.45-3.84-.02-.07-.03-.13-.05-.2-.73-2.98-1.45-3.26-4.12-1.59-1.81,1.13-3.2,2.68-4.39,4.42-2.35,3.44-3.81,7.28-4.94,11.26-.29,1.04-.53,2.1-.86,3.12-.76,2.32-2.34,3.61-4.35,3.62-2.02,0-3.55-1.27-4.29-3.64-.52-1.67-.87-3.41-1.5-5.04-.5-1.3-1.17-2.59-2.01-3.7-1.15-1.52-2.8-2.06-4.7-1.5-.64.19-1.33.35-1.89.69-4.82,2.85-8.29,6.66-8.77,12.56-.2,2.38-1.61,3.96-3.64,4.22-2,.26-3.77-.99-4.54-3.23-.13-.38-.22-.78-.36-1.16-.88-2.57-2.63-4.01-5.38-4.17-3.53-.21-6.84.64-10,2.11-2.76,1.29-5.35,2.87-7.55,5.02-.34.33-.7.64-1.1.89-1.58,1-3.54.85-4.89-.33-1.42-1.24-1.89-3.3-.86-4.96.7-1.12,1.8-1.98,2.67-3,.51-.59,1.11-1.19,1.35-1.9.49-1.44,1.38-2.46,2.69-3.14,2.64-1.36,5.24-2.82,7.95-4.01,12.29-5.39,24.54-10.91,37.34-15.06,10.31-3.34,20.8-5.78,31.64-6.53,5.32-.37,10.66-.44,15.98.13.6.06,1.21.09,1.97.14.43-.72.88-1.46,1.32-2.21,4.58-7.82,9.55-15.37,15.79-21.99,3.06-3.25,6.29-6.31,10.09-8.71,2.3-1.45,4.74-2.57,7.42-3.14,5.88-1.25,10.98.38,15.32,4.38,4.64,4.27,6.92,9.71,7.5,15.92.09.92.27,1.84.4,2.76v4.46Zm-19.63,26.78c.25-.55.44-.84.52-1.16,1.5-5.8,3.13-11.57,4.43-17.42,1.01-4.54,1.52-9.18.93-13.86-.26-2.02-.73-3.98-1.82-5.74-1.97-3.19-4.12-3.84-7.28-1.83-2.14,1.36-4.14,3.02-5.99,4.77-5.28,4.99-9.44,10.88-13.26,17.02-.6.96-1.18,1.94-1.89,3.12,9.27,3.29,17.52,7.95,24.36,15.09Z"/>
        <path class="cls-2" d="m289.77,132.4c-3.39-6.32-6.62-12.47-9.97-18.55-9.5-17.28-21.12-33.1-33.63-48.29-.75-.91-1.81-1.57-2.74-2.33-.63-.51-1.38-.88-1.92-1.46-1.45-1.56-3.28-2.11-5.29-2.1-2.32.02-4.54.6-6.64,1.59-1.53.72-2.27,1.87-1.94,3.58.28,1.45.52,2.93.94,4.34.71,2.39,1.54,4.75,2.32,7.12.23.7.49,1.41.62,2.14.46,2.76-1.54,5.14-4.33,5.14-.67,0-1.35-.11-1.99-.29-6.22-1.69-12.43-1.41-18.61.17-2.87.73-5.36,2.18-7.38,4.39-1.74,1.9-2.42,4.1-1.43,6.53.83,2.05,1.86,4.03,2.89,6,.62,1.19,1.49,2.26,2.12,3.45,1.68,3.2.38,6.37-3.11,7.34-1.87.53-3.87.62-5.76,1.07-3.67.88-7.34,1.78-10.95,2.87-2.46.74-4.67,2.1-6.67,3.75-1.89,1.55-2.64,3.48-2.22,5.92.61,3.59,2.18,6.79,3.88,9.94.42.77.91,1.51,1.26,2.31.76,1.75.65,3.46-.69,4.9-1.27,1.37-2.87,1.69-4.64,1.12-.38-.12-.77-.25-1.14-.42-4.28-1.92-8.74-2.12-13.29-1.32-5.05.88-8.55,3.77-10.72,8.35-1.23,2.6-1.91,5.35-1.89,8.22.02,5.21.5,10.38,1.68,15.46.39,1.7,1.09,3.32,1.64,4.99.23.7.53,1.4.63,2.12.24,1.67-.33,3.08-1.74,4.05-1.33.92-2.78.93-4.24.27-.25-.11-.49-.23-.71-.39-4.04-3.04-8.53-3.04-13.14-1.86-6.43,1.64-11.56,5.38-15.99,10.19-3.19,3.47-5.56,7.45-7.23,11.85-.38,1.01-.76,2.04-1.33,2.95-2.01,3.23-6.09,3.27-8.22.12-.93-1.38-1.3-2.95-1.45-4.58-.46-4.93.5-9.68,1.91-14.36,2.43-8.06,6.21-15.52,10.41-22.78,8.06-13.95,17.53-26.92,27.62-39.44,13.04-16.2,25.87-32.56,37.95-49.5,4.24-5.94,8.92-11.54,14.17-16.63,7.84-7.59,16.94-12.88,27.7-15.11,1.98-.41,3.99-.77,6-.85,4.91-.19,9.83-.67,14.72.47,7.81,1.82,14.24,5.59,19.42,11.92,17.27,21.08,32.32,43.57,44.32,68.06,4.36,8.91,8.77,17.8,12.79,26.86,3.56,8.02,6.37,16.34,8.83,24.77,3.93,13.48,7.68,27.01,10.15,40.84,2.02,11.29,3.88,22.61,5.47,33.97,1.3,9.28,2.3,18.62,3.08,27.97.93,11.1,1.18,22.24.79,33.39-.45,13.09-1.33,26.16-2.71,39.19-.59,5.57-1.27,11.13-1.99,16.69-.14,1.12-.48,2.26-1,3.26-1.35,2.62-4.29,3.91-7.2,3.32-2.82-.57-5.01-3.02-5.22-5.96-.07-1,.02-2.02.12-3.03.95-8.99,2-17.98,2.86-26.98,1.04-10.82,1.56-21.68,1.71-32.55.19-14.54-.75-29.01-2.5-43.44-1.82-15.01-4.02-29.97-7-44.79-3.92-19.47-9.01-38.63-16.14-57.2-.88-2.3-1.91-4.41-3.9-6.02-7.67-6.22-16.01-11.19-25.45-14.29-14.09-4.62-35.28,1.05-44.35,18-4.05,7.57-6.56,15.66-8.18,24.05-2.09,10.84-2.04,21.74-.95,32.67.86,8.68,2.23,17.27,4.3,25.73,2.03,8.29,5.06,16.22,8.74,23.91,5.88,12.27,12.62,24.02,21.19,34.64,5.97,7.4,12.63,14.08,20.69,19.21,2.5,1.59,5.15,2.94,7.78,4.32,2.29,1.2,3.92,2.89,4.26,5.53.63,4.91-3.99,8.64-8.84,7.13-1.02-.32-2.01-.8-2.97-1.28-9.62-4.76-17.82-11.4-25.14-19.18-8-8.5-14.66-17.99-20.48-28.08-6.19-10.72-11.67-21.76-15.6-33.53-3.4-10.16-5.41-20.62-6.68-31.22-.72-6.02-1.23-12.1-1.42-18.16-.52-16.21,2.26-31.86,8.75-46.77,3.85-8.84,9.35-16.41,17.32-21.99,11.12-7.78,23.47-11.08,36.96-9.73,6.51.65,12.59,2.92,18.49,5.69.49.23.97.47,1.47.69.1.04.25-.02.75-.07Z"/>
        <path class="cls-2" d="m175.08,295.16c-.36-.23-.73-.49-1.12-.69-12.37-6.41-25.44-10.49-39.35-11.56-10.64-.82-21.17.04-31.53,2.74-.87.23-1.56.56-2.11,1.38-.46.68-1.23,1.27-1.99,1.62-3.97,1.79-6.68,6.55-6.11,10.89.12.93.32,1.88.26,2.81-.19,3.27-3.58,4.99-6.37,3.27-.4-.25-.75-.57-1.11-.87-2.5-2.08-5.37-2.44-8.39-1.58-2.29.65-3.27,2.49-3.56,4.71-.35,2.61.58,4.91,1.92,7.08.42.69.93,1.34,1.29,2.06,1.01,2.01.48,4.22-1.22,5.42-1.72,1.21-3.95.95-5.51-.69-.46-.49-.85-1.05-1.23-1.6-.67-.96-1.61-1.45-2.75-1.45-3.76,0-6.89,1.39-8.92,4.62-1.56,2.47-1.62,5.16-.09,7.68.83,1.37,1.98,2.55,3.03,3.77.57.66,1.31,1.18,1.86,1.86,2.06,2.51,1.28,5.98-1.82,6.89-3.86,1.14-5,4.02-5.53,7.42-.21,1.32-.17,2.7-.03,4.04.37,3.72,2.01,6.68,5.38,8.53.83.45,1.67.87,2.51,1.32,3.7,1.98,4.06,5.92.59,8.25-2.42,1.62-3.68,3.82-4.5,6.48-.4,1.28-.23,2.28.46,3.42,5.23,8.59,11.95,15.79,20,21.8,12.8,9.57,27.16,15.72,42.63,19.38,19.21,4.55,38.68,6.71,58.43,6.08,8.38-.27,16.69-1.16,24.89-2.97.98-.22,2-.35,3-.33,2.89.06,5.37,2.03,6.13,4.75.8,2.85-.28,5.89-2.8,7.42-1.02.61-2.21,1.03-3.37,1.3-8.11,1.9-16.36,2.83-24.66,3.22-22.68,1.06-45.02-1.41-67.03-6.88-17.44-4.34-33.5-11.67-47.62-22.91-17.91-14.26-28.99-32.74-32.92-55.26-3.67-21.02,1.64-39.76,15.78-55.84,12.51-14.23,27.7-24.42,46.04-29.54,23.03-6.42,45.79-5.24,68.22,2.96,10.71,3.92,20.64,9.33,30.06,15.72,1.1.75,2.37,1.25,3.51,1.95.91.56,1.79,1.19,2.6,1.88,1.11.96,2.06,2.13,3.22,3.03,13.78,10.61,25.22,23.39,34.87,37.79,4.99,7.46,9.76,15.07,14.56,22.65,3.63,5.74,6.27,11.93,8.13,18.46,1.03,3.61-.46,7.05-3.7,8.43-3.3,1.4-6.98,0-8.73-3.38-.43-.83-.75-1.74-.99-2.64-1.12-4.06-2.74-7.92-4.9-11.51-7.4-12.25-14.92-24.42-23.81-35.68-7.62-9.65-16.48-18.02-26.29-25.4-.94-.71-1.86-.93-3-.85-7.94.54-15.58,2.45-23.03,5.15-6.64,2.4-12.88,5.57-18.6,9.71-3.14,2.27-5.89,4.93-8.25,8.01-5.81,7.59-7.2,15.93-4.41,25.05,1.9,6.22,5.41,11.43,9.84,16.09,3.32,3.49,7.04,6.5,11.01,9.2,13.46,9.15,28.23,14.87,44.4,16.91,8.82,1.12,17.63,1.13,26.45.02,1-.13,2.02-.21,3.03-.19,3.43.07,6.07,2.41,6.56,5.73.48,3.23-1.48,6.35-4.76,7.3-1.41.41-2.91.58-4.38.74-17.22,1.9-34.11.36-50.55-5.19-14.22-4.8-27.17-11.93-38.34-22.05-5.75-5.21-10.53-11.22-13.79-18.33-2.46-5.39-3.97-11.03-4.32-16.97-.44-7.42,1.22-14.34,4.81-20.81,4.08-7.35,9.77-13.2,16.72-17.87,8.89-5.97,18.59-10.09,28.89-12.91.78-.21,1.54-.47,2.3-.72.04-.01.05-.12.13-.29Z"/>
        <path class="cls-2" d="m381.75,384.29c.32.61.6,1.12.92,1.73,3.44-1,6.78-2.04,10.15-2.96,14.97-4.08,29.91-8.27,44.93-12.14,8.75-2.25,17.6-4.15,26.59-5.27,2.13-.27,4.31-.37,6.46-.27,1.3.06,2.63.54,3.84,1.07,1.16.51,1.84,1.57,2.05,2.85.23,1.4-.58,2.8-1.84,3.26-1.26.46-2.44,0-3.26-1.3-.18-.28-.3-.59-.47-.95-3.15-.37-6.22.06-9.27.59-16.71,2.88-33.12,6.99-49.4,11.69-8.75,2.53-17.51,5-26.27,7.51-.78.22-1.54.49-2.28.73-.12.23-.26.4-.29.58-.4,2.94-2.04,5.08-4.31,6.84-4.07,3.16-8.68,5.21-13.63,6.45-2.34.59-4.79,1.14-7.18,1.12-9.7-.1-18.62,2.72-27.25,6.81-3.41,1.62-6.88,3.12-10.3,4.74-9.89,4.7-20.31,7.61-31.12,9.26-7.87,1.2-15.72,2.56-23.34,4.95-13.23,4.15-24.59,11.3-34.17,21.29-3.32,3.46-6.55,7-9.87,10.46-.64.67-1.41,1.26-2.22,1.71-.95.53-1.98.46-2.84-.28-.84-.72-1.18-1.68-.85-2.73.32-1.03.64-2.1,1.21-2.99,1.42-2.21,2.85-4.44,4.52-6.45,2.93-3.53,6-6.95,9.09-10.35,7.49-8.22,16.41-14.65,25.97-20.17,14.44-8.34,28.64-17.07,42.76-25.93,4.68-2.94,9.58-5.53,14.5-8.05,6.85-3.51,14.15-4.74,21.81-3.77,2.91.37,5.78-.18,8.67-.37,6.16-.4,12.12-1.77,18.08-3.26,3.67-.92,7.42-1.47,11.23-.69.4.08.84.09,1.18.28,1.74.98,3.05.32,4.53-.78,22.53-16.67,45.68-32.44,70.1-46.25,10.58-5.98,21.37-11.55,32.65-16.13,2.8-1.14,5.74-1.95,8.64-2.82.82-.25,1.74-.28,2.6-.22,1.87.15,3.13,1.63,2.87,3.23-.29,1.78-1.85,2.58-3.84,2.15-.8-.17-1.73-.12-2.53.11-5.14,1.47-9.99,3.7-14.82,5.96-18.12,8.51-35.29,18.7-52.08,29.56-13.61,8.8-26.84,18.15-39.91,27.72-.65.47-1.28.97-2,1.52Z"/>
        <path class="cls-2" d="m31.08,283.95c.09-.36.23-1.02.42-1.66,2.35-7.89,6.48-14.79,11.72-21.08,6.48-7.78,14.1-14.32,22.2-20.33,3.74-2.77,7.58-5.41,11.31-8.2,2.11-1.57,4.15-3.24,6.08-5.02.96-.89,1.68-2.08,2.37-3.21.77-1.27,1.8-1.85,2.97-1.44,1.23.42,2.08,1.79,1.6,3.09-.45,1.24-1.11,2.52-2.02,3.44-2.03,2.06-4.16,4.06-6.46,5.81-5.31,4.05-10.8,7.87-16.13,11.9-6.54,4.93-12.55,10.44-17.86,16.7-5.08,5.99-9.06,12.58-11.27,20.17-.13.45-.28.91-.51,1.32-.59,1.07-1.67,1.56-2.71,1.27-1.06-.29-1.71-1.22-1.73-2.75Z"/>
        <path class="cls-2" d="m354.5,142.44c-9.16,0-17.76-2.12-25.85-6.36-.95-.5-1.9-1.06-2.7-1.75-1.15-.98-1.27-2.38-.48-3.44.78-1.05,2.1-1.21,3.42-.39,7.4,4.59,15.49,6.83,24.16,6.87,3.43.01,6.86-.31,10.29-.47.67-.03,1.35-.12,2.01-.04,1.09.14,1.87.96,2.01,1.97.13.99-.42,2.02-1.43,2.43-.61.25-1.29.4-1.96.46-3.15.26-6.31.48-9.47.71Z"/>
        <path class="cls-2" d="m206.75,474.52c-1.01,0-1.75-.39-2.19-1.25-.48-.95-.43-2.03.37-2.6,2.02-1.43,4.13-2.75,6.31-3.9.97-.51,2.07.1,2.63.96.57.88.62,2.14-.26,2.77-2.02,1.43-4.19,2.64-6.31,3.93-.16.1-.39.07-.54.09Z"/>
      </g>
    </g>
  </g>
</svg>