<?xml version="1.0" encoding="UTF-8"?>
<svg id="Layer_2" data-name="Layer 2" xmlns="http://www.w3.org/2000/svg" viewBox="0 0 96.27 111.74">
  <defs>
    <style>
      .cls-1 {
        fill: #606060;
        stroke-width: 0px;
      }
    </style>
  </defs>
  <g id="Layer_1-2" data-name="Layer 1">
    <path class="cls-1" d="m54.59,70.27c5.02-4.77,10.12-9.46,15.04-14.32,3.31-3.27,6.03-7.26,9.71-9.98,1.96-1.44,6.1-2,7.99-.86,1.86,1.13,3.23,5.08,2.85,7.49-1.39,8.9-7.34,15.49-12.83,22.17-3.38,4.11-7.2,7.86-10.48,12.04-.91,1.17-.6,3.29-.85,4.98,1.56-.12,3.29.16,4.64-.43,4.26-1.87,8.29-4.28,12.59-6.07,3.86-1.61,8.36-3.27,11.43.95,2.93,4.03,1.42,8.48-1.45,12.02-8.84,10.89-20.56,14.86-34.22,13.07-12.47-1.63-22.81-8.07-32.55-15.54-4.48-3.44-9-6.92-12.98-10.9C-1.96,69.48-4.16,51.28,7,32.53c6.75-11.34,16.06-20.39,26.56-28.19,4.8-3.57,10.24-5.71,16.4-3.36,5.08,1.93,6.61,5.85,3.49,10.28-2.66,3.79-5.8,7.32-9.15,10.52-9.29,8.89-11.63,20.71-14.01,32.48-.74,3.66,1.94,3.95,4.38,2.45,3.39-2.09,6.51-4.62,9.73-6.98,2.69-1.96,5.12-4.59,8.11-5.72,2.27-.86,5.89-.72,7.73.62,1.53,1.11,2.37,4.96,1.68,6.95-1.62,4.65-4.34,8.91-6.64,13.33-.72,1.39-1.51,2.75-2.27,4.13.53.41,1.07.83,1.6,1.24Z"/>
  </g>
</svg>