<?xml version="1.0" encoding="UTF-8"?>
<svg id="Layer_2" data-name="Layer 2" xmlns="http://www.w3.org/2000/svg" viewBox="0 0 536.78 458.74">
  <defs>
    <style>
      .cls-1 {
        fill: #d94e26;
        stroke-width: 0px;
      }
    </style>
  </defs>
  <g id="Layer_1-2" data-name="Layer 1">
    <path class="cls-1" d="m52.99,159.01s51.5-53.49,90-64.49c38.5-11.01,58.5-37.51,72.5-47.01s37.5-16,44.5-13,30.5,28,34.5,8.5,27.11-70.5,71.8-24,40.2,59,52.2,69,11.5,12.73,24.5,28.61c13,15.89,51.8,41.89,37.9,49.89s-33.4,3-36.9,2,6.53,19.5,17.26,32,42.24,12.53,42.24,12.53c0,0-6.2,12.57-22.6,15.02s31.6,6.55,49.6,0-6.5,31.95-25,38.45,20.5,57-14.5,92-91.5,37.5-74,10,28.5-48.48-23.5-70.99-82-32.51-53,7.99,60.5,84.5,31,99-68.09,62.5-106.55,53-27.57-20.83-32.26-57.91-58.44-66.59-60.07-63.59-17.62.72,13.88,46.11,29.62,69.39,16.31,69.89-60.81,1-63.31-3-11.5-42.5-25-39.5,6,32.5-17,42.5-73.66-6-73.66-6c0,0,19.16-70.5,22.16-80.5s-22.5,2-34.5-17.5-19.5-33.5,3-70,24-54,18-69.5,20.5-49.5,20.5-49.5Z"/>
  </g>
</svg>