<?xml version="1.0" encoding="UTF-8"?>
<svg id="Layer_2" data-name="Layer 2" xmlns="http://www.w3.org/2000/svg" viewBox="0 0 179.86 157.85">
  <defs>
    <style>
      .cls-1 {
        fill: #d94e26;
        stroke-width: 0px;
      }
    </style>
  </defs>
  <g id="Layer_1-2" data-name="Layer 1">
    <path class="cls-1" d="m68.67,79.54c-.81-6.51-2.03-13.01-2.33-19.54-.31-6.6-.15-13.29.63-19.84.65-5.49,4.2-9.08,9.73-10.88,17.49-5.7,19.17-5.2,29.51,9.93,4.72,6.91,9.52,13.78,14.78,20.25-1.87-8.23-4.18-16.39-5.42-24.71-.72-4.8-.15-9.94.75-14.75.42-2.25,2.57-4.92,4.66-6,8.41-4.37,16.95-8.56,25.73-12.13,10.09-4.11,13.93-1.24,17.82,7,11.73,24.85,16.56,50.99,15.09,78.12-1.29,23.84-9.7,44.79-29.69,59.65-8.58,6.38-18.7,8.98-28.88,10.31-29.48,3.86-55.71-4.58-78.44-23.42-5.25-4.35-9.95-9.96-13.29-15.9-8.16-14.48-15.52-29.43-22.88-44.34-2.42-4.89-4.06-10.2-5.69-15.43-1.69-5.44-.55-7.75,4.7-9.72,10.44-3.91,20.92-7.75,31.47-11.35,7.35-2.51,10.3-1.23,13.54,5.84,4.86,10.59,9.4,21.33,14.11,31.98.8,1.8,1.82,3.49,2.73,5.23.46-.1.92-.19,1.38-.29Z"/>
  </g>
</svg>