<?xml version="1.0" encoding="UTF-8"?>
<svg id="Layer_2" data-name="Layer 2" xmlns="http://www.w3.org/2000/svg" viewBox="0 0 243.12 501.45">
  <defs>
    <style>
      .cls-1 {
        fill: #869e57;
        stroke-width: 0px;
      }
    </style>
  </defs>
  <g id="Layer_1-2" data-name="Layer 1">
    <path class="cls-1" d="m88.39,222.64c5.81-8.72,3.66-18.02-2.99-26.31-6.96-8.68-14-17.41-19.82-26.85-3.29-5.32-4.65-12-6.03-18.26-.96-4.38.42-9.56,4.84-11.01,3.63-1.2,8.72-.75,12.17.97,4.13,2.06,7.15,6.31,10.75,9.5,1.94,1.72,4.1,3.2,6.68,5.18,2.27-4.72,1.06-8.68-1.02-11.75-2.95-4.34-6.44-8.58-10.51-11.85-10.36-8.31-16.52-18.93-19.25-31.72-.48-2.26-.79-4.61-.8-6.92-.02-5.35,1.83-10.03,6.94-12.25,4.78-2.07,9.32.05,12.88,3.12,5.91,5.09,11.36,10.73,17.04,16.1,1.17,1.11,2.53,2.03,3.8,3.03.53-.17,1.06-.34,1.59-.5-.47-2.68-.34-5.66-1.52-7.98-3.76-7.4-8.6-14.29-11.86-21.88-2.22-5.18-2.9-11.16-3.48-16.86-.43-4.18,1.56-7.87,5.84-9.54,4.18-1.63,7.83-.45,10.87,2.72,2.19,2.28,4.23,4.71,6.51,6.89,1.31,1.25,2.96,2.15,5.61,4.03.76-7.68.76-14.06,2.12-20.13,2.28-10.16,4.41-20.56,8.47-30.06,5.31-12.41,17.1-13.77,25.75-3.29,3.52,4.26,5.73,10.12,7.02,15.6,3.08,13.12,1.73,26.11-3.39,38.67-1.21,2.98-2.05,6.11-3.06,9.18.45.29.89.58,1.34.87,1.64-1.46,3.54-2.71,4.86-4.42,3.05-3.95,5.67-8.23,8.75-12.16,1.82-2.32,3.89-4.68,6.35-6.24,6.77-4.32,13.67-.77,14.37,7.24.22,2.46.34,5.12-.34,7.44-4.48,15.45-10.21,30.17-22.42,41.63-4.84,4.54-8.41,10.45-12.57,15.73.48.63.96,1.25,1.45,1.88,1.79-.65,4.05-.81,5.27-2.03,5.17-5.14,10.06-10.56,14.99-15.94,4.38-4.78,8.32-10.03,13.08-14.37,5.56-5.07,10.69-3.84,14.14,2.85,5.83,11.28,4.87,22.77.89,34.39-4.61,13.45-13.92,23.24-24.32,32.31-2.94,2.56-5.51,5.54-7.88,8.76,6.55-1.5,11.49-5.38,16.44-9.53,4.39-3.68,9.16-7.22,14.33-9.59,7.74-3.54,14.74.42,16.81,8.69,2.65,10.55,1.78,20.9-2.8,30.73-6.61,14.17-16.55,25.1-31.02,31.87-5.81,2.72-11.02,6.77-16.3,10.5-1.58,1.12-2.47,3.21-3.67,4.85.34.6.67,1.21,1.01,1.81,4.26-1.3,8.92-1.89,12.71-4.03,8.51-4.81,16.58-10.4,24.84-15.65,1.82-1.16,3.63-2.38,5.57-3.32,8.62-4.22,14.89-2.08,19.61,6.35,6.81,12.16,4.57,23.82-.97,35.77-8.92,19.26-24.2,31.08-43.14,39.32-7.82,3.4-16.48,6.21-20.98,14.43-1.96,3.58-3.52,7.55-4.35,11.53-1.14,5.43,2.96,9.54,9.84,10.86,12.97,2.5,25.8,1,38.68-.94,5.37-.81,10.92-1.16,16.32-.8,11.21.74,18.91,9.44,18.68,20.76-.42,21.16-9.51,36.71-29.02,46.25-18.51,9.05-38.29,14.21-57.73,20.5-19.23,6.22-39.28,10.24-56.61,21.49-9.96,6.47-17.13,15.15-21.66,26.09-3.56,8.61-7.14,17.21-10.81,25.78-1.04,2.43-2.19,4.92-3.81,6.98-.97,1.24-3.33,2.68-4.35,2.27-1.5-.6-3.34-2.81-3.31-4.3.1-4.96.78-9.93,1.56-14.84,2.04-12.8,4.18-25.59,6.42-38.36,1.45-8.24-.67-15.87-3.73-23.32-4.29-10.45-10.88-19.25-18.65-27.49-10.6-11.24-20.71-22.98-30.4-35.01-5.89-7.31-9.1-16.14-10.69-25.53-.97-5.73.06-10.67,4.43-14.5,4.4-3.86,9.53-3.46,14.6-1.49,10.87,4.23,18.91,11.93,26.58,20.53,5.09,5.72,11.48,10.51,17.93,14.72,4.71,3.07,7.7.69,7.75-5.2.09-9.56-5.57-15.56-12.86-20.62-6.54-4.53-13.02-9.18-19.38-13.97-14.28-10.75-20.96-25.93-24.06-42.91-.69-3.77-.17-8.05.9-11.77,1.26-4.39,4.95-6.55,9.7-6.24,11.64.76,20.55,6.79,28.6,14.65,6.42,6.27,12.97,12.42,19.68,18.38,2.18,1.93,4.91,3.53,7.67,4.43,1.85.6,4.19-.28,6.31-.5-.28-2.3.23-5.22-1-6.77-2.75-3.48-6.21-6.46-9.66-9.31-8.59-7.08-17.49-13.79-25.98-21-10-8.49-16.98-19.08-20.54-31.82-2.83-10.13-1.64-19.79,3.35-28.97,2.83-5.2,8.15-7.59,14.57-5.58,4.31,1.35,8.9,3.45,12.03,6.56,8.26,8.19,15.83,17.07,23.58,25.76,1.51,1.7,2.58,3.79,3.85,5.7Z"/>
  </g>
</svg>