<?xml version="1.0" encoding="UTF-8"?>
<svg id="Layer_2" data-name="Layer 2" xmlns="http://www.w3.org/2000/svg" viewBox="0 0 174.99 158.66">
  <defs>
    <style>
      .cls-1 {
        fill: #fff8ed;
      }

      .cls-1, .cls-2 {
        stroke-width: 0px;
      }

      .cls-2 {
        fill: #fad02e;
      }
    </style>
  </defs>
  <g id="Layer_1-2" data-name="Layer 1">
    <g>
      <path class="cls-1" d="m29.42,79.17S-5.45,62.3.74,39.8,39.55-17.01,69.92,9.8c0,0,15,11.16,18.25,20.53.12.35.22.69.31,1.03,2.44,9.56,13.88-22.5,41.06-25.69s50.81,19.69,35.25,49.12-20.81,25.5-20.81,25.5c0,0,29.81,13.12,30.94,38.62s-10.88,53.62-44.62,32.06-40.69-28.31-40.69-28.31c0,0-23.44,33.38-49.31,25.88s-30.56-22.12-23.06-44.81,12.19-24.56,12.19-24.56Z"/>
      <ellipse class="cls-2" cx="87.5" cy="79.33" rx="31.51" ry="25.77"/>
    </g>
  </g>
</svg>