<?xml version="1.0" encoding="UTF-8"?>
<svg id="Layer_2" data-name="Layer 2" xmlns="http://www.w3.org/2000/svg" viewBox="0 0 536.78 458.74">
  <defs>
    <style>
      .cls-1 {
        fill: #1d1e1e;
      }

      .cls-1, .cls-2 {
        stroke-width: 0px;
      }

      .cls-2 {
        fill: #d94e26;
      }
    </style>
  </defs>
  <g id="Layer_1-2" data-name="Layer 1">
    <g>
      <path class="cls-2" d="m52.99,159.01s51.5-53.49,90-64.49c38.5-11.01,58.5-37.51,72.5-47.01s37.5-16,44.5-13,30.5,28,34.5,8.5,27.11-70.5,71.8-24,40.2,59,52.2,69,11.5,12.73,24.5,28.61c13,15.89,51.8,41.89,37.9,49.89s-33.4,3-36.9,2,6.53,19.5,17.26,32,42.24,12.53,42.24,12.53c0,0-6.2,12.57-22.6,15.02s31.6,6.55,49.6,0-6.5,31.95-25,38.45,20.5,57-14.5,92-91.5,37.5-74,10,28.5-48.48-23.5-70.99-82-32.51-53,7.99,60.5,84.5,31,99-68.09,62.5-106.55,53-27.57-20.83-32.26-57.91-58.44-66.59-60.07-63.59-17.62.72,13.88,46.11,29.62,69.39,16.31,69.89-60.81,1-63.31-3-11.5-42.5-25-39.5,6,32.5-17,42.5-73.66-6-73.66-6c0,0,19.16-70.5,22.16-80.5s-22.5,2-34.5-17.5-19.5-33.5,3-70,24-54,18-69.5,20.5-49.5,20.5-49.5Z"/>
      <g>
        <path class="cls-1" d="m514.18,244.88c-.59.98-1.38,1.73-2.45,2.19-6.66,2.85-13.34,5.65-20.36,7.52-4.96,1.32-10,2.16-15.16,2.09-1.31-.02-2.63-.17-4.29-.28.47,1.11.83,2.01,1.22,2.88,4.67,10.44,8.89,21.05,11.69,32.17,2.67,10.57,4.03,21.26,2.96,32.18-.63,6.45-1.94,12.73-4.21,18.81-.81,2.18-1.56,4.39-2.53,6.5-3.64,7.89-8.8,14.48-16.34,19.07-4.44,2.7-8.89,5.32-13.81,7.08-2.17.78-4.35,1.12-6.64.94-.72-.06-1.37-.14-1.52-.95-.13-.69.3-1.09.9-1.37,1.85-.88,3.69-1.8,5.53-2.69,2.75-1.34,5.57-2.54,8.23-4.03,6.19-3.47,10.9-8.44,14.17-14.73,3.42-6.57,5.96-13.5,7.5-20.74,1.47-6.91,1.03-13.88.27-20.84-1.03-9.42-4.14-18.23-7.75-26.9-6.05-14.56-13.15-28.6-20.79-42.38-1.29-2.32-2.53-4.68-3.79-7.01-.31-.57-.65-1.12-1.01-1.75-1.16.26-2.18.53-3.21.73-7.2,1.39-14.41,1.18-21.62.15-2.69-.39-5.37-.93-8.04-1.43-5.24-.98-9.91-3.32-14.51-5.89-4.5-2.5-8.74-5.3-12.31-9.06-1.84-1.94-3.52-3.98-4.67-6.42-.72-1.53-1.11-3.13-.94-4.83.32-3.31,2.65-5.42,5.94-5.03,1.88.22,3.81.75,5.52,1.56,3.17,1.51,6.26,3.22,9.27,5.04,7.48,4.51,15.22,8.48,23.53,11.2,4.53,1.49,9.23,2.48,13.85,3.68.44.11.9.11,1.62.2-.25-.64-.38-1.11-.6-1.54-4.9-9.36-9.39-18.92-13.36-28.72-4.37-10.79-8.03-21.82-11.16-33.02-2.6-9.27-4.9-18.63-7.58-27.88-1.89-6.5-4.19-12.88-6.29-19.32-.45-1.38-1.28-2.41-2.44-3.29-12.11-9.2-25.03-17.02-38.81-23.47-9.33-4.37-18.77-8.48-28.48-11.93-.68-.24-1.37-.44-2.37-.76.1.79.12,1.35.24,1.88,3.17,14.4,6.38,28.79,9.53,43.2,4.47,20.47,10.14,40.6,17.26,60.3,2.35,6.5,4.83,12.95,8.21,19.01,1.91,3.44,4.13,6.66,6.75,9.6,2.28,2.55,4.82,4.75,7.96,6.2,1.32.61,2.51,1.44,2.46,3.07-.06,1.75-1.23,2.7-2.77,3.28-2.96,1.12-5.75.49-8.46-.83-3.73-1.82-6.57-4.68-9.19-7.81-4.88-5.82-8.21-12.52-11.19-19.44-5.32-12.34-9.72-25.01-13.65-37.85-.17-.56-.4-1.1-.97-1.69-.19.58-.42,1.16-.57,1.76-2.16,8.07-5.72,15.4-11.19,21.78-4.6,5.37-10.23,9.27-16.77,11.81-12.66,4.9-25.72,5.96-38.99,3.27-11.45-2.33-21.44-7.66-29.93-15.77-7.74-7.39-13.51-16.19-18.32-25.67-3.16-6.23-5.94-12.62-8.03-19.29-.38-1.2-.64-2.44-.86-3.68-.3-1.72.1-3.31,1.19-4.68.54-.67,1.11-1.33,1.72-1.94,1.94-1.94,4.24-2.45,6.77-1.4,2.39,1,4.74,2.09,7.05,3.25,14.19,7.16,28.69,7.65,43.4,1.91,5.07-1.98,9.53-5.04,13.02-9.29,4.52-5.51,6.28-11.76,4.6-18.82-.58-2.44-1.78-4.56-3.26-6.56-4.56-6.16-10.47-10.72-17.19-14.26-6.75-3.55-13.86-6.12-21.46-7.11-7.6-.98-14.99-.12-22.05,2.97-5.35,2.34-9.29,6.12-11.38,11.65-1.81,4.79-.92,8.28,3.01,11.58,3.92,3.29,8.54,5.08,13.53,5.95,6.96,1.21,13.62.03,20.07-2.68,4.86-2.05,9.51-4.43,13.59-7.83.8-.67,1.76-1.22,2.74-1.57,1.54-.55,2.78.32,3,1.95.2,1.47-.37,2.75-1.09,3.96-1.4,2.37-3.19,4.46-5.43,6.04-9.17,6.49-19.12,10.7-30.63,10.06-7.93-.44-15.28-2.79-21.81-7.35-8.02-5.61-10.7-15.09-7.06-24.17,3.52-8.78,9.81-14.71,18.52-18.12,10.8-4.24,21.87-4.7,33.08-1.98,9.64,2.34,18.69,6.08,26.85,11.8,6.21,4.35,11.58,9.54,15.53,16.08,3.05,5.04,4.28,10.58,4,16.41-.28,5.73-1.94,11.08-5.01,15.99-3.12,5-7.29,8.94-12.15,12.17-9.22,6.15-19.53,8.79-30.49,9.26-8.68.38-17.08-.97-25.18-4.13-.72-.28-1.47-.51-2.43-.84.08.53.06.85.17,1.12,4.01,9.24,8.62,18.13,15.19,25.85,11.78,13.84,26.87,19.6,44.84,18.26,4.86-.36,9.6-1.3,14.23-2.84,9.8-3.26,16.32-10.01,20.25-19.32,2.17-5.13,3.82-10.48,5.79-15.69.7-1.85,1.55-3.67,2.56-5.37,1.27-2.13,1.56-4.17.93-6.63-2.98-11.72-5.75-23.48-8.69-35.21-2.05-8.18-4.29-16.32-6.35-24.5-.38-1.52-1.18-2.21-2.63-2.53-3.63-.81-7.24-1.7-10.86-2.58-1.16-.28-2.32-.59-3.44-.98-1.16-.4-1.9-1.21-1.91-2.51-.01-1.21.65-2.13,2.11-2.55,1.13-.33,2.35-.57,3.52-.53,2.52.08,5.03.36,7.55.56.64.05,1.28.1,2.22.17-.84-2.67-1.61-5.06-2.35-7.45-1.45-4.7-2.88-9.4-3.32-14.34-.35-3.86.13-7.62,1.85-11.06,1.96-3.93,5.09-6.74,9.26-8.31,5.47-2.05,11.07-1.96,16.71-1.04,8.7,1.42,16.38,5.3,23.69,10,9.08,5.84,16.69,13.33,23.77,21.39,10.72,12.21,18.71,26.1,24.91,41.04,2.14,5.15,4.11,10.37,6.11,15.59.52,1.36,1.33,2.41,2.45,3.31,6.51,5.18,12.66,10.74,18.39,16.77,5.63,5.92,10.24,12.56,13.92,19.83,1.13,2.24,1.91,4.66,2.79,7.02.37.99-.02,1.92-.84,2.43-.83.51-1.74.41-2.56-.32-6.26-5.58-11.83-11.81-17.42-18.04-2.44-2.72-4.97-5.35-7.48-8.01-.44-.47-.97-.87-1.68-1.49,0,.56-.06.85,0,1.11,2.67,9.94,5.27,19.91,8.05,29.82,5.35,19.05,12.45,37.43,21.62,54.99,1.72,3.3,3.46,6.59,5.07,9.94.65,1.35,1.48,1.88,2.95,1.65,4.07-.63,8.15-1.19,12.22-1.81.51-.08.98-.41,1.49-.55,2.1-.59,4.2-1.19,6.33-1.69.41-.1,1.1.11,1.36.42.47.58-.04,1.06-.47,1.52-1.69,1.76-3.64,3.12-5.94,3.9-3.71,1.25-7.45,2.42-11.18,3.61-.75.24-1.52.39-2.54.65,1.9,4.27,4.2,8.13,6.24,12.31,1.9-.86,3.65-.15,5.42.33,5.89,1.58,11.91,2.03,17.97,2.12,7.26.11,14.48-.28,21.64-1.52.46-.08.92-.14,1.38-.2,1.29-.14,2.38.13,2.97,1.44v.8Zm-121.19-152.87c.1-.11.2-.21.3-.32-.1-.3-.18-.62-.31-.91-8.06-18.26-19.5-34.06-34.52-47.21-6.08-5.33-12.84-9.66-20.47-12.48-4.6-1.7-9.33-2.66-14.26-1.93-3.48.51-4.86,2.15-4.87,5.64,0,.66.03,1.34.16,1.98.38,1.88.71,3.79,1.25,5.63,1.79,6.05,3.7,12.06,5.5,18.1.33,1.11.96,1.59,2.02,1.9,12.13,3.54,23.95,7.89,35.37,13.31,8.82,4.19,17.62,8.4,25.84,13.72,1.33.86,2.66,1.71,3.99,2.56Zm44.5,135.25l.04-.31c-.34-.13-.68-.3-1.03-.38-13.22-2.72-25.33-8.17-36.84-15.08-2.61-1.57-5.31-3-8.02-4.4-1.23-.63-2.55-1.12-3.89-1.5-.63-.18-1.78-.22-1.99.11-.35.56-.35,1.56-.09,2.21.51,1.28,1.16,2.56,2.01,3.63,3.84,4.83,8.28,8.71,14.2,11.12,10.58,4.31,21.44,5.8,32.74,4.87.96-.08,1.92-.19,2.87-.28Zm54.5,22.12c-4.09-.25-8.19-.38-12.26-.79-4.04-.41-8.06-1.12-12.4-1.74.52,1.07,1,1.86,1.28,2.72.47,1.43,1.42,1.92,2.85,1.89,1.65-.03,3.31.09,4.96.1,5.25.02,10.41-.76,15.57-2.18Z"/>
        <path class="cls-1" d="m155.35,154.21c-.97-9.69-2.38-19.04-.48-28.8-.93.46-1.52.71-2.08,1.03-7.73,4.42-15.52,8.73-23.15,13.3-12.44,7.45-24.29,15.78-35.76,24.64-3.05,2.36-5.98,4.87-8.99,7.26-1.04.82-2.14,1.58-3.29,2.23-1.09.62-2.32.81-3.36-.1-1-.87-1.23-2.11-.74-3.29.58-1.4,1.26-2.79,2.14-4.02,3.12-4.33,6.91-8.07,10.8-11.7,9.07-8.45,19.04-15.75,29.22-22.76,12.22-8.42,24.96-15.96,38.18-22.68,9.49-4.82,19.25-9.03,29.47-12.07,1.71-.51,3.5-.83,5.27-1.02,3.03-.32,5.82,1.71,6.62,4.63.81,2.96-.48,6.05-3.27,7.38-1.73.83-3.58,1.42-5.38,2.09-.79.3-1.61.53-2.44.79.07.37.05.59.15.73,3.84,5.57,6.35,11.79,8.94,17.99,5.49,13.14,9.8,26.68,13.81,40.33,3.44,11.73,6.93,23.44,10.4,35.16.26.89.6,1.76.89,2.64,1.51,4.58-.52,9.15-4.71,10.65-4.54,1.61-9.13-.53-10.73-5.2-1.5-4.4-2.91-8.83-4.14-13.31-3.11-11.34-6.24-22.68-9.09-34.08-4.09-16.38-9.24-32.46-13.68-48.73-.24-.89-.49-1.77-.72-2.63-2.03.12-16,6.16-19.27,8.31,2.83,4.36,4.33,9.32,6.19,14.13,1.85,4.8,2.93,9.79,3.45,14.89.46,4.56.68,9.14,1.06,13.7.23,2.78.56,5.55.81,8.32.06.72.06,1.47-.04,2.18-.42,2.98-2.69,5.27-5.6,5.69-3.07.45-5.9-1.05-7.19-3.86-.28-.6-.44-1.25-.67-1.87-.42-1.12-.81-2.25-1.28-3.35-1.07-2.47-2.98-3.79-5.64-4.17-3-.42-5.97-.18-8.93.32-7.87,1.31-15.27,4.02-22.37,7.6-8.48,4.28-16.27,9.53-22.88,16.43-4.71,4.92-8.99,10.16-12.01,16.3-.99,2.01-1.8,4.17-2.3,6.34-1.02,4.41.68,7.28,5.05,8.48,2.35.65,4.82.98,7.26,1.14,6.73.43,13.42-.3,20.04-1.39,8.98-1.47,17.92-3.16,26.89-4.71,11.46-1.98,22.96-3.69,34.61-4.06,9.55-.31,19,.48,28.21,3.15,6.93,2.01,13.5,4.88,19.24,9.37,3.98,3.11,7.29,6.84,9.29,11.51,1.67,3.9,2.18,8.04,1.85,12.29-.61,7.84-4.25,14.27-9.18,20.13-6.55,7.79-14.63,13.64-23.36,18.71-9.79,5.68-20.12,10.24-30.42,14.88-11.63,5.24-23.35,10.27-34.59,16.34-8.5,4.59-16.56,9.82-24.1,15.87-9.17,7.36-15.9,16.6-20.53,27.29-6.07,14.03-8.3,28.79-7.26,44.03.2,2.98.62,5.95.99,8.91.17,1.37.7,2.73.64,4.07-.11,2.51-1.04,4.85-2.73,6.71-1.28,1.4-2.73,2.77-4.36,3.71-9.76,5.65-22.3,4.87-31.18-1.9-2.3-1.75-4.31-3.77-5.39-6.53-.35-.89-.84-1.85.12-2.96,1.92.83,2.44,3.08,4.25,4.18.26-.31.54-.63.82-.96,3.31-3.92,8.49-3.81,11.65.25.36.46.7.92,1.33,1.76.4-.59.62-1.11,1-1.46,3.46-3.21,8.89-3.11,12.29.13,1.15,1.1,1.8,2.28,1.12,4.34,2.91-1.62,5.22-3.18,6.84-5.6.46-.68.61-1.46.17-2.26-2.41-4.38-2.93-9.2-3.11-14.07-.51-13.76,1.5-27.16,5.82-40.23.77-2.33,1.63-4.64,2.43-6.96,4.08-11.86,11.36-21.56,20.43-30.01,7.53-7.02,16.1-12.61,24.97-17.74,12.15-7.03,24.88-12.9,37.52-18.95,9.95-4.77,19.78-9.79,28.82-16.18,5.99-4.24,11.39-9.16,15.77-15.1,2.07-2.81,3.59-5.88,4.33-9.33,1.08-5.01-.23-9.17-4.16-12.51-3.29-2.79-7.03-4.75-11.03-6.29-7.48-2.87-15.27-3.94-23.24-4.08-9.47-.17-18.83.97-28.17,2.38-4.53.68-9.03,1.57-13.57,2.23-3.95.58-7.47,2.28-11.07,3.84-6.9,2.99-13.71,6.17-19.74,10.74-6.65,5.04-12.27,11.01-15.91,18.62-4.08,8.52-2.68,16.4,3.17,23.6,1.63,2.01,3.56,3.77,5.26,5.71.73.83,1.4,1.8,1.81,2.82.65,1.61.01,2.59-1.69,2.8-.7.09-1.46.01-2.16-.15-2.64-.62-4.97-1.95-6.96-3.73-7.62-6.84-11.9-15.2-11.36-25.66.24-4.67,1.82-8.94,4.02-13.03,3.8-7.04,8.81-13.1,14.82-18.35.35-.3.66-.65.98-.98.03-.04.02-.12.05-.47-6.13-.06-12.26-.12-18.24-1.99-.23.49-.46.82-.55,1.18-2.13,7.9-6.3,14.64-12.03,20.36-4.94,4.92-10.02,9.71-15.24,14.34-3.71,3.29-6.37,7.16-8.49,11.61-3.69,7.73-5.66,15.85-6.54,24.31-.39,3.71-1.21,7.34-2.69,10.79-1.05,2.43-2.55,4.51-4.67,6.09-.57.43-1.24.76-1.89,1.06-3.85,1.78-6.46-.83-7.43-3.97-1.03-3.3-.8-6.7-.34-10.08.35-2.56.7-5.12.99-7.69.34-3.02,1.4-5.8,2.73-8.49,3.15-6.37,7.48-11.91,12.12-17.23,5.47-6.28,11.68-11.8,17.85-17.36,3.6-3.25,7.18-6.52,10.62-9.94,4.09-4.06,7.22-8.84,9.65-14.07.31-.66.56-1.35.81-2.04.09-.24.1-.51.15-.73-1.26-1.07-2.45-2.11-3.69-3.1-1.38-1.09-2.37-2.46-3.33-3.92-3.23-4.96-3.84-10.34-2.86-16.04.99-5.74,3.47-10.86,6.52-15.73,4.98-7.94,11.19-14.84,18.3-20.92,5.52-4.73,11.61-8.64,18.03-12.05,6.83-3.62,13.95-6.54,21.43-8.53,5.94-1.58,11.95-2.57,18.11-2.28,1.51.07,3.01.36,4.95.6ZM61.58,431.29c4.73.45,8.88-.19,13.01-1.7-.87-.75-1.6-1.29-2.21-1.93-2.21-2.33-5.3-2.54-7.6-.31-1.11,1.08-1.97,2.41-3.2,3.94Zm-1.57-.34c-.81-1.47-1.45-2.69-2.14-3.88-1.97-3.37-5.3-3.45-7.67-.12,2.85,2.21,6.17,3.18,9.81,4Z"/>
        <path class="cls-1" d="m271.61,397.84c2.82-1.95,5.89-2.81,9.25-1.83,3.57,1.04,5.06,3.82,5.65,7.43.7-.41,1.24-.74,1.8-1.05,2.53-1.41,5.12-1.48,7.6-.03,2.94,1.73,4.48,4.47,4.89,7.81.19,1.59-.13,2.23-1.6,4.3,2.97.52,5.84.72,8.74.3.37-.05.82-.44,1.01-.79,2.62-4.82,6.14-8.98,9.48-13.29,4.85-6.25,9.73-12.47,13.88-19.22,3.92-6.37,7.2-13.03,8.63-20.45,1.68-8.68,0-16.61-5.27-23.78-3.02-4.11-6.77-7.47-10.54-10.84-4.75-4.25-9.69-8.33-14.11-12.91-10.2-10.58-17-23.02-19.44-37.67-1.05-6.29-.75-12.57-.1-18.87.82-7.9,2.78-15.55,4.89-23.18.31-1.14.81-2.25,1.41-3.27.24-.41,1-.82,1.43-.74.44.08.98.73,1.08,1.21.2.96.25,1.98.16,2.96-.45,4.76-1.02,9.51-1.43,14.28-.44,5.03-.95,10.06-1.09,15.1-.35,12.98,3.51,24.73,10.71,35.47,4.18,6.23,9.32,11.57,14.98,16.46,4.32,3.74,8.78,7.35,12.81,11.38,11.36,11.38,14.54,24.92,9.96,40.31-2.21,7.41-6,14.01-10.38,20.32-4.83,6.95-10.48,13.22-16.13,19.48-2.49,2.76-4.99,5.52-7.52,8.25-.48.52-.77.97-.57,1.75.26,1.01-.22,1.89-1.13,2.32-1.06.5-2.19.97-3.34,1.18-4.53.81-9.02.34-13.41-.9-6.99-1.99-13.62-4.9-20.03-8.3-2.31-1.23-4.32-2.87-6-4.87-3.78-4.51-3.81-9.95.21-14.23,1.94-2.06,4.24-3.81,6.52-5.52,2.39-1.79,4.98-3.3,7.43-5.02,1.68-1.18,3.35-2.41,4.88-3.77,4.39-3.89,7.24-8.7,7.8-14.6,1-10.5-1.7-19.9-8.99-27.71-2.71-2.9-6.13-4.86-9.74-6.45-4.64-2.05-9.49-3.41-14.35-4.8-4.53-1.29-9.05-2.67-13.46-4.32-2.59-.97-5.06-2.37-7.37-3.9-5.25-3.48-8.55-8.46-10.24-14.49-.31-1.12-.33-2.35-.31-3.53,0-.39.51-.94.92-1.1.29-.11.87.22,1.17.51.37.36.61.86.86,1.33.46.88.89,1.78,1.31,2.69,3.09,6.66,8.08,11.34,14.96,13.83,4.3,1.55,8.74,2.72,13.13,4.04,4.45,1.34,8.97,2.46,13.34,4.02,13.49,4.81,21,14.83,24.08,28.46,1.64,7.26,1.16,14.41-2.01,21.24-2.32,5.01-6.03,8.88-10.46,12.07-2.75,1.98-5.65,3.74-8.42,5.7-2.16,1.53-4.25,3.18-6.3,4.86-.66.55-1.08,1.38-1.62,2.09.13.1.25.19.38.29Zm25.68,16.36c-.51-1.58-.98-3.07-1.48-4.54-.27-.8-.5-1.66-.95-2.36-1.03-1.58-2.49-2.04-4.12-1.38-2.09.84-3.53,2.42-4.98,4.39,3.86,1.85,7.62,3.17,11.53,3.89Zm-16.22-5.81c.05-1.99.18-3.59-.54-5.07-.31-.63-.76-1.31-1.33-1.66-1.59-.97-4.81.08-5.94,1.93,2.14,2.11,4.81,3.37,7.81,4.8Z"/>
        <path class="cls-1" d="m156.48,436.63c.35-5.08,2.7-7.47,7.38-7.72,2.14-5.22,4.78-6.63,8.91-7.11,2.25-5,5.78-8.46,11.83-9.28-.76-.68-1.28-1.15-1.82-1.6-1.79-1.49-3.59-2.95-5.37-4.45-4.29-3.62-8.07-7.72-11.19-12.39-8.71-13.05-15.25-27.06-18.65-42.44-1.58-7.16-2.13-14.45-2.66-21.74-.06-.86-.06-1.74.06-2.58.09-.67.42-1.3.64-1.95,1.52.24,1.72,1.32,1.92,2.24.53,2.4,1.02,4.81,1.37,7.24,1.2,8.29,2.53,16.55,5.17,24.53,4.19,12.66,9.9,24.5,18.76,34.63,3.03,3.47,6.51,6.44,10.04,9.37,2.5,2.08,5.04,4.13,7.37,6.39,1.36,1.32,2.52,2.93,3.47,4.58,2.49,4.31,1.1,10.19-2.56,12.93-4.97,3.72-10.36,6.71-15.79,9.65-1.98,1.07-4.04,2.02-6.1,2.95-3.82,1.72-7.83,2.48-12.02,2.37-5.2-.14-9.64-2.04-12.94-6.06-2.14-2.6-4.06-5.43-5.77-8.33-4.83-8.21-7.78-17.15-9.84-26.41-2.39-10.78-5.36-21.39-9.22-31.74-.95-2.56-1.67-5.19-1.22-7.99.13-.81.21-1.63,1.12-1.94.9-.31,1.47.25,2.07.83,1.84,1.76,2.86,3.99,3.67,6.32,2.79,8.03,5.51,16.09,7.43,24.39,1.56,6.73,3.1,13.46,4.8,20.16,1.74,6.89,4.65,13.27,8.87,19.03,1.99,2.72,4.5,4.69,7.76,5.61.81.23,1.64.35,2.48.52Zm23.99-7.35c2.39-1.74,4.83-3.34,7.06-5.19,1.46-1.21,2.44-2.92,2.09-4.92-.41-2.38-1.03-3.18-3.14-2.87-.59.09-1.2-.01-1.79.07-3.52.48-6.03,2.29-7.21,5.71-.22.64-.31,1.53-.03,2.09.82,1.64,1.85,3.18,3.01,5.1Zm-8.18-3.41c-1.81-.02-3.33.73-4.2,2.51-1.08,2.19-.77,4.3.46,6.42,2.57-.8,4.78-1.86,6.79-3.01-1.03-2.01-1.96-3.81-3.05-5.92Zm-8.63,6.09c-2.03.3-2.94,1.28-4.35,4.66,1.81.1,3.5-.18,5.16-.83-.3-1.41-.55-2.62-.81-3.83Z"/>
        <path class="cls-1" d="m460.02,335.85c-.17,7.47-2.44,14.26-6.3,20.55-1.06,1.72-2.4,3.16-4.31,4-1.61.71-2.31.22-2.3-1.59,0-2.05.68-3.91,1.47-5.75,1.59-3.67,2.8-7.44,3.6-11.37,1.34-6.67.38-12.94-2.87-18.89-3.26-5.98-7.85-10.84-12.84-15.38-5.4-4.92-11.05-9.59-16.16-14.8-9.45-9.64-15.84-21.08-18.69-34.36-.36-1.67-.45-3.42-.51-5.14-.03-.91.2-1.85.46-2.73.29-1,.91-1.8,2.08-1.87,1.07-.06,1.77.58,2.18,1.46.53,1.14,1.02,2.31,1.37,3.52,1.83,6.22,4.59,12.02,7.66,17.71,4.64,8.6,10.98,15.76,18.36,22.1,5.45,4.68,10.71,9.57,15.27,15.14,5.14,6.29,9.2,13.19,10.78,21.29.39,2.01.51,4.08.75,6.12Z"/>
        <path class="cls-1" d="m271.34,434.3c1.84-1.27,3.53-2.55,5.34-3.65,1.29-.78,2.75-.97,4.21-.36,1.9.78,2.87,2.29,2.82,4.36,0,.31-.07.61.17,1.07.53-.64,1.11-1.26,1.59-1.94,1.7-2.42,2.63-5.19,3.58-7.96.38-1.1.95-2.2,1.67-3.11.81-1.02,1.88-.77,2.2.49.24.93.35,2,.15,2.93-.81,3.8-2.33,7.33-4.57,10.52-1.81,2.58-4.28,4.26-7.33,4.76-3.85.63-7.76,1.05-11.66,1.31-5.33.36-10.62-.03-15.81-1.38-2.53-.65-4.94-1.55-7.09-3.07-3.59-2.55-5.38-6.01-5.02-10.42.18-2.11.6-4.2,1.05-6.28.75-3.5,1.77-6.96,2.39-10.48.7-3.98,1.12-8.02,1.59-12.04,1.36-11.61,2.59-23.23,4.05-34.82,1.01-8.03,2.28-16.04,3.51-24.04.22-1.43.71-2.83,1.21-4.2.25-.69.81-1.26,1.23-1.88,1.4.54,1.54,1.59,1.55,2.55.02,2.72.12,5.45-.15,8.15-.68,6.8-1.58,13.59-2.32,20.39-.91,8.32-1.79,16.64-2.6,24.97-.93,9.62-3.19,18.98-5.22,28.39-.68,3.17-1.22,6.39-1.51,9.62-.3,3.33,1.32,5.52,4.36,6.7.67-1,1.26-2.04,2-2.96.91-1.13,2.15-1.76,3.6-1.92,2.19-.24,3.83.74,4.69,2.82.18.42.31.86.46,1.3,5.24-3.5,6.56-3.47,9.85.19Zm2.34,4.03c2.96-.25,5.49-.4,7.86-1.32-.83-.58-1.59-1.19-2.43-1.68-.42-.24-1.02-.45-1.45-.33-1.64.46-2.86,1.49-3.98,3.34Zm-14.06-.74c.49-1.05.87-1.87,1.27-2.71-1.26-.15-2.37-.24-3.48-.41-1.51-.23-2.45.48-3.36,1.9,1.95.43,3.67.8,5.57,1.22Zm9.01.74c-.47-1-.76-1.71-1.14-2.38-.3-.53-.82-.69-1.34-.33-.89.61-1.89,1.13-2.45,2.31,1.55.54,3.02.47,4.93.4Z"/>
        <path class="cls-1" d="m372.18,140.06c-2.92-1.87-4.06-4.4-3.23-7.88-1.89.6-3.17,1.76-4.4,3-.47.47-.86,1.03-1.37,1.43-1.21.95-2.55.51-2.89-1-.15-.66-.09-1.49.2-2.1.41-.88,1.01-1.73,1.7-2.42,3-3.02,6.64-4.89,10.87-5.29,1.86-.18,3.78.25,5.71.4-1.34-1.56-3.07-2.71-5-3.56-1.09-.48-2.24-.82-3.35-1.25-.49-.19-1.01-.37-1.43-.68-.81-.59-.74-1.41.15-1.9.45-.25.99-.41,1.51-.45,4.24-.33,7.85,1.08,10.72,4.17.68.73,1.11,1.81,1.34,2.8.47,2.07.01,2.44-1.96,2.09.8,1.33,1.77,2.71,2.48,4.2.3.64.28,1.59.06,2.28-.43,1.35-1.41,1.62-2.66.92-.33-.19-.65-.4-.87-.54-.58,1.54-1.13,3.01-1.76,4.67.59,1.82.25,2.96-1.61,4.07-2.53,1.5-5.29,2.06-8.22,1.76-.26-.03-.53-.08-.78-.17-.85-.31-1.63-.74-1.56-1.8.07-1,.91-1.21,1.72-1.34,1.55-.24,3.1-.47,4.64-1.42Z"/>
        <path class="cls-1" d="m329.74,214.74c1.29.19,2.19.26,3.05.45,7.24,1.6,14.54,2.49,21.95,1.75,2.83-.28,5.63-1,8.51-.71.26.03.57-.09.79.01.39.17,1.01.44,1.02.69.02.42-.25,1.1-.59,1.25-1.81.81-3.62,1.89-5.53,2.13-9.24,1.17-18.29.34-26.95-3.35-1.35-.57-1.34-.6-2.24-2.23Z"/>
      </g>
    </g>
  </g>
</svg>