<?xml version="1.0" encoding="UTF-8"?>
<svg id="Layer_2" data-name="Layer 2" xmlns="http://www.w3.org/2000/svg" viewBox="0 0 289.22 336.09">
  <defs>
    <style>
      .cls-1 {
        fill: #869e57;
        stroke-width: 0px;
      }
    </style>
  </defs>
  <g id="Layer_1-2" data-name="Layer 1">
    <g>
      <path class="cls-1" d="m85.44,336.09s8.49-51.27,23.96-102.31c7.98-26.31,17.81-52.56,29.29-71.69,0,0,6.75-85.5,42.75-109.5S264.69,3.09,283.44.09s-11.25,73.5-45,98.25-43.5,28.5-57.75,39.75-33.38,22.88-36.38,22.88c-1.64,0-15.28,27.25-28.64,65.57-11.14,31.95-22.09,71.59-25.73,109.56h-4.5Z"/>
      <path class="cls-1" d="m275.94,166.4c-1.05.29-50.62,14.25-79.88,18.56s-62.25,27.75-66.56,32.06-21,23.25-21,23.25c0,0,8.44-2.62,34.88-2.62s105-21.75,123.94-43.69,23.7-31.78,8.62-27.56Z"/>
      <path class="cls-1" d="m15.32,162.84c1.23,1,44.06,22.31,56.44,56.81s17.44,60.19,20.25,65.44,4.69,8.32,4.69,8.32c0,0-31.12-11.13-40.69-21.07S20.75,197.9,14.38,187.21s-8.81-28.5-13.31-31.31,6.19.38,14.25,6.94Z"/>
      <path class="cls-1" d="m86.69,49.84s29,68.25,30.25,106.5-1,47.5-.75,50.5,1.13,7.5,1.13,7.5c0,0-14.13-7-25.63-27.25s-30.25-50-22.25-87.75-1.25-59.75,1.75-65.25,13.9,11.89,15.5,15.75Z"/>
    </g>
  </g>
</svg>