<?xml version="1.0" encoding="UTF-8"?>
<svg id="Layer_2" data-name="Layer 2" xmlns="http://www.w3.org/2000/svg" viewBox="0 0 104.28 99.79">
  <defs>
    <style>
      .cls-1 {
        fill: #fbbd43;
        stroke-width: 0px;
      }
    </style>
  </defs>
  <g id="Layer_1-2" data-name="Layer 1">
    <path class="cls-1" d="m32.07,26.41c0-1.24.1-2.03-.01-2.79-1.5-10.02.05-13.41,8.71-18.42,2.15-1.24,4.5-2.17,6.81-3.11C58.65-2.38,63.75.07,66.34,11.85c1.27,5.8,1.57,11.85,1.83,17.81.17,3.96,1.26,5.51,5.42,4.38,4.49-1.22,9.09-2.6,13.68-2.73,3.11-.09,7.57.88,9.18,3.05,4.77,6.43,7.94,13.85,7.83,22.21-.06,4.71-2.42,7.63-7.03,8.23-4.77.61-9.61.99-14.42,1.04-13.59.14-12.98-.72-7.11,11.14.96,1.94,1.92,3.9,2.62,5.94,1.66,4.88.29,8.93-3.99,11.72-2.08,1.36-4.31,2.55-6.59,3.54-7.52,3.28-13.51,1.62-18.35-5.1-2.02-2.8-3.81-5.76-6.3-9.57-2.34,2.74-4.39,4.79-6.03,7.12-6.33,8.95-9.83,10.17-19.72,5.36-4.9-2.39-9.5-5.54-13.89-8.81-4.07-3.04-4.28-9.26-.58-13.4,2.65-2.96,5.54-5.85,8.79-8.09,3.71-2.56,3.58-4.63.5-7.4-2.23-2-4.25-4.23-6.4-6.33-6.78-6.64-7.77-13.31-1.98-20.7,6.38-8.15,11.09-13.37,24.27-6.5,1.14.6,2.39.99,4.02,1.66Z"/>
  </g>
</svg>