<?xml version="1.0" encoding="UTF-8"?>
<svg id="Layer_2" data-name="Layer 2" xmlns="http://www.w3.org/2000/svg" viewBox="0 0 474.06 526.85">
  <defs>
    <style>
      .cls-1 {
        fill: #869e57;
        stroke-width: 0px;
      }
    </style>
  </defs>
  <g id="Layer_1-2" data-name="Layer 1">
    <path class="cls-1" d="m75.17,165.51c18.97-9.25,65.56-28.5,73.06-40.5s-56.25-83.25,22.5-110.25,124.5-16.5,141,27.75-17.62,92.25,14.81,75,24.83-24,44.76,3.75,33.08,44.25,33.08,44.25c0,0,23.22-5.07,26.78,16.97s1.31,31.78,14.81,50.53,36.75,56.25,24.75,63-9.75,18.75-9.75,18.75c0,0,18,37.5,8.25,46.5s-27.47,21.75-40.36,16.5-32.39,18.75-62.39,31.5-45,27.75-49.5,35.25-32.37,17.25-.44,26.25,47.69,62.25-14.56,55.5-97.72-7.5-119.73-17.25-49.02-15.89-49.02-15.89c0,0-142.5.14-132.75-140.11s43.33-172.21,74.69-187.5Z"/>
  </g>
</svg>