<?xml version="1.0" encoding="UTF-8"?>
<svg id="Layer_2" data-name="Layer 2" xmlns="http://www.w3.org/2000/svg" viewBox="0 0 626.26 519.12">
  <defs>
    <style>
      .cls-1 {
        fill: #1d1e1e;
      }

      .cls-1, .cls-2 {
        stroke-width: 0px;
      }

      .cls-2 {
        fill: #ffecd2;
      }
    </style>
  </defs>
  <g id="Layer_1-2" data-name="Layer 1">
    <g>
      <path class="cls-2" d="m43.55,198.49c4.6-23.43,40.4-11.01,0-41.97S-18.22,77.18,20.03,70.43s26.89-24.01,40.45-43.5,18.05-6,39.43-1.5,18.88,25.25,52.19-8.75,60.78-8.51,57.73,10.25,31.82,3.52,47.57,17.32-6.75,41.85-2.25,59.33-13.5,26.48,87.75,16.35,141.75,33.1,163.12,5.86,74.36-38.89,93.99-61.75,39.88,9.79,14.01,50.28-65.25,89.99-95.62,91.11-50.62-10.12-36,19.12,40.5,92.98,49.5,101.05,24.75,9.2-1.12,36.2-60.75,53.92-60.75,53.92c0,0-106.88-2.17-73.12-29.17s-62.29-30.38-67.71-4.5-34.67,56.25-34.67,56.25l-14.62,23.62s4.5,68.42-34.88,55.59-47.25-30.84-52.88-54.46-16.44-65.25-11.03-81-53.81-26.55-56.83-67.27,17.96-46.41-25.15-63.25-55.59-53.04-55.59-53.04Z"/>
      <g>
        <path class="cls-1" d="m229.18,491.52c-1.5-1.2-2.39-2.79-2.77-4.64-.63-3.11-1.24-6.22-1.76-9.35-.86-5.14-1.84-10.25-3.62-15.17-.65-1.79-1.09-3.66-1.84-5.41-1.18-2.73-2.38-5.48-3.86-8.06-1.99-3.48-3.87-6.99-5.42-10.7-1.05-2.52-2.32-4.94-3.5-7.41-.27-.57-.54-1.15-.83-1.72-1.63-3.22-1.44-6.36.39-9.44.96-1.62,1.92-3.16,3.36-4.53,2.98-2.82,5.81-5.87,8.32-9.12,4.35-5.63,7.01-12.05,7.67-19.2.02-.18-.03-.37-.07-.74-1.27.84-2,.11-2.68-.81-1.86-2.49-3.72-4.97-5.22-7.72-1.43-2.6-3.26-4.99-4.92-7.46-.21-.32-.51-.58-.69-.91-2.81-5.05-5.92-9.95-7.47-15.6-.42-1.52-.66-3.08-1.03-4.83-.39-.08-.92-.22-1.47-.3-5.64-.84-11.09-2.32-16.1-5.08-12.27-6.75-19.28-17.19-21.27-30.99-1.34-9.27.2-18.23,3.23-27,3.55-10.27,9.14-19.4,15.7-27.97,12.45-16.27,28.05-28.79,46.02-38.45,10.62-5.7,21.67-10.35,33.42-13.17,5.39-1.29,10.85-2.1,16.39-2.41.5-.03,1-.09,1.49-.13,0-3.2-5.97-19.39-8.45-22.84-.63.37-1.29.72-1.91,1.14-6.68,4.53-13.35,9.06-20.03,13.59-1.05.71-2.09,1.45-3.18,2.1-.76.45-1.57.84-2.41,1.12-1.58.55-3.04.23-4.19-1.01-1.15-1.25-1.32-2.75-.62-4.26.48-1.02,1.04-2.08,1.8-2.89,2.23-2.34,4.42-4.78,6.94-6.78,5.38-4.26,10.95-8.26,16.45-12.36.6-.45,1.23-.86,1.93-1.35-.36-.73-.66-1.34-.98-1.95-4.36-8.21-10.22-15.31-16.53-22.05-9.27-9.92-19.79-18.23-31.78-24.66-11.08-5.94-22.86-8.8-35.4-8.06-20.48,1.22-39.44,7.25-56.4,18.88-11.67,8.01-20.5,18.74-27.49,30.97-4.61,8.06-7.8,16.68-9.38,25.85-1.27,7.35-1.24,14.67.9,21.89.4,1.33.96,2.62,1.48,3.92.33.83.75,1.62,1.06,2.45.32.84.61,1.78-.27,2.45-.8.61-1.75.43-2.5-.09-.82-.57-1.63-1.22-2.26-1.99-2.86-3.49-4.29-7.6-5.07-11.97-1.54-8.56-.58-16.96,1.66-25.27,1.66-6.16,3.96-12.07,6.89-17.73.23-.44.45-.89.71-1.41-1.45-.93-2.02-2.36-2.33-3.84-.6-2.85-1.17-5.72-1.51-8.61-.34-2.9-.46-5.82-.53-8.74-.07-3.04.03-6.09.05-9.13,0-.7-.02-1.4-.03-2.09.42-2.6.83-5.2,1.29-8.06-1.17.43-2,.74-2.83,1.03-5.22,1.84-10.53,2.22-15.94.97-.86-.2-1.72-.49-2.53-.84-5.36-2.31-7.98-7.94-6.32-13.53,1.73-5.85,6.93-9.66,13.01-9.44,4.69.17,9.24,1.06,13.25,3.66,1.62,1.05,3.04,2.42,4.61,3.7.27-.85.55-1.81.89-2.76.19-.54.39-1.09.7-1.55.6-.91,1.61-1.24,2.48-.91.82.32,1.4,1.33,1.25,2.35-.08.56-.27,1.11-.5,1.63-3.92,8.93-5.1,18.43-5.98,28.01-.79,8.62-.03,17.13,1.44,25.61.04.25.11.49.27,1.16.51-.79.87-1.31,1.2-1.85,5.76-9.54,12.82-17.99,21.15-25.39,6.85-6.09,14.58-10.82,22.87-14.65,12.14-5.61,24.79-9.49,38.12-10.94,14.28-1.55,28.15.33,41.61,5.23,18.65,6.78,34.52,17.67,47.75,32.46,4.55,5.08,8.75,10.4,12.4,16.17.34.53.7,1.05,1.16,1.72.65-.38,1.24-.71,1.82-1.07,13.46-8.61,27.83-15.29,42.98-20.28,14.94-4.93,30.29-7.09,46-6.45,16.54.67,32.94,2.51,49.1,6.25,8.87,2.05,17.43,5.1,26.07,7.92,11.48,3.74,22.92,7.6,34.61,10.64,6.35,1.65,12.78,2.88,19.39,2.69,14.65-.43,27.48-5.61,38.79-14.84,9.89-8.08,18.02-17.69,25.08-28.27,3.85-5.76,7.79-11.46,11.69-17.18,2.33-3.42,4.77-6.75,7.74-9.65,2.21-2.16,4.57-4.06,7.86-4.27.44-.03.9-.42,1.26-.73.91-.79,1.74-1.68,2.68-2.43.53-.42,1.18-.81,1.83-.94,2.36-.49,3.88.59,4.37,3.06.28,1.41.18,2.82-.59,4.06-.81,1.29-1.76,2.48-2.6,3.75-.45.67-1.02,1.36-1.19,2.11-.98,4.37-3.31,7.98-6.37,11.1-2.13,2.17-4.41,4.22-6.82,6.08-5.5,4.25-10.68,8.81-15.3,14.01-.58.66-1.25,1.31-2,1.75-1.55.9-2.52,2.23-3.42,3.72-2.83,4.68-5.71,9.32-8.62,13.94-3.29,5.24-7,10.16-11.56,14.37-6.88,6.35-15.09,10.2-24.05,12.67-13.28,3.67-26.5,3.25-39.74-.21-11.08-2.89-21.93-6.48-32.75-10.2-.6-.21-1.2-.39-1.94-.64,0,.33-.07.58,0,.77,5.38,13,9.15,26.54,13.67,39.83,4.13,12.15,8.45,24.23,12.79,36.31,1.2,3.34,2.74,6.57,4.16,9.83,4.43,10.19,8.68,20.47,13.42,30.53,6.06,12.85,13.12,25.11,20.83,37.01,2.63,4.05,5.29,8.08,8,12.07,3.48,5.13,3.06,10.31.1,15.41-1.9,3.28-4.67,5.84-7.64,8.17-2.89,2.28-5.97,4.36-8.64,6.88-3.87,3.66-7.53,7.56-11.12,11.5-1.84,2.02-3.78,3.75-6.41,4.59-1.56.5-2.81,1.45-3.87,2.68-.54.62-1.1,1.25-1.55,1.93-1.66,2.55-3.94,4.27-6.75,5.36-.4.15-.82.4-1.08.73-.9,1.12-2.1,1.61-3.45,1.83-2.19.36-4.37.82-6.57,1.06-3.12.33-6.03-.46-8.79-1.95-1.78-.96-3.63-1.79-5.49-2.6-2.17-.95-3.01-2.64-2.34-4.94.1-.36.25-.7.46-1.28-1.13-.23-2.17-.41-3.19-.65-.8-.18-1.64-.31-2.37-.67-2.31-1.14-2.67-4.01-.72-5.69.56-.48,1.27-.87,1.97-1.11,2.16-.75,4.36-1.38,6.52-2.1.65-.22,1.31-.5,1.87-.88,8.41-5.71,16.83-11.4,25.2-17.18,2.92-2.02,5.66-4.31,8.53-6.4,1.18-.86,2.48-1.53,3.75-2.27.38-.22.8-.41,1.23-.5.97-.18,1.75.19,2.27,1.03.49.78.43,1.57-.08,2.33-.14.21-.3.42-.5.57-6.73,5.3-12.75,11.49-20.12,16-2.22,1.36-4.38,2.83-6.56,4.25-.52.34-1.01.72-1.68,1.2,2.24,1.79,4.54,3.22,6.91,4.52.95.52,1.98.9,2.86,1.51.87.6,1.59,1.41,2.38,2.14.11-.04.27-.04.33-.12,1.83-2.24,4.19-3.71,6.96-4.44,2.4-.63,4.09-2.03,5.59-3.98,2.2-2.86,4.67-5.52,7.09-8.21,2.21-2.46,4.38-4.96,6.79-7.22,2.12-1.99,4.46-3.77,6.84-5.45,2.81-1.99,5.08-4.37,6.7-7.42.74-1.38.84-2.64-.12-3.91-2.19-2.88-4.4-5.75-6.59-8.63-1.11-1.47-2.24-2.93-3.28-4.45-8.58-12.57-16.18-25.69-22.35-39.63-1.26-2.84-2.71-5.6-4.09-8.4-.24-.49-.55-.95-1-1.71-.52,1.87-.96,3.41-.87,5.05.36,6.51-.96,12.77-2.98,18.9-.51,1.55-1.25,3.07-2.11,4.46-1.16,1.88-3.42,2.63-5.52,2.02-1.35-.39-2.18-1.33-2.38-2.7-.12-.87-.15-1.8.04-2.65,1.04-4.71,2.14-9.41,3.24-14.11,1.05-4.51,2.21-9,3.13-13.54.57-2.79.84-5.65,1.08-8.5.08-.89-.22-1.88-.59-2.72-3.39-7.67-6.91-15.28-10.23-22.98-5.31-12.33-9.45-25.08-13.47-37.87-3.83-12.18-7.64-24.37-12.2-36.31-.48-1.26-1.18-1.89-2.43-2.33-12.86-4.46-26.15-6.97-39.59-8.68-7.24-.92-14.54-1.44-21.82-2.08-1.63-.14-3.28-.02-5.05-.02.02.53.03.94.06,1.36.19,2.6.46,5.19.56,7.79.41,10.29.42,20.59-.46,30.86-.34,3.98-1.1,7.93-1.5,11.91-.63,6.26-1.05,12.54-1.67,18.79-.88,8.91-1.85,17.82-2.8,26.73-2.05,19.27-6.18,38.12-11.52,56.72-1.77,6.16-4.08,12.16-6.18,18.23-1.23,3.57-3.67,6.2-6.73,8.29-.46.31-1.01.53-1.55.69-1.77.5-2.75.15-3.7-1.44-.41-.69-.67-1.5-.87-2.29-.87-3.63-.57-7.17.73-10.67,1.33-3.57,2.6-7.17,3.8-10.79,3.33-10.09,5.78-20.41,8.16-30.75,3.06-13.26,5.45-26.65,7.2-40.14,1.05-8.12,1.74-16.31,2.13-24.49.75-15.67,1.19-31.37,1.74-47.05.14-4,.2-8,.3-12.01,0-.24-.04-.48-.09-.89-3.88.24-7.57,1.03-11.36,1.85.06.54.07.96.15,1.38.81,4.39,1.24,8.81,1.23,13.27-.07,20.17-1.22,40.26-3.93,60.26-1.22,9-2.35,18.02-3.57,27.02-1.41,10.41-3.71,20.62-6.93,30.64-3.44,10.7-6.42,21.57-10.79,31.95-1.9,4.5-4.08,8.89-6.33,13.23-3.52,6.76-8.2,12.69-13.53,18.11-.4.41-.81.81-1.2,1.23-.08.09-.12.22-.29.54.5-.11.89-.15,1.24-.28,6.63-2.56,13.27-5.13,19.89-7.71,1.42-.56,2.82-1.14,4.5-.51-.31.97-.91,1.64-1.77,2.09-1.01.53-2.04,1.04-3.07,1.52-7.82,3.56-15.97,6.25-24.05,9.12-1.96.7-3.57,1.76-5.09,3.18-11.71,10.98-22.35,22.94-32.5,35.34-3.37,4.12-6.25,8.64-9.29,13.03-.93,1.35-1.63,2.86-2.42,4.27,2.39,4.86,4.4,9.77,5.75,15.04,3.63-2.21,6.44-5.55,10.88-5.96.38-1.12.74-2.26,1.15-3.39.29-.82.05-1.32-.57-1.98-2.82-3.01-5.56-6.1-8.24-9.22-.69-.8-1.14-1.83-1.59-2.8-.26-.57-.4-1.38.35-1.64.38-.13,1.11.21,1.42.56,1.74,1.94,3.39,3.95,5.08,5.93,1.11,1.31,2.12,2.71,3.35,3.89.74.71,1.76,1.27,2.75,1.55,2.2.61,3.19,2.32,2.26,4.49-.52,1.22-1.2,2.39-1.93,3.5-.68,1.04-.57,1.94.23,2.75,1.39,1.39,2.79,2.77,4.29,4.04,1.35,1.15,2.85,2.12,4.27,3.2,1.69,1.28,2.04,2.91.86,4.66-.7,1.04-1.63,1.94-2.5,2.86-1.56,1.67-3.15,3.31-4.73,4.97-.35.37-.68.76-1.05,1.11-1.64,1.54-3.08,1.64-4.99.45-.78-.49-1.7-1.34-2.4-1.2-.72.14-1.18,1.34-1.85,1.98-1.05,1-2.17,1.92-3.26,2.87-.33.28-.67.55-.98.85-.9.88-1.77.95-2.62.04-.51-.54-.96-1.22-1.17-1.93-.4-1.33-.68-2.71-.87-4.08-.4-2.89-.74-5.79-1.05-8.7-.21-1.95-.42-3.91.24-5.85.14-.43.06-1.01-.1-1.46-1.46-4.18-2.97-8.34-4.49-12.61-.19.33-.43.67-.58,1.05-1.21,3.12-1.83,6.33-1.67,9.69.11,2.41.17,4.82-.62,7.17-.14.42.03.99.19,1.45,3.46,9.87,7.98,19.24,13.41,28.17.49.81,1.13,1.53,1.7,2.3.95,1.27,1.9,2.55,2.84,3.82,1.85,2.51,1.92,5.22.59,7.92-1.58,3.21-3.64,6.09-6.29,8.55-1.95,1.81-3.84,3.7-5.69,5.61-1.95,2.01-4.35,1.9-5.98-.39-.51-.72-.93-1.5-1.53-2.48-1.52,2.44-2.95,4.71-4.37,6.99h-1.91Zm56.06-271.3c-1.05,0-1.8-.01-2.55,0-4.33.1-8.61.61-12.86,1.46-10.18,2.03-19.71,5.86-28.93,10.51-16.19,8.17-30.42,18.87-41.92,33-5.76,7.08-10.8,14.61-14.16,23.16-2.27,5.78-3.82,11.71-3.69,17.99.25,11.59,6.83,21.33,19.19,24.36,5.1,1.25,10.29,1.71,15.51,1.33,15.51-1.13,29.48-6.37,41.7-16.03,8.21-6.49,15.14-14.12,19.86-23.57,4.34-8.7,7.39-17.83,9.06-27.41,1.92-11.05,1.88-22.14.52-33.23-.46-3.77-1.12-7.52-1.73-11.56Zm-.67-47.32c.34.73.61,1.3.87,1.87,2.32,5.02,4.91,9.93,6.9,15.07,5.31,13.75,8.84,27.98,10.72,42.61,1.84,14.31,1.61,28.53-1.85,42.61-2.71,11.05-6.4,21.75-12.62,31.33-12.54,19.29-29.94,32.27-51.94,39-9.74,2.98-19.71,4.38-29.93,3.54-.28-.02-.57.05-.84.08,0,.25-.04.4,0,.5,3.63,7.7,7.07,15.49,10.98,23.04,2.06,3.98,4.93,7.53,7.45,11.27.26.39.63.71,1.26,1.42.03-1.41.15-2.41.04-3.39-.23-2.21-.61-4.4-.85-6.61-.21-1.95-.35-3.92-.43-5.88-.01-.34.35-.89.65-1,.31-.1.92.12,1.12.4.51.71.98,1.5,1.26,2.32,1.45,4.22,2.58,8.54,2.6,13.03.03,6.08-1.04,11.9-4.79,16.93-3.07,4.12-6.14,8.25-9.22,12.37-.3.41-.66.77-1,1.15-1.32,1.49-2.68,2.92-4.81,2.79-1.72,2.88-2.3,5.73-1.15,8.86,1.62,4.41,3.17,8.83,5.41,13,3.03,5.65,5.82,11.44,8.66,17.19.67,1.35,1.17,2.79,1.71,4.1,6.43-.37,12.03-2.42,16.66-7.1-.3-.54-.64-1.13-.97-1.73-3.29-6.04-5.98-12.34-8.09-18.89-.44-1.38-1.09-2.69-1.53-4.07-.5-1.56-1.08-3.14-1.28-4.75-.66-5.37.88-10.32,3.24-15.06,4.23-8.51,9.19-16.55,15.31-23.84,6.01-7.15,12.09-14.24,18.02-21.46,4.56-5.55,9-11.19,13.35-16.9,3.35-4.39,6.38-9.04,9.73-13.43,5.68-7.43,10.2-15.5,13.62-24.17,7.45-18.94,12.57-38.53,15.56-58.65,2.94-19.86,5.84-39.74,7.44-59.77.8-9.94,1.87-19.86,2.78-29.8.25-2.71.36-5.43.55-8.43-15.92,4.87-30.63,11.62-44.62,20.47Zm-193.63-63.88c-2.08.36-3.46-.72-4.91-1.58-4.23-2.51-8.76-3.85-13.73-3.86-4.15,0-6.84,3-7.7,5.93-.91,3.1.35,6.09,3.29,7.49,1.18.56,2.5.98,3.8,1.14,4.54.56,8.99.19,13.24-1.65,1.44-.63,2.85-1.32,4.53-1.02.5-2.16.96-4.17,1.49-6.45Z"/>
        <path class="cls-1" d="m87.35,128.49c-.86,1.48-2.13,2.52-3.7,3.12-12.23,4.72-27.46,3.77-38.33-6.72-3.95-3.8-6.9-8.27-8.05-13.77-.1-.47-.43-.89-.66-1.34,0-1.14,0-2.29,0-3.43.23-.51.53-1,.68-1.54,2.51-9.23,8.25-15.79,16.83-19.79,7.63-3.55,15.56-3.93,23.58-1.28,6.92,2.29,11.08,7.36,13.78,13.85.31.74.41,1.61.41,2.42,0,1.17-.69,1.68-1.77,1.23-1.04-.44-2.04-1.04-2.9-1.76-.97-.81-1.84-1.77-2.62-2.76-7.68-9.78-18.27-10.34-27.43-6.78-6.42,2.5-10.82,7.17-13.75,13.32-1.68,3.53-1.48,7.04.23,10.47,2.95,5.93,7.51,10.19,13.58,12.79,7.41,3.18,14.95,3.05,22.53.62,1.21-.39,2.4-.86,3.63-1.16,2.34-.57,3.37.11,3.96,2.5Z"/>
        <path class="cls-1" d="m365.61,299.01c.29,1.75.46,3.25.79,4.72,1.52,6.89,5.15,12.34,11.12,16.22,4.88,3.16,10.23,5.11,15.88,6.22,12.99,2.54,25.79,2.08,38.25-2.78,3.63-1.42,6.98-3.36,10.11-5.68.45-.33.86-.72,1.48-1.23-5.16-2.65-10.15-5.23-14.67-8.63-6.67-5.02-10.77-9.06-11.62-11.83.71-.52,1.33-.11,1.87.27,1.26.88,2.66,1.42,4.05,2.05,1.72.77,3.36,1.82,4.88,2.95,2.42,1.8,5.04,3.18,7.78,4.4,7.26,3.22,14.52,6.42,21.71,9.8,2.86,1.34,5.51,3.13,8.27,4.69,1.44.81,2.91,1.56,4.37,2.34,4.92,2.65,9.83,5.31,14.76,7.96,1.3.7,2.5,1.48,3.35,2.75.29.45.83.76,1.31,1.05.65.4,1.37.68,2.02,1.07,2.11,1.3,3.08,3.56,2.55,5.89-.35,1.56-1.67,2.7-3.07,2.65-1.3-.05-2.42-1-2.58-2.6-.26-2.61-1.83-4.04-3.98-5.16-5.12-2.68-10.19-5.45-15.31-8.12-1.28-.67-2.72-1.03-4.04-1.63-2.71-1.25-5.39-2.57-8.09-3.85-.56-.27-1.14-.51-1.66-.74-3.28,2.96-6.47,5.85-9.83,8.88.64.86,1.33,1.8,2.05,2.78,1.2-.56,1.32-1.52,1.46-2.44.12-.75.1-1.53.27-2.26.25-1.09.96-1.72,1.77-1.74.8-.01,1.66.63,1.85,1.65.43,2.37.31,4.74-1,6.82-1.7,2.7-5.36,3.1-7.82.92-.98-.87-1.74-1.97-2.68-3.06-1.31.79-2.66,1.61-4.02,2.43.87,2.93.28,5.69-.91,8.29-1.69,3.7-5.41,5.6-9.42,4.88-2.48-.44-4.74-1.5-6.6-3.21-.82-.76-1.39-1.79-2.25-2.93-.41.06-1.07.16-1.86.27.59,2.8-.16,5.19-1.99,7.22-1.33,1.47-3.01,2.31-5.01,2.45-4.44.31-6.72-2.43-7.38-8.98-2.01-.22-4.06-.44-6.35-.69.62,2.33-.56,3.93-1.64,5.57-1.97,2.99-4.56,5.27-7.81,6.79-2.56,1.19-5.14,1.28-7.74.12-.4-.18-.84-.34-1.27-.38-2.26-.18-3.51-1.66-4.4-3.49-1.51-3.07-1.49-6.29-.54-9.48.56-1.86,1.47-3.61,2.28-5.53-.25-.15-.66-.44-1.1-.67-15-7.94-22.42-20.66-23.47-37.35-.12-1.96-.15-3.95.03-5.9.15-1.56.49-3.17,1.09-4.6,1.54-3.65,4.43-5.68,8.38-5.96,1.69-.12,3.43.05,5.12.32,4.8.76,9.59,1.17,14.42.33,5.81-1.01,11.06-3.46,15.83-6.77,16.28-11.29,24.62-26.97,25.29-46.73.29-8.43-1.09-16.6-4.54-24.34-3.1-6.94-7.4-13.04-13.07-18.11-4.28-3.83-9.16-6.59-14.82-7.86-3.81-.86-6.96,0-9.17,3.33-1.43,2.17-2.68,4.46-4,6.7-.61,1.04-1.09,2.17-1.82,3.12-1.51,1.95-3.6,1.93-5.13,0-.5-.63-.93-1.4-1.14-2.17-.3-1.16-.57-2.38-.51-3.56.35-6.45,2.88-11.98,7.65-16.3,4.46-4.04,9.94-4.86,15.72-4.07,7.5,1.02,14.08,4.24,20.01,8.81,9.44,7.27,16.13,16.65,20.68,27.6,4.18,10.06,5.58,20.59,4.79,31.38-1.69,23.12-12.17,41.39-31.03,54.77-6.52,4.63-13.66,8.09-21.59,9.69-4.77.96-9.57,1.22-14.42.82-.5-.04-.99-.05-1.88-.1Zm9.71,38.49c-.46,2.37-1.07,4.76-1.35,7.19-.39,3.38.26,6.39,3.51,8.39,1.16.72,2.14.91,3.36.39,5.15-2.23,8.67-6.1,11.09-10.81-5.39-1.67-10.82-3.36-16.61-5.15Zm58.61.02c-1.94.79-3.74,1.56-5.57,2.25-1.79.67-3.61,1.25-5.55,1.92,3,2.57,5.55,3.07,7.79,1.69,3.06-1.89,3.92-3.32,3.33-5.85Zm-21.92,6.1c-2.23.11-4.2.22-6.46.33.42,1.12.65,2.05,1.1,2.84.86,1.53,2.31,1.73,3.62.55,1.02-.92,1.48-2.14,1.74-3.72Z"/>
        <path class="cls-1" d="m276.81,406.26c-2.16.42-4.13.81-6.12,1.17-.81.15-1.64.31-2.45.29-1.72-.05-2.78-1.3-2.29-2.94.43-1.44,1.09-2.86,1.93-4.1,1.71-2.52,3.51-5,5.46-7.34,4.17-5.02,7.48-10.55,10.48-16.32,2.75-5.3,5.67-10.51,8.44-15.79,1.3-2.47,2.4-5.04,3.64-7.55.36-.73.75-1.48,1.3-2.06.63-.67,1.5-.94,2.45-.54.91.38,1.47,1.08,1.52,2.02.04.74-.08,1.53-.33,2.22-.56,1.55-1.16,3.1-1.91,4.57-2.7,5.34-6.03,10.3-9.51,15.16-.88,1.23-1.74,2.48-2.6,3.73-.14.2-.18.47-.34.92,2.93,1.26,5.79,2.58,8.73,3.71.95.36,2.1.25,3.16.29,1.05.04,2.11,0,3.5,0-.22.14-.06.1-.02,0,1.53-3.16,3.97-5.39,7.06-6.97.34-.17.64-.42.97-.6,2.83-1.51,4.5-3.79,4.91-7.03.29-2.26.75-4.51,1.24-6.74.93-4.24,3.06-7.77,6.48-10.49,3.25-2.59,6.83-4.61,10.57-6.41,4.46-2.15,8.86-4.43,13.29-6.63,1.25-.62,2.53-1.18,3.82-1.71.52-.21,1.11-.39,1.66-.36.51.03,1.25.23,1.44.59.19.36-.04,1.14-.35,1.5-.57.66-1.27,1.28-2.03,1.7-2.1,1.18-4.24,2.31-6.41,3.35-5.39,2.58-10.89,4.93-15.86,8.29-.74.5-1.46,1.01-2.2,1.51-4.19,2.8-6.61,6.76-7.67,11.62-.41,1.86-.88,3.71-1.23,5.58-.55,2.98-2.18,5.25-4.56,7.02-1.22.91-2.48,1.78-3.8,2.54-1.83,1.05-3.17,2.5-4.12,4.37-2.11,4.16-3.62,8.53-4.59,13.09-.77,3.6-1.48,7.22-2.27,10.82-.26,1.17-.65,2.32-1.07,3.45-.58,1.53-1.71,2.47-3.34,2.82-3.26.69-6.54.96-9.85.48-1.88-.27-3.75-.67-5.62-1.06-2.27-.48-3.41-2.27-2.84-4.56.29-1.15.79-2.24,1.28-3.6Z"/>
        <path class="cls-1" d="m99.19,87.3c-1.48,1.97-2.56,2.36-4.93,1.56-3.48-1.17-6.19-3.45-8.54-6.19-3.69-4.3-5.7-9.44-7.13-14.81-1.24-4.68-1.87-9.48-1.9-14.31-.01-2.26.51-4.52.84-6.78.06-.43.25-.86.47-1.24.87-1.53,2.2-1.7,3.39-.4.6.65,1.12,1.38,1.64,2.1,4.12,5.55,9.06,10.28,14.47,14.55,1.69,1.34,3.27,2.83,5.03,4.07,2.69,1.9,5.51,3.62,8.22,5.49.86.6,1.69,1.35,2.3,2.2.72,1.01.26,1.74-.99,1.61-.91-.1-1.99-.29-2.63-.85-4.14-3.6-8.9-6.29-13.4-9.37-5.69-3.89-10.47-8.84-14.67-14.32-.22-.29-.46-.56-.88-1.06-.61,2.29-.82,4.35-.68,6.43.07,1.07.18,2.17.49,3.19,2.4,8.08,5.92,15.55,12.16,21.46,1.42,1.35,3,2.55,4.57,3.73,1.06.79,1.93,1.65,2.11,3.02l.05-.06Z"/>
        <path class="cls-1" d="m234.98,74.68c.07,3.4-.45,6.52-1.62,9.51-.97,2.48-2.02,4.94-3.15,7.35-.71,1.52-1.81,2.75-3.41,3.44-1.5.65-2.13.31-2.3-1.27-.18-1.64.2-3.14.87-4.62.85-1.85,1.71-3.69,2.49-5.57,1.61-3.88,2.26-7.91,1.78-12.12-.32-2.8-1.35-5.28-2.99-7.52-1.66-2.26-3.99-3.29-6.75-3.33-5.24-.08-10.24.93-14.82,3.56-6.48,3.72-12.35,8.24-17.61,13.56-.45.45-.87.94-1.38,1.31-.27.19-.85.35-1.01.2-.27-.25-.49-.76-.43-1.12.1-.61.32-1.25.68-1.75.87-1.24,1.73-2.54,2.81-3.59,4.8-4.68,10.07-8.74,16.08-11.78,4.53-2.3,9.3-3.69,14.39-4.02,5.66-.36,11.7,3.09,14.37,8.33,1.53,3.02,2.12,6.23,2,9.41Z"/>
        <path class="cls-1" d="m179.05,33.45c-.31,1.79-.63,3.58-.94,5.36-.31,1.81-.62,3.63-.93,5.44-.8,4.65-3,8.75-5.15,12.85-1.23,2.35-2.73,4.56-4.15,6.81-.3.47-.74.88-1.19,1.23-.79.62-1.67.64-2.26.09-.66-.6-.76-1.42-.31-2.08.99-1.46,2.02-2.93,3.23-4.21,2.13-2.25,3.89-4.72,4.95-7.61.91-2.5,1.65-5.07,2.4-7.63,1.19-4.05,1.87-8.16,1.44-12.41-.08-.81-.05-1.67.13-2.46.42-1.89,2.11-2.48,3.61-1.28.54.43,1.03.96,1.4,1.54,2.66,4.12,5.03,8.38,6.13,13.24,1.19,5.26,1.61,10.52.3,15.84-.61,2.46-.94,5-1.62,7.44-.65,2.31-1.52,4.57-2.45,6.79-.73,1.72-2.09,2.36-3.27,1.84-1.25-.55-1.55-2.01-.79-3.83.12-.29.26-.58.4-.86,3.33-6.45,4.64-13.39,5.05-20.56.11-1.84.09-3.58-.75-5.33-1.61-3.37-3.04-6.82-4.54-10.24-.22,0-.45.02-.67.03Z"/>
        <path class="cls-1" d="m193.14,87.47c-.04-1.19.61-1.91,1.23-2.6,2.4-2.7,5.37-4.63,8.56-6.24,2.96-1.5,6.1-2.5,9.38-3.01,1.89-.3,3.8-.39,5.65.25,3.12,1.09,4.93,3.26,5.24,6.57.25,2.62-.44,5.01-1.84,7.24-1.2,1.91-3.2,2.63-5.11,3.45-.33.14-1.06-.12-1.3-.43-.24-.32-.25-1-.08-1.39.7-1.55,1.57-3.03,2.26-4.59.48-1.08.95-2.22,1.13-3.39.24-1.52-.55-2.59-2.07-2.93-.9-.2-1.89-.23-2.81-.11-4,.52-7.77,1.82-11.35,3.67-1.97,1.02-3.9,2.12-5.88,3.13-.88.45-1.8.98-3.02.39Z"/>
        <path class="cls-1" d="m99.14,87.35c2.4-3.11,5.52-5.41,8.69-7.63,9.57-6.68,20.03-11.45,31.34-14.28,4.37-1.09,8.86-1.54,13.4-1.37,1.31.05,2.35.43,2.92,1.77-.5.99-1.37,1.24-2.37,1.18-8.97-.59-17.32,1.81-25.47,5.25-9.35,3.95-18.03,9.02-26,15.31-.35.27-.7.56-1.09.76-.96.5-1.22.28-1.38-1.05,0,0-.05.06-.05.06Z"/>
        <path class="cls-1" d="m133.69,48.97c-3.09,2.67-4.16,6.67-6.7,9.92-.67-.85-.55-1.55-.37-2.18,1.21-4.07,3.05-7.79,6.11-10.81.22-.22.47-.42.73-.61,1.59-1.13,3.03-.62,3.32,1.32.17,1.1.1,2.3-.14,3.39-.44,2.03-1.09,4.02-1.73,6.32.79-.32,1.39-.54,1.97-.81,4.1-1.9,8.38-2.92,12.92-2.59.94.07,1.9.16,2.81.4,1.43.38,2.23,1.51,2.13,2.77-.1,1.18-1.38,2.63-2.56,2.75-.34.03-.85-.25-1.06-.55-.23-.33-.22-.83-.34-1.4-2.15-.27-4.28-.27-6.41.09-3.09.52-6.01,1.56-8.82,2.93-.85.41-1.72.84-2.64,1.06-1.49.36-2.55-.45-2.54-1.97.01-.99.23-2.02.57-2.95.85-2.38,1.82-4.71,2.74-7.06Z"/>
        <path class="cls-1" d="m156.84,88.89c.22-1.05.32-2.14.68-3.13,1.04-2.8,3.95-3.99,6.7-2.79,2,.87,3.19,2.46,3.82,4.49.84,2.73.57,5.41-.63,7.97-1.63,3.46-5.16,3.66-7.58.72-1.78-2.16-2.93-4.4-2.98-7.25Z"/>
        <path class="cls-1" d="m194.95,97.43c-.38.55-.6,1.14-1.02,1.41-.64.42-1.26-.04-1.63-.55-.73-1.03-1.41-2.11-2.03-3.21-3.79-6.79-8.35-13.01-13.72-18.63-.65-.68-1.27-1.43-1.76-2.23-.21-.36-.25-1.1-.01-1.37.23-.27,1.02-.39,1.35-.19,1.62.96,3.43,1.8,4.69,3.14,2.72,2.9,5.28,5.99,7.66,9.18,1.73,2.33,3.16,4.91,4.53,7.47.83,1.54,1.29,3.28,1.94,4.98Z"/>
        <path class="cls-1" d="m125.4,61.9q-1.28,1.38-5.68-.46c.07.76.12,1.41.18,2.07.09.94.26,1.88.28,2.83.02,1.01-.32,1.9-1.37,2.27-1,.35-1.87.03-2.59-.71-.31-.31-.61-.66-.82-1.03-1.67-2.89-2.28-6-1.86-9.31.02-.19.06-.38.11-.56.41-1.59,1.29-2.78,2.94-3.15,1.65-.37,3,.29,4.01,1.57,1.17,1.49,2.27,3.04,3.4,4.57.44.6.88,1.21,1.4,1.92Z"/>
        <path class="cls-1" d="m144.78,97.39c-.34,1.47-.56,2.92-1.03,4.28-.52,1.48-1.64,2.41-3.3,2.41-1.59,0-2.64-.88-3.21-2.27-.78-1.89-1.25-3.85-.97-5.93.09-.68.01-1.38.04-2.07.03-.82,0-1.66.15-2.45.27-1.34,1.08-2.29,2.45-2.62,1.44-.34,2.65.12,3.53,1.29.45.6.86,1.28,1.06,2,.49,1.76.85,3.55,1.28,5.37Z"/>
        <path class="cls-1" d="m343.76,325.81c-.03,1.03-.44,1.71-1.19,2.16-5.43,3.31-10.94,6.45-16.94,8.64-.09.03-.22-.07-.62-.21,1.43-1.13,2.69-2.25,4.08-3.19,1.68-1.13,3.47-2.11,5.23-3.14,2.19-1.28,4.4-2.53,6.59-3.83.85-.5,1.68-.89,2.85-.44Z"/>
        <path class="cls-1" d="m152.09,153.87c-.35,7.72-3.06,14.53-7.86,20.48-1.42,1.75-3.15,3.34-5,4.63-4.65,3.28-9.91,2.34-12.89-.35-.23-.21-.53-.48-.79-.48-1.66.03-2.13-1.21-2.55-2.41-.82-2.3-1.07-4.7-.87-7.13.52-6.08,2.14-11.86,5.01-17.25,2.01-3.78,4.77-6.88,8.62-8.88,2.17-1.12,4.46-1.9,6.94-1.65,4.76.48,8.09,3.62,8.96,8.49.27,1.49.29,3.02.42,4.54Z"/>
        <path class="cls-1" d="m230.16,164.07c-9.18-.22-17.38-8.33-17.11-17.17.05-1.68.43-3.43,1.04-4.99,1.67-4.26,5.48-6.03,9.9-4.81,1.99.55,3.83,1.46,5.32,2.86,1.52,1.43,3.04,2.92,4.24,4.61,1.57,2.22,2.91,4.62,4.18,7.04.6,1.16.96,2.5,1.15,3.8.55,3.7-1.6,7.01-5.18,8.06-1.14.33-2.36.41-3.55.6Z"/>
        <path class="cls-1" d="m132.79,139.45c-.49.77-.72,1.49-1.21,1.87-3.62,2.81-5.96,6.6-7.85,10.61-1.67,3.54-3.06,7.25-4.18,11-.7,2.33-.65,4.88-.95,7.33-.11.88-.17,1.77-.43,2.6-.12.39-.73.97-.99.91-.45-.11-.97-.57-1.15-1.01-.23-.56-.25-1.25-.2-1.87.56-7.37,1.72-14.57,5.26-21.23,2.21-4.16,5.68-7.08,9.18-10.01.66-.55.72-.47,2.54-.21Z"/>
        <path class="cls-1" d="m223.16,131.1c3.97.46,7.17,2.3,9.59,5.48.19.24.38.57.37.86-.02.53-.04,1.19-.35,1.53-.24.26-.98.24-1.4.08-.57-.22-1.14-.61-1.53-1.07-1.79-2.12-4.13-3.3-6.69-4.14-.48-.16-1-.3-1.38-.6-.36-.29-.87-.92-.76-1.14.2-.43.76-.73,1.23-.97.25-.13.62-.02.94-.02Z"/>
      </g>
    </g>
  </g>
</svg>