<?xml version="1.0" encoding="UTF-8"?>
<svg id="Layer_2" data-name="Layer 2" xmlns="http://www.w3.org/2000/svg" viewBox="0 0 440.33 386.48">
  <defs>
    <style>
      .cls-1 {
        fill: #1d1e1e;
      }

      .cls-1, .cls-2 {
        stroke-width: 0px;
      }

      .cls-2 {
        fill: #869e57;
      }
    </style>
  </defs>
  <g id="Layer_1-2" data-name="Layer 1">
    <g>
      <path class="cls-2" d="m24.36,140.93c32.14-46.42,71.25-48.91,71.25-48.91,0,0,17.17-5.09,40.84-19.34s15.41-12.71,35.66-8.61,18-10.89,46.5-31.14,32.7-24.57,57.97-14.53,45.75-30.47,65.89-14.72,11.89,37.5,29.14,49.5,32.91,6.75,53.58,54,25.82,144.74-21.33,172.5-18,34.85-25.5,48.55-63.94,21.25-63.94,21.25l-13.67,7.69s1.72,32.75-36.83,29-58.05-5.86-78.3-17.93-45.75-27.56-64.5-15.31-75,53.54-96.75,19.39S-2.64,339.79,1.11,321.74s18.75-28.56,24.75-30.81,29.92-36.75,32.21-48.75-15.36-21.75-14.41-40.5-46.3-21.75-19.3-60.75Z"/>
      <g>
        <path class="cls-1" d="m353.24,307.19c-.23-.52-.46-1.14-.76-1.72-.4-.78-1.05-1.27-1.9-1.54-.69-.22-1.35-.54-2.15-.87-1.61,1.1-3.41,2.25-5.14,3.5-7.25,5.27-15.13,9.42-23.22,13.21-3.75,1.76-7.48,3.58-11.27,5.24-1.87.82-3.86,1.35-5.8,2-.45.15-.85.07-1.08-.37-.24-.46-.01-.81.38-1.05,1.96-1.2,3.91-2.42,5.89-3.58,2.82-1.64,5.68-3.21,8.51-4.84,2.68-1.55,5.3-3.2,8.01-4.72,3.4-1.91,6.7-3.95,9.91-6.17,5.33-3.7,10.73-7.3,16.1-10.95,11.49-7.81,21.25-17.4,29.14-28.82,5.54-8.03,10.8-16.25,16.07-24.46,3.34-5.2,5.75-10.88,8.11-16.57,2.06-4.99,4.3-9.93,5.66-15.17,2.22-8.56,4.24-17.16,5-26,.49-5.63-.11-11.21-.77-16.79-.88-7.4-3.17-14.37-6.14-21.16-1.37-3.13-3.28-5.93-5.46-8.55-1.22-1.48-2.76-2.38-4.63-2.81-2.36-.54-4.72-.59-7.11-.24-4.08.6-7.87,1.97-11.29,4.29-3.77,2.55-7.13,5.55-10.1,9-.56.65-.78,1.29-.71,2.16.63,8.73,1.14,17.47,1.85,26.19.5,6.22,1.27,12.41,1.88,18.62.1.99.09,2.02-.09,2.99-.52,2.74-2.7,4.7-5.42,5.02-2.64.31-5.24-1.06-6.36-3.55-.47-1.05-.76-2.23-.88-3.38-1-9.58-1.9-19.17-2.4-28.8-.03-.54-.11-1.07-.19-1.88-.52.44-.88.73-1.24,1.04-4.19,3.68-8.92,6.36-14.34,7.77-8.04,2.1-15.78,1.09-23.25-2.38-3.09-1.44-6.02-3.16-8.46-5.57-5.84-5.76-8.04-12.69-6.07-20.67,3.58-14.53,13.01-23.23,27.44-26.59,6.89-1.6,13.56-.46,19.98,2.39.45.2.91.39,1.58.68-.65-7.42-2.42-14.47-3.66-21.73-.42.05-.78.07-1.13.13-13.24,2.31-25.65,6.98-37.51,13.24-7.31,3.86-14.17,8.45-21.1,12.93-6.43,4.16-12.84,8.38-19.4,12.34-6.31,3.81-12.74,7.43-19.46,10.48-6.93,3.14-14.07,5.63-21.57,7-7.54,1.38-15.07,1.45-22.61.01-.2-.04-.41-.05-.74-.09-.22.42-.47.84-.67,1.28-3.54,7.65-5.93,15.66-7.46,23.93-1.68,9.05-2.4,18.19-1.95,27.39.62,12.53,2.67,24.81,7.22,36.57,2.33,6.03,5.46,11.59,9.74,16.46,6.81,7.74,15.31,12.76,25.19,15.54,6.78,1.91,13.68,2.87,20.73,2.53,5.52-.27,10.86-1.52,16.05-3.37,10.17-3.63,19.29-9.09,27.55-16.02,4.36-3.65,8.31-7.66,11.45-12.44,4.76-7.24,7.61-15.16,8.48-23.79.57-5.66.55-11.29-.48-16.9-1.24-6.75-4.54-12.29-9.95-16.51-7.61-5.94-16.23-9.46-25.82-10.58-5.07-.59-10.1-.49-15.13.48-7.17,1.38-13.17,4.71-18,10.21-8.89,10.11-12.55,21.89-11.07,35.21.66,5.95,3.23,11.15,7.51,15.42,2.84,2.83,6.28,4.38,10.28,4.71,1.48.12,2.93-.06,4.34-.5,4.31-1.32,8.16-3.48,11.55-6.43,3.78-3.3,5.83-7.58,6.81-12.44.67-3.34.8-6.73.87-10.13.03-1.55-.07-3.1.03-4.65.07-1.11.2-2.28.6-3.31,1.23-3.17,4.8-3.77,7.1-1.27.95,1.04,1.51,2.3,1.95,3.63.78,2.4,1.14,4.89,1.35,7.4.53,6.27-.16,12.38-2.57,18.24-2.05,4.98-5.15,9.19-9.36,12.56-4.12,3.3-8.66,5.85-13.66,7.6-5.82,2.04-11.59,1.83-17.35-.19-5.7-2-10.32-5.49-13.99-10.25-5.03-6.52-7.95-13.89-8.35-22.11-.94-18.99,5.67-34.86,20.08-47.36,4.94-4.29,10.8-6.83,17.08-8.45,18.47-4.75,39.94.02,54.73,12.09,7.9,6.45,12.8,14.7,14.42,24.73,2.87,17.84-.06,34.61-9.95,49.94-3.2,4.96-7.12,9.31-11.5,13.24-10.18,9.14-21.6,16.24-34.53,20.83-8.21,2.91-16.66,4.53-25.39,4.15-15.46-.68-29.8-4.82-42.3-14.28-9.13-6.91-15.72-15.81-20.23-26.29-3.63-8.44-5.97-17.24-7.46-26.28-1.41-8.53-2.22-17.11-2-25.77.43-17.32,3.66-34.02,10.95-49.83.12-.26.21-.54.35-.87-.3-.25-.57-.5-.86-.73-5.78-4.63-10.19-10.38-13.68-16.86-.63-1.17-1.02-2.47-1.44-3.74-.18-.54-.24-1.16-.22-1.73.09-1.98,1.89-3.13,3.65-2.2,1.05.55,1.97,1.4,2.81,2.26,1.56,1.58,2.99,3.28,4.52,4.89,2.63,2.76,5.27,5.51,8.34,7.81.6.45,1.23.87,1.96,1.38.3-.4.58-.75.82-1.11,2.7-3.95,5.61-7.72,8.99-11.13,4.95-5,10.83-8.38,17.61-10.2.28-.07.55-.17.9-.28-.09-.37-.14-.7-.25-1-.73-1.96-1.53-3.9-2.2-5.88-.48-1.42-.88-2.88-1.13-4.36-.14-.84-.02-1.77.2-2.6.87-3.29,4.21-4.74,7.24-3.21,1.55.78,2.7,2.01,3.52,3.49,1.03,1.87,2,3.78,2.86,5.73,1.55,3.52,3.01,7.09,4.51,10.64.68,1.62,1.01,3.28.67,5.03-.67,3.42-3.56,5.72-7.25,5.74-.67,0-1.34-.07-2-.15-1.65-.19-3.25.01-4.82.56-3.74,1.31-7.1,3.22-9.81,6.13-1.76,1.9-3.4,3.92-5.07,5.9-.21.24-.35.55-.61.97.88.06,1.62.15,2.36.16,5.7.12,11.26-.75,16.73-2.32,7.73-2.22,14.99-5.51,22.03-9.36,10.42-5.68,20.39-12.08,30.25-18.67,8.05-5.38,16.2-10.57,24.86-14.93,12.19-6.14,24.94-10.6,38.4-13.01,6.37-1.14,12.75-1.95,19.23-1.68,9.08.38,17.87,2.15,26.22,5.79,5.72,2.5,10.71,6.05,14.66,10.94.71.88,1.4,1.78,1.97,2.75.41.71.68,1.53.88,2.33.23.92.33,1.88.47,2.82.3,2.07-1.51,3.65-3.56,3.15-.72-.18-1.48-.22-2.19-.44-1.11-.35-2.27-.65-3.26-1.22-2.65-1.52-5.32-3.04-7.8-4.82-5.36-3.86-11.39-5.96-17.76-7.27-4.07-.84-8.19-1.28-12.35-1.29-.42,0-.83,0-1.38,0,.07.41.08.73.18,1.02,1.38,4.07,2.12,8.26,2.65,12.51.38,3.07,1.07,6.11,1.5,9.17.55,3.94.99,7.89,1.48,11.84.04.29.08.57.14,1.04.34-.28.58-.46.8-.67,1.63-1.51,3.17-3.12,4.89-4.51,5.61-4.54,12.1-7.01,19.27-7.41,5.94-.33,11.63.76,16.46,4.57,1.3,1.03,2.49,2.25,3.56,3.53,5.72,6.83,9.21,14.71,10.96,23.42,1.46,7.27,2.05,14.61,1.7,21.99-.18,3.96-.83,7.91-1.31,11.86-1.17,9.64-4.09,18.8-7.54,27.82-1.48,3.88-3.09,7.69-5.01,11.38-1.41,2.71-2.72,5.48-4.09,8.21-2.41,4.81-5.51,9.19-8.4,13.7-4.94,7.7-10.31,15.08-16.26,22.01-6.04,7.02-12.33,13.82-19.1,20.14-3.55,3.31-7.29,6.42-10.95,9.61-.12.11-.28.19-.7.46,1.87.39,3.09,1.25,4.03,2.51.96,1.28,1.46,2.64.73,4.19.1.09.15.18.21.18,4.16,0,6.89,2.27,8.77,5.7.69,1.27,1.08,2.72,1.47,4.13.69,2.5.06,4.71-1.63,6.65-1.74,1.99-3.89,3.26-6.45,3.89-5.16,1.27-10.39,1.71-15.7,1.44-4.1-.21-8.21-.18-12.3-.45-3.22-.21-6.43-.38-9.66-.21-2.63.14-5.27.19-7.91.25-.78.02-1.57-.03-2.22-.6.17-.75.75-.87,1.26-.97,1.64-.33,3.28-.73,4.94-.88,3.58-.33,7.18-.52,10.77-.76,5.77-.39,11.55-.47,17.33-.21,3.84.17,7.59-.52,11.3-1.41,1.91-.46,3.58-1.39,4.87-2.92,1.33-1.58,1.43-3.25.56-5.1-.99-2.12-2.85-2.94-4.86-3.63-4.58-1.58-8.82-.24-13.03,1.47-.5.2-.97.5-1.49.67-.68.22-1.07-.13-.97-.84.12-.92.69-1.6,1.33-2.22,1.22-1.18,2.61-2.14,4.23-2.65,1.91-.59,3.87-1.03,5.94-1.58Zm.81-168.18h-.16c0-.81.01-1.6,0-2.4-.07-3.34-.05-3.39-3.12-4.74-3.68-1.62-7.57-2.41-11.57-2.62-5.24-.27-10,1.32-14.42,3.99-5.5,3.31-8.83,8.21-10.11,14.48-.23,1.13-.32,2.34-.22,3.49.28,3.11,1.89,5.5,4.42,7.26,2.85,1.98,6.01,3.28,9.4,4.03,2.1.47,4.22.61,6.36.36,5.42-.61,9.93-3.05,13.79-6.83,2.66-2.61,4.36-5.73,4.89-9.4.37-2.52.5-5.07.73-7.61Z"/>
        <path class="cls-1" d="m154.87,123.88c-.62-.22-1-.34-1.38-.49-1.88-.72-3.8-1.33-5.61-2.18-3.47-1.63-7.16-2.33-10.91-2.74-9.38-1.02-18.8-1.35-28.23-.97-6.83.27-13.63.91-20.25,2.72-9.23,2.52-17.78,6.47-25.24,12.54-4.15,3.37-7.78,7.25-10.59,11.84-1.08,1.76-1.94,3.62-2.52,5.6-1.24,4.27,1.01,8.63,5.23,10.07,2.77.95,5.62.94,8.43.29,4.92-1.14,9.1-3.62,12.34-7.5,2.15-2.57,3.29-5.64,3.6-8.96.12-1.22-.15-2.5-.33-3.73-.17-1.16-.48-2.29-.7-3.45-.09-.45-.12-.91-.14-1.37-.18-3.98,3.75-5.72,6.56-4.54,1.81.76,3.22,2.01,4.07,3.75.6,1.22,1.05,2.56,1.32,3.9.77,3.8.5,7.57-.6,11.3-1.99,6.74-5.9,12.04-11.74,15.94-4.71,3.15-9.8,5.26-15.5,5.72-3.67.29-7.27-.03-10.78-1.21-8.88-2.98-14.91-13.04-12.06-22.78,1.26-4.32,3.31-8.23,5.99-11.82,5.64-7.57,12.62-13.59,20.88-18.17,9.65-5.35,19.9-8.75,30.86-9.99,8-.91,16.03-1.16,24.08-.81,6.79.3,13.53.94,20.22,2.1,4.26.74,8.22,2.2,11.9,4.51,2.23,1.4,4.59,2.58,6.9,3.85.79.43,1.47.28,2.17-.32,6.77-5.78,14.07-10.83,21.55-15.63,1.91-1.23,3.89-2.33,6.14-2.79.84-.18,1.74-.14,2.61-.14.54,0,1.07.15,1.61.21,1.71.19,2.48,1.73,1.87,3.33-1.2,3.2-3.6,5.26-6.31,7.08-4.49,3.01-9.05,5.92-13.43,9.07-3.8,2.74-7.4,5.76-11.09,8.66-.45.35-.73.72-.73,1.36-.03,5.91-.12,11.81-.14,17.72-.02,7.51.6,14.98,1.19,22.45.54,6.76,1.06,13.53,1.7,20.28.49,5.17,1.19,10.32,1.73,15.48.6,5.79,1.08,11.59,1.7,17.38,1.29,11.88,3.35,23.63,6.26,35.23,1.76,7.03,3.69,14.01,5.51,21.02,1.66,6.4,3.16,12.85,4.91,19.23,2.77,10.12,6.64,19.83,11.13,29.32,3.71,7.84,7.81,15.47,11.92,23.11.75,1.4,1.5,2.8,1.7,4.43.06.48.36.93.54,1.4.3.76.13,1.41-.44,1.78-.57.38-1.2.25-1.82-.3-.62-.56-1.29-1.05-1.89-1.63-.69-.67-1.38-1.35-1.95-2.11-3.68-4.91-6.71-10.21-9.4-15.72-5.41-11.08-10.05-22.47-14.03-34.14-1.66-4.87-3.56-9.67-5.28-14.52-4.86-13.77-8.31-27.92-11.57-42.13-.84-3.67-1.7-7.34-2.56-11.01-.08-.36-.21-.71-.31-1.08-5.24-.32-10.43-.81-15.79-.05.25.55.45,1,.67,1.44,3.2,6.51,5.49,13.31,6.51,20.51.95,6.69,1.02,13.36-.47,19.99-2.22,9.85-7.39,17.87-15.09,24.32-6.78,5.68-14.43,9.85-22.69,12.96-9.65,3.63-19.61,5.7-29.92,5.98-6.69.18-13.31-.38-19.73-2.44-3.17-1.02-6.16-2.43-8.84-4.42-7.56-5.64-10.73-13.17-9.53-22.5.74-5.8,2.99-11.05,6.13-15.93,3.44-5.36,7.71-10.01,12.26-14.42,7.03-6.8,15-12.33,23.42-17.25,11.92-6.96,24.53-12.31,37.78-16.17.36-.11.72-.22,1.18-.37-.15-.28-.25-.54-.42-.74-5.19-6.05-10.62-11.85-17.25-16.41-3.45-2.37-6.84-4.83-10.25-7.27-.91-.66-1.77-1.39-2.75-2.16-.31.33-.62.66-.93.99-5.37,5.83-10.35,11.97-15.43,18.05-2.07,2.47-4.33,4.78-6.56,7.1-.72.75-1.56,1.41-2.44,1.96-1.25.8-2.54.66-3.48-.2-.89-.82-1.13-2.05-.55-3.35.36-.8.78-1.59,1.3-2.28,5-6.67,9.93-13.39,15.06-19.95,3.69-4.71,7.75-9.14,11.49-13.81,5.08-6.34,9.98-12.83,15.02-19.2,6.03-7.62,12.16-15.16,18.83-22.24,7.16-7.59,14.6-14.9,22.43-21.8.25-.22.52-.41.94-.74Zm-18.18,112.29c-.26.03-.39.04-.51.07-.37.08-.73.17-1.1.26-16.42,4.34-31.72,11.15-45.85,20.58-7.14,4.77-13.65,10.26-19.33,16.72-2.89,3.28-5.5,6.76-7.34,10.75-1.27,2.76-2.14,5.62-2.24,8.7-.13,3.94,1.42,7.07,4.46,9.51,1.69,1.35,3.59,2.3,5.62,3,3.8,1.31,7.74,1.8,11.72,1.97,7.85.34,15.55-.66,23.1-2.76,9.28-2.57,17.98-6.38,25.66-12.31,2.76-2.14,5.29-4.51,7.37-7.33,4.81-6.51,6.63-13.9,6.35-21.89-.32-9.48-3.05-18.29-7.5-26.61-.12-.22-.26-.42-.42-.67Zm24.6-13.68c-.23-1.02-.42-1.92-.63-2.81-2.03-8.78-3.73-17.61-4.64-26.59-1.24-12.17-1.97-24.38-2.49-36.59-.26-6.11-.26-12.23.41-18.32.02-.23,0-.46,0-.89-.44.36-.73.57-1,.81-10.86,10.07-21.06,20.75-30.32,32.31-5.97,7.45-11.91,14.93-17.86,22.39-.1.13-.18.27-.31.48,1.6.89,3.16,1.76,4.72,2.65,4.66,2.65,9.36,5.26,13.65,8.48,6.77,5.08,12.58,11.17,17.81,17.81.72.91,1.37,1.19,2.51,1.03,5.15-.72,10.32-1.09,15.53-.75.83.05,1.66,0,2.63,0Z"/>
        <path class="cls-1" d="m306.87,42.35c.5-1.81.89-3.66,1.52-5.42,2.52-7.18,6.98-12.76,13.66-16.58,7.87-4.48,16.36-.5,19.8,4.5,1.79,2.61,3.36,5.32,4.36,8.31,1.35,4.01,2.57,8.05,3.83,12.09.83,2.67.88,5.44.92,8.21,0,.33,0,.66,0,1.05,1.12.34,2.19.68,3.26,1,5.89,1.76,11.41,4.36,16.76,7.35,2.08,1.17,4.18,2.31,6.18,3.61,2.82,1.84,5.29,4.11,7.5,6.65,1.24,1.43,2.31,2.98,2.73,4.88.1.43.38.83.59,1.24.43.83.34,1.57-.28,2.03-.57.42-1.26.32-1.95-.21-.56-.43-1.19-.75-1.75-1.18-1.27-.95-2.53-1.91-3.75-2.92-.68-.56-1.27-1.22-1.88-1.85-2.43-2.46-5.18-4.49-8.17-6.22-5.43-3.16-10.9-6.23-16.73-8.63-1.73-.71-3.42-1.61-4.98-2.63-1.12-.73-1.8-1.98-2.19-3.28-.62-2.04-1.17-4.11-1.78-6.15-1.4-4.65-2.79-9.3-4.27-13.92-.71-2.2-1.9-4.19-3.24-6.07-1.81-2.53-4.36-3.69-7.37-4.01-1.38-.15-2.65.29-3.89.82-3.44,1.46-6.13,3.88-8.48,6.72-2.97,3.58-4.79,7.74-6.09,12.15-.11.37-.07.83.03,1.21.27.98.06,1.79-.6,2.55-.28.32-.45.78-.54,1.2-.14.65-.16,1.33-.24,1.99-.05.37-.1.75-.18,1.11-.12.52-.38.95-.95,1.05-.61.1-1.13-.19-1.34-.71-.32-.8-.54-1.66-.72-2.51-.11-.52-.08-1.08-.12-1.79-1.1-.21-2.19-.48-3.29-.63-3.38-.46-6.77-.46-10.16-.18-4.63.38-9.26.83-13.89,1.24-.49.04-1.01.05-1.49-.05-.37-.08-.84-.3-.99-.6-.24-.5.23-.85.61-1.1.49-.32.99-.66,1.54-.84,2.27-.73,4.52-1.53,6.83-2.08,4.73-1.12,9.51-2.04,14.4-1.91,2.25.06,4.5.31,6.83.48Z"/>
        <path class="cls-1" d="m266.27,61.37c-.14,3.49-.41,6.37-1.23,9.16-.9,3.09-2.32,5.92-4.45,8.36-1.28,1.47-2.79,2.66-4.6,3.42-2.96,1.24-5.65.74-8.09-1.28-1.38-1.15-2.31-2.63-3.05-4.25-.28-.61-.58-1.2-.92-1.78-.96-1.65-1.54-3.44-1.82-5.32-.8-5.38-.56-10.7,1.11-15.9.41-1.26.99-2.5,1.66-3.65,2.6-4.47,6.59-5.8,11.5-4.62,2.72.65,4.83,2.25,6.49,4.46,1.84,2.44,2.8,5.23,3.17,8.23.15,1.24.18,2.5.22,3.16Z"/>
        <path class="cls-1" d="m216.28,79.41c.16-5.5,1.15-10.82,2.74-16.07,2.17-7.17,4.93-14.06,8.83-20.47,2.48-4.07,5.42-7.75,9.02-10.88,2.58-2.24,5.43-4.07,8.57-5.4,4.35-1.86,8.91-2.15,13.41-.92,4.46,1.22,8.05,3.94,10.47,7.92,1.45,2.39,2.57,4.98,3.77,7.51.86,1.81,1.64,3.67,2.42,5.52.67,1.59,1.18,3.21,1.02,4.99-.03.37.2.79.37,1.15,1.07,2.27,2.16,4.53,3.23,6.8.42.9.54,1.84.31,2.81-.19.84-.65.99-1.33.43-.7-.57-1.18-1.27-1.5-2.12-.56-1.49-1.23-2.94-1.72-4.45-.43-1.32-1.25-2.36-2.21-3.27-1.28-1.22-2.14-2.66-2.85-4.24-1.59-3.51-3.16-7.02-4.8-10.51-.95-2.03-2.29-3.75-4.1-5.15-2.62-2.02-5.49-2.62-8.73-2.27-4.71.51-8.57,2.73-12.09,5.67-3.38,2.82-6.04,6.28-8.17,10.11-4.62,8.33-7.89,17.2-9.88,26.5-.78,3.63-.99,7.38-1.46,11.07-.1.75-.14,1.51-.31,2.24-.13.56-.32,1.15-.64,1.62-.77,1.12-2.21,1.14-2.93-.01-.43-.68-.73-1.53-.84-2.33-.27-2.07-.41-4.16-.6-6.24Z"/>
        <path class="cls-1" d="m252.02,360.81c-1.73-.18-3.47-.37-5.2-.54-2-.2-4-.37-6-.58-.6-.06-1.27-.01-1.7-.65.16-.63.7-.71,1.17-.77,1.28-.17,2.57-.36,3.87-.38,4.02-.05,8.04-.04,12.06,0,3.87.04,7.65.84,11.45,1.48,1.44.24,2.91.39,4.37.42,2.8.07,5.61.02,8.42.02,3.39,0,6.51-1.04,9.48-2.57,1.15-.59,1.81-2.45,1.42-3.85-.7-2.56-2.81-4.14-5.51-4.05-2.28.08-4.47.61-6.58,1.49-1.07.45-2.18.82-3.3,1.14-.29.08-.81-.04-.97-.26-.17-.22-.17-.76-.02-1.02.65-1.07,1.39-2.06,2.56-2.68,3.35-1.76,6.83-2.71,10.64-2.12,1.2.19,2.25.67,3.16,1.44,1.98,1.69,3.28,3.77,3.58,6.42.17,1.51-.29,2.79-1.31,3.91-.73.8-1.4,1.65-2.05,2.51-.66.86-1.5,1.45-2.49,1.84-2.92,1.15-5.94,1.71-9.08,1.72-4.66.01-9.28-.44-13.89-1.08-2.69-.37-5.39-.72-8.16-.95.5.28,1.01.57,1.51.85,1.77,1,2.97,2.43,3.26,4.5.06.41.05.83.04,1.25-.03.96-.12,1.91-.12,2.87-.01,1.01-.29,1.94-1.02,2.62-3.19,2.98-8.56,6.11-14.35,3.67-4.97-2.1-10.27-3.02-15.44-4.4-1.29-.34-2.6-.64-3.88-1.03-.62-.19-1.27-.44-1.54-1.17.34-.51.83-.34,1.26-.34,3.71-.03,7.33.64,10.94,1.38,3.12.64,6.2,1.38,9.17,2.59,2.59,1.05,5.16.81,7.65-.44,1.74-.87,3.29-1.97,4.48-3.55.53-.7.6-1.33.23-2.08-.44-.9-1.11-1.57-1.97-2.05-2.83-1.55-5.68-1.84-8.62-.23-.83.46-1.77.73-2.69,1-.81.24-1.4-.39-1.18-1.23.39-1.51,1.11-2.81,2.62-3.49.8-.36,1.62-.66,2.45-.96.42-.15.86-.25,1.3-.38,0-.1,0-.2,0-.3Z"/>
        <path class="cls-1" d="m116.19,325.25c.25.9-.17,1.32-.5,1.72-.67.8-1.35,1.61-2.1,2.33-3.21,3.06-6.48,6.07-9.67,9.15-5.36,5.18-10.68,10.39-16.02,15.6-2.85,2.78-5.64,5.62-8.53,8.34-2.74,2.58-5.9,4.48-9.46,5.8-4.17,1.54-8.39,2.87-12.75,3.76-2.83.58-5.66.54-8.44-.39-.63-.21-1.27-.45-1.86-.76-3.49-1.83-5.03-5-4.38-8.89.32-1.89,1.04-3.62,2.1-5.2,3.35-4.97,7.98-8.02,13.88-9.1,1.74-.32,3.5-.28,5.24.14,1.91.46,3.13,1.7,3.9,3.43.4.9-.18,1.77-1.15,1.7-1.12-.08-2.25-.17-3.35-.4-1.81-.38-3.58-.3-5.34.22-4.25,1.25-7.51,3.79-9.75,7.61-.65,1.1-.99,2.3-1.09,3.57-.13,1.67.5,2.93,1.96,3.77,3.07,1.76,6.31,2.38,9.79,1.57,8.24-1.91,15.34-5.7,21.2-11.95,7.13-7.6,14.52-14.97,22.48-21.73,3.13-2.66,6.31-5.25,9.49-7.84.87-.71,1.83-1.32,2.8-1.91.43-.26.97-.36,1.53-.55Z"/>
        <path class="cls-1" d="m318.6,49.32c-.03-3.28.61-6.42,2.05-9.37.5-1.04,1.18-2.04,1.99-2.86,2.06-2.11,4.83-2.36,7.34-.8,1.31.81,2.32,1.92,3.14,3.21,1.95,3.08,3.12,6.48,3.01,10.09-.1,3.2-.46,6.43-1.55,9.5-.03.08-.06.16-.09.23-1.96,5.33-7.19,5.89-10.91,3.06-1.15-.88-2.02-2-2.7-3.27-1.65-3.06-2.29-6.36-2.27-9.81Z"/>
        <path class="cls-1" d="m31.85,354.38c-1.12-.15-2.26-.2-3.35-.46-5.33-1.26-7.85-5.89-6.06-11.06.7-2.01,1.8-3.78,3.24-5.33,3.18-3.43,6.95-6.02,11.29-7.76,3.8-1.52,7.45-1.07,10.99.9,1.43.8,2.24,2.1,3.04,3.42.13.21.04.7-.13.89-.18.2-.64.35-.87.26-1.08-.42-2.21-.82-3.18-1.44-3.19-2.04-6.43-2.13-9.78-.49-3.11,1.52-5.93,3.46-8.31,5.99-1.36,1.45-2.48,3.06-3,5.01-.66,2.48.08,4.03,2.44,5.03,2,.85,4.09.82,6.18.52,3.08-.43,6.05-1.32,8.92-2.52,1.08-.45,2.17-.89,3.28-1.26.58-.19,1.3-.42,1.7.28.35.61-.13,1.13-.5,1.56-.41.47-.86.93-1.37,1.28-4,2.75-8.39,4.51-13.24,5.01-.41.04-.84,0-1.26,0,0,.05,0,.1-.01.15Z"/>
        <path class="cls-1" d="m145.11,92.56c.08-2.37.85-4.68,2.53-6.62,2.56-2.96,6.65-3.34,9.66-.82,4.41,3.69,4.15,10.03-.25,13.08-.34.24-.65.52-.97.79-2.56,2.18-5.95,2.12-8.43-.18-1.76-1.63-2.53-3.69-2.53-6.25Z"/>
        <path class="cls-1" d="m79.75,333.08c-2.4.55-4.8,1.09-7.2,1.64-3.26.75-6.52,1.53-9.78,2.25-.67.15-1.37.13-2.06.18-.04-.09-.07-.17-.11-.26.16-.2.28-.47.49-.6.56-.36,1.14-.71,1.74-1,5.93-2.88,12.12-5.04,18.55-6.49.99-.22,2.11-.23,3.1-.02,2.19.46,2.81,2.43,1.28,4.06-.88.94-1.9,1.78-2.99,2.46-3.47,2.17-6.86,4.5-10.6,6.21-.38.17-.72.43-1.08.63-.35.2-.73.29-1.01-.09-.27-.37-.13-.72.19-.99,1.98-1.67,3.94-3.37,5.95-5,1.16-.95,2.4-1.8,3.61-2.7-.02-.1-.05-.2-.07-.29Z"/>
        <path class="cls-1" d="m136.65,324.12c.85-.09,1.6.3,2.37.59,3.37,1.25,6.71,2.61,10.11,3.77,6.54,2.22,13.05,4.53,19.8,6.04.86.19,1.71.41,2.58.52,2.01.25,3.91.87,5.79,1.57.48.18.89.37.79.94-.1.58-.59.59-1.08.62-2.83.18-5.58-.31-8.33-.92-5.78-1.28-11.33-3.29-16.9-5.25-3.83-1.35-7.63-2.78-11.22-4.7-1.14-.61-2.22-1.33-3.31-2.04-.32-.21-.55-.55-.82-.83.07-.1.14-.2.2-.31Z"/>
        <path class="cls-1" d="m272,333.98c2.03.1,4,.44,5.85,1.3,2.32,1.07,3.89,2.84,4.81,5.2.46,1.19.31,2.3-.39,3.34-.45.67-1.04.79-1.55.19-.56-.66-1.14-1.37-1.44-2.17-.89-2.29-2.53-3.6-4.9-3.99-1.19-.2-2.41-.31-3.61-.28-1.75.04-3.23.79-4.43,2.07-.09.09-.16.19-.25.28-.37.38-.67.92-1.34.7-.45-.15-.81-.87-.64-1.63.16-.71.44-1.45.86-2.04,1.17-1.61,2.88-2.38,4.78-2.74.74-.14,1.49-.16,2.24-.24Z"/>
        <path class="cls-1" d="m20.43,325.4c-.66-1.22-.62-2.53-.28-3.8,1.17-4.42,4.18-7.05,8.45-8.29,3.29-.96,6.48-.56,9.42,1.28,1.31.82,2.54,1.76,3.84,2.66,1.01-.54,2.09-1.17,3.21-1.71,1.05-.51,2.12-1.03,3.27-1.31-.19,1.03-1.13,1.03-1.71,1.49-.62.49-1.31.9-1.97,1.34-.66.44-1.32.87-2.07,1.36.18.48.41.93.5,1.4.06.28,0,.74-.19.87-.18.13-.66.06-.88-.1-.75-.53-1.43-1.15-2.16-1.71-1.13-.86-2.19-1.84-3.42-2.53-6.01-3.38-14.17.86-14.95,7.72-.05.46-.1.92-.23,1.36-.16.51-.48.31-.77.1,0,0-.05-.11-.05-.11Z"/>
        <path class="cls-1" d="m248.34,342.7c-1.71,0-3.43.09-5.13-.03-1.07-.07-2.12-.44-3.16-.72-.49-.13-.78-.51-.77-1.02.02-.51.36-.77.81-1,2.39-1.23,4.92-1.49,7.56-1.22,3.16.33,6.32.62,9.48.97.57.06,1.16.21,1.69.44.71.31.73.93.04,1.3-.43.24-.93.42-1.41.48-2.28.28-4.56.53-6.85.75-.75.07-1.5.01-2.26.01,0,.02,0,.04,0,.06Z"/>
        <path class="cls-1" d="m260.57,351.3c-2.64.4-5.24.06-7.85-.32-.51-.07-.87-.3-.95-.84-.08-.53.21-.88.67-1.08,2.55-1.15,5.21-1.79,8.02-1.5,2.78.29,5.56.61,8.34.95.53.06,1.07.23,1.55.46.26.12.52.44.57.71.03.16-.31.48-.55.58-.54.21-1.11.41-1.68.46-2.45.21-4.91.37-7.37.55-.25.02-.5.03-.75.04Z"/>
        <path class="cls-1" d="m59.65,324.81c-1.83-.39-3.59.29-5.42-.43.28-.18.55-.41.86-.53,2.16-.81,4.41-1.27,6.71-1.52.25-.03.51-.02.75.01,1.03.16,1.5,1.04.98,1.94-.25.42-.59.83-.98,1.13-2.75,2.14-5.68,3.97-9.07,4.95-.39.11-.77.18-.98-.25-.2-.42.08-.68.38-.95,1.33-1.16,2.81-2.09,4.37-2.9.83-.43,1.61-.96,2.41-1.44Z"/>
        <path class="cls-1" d="m220.09,322.95c.37.37.7.58.86.87.26.47.41,1,.6,1.52.74,2.06,1.75,3.98,2.96,5.8.97,1.46,1.91,2.95,2.86,4.42.23.35.32.7,0,1.03-.37.38-.74.24-1.12-.03-3.82-2.77-6.1-6.49-6.82-11.15-.08-.49-.12-1.01-.03-1.5.06-.3.39-.56.7-.96Z"/>
        <path class="cls-1" d="m20.43,325.4s.05.11.05.11c.48,1.01.91,2.06,1.45,3.03.43.77.66,1.56.83,2.53-.87-.12-1.47-.45-1.87-.95-.96-1.19-1.29-2.6-1.22-4.11.02-.49.34-.62.76-.61Z"/>
        <path class="cls-1" d="m342.47,317.55c-.03.76-.63,1.42-1.29,1.43-.69,0-1.27-.67-1.24-1.43.03-.8.72-1.48,1.43-1.42.65.05,1.12.66,1.09,1.43Z"/>
        <path class="cls-1" d="m52.66,336.66c.65,0,1.2.53,1.2,1.17,0,.63-.55,1.2-1.19,1.2-.62,0-1.2-.56-1.2-1.19,0-.64.54-1.18,1.19-1.19Z"/>
        <path class="cls-1" d="m244.74,369.36c-.03.58-.51,1-1.09.96-.57-.04-.99-.52-.96-1.1.03-.58.51-1.01,1.09-.96.57.04.99.53.96,1.11Z"/>
        <path class="cls-1" d="m44.48,323.56c-.47-.03-.83-.43-.82-.91.01-.52.46-.94.96-.91.46.03.82.43.81.92,0,.53-.44.94-.96.9Z"/>
        <path class="cls-1" d="m264.75,341.05c.27.48.51.72.53.98.04.42-.46.88-.81.74-.25-.1-.61-.5-.56-.66.09-.33.43-.58.83-1.06Z"/>
        <path class="cls-1" d="m70.62,354.15c-.41.35-.6.65-.86.71-.41.1-.77-.16-.72-.59.03-.25.33-.65.53-.66.27-.01.56.27,1.04.54Z"/>
        <path class="cls-1" d="m272.96,354.5c-.27-.45-.53-.69-.54-.95-.02-.43.3-.66.73-.61.39.05.6.34.49.69-.08.26-.34.46-.67.86Z"/>
      </g>
    </g>
  </g>
</svg>