<?xml version="1.0" encoding="UTF-8"?>
<svg id="Layer_2" data-name="Layer 2" xmlns="http://www.w3.org/2000/svg" viewBox="0 0 527.44 474.34">
  <defs>
    <style>
      .cls-1 {
        fill: #fbbd43;
      }

      .cls-1, .cls-2 {
        stroke-width: 0px;
      }

      .cls-2 {
        fill: #4d4b4b;
      }
    </style>
  </defs>
  <g id="Layer_1-2" data-name="Layer 1">
    <g>
      <path class="cls-2" d="m214.65,328.73c-24.75,9.38-65.25,22.5-76.5,75.75s-8.62,82.12-24.38,64.88-14.62-84.75,11.62-118.88,21.75-37.5,23.25-59.25-1.5-43.5-1.5-43.5c0,0-1.88-11.62-21-12.75s-34.88-7.5-50.62,2.25-27.38-7.12-38.62,28.88-13.88,84.38-19.12,91.5-23.25-.5-16.12-53.12,5.25-64.63,42.75-84.5,48.38-28.12,81-16.88,40.88-3.47,45.19-8.86,3.56-18.51-.94-31.64,2.06-35.62,7.03-33.38,24.09,28.88,28.97-16.12-1.5-47.62,25.12-57.38,34.12-12.38,40.5-28.5S290.77,2.85,335.02.98s96.38-2.25,87.38,10.12-37.12,12.75-71.25,19.5-44.25-1.5-51.38,13.5-24.38,71.25-24.38,81,24.75,25.88,30.38,41.25,14.25,18.38,49.12-10.88,21.75-25.5,55.5-14.62,51.75,1.5,72.75,31.5,35.62,49.57,35.62,49.57c0,0,21.38,40.8-3,29.18s-47.62-46.52-75.38-66.2-45.8-17.93-71.84-1.74-44.79,35.46-44.79,38.76,19.5,4.8,47.62,22.43,63.75,39.75,79.12,55.12,33.38,43.5,34.12,47.62,8.25,34.5-6.38,29.62-23.25-23.25-43.12-48.75-47.62-42.38-68.25-51.38-27-11.25-35.25-11.25-30.75-6.75-33-7.5-15,6.75-13.12,18.38-8.62,24,13.5,50.25,18.75,28.5,34.12,38.25,8.25,9,28.5,22.5,37.5,46.12,9.38,35.62-79.12-50.25-84.38-58.12-15.75-12-19.88-23.62-19.88-18.75-24.75-18-27.38,5.62-27.38,5.62Z"/>
      <g>
        <path class="cls-1" d="m116.36,452.51c-.18-.09-.35-.21-.54-.28-1.02-.4-1.29-.87-1.09-1.9.25-1.23.61-2.45.7-3.68.25-3.36.43-6.73.54-10.11.09-2.64.1-5.28.01-7.92-.24-7.03.83-13.87,2.79-20.6,1.24-4.25,2.28-8.57,4.27-12.56,1.06-2.12,2.21-4.2,3.29-6.31,3.64-7.1,6.58-14.5,9.4-21.95,2.17-5.74,4.77-11.26,7.9-16.54,1.82-3.06,4.16-5.5,7.29-7.29,4.36-2.49,8.47-5.35,12.25-8.68,1.22-1.07,2.42-2.11,3.42-3.45,1.22-1.63,2.84-2.95,4.29-4.41,1.56-1.57,3.12-3.13,4.67-4.7,1.74-1.76,3.45-3.56,5.23-5.28.44-.42,1.04-.72,1.62-.95,3.13-1.25,6.29-2.43,9.41-3.69,6.01-2.43,12.03-4.86,18.01-7.38,4.1-1.73,7.98-3.85,11.28-6.91.39-.36.74-.76,1.13-1.11.49-.43.62-.95.52-1.57-.56-3.27-.82-6.61-2.08-9.71-2.93-7.18-5.72-14.42-9.29-21.31-3.1-6-6.3-11.94-9.54-17.87-1.03-1.89-2.31-3.63-3.46-5.41-1.87,1.81-3.64,3.52-5.47,5.29.93,1.4,1.8,2.71,2.68,4.01,5.49,8.14,9.69,16.93,13.07,26.12,2.34,6.36,3.33,12.94,3.02,19.73-.07,1.58-.89,2.81-1.67,4.02-.29.44-1.2.63-1.84.66-1.79.09-3.59.05-5.38.05-5.49,0-10.98-.04-16.47.03-4.93.07-9.79-.45-14.57-1.63-1.07-.27-2.12-.63-3.16-1-3.71-1.31-5.23-4.46-5.16-8.04,0-.42.12-.85.09-1.26-.34-4.63.9-8.99,2.3-13.32,1.33-4.11,2.65-8.22,4.5-12.15,2.96-6.28,6.64-12.11,10.67-17.74.3-.42.6-.85.97-1.38-4.21-5.1-8.24-10.32-14-13.78-.14.06-.27.08-.31.15-2.08,4.5-4.15,9.02-4.89,13.98-.4,2.71-.57,5.45-.81,8.18-.59,6.54.37,13.07.09,19.61-.04.94-.25,1.87-.43,2.79-.13.65-.64.93-1.26,1.02-.71.1-1.14-.31-1.32-.89-.49-1.61-1.03-3.22-1.34-4.86-1.23-6.55-1.73-13.16-1.36-19.83.41-7.37,1.77-14.53,4.8-21.31.08-.19.12-.39.17-.59.01-.04-.03-.1-.08-.29-.58,0-1.2-.02-1.82,0-6.33.25-12.65-.03-18.97-.5-7.95-.59-15.77-1.96-23.6-3.4-4.08-.75-8.25-1.05-12.39-1.48-2.51-.26-5.05-.3-7.56-.62-1.39-.18-2.77-.65-4.09-1.15-1.04-.39-1.98-.46-3.07-.23-2.66.58-5.18,1.48-7.52,2.84-6.17,3.58-12.6,6.63-19.14,9.46-1.98.86-4.02,1.59-6.03,2.38-2.69,1.06-5.56,1.13-8.36,1.6-2.49.41-5.01.69-7.51,1.04-4.84.68-8.83,3.02-12.34,6.31-1.5,1.41-2.96,2.86-4.47,4.26-1.16,1.08-1.83,2.44-2.37,3.88-1.22,3.23-1.84,6.6-2.14,10.02-.32,3.68-.4,7.37-.67,11.05-.25,3.36-.62,6.71-.94,10.07-.54,5.66-.96,11.34-1.64,16.98-.66,5.49-1.6,10.94-2.37,16.42-.24,1.71-.56,3.44.33,5.11.34.64-.18,2.15-.74,2.61-.57.47-1.63.44-2.49-.08-.13-.08-.28-.15-.41-.22,0-.84,0-1.69,0-2.53,1.45-1.34,2.04-3.05,2.23-4.96.28-2.78.59-5.55.88-8.32.42-4.03.85-8.06,1.24-12.1.35-3.72.64-7.46.97-11.18.34-3.94.75-7.87,1.03-11.81.26-3.58.35-7.17.58-10.75.23-3.59.84-7.12,1.85-10.57.82-2.78,2.22-5.22,4.56-7.06,1.12-.88,2.08-1.95,3.14-2.9,3.47-3.11,7.58-5.11,11.86-6.84,1.85-.75,3.66-1.6,5.46-2.48,2.41-1.18,4.81-2.39,7.19-3.65,5.87-3.12,11.81-6.11,17.54-9.46,3.44-2.02,6.52-4.66,9.8-6.96,1.68-1.18,3.37-2.38,5.18-3.34,2.33-1.24,4.78-1.43,7.32-.36,3.67,1.54,7.54,2.33,11.48,2.82,6.02.75,11.97,1.85,17.85,3.39,5.81,1.52,11.75,2.5,17.71,3.27,7.58.98,15.16,1.96,22.74,2.95.57.07,1.07.3,1.62-.2.22-.2.78-.03,1.2-.03,1.43-2.7,2.76-5.46,4.32-8.08,3.65-6.16,8.4-11.33,14.29-15.44,1.72-1.2,3.41-.8,5.08-.08,1.09.47,1.41,2,.89,3.35-.65,1.67-1.69,3.01-3.22,3.99-1.01.65-1.93,1.44-3.05,2.28,8.63,10,15.67,20.97,23.64,31.55.07-.5.12-.81.16-1.14.33-3.03.5-6.1,1.04-9.1.68-3.79,2.92-6.86,5.33-9.75,2.1-2.52,4.67-4.41,7.87-5.36.08-.02.14-.12.29-.25-2.4-2.5-5.03-4.66-8.06-6.3-2.6-1.4-5.24-2.72-7.81-4.18-1.69-.97-3.48-1.24-5.34-1-1.45.19-2.71-.34-3.99-.77-1.05-.35-1.42-1.63-1.01-2.73.16-.42.32-.92.24-1.33-.34-1.72.65-2.93,1.51-4.17.19-.28.72-.43,1.1-.45,2.65-.19,5.24-.06,7.71,1.17,4.34,2.17,8.78,4.12,12.95,6.61,3.71,2.22,6.92,5.01,9.82,8.18.21.23.44.45.67.66.03.03.1.01.29.03.12-.56.29-1.14.35-1.74.35-3.46,2.01-6.31,4.22-8.85,1.59-1.84,3.63-2.83,6.15-2.69,1.24.07,2.49.01,3.95.01-.58-.94-1.09-1.71-1.55-2.52-3.72-6.64-8.05-12.89-12.51-19.04-2.31-3.19-5.09-6.05-7.56-9.13-2.57-3.21-5.12-6.44-7.53-9.77-2.29-3.16-4.4-6.45-6.57-9.69-.67-1-1.1-1.96-.76-3.35.44-1.76.26-3.67.58-5.48.6-3.48,1.44-6.91,2.04-10.39.5-2.9.88-5.83,1.19-8.76.6-5.73,1.71-11.35,3.45-16.85,1.78-5.63,3.51-11.27,5.2-16.93.42-1.4.58-2.88.87-4.33.09-.46.21-.92.32-1.38.43-1.84,1.46-3.18,3.09-4.2,3.11-1.95,6.52-3.23,9.89-4.59,4.7-1.9,9.59-3.23,14.46-4.62,2.55-.73,4.93-1.81,7.24-3.13,1.95-1.11,4.05-1.97,6.08-2.94.08.08.15.16.23.24-.18.24-.31.54-.54.72-4.72,3.7-9.99,6.44-15.39,9.01-4.22,2.01-8.23,4.51-12.28,6.87-1.95,1.14-3.86,2.35-5.43,4.06-1.12,1.22-1.71,2.5-1.96,4.16-.39,2.65-1.16,5.24-1.76,7.85-1.74,7.65-3.69,15.27-4.76,23.05-.45,3.28-.56,6.61-1.02,9.9-.47,3.39-1.16,6.74-1.79,10.11-.41,2.17-.85,4.34-1.32,6.5-.19.85.1,1.55.5,2.24,4.05,6.92,7.97,13.91,13.1,20.15,2.44,2.97,4.68,6.12,6.76,9.36,3.88,6.03,7.94,11.96,11.08,18.44.92,1.9,1.79,3.82,2.6,5.77.28.67.61,1.15,1.26,1.52,2.16,1.21,3.88,2.93,5.15,5.04,2.86,4.74,5.68,9.51,8.5,14.28,2.82,4.76,4.64,9.92,6.04,15.25,1.97,7.5,3.74,15.04,4.85,22.72.57,3.96.82,7.96,1.25,11.94.54,5.03,1.11,10.05,1.66,15.07.35,3.14.63,6.29,1.04,9.42.63,4.85,1.25,9.72,2.06,14.54,1.03,6.13,2.22,12.23,3.41,18.33.38,1.96.91,3.89,1.99,5.64.65,1.06.39,2.24.08,3.37-.08.29-.27.56-.43.89.36.3.68.57.99.84,1.61,1.36,3.29,2.65,4.83,4.09,3.8,3.54,8.06,6.47,12.16,9.62,4.81,3.69,8.95,8.02,12.36,13.05,2.79,4.1,5.62,8.18,8.49,12.22,3.36,4.73,7.53,8.68,12.08,12.25,3.78,2.97,7.55,5.93,11.35,8.87,1.71,1.32,3.51,2.53,5.23,3.84,1.34,1.02,2.67,2.06,3.94,3.17,1.94,1.69,4.07,2.97,6.55,3.73,1.05.32,2.04.84,3.02,1.36.87.46,1.23,1.51.95,2.44-.25.83-1.29,1.78-2.06,1.65-.91-.15-1.87-.4-2.66-.86-1.23-.71-2.41-1.54-3.47-2.48-2.72-2.38-5.76-4.26-8.83-6.13-7.62-4.66-14.93-9.77-21.36-16.01-2.54-2.46-4.89-5.11-7.45-7.55-2.94-2.8-6.05-5.42-9.01-8.2-1.73-1.62-3.38-3.34-4.92-5.15-3.61-4.22-7.37-8.26-11.41-12.08-2.83-2.68-5.35-5.69-7.96-8.58-2.23-2.47-4.41-4.98-6.57-7.5-.47-.55-1.04-.66-1.66-.77-2.32-.41-2.98-1.25-3.15-3.56-.16-2.1-.51-4.18-.77-6.28-.58-4.6-1.18-9.2-1.75-13.8-.61-4.87-1.21-9.73-1.78-14.6-.3-2.56-.42-5.15-.75-7.71-.62-4.81-1.26-9.62-2.04-14.4-1.5-9.21-2.98-18.42-4.7-27.59-1.01-5.38-2.4-10.69-3.71-16.02-1.03-4.18-2.83-8.05-5.02-11.74-2.34-3.95-4.68-7.9-6.99-11.86-1-1.72-2.22-3.26-4.02-4.14-3.47-1.71-8.06-1.4-10.55,2.36-.99,1.5-1.1,3.28-1.3,5-.19,1.62.33,2.94,1.33,4.35,2.26,3.17,4.36,6.49,6.18,9.93,3.07,5.83,6.02,11.73,8.44,17.88,3.03,7.73,5.25,15.69,6.41,23.92.85,5.98.24,11.89-1.01,17.74-.72,3.35-1.56,6.68-3.33,9.68-.64,1.09-1.42,2.1-2,3.22-.76,1.47-1.98,1.58-3.36,1.4-.47-.06-.92-.23-1.38-.35-1.25-.35-1.78-1.27-1.52-2.51.14-.65.1-1.35.28-1.99.31-1.1.54-2.3,1.15-3.23,2.07-3.18,2.99-6.72,3.69-10.36.76-3.92.76-7.87.21-11.81-1.02-7.28-2.73-14.39-5.33-21.28-.13-.34-.27-.67-.66-1.03-.1.42-.21.83-.28,1.25-.74,4.22-2.68,7.76-6.09,10.39-2.31,1.78-5.01,2.6-7.9,2.97-3.21.41-6.3-.05-9.33-1.05-.43-.14-.87-.23-1.61-.42.36.82.6,1.38.84,1.94,2.55,5.91,5.09,11.82,7.64,17.72,1.32,3.08,2.03,6.31,2.46,9.62.24,1.83.58,3.65.62,5.49.07,3.65-1.49,6.6-4.63,8.43-2.72,1.59-5.57,3.02-8.5,4.18-7.69,3.07-15.48,5.88-23.16,8.96-2.53,1.01-4.86,2.52-7.24,3.87-.68.38-1.27.95-1.81,1.52-2.42,2.51-4.87,4.99-7.18,7.59-2.5,2.81-5.58,4.62-9.08,5.82-.34.12-.73.17-1.09.13-.96-.13-1.59.33-2.18,1-5.37,6.03-10.79,12.01-16.11,18.08-3.65,4.16-6.25,8.99-8.66,13.94-3.76,7.73-7.25,15.61-11.45,23.1-4.18,7.46-6.44,15.43-8,23.69-.45,2.37-.43,4.82-.71,7.23-.34,2.93-.8,5.84-1.14,8.77-.45,3.97-1.06,7.95-.52,11.96.17,1.24.48,2.49.91,3.66.41,1.13.24,2.04-.46,2.95-.28.37-.5.79-.75,1.19h-1.9Zm71.49-199.87c-.28.18-.4.21-.45.29-3.87,5.21-7.52,10.57-10.31,16.45-2.33,4.92-3.85,10.13-5.24,15.38-.28,1.06-.37,2.18-.44,3.28-.12,1.85.03,1.99,1.89,2.41.31.07.62.13.93.18,3.65.62,7.33.79,11.02.66,2.48-.09,4.95-.22,7.43-.21,2.84,0,5.69.15,8.53.22.82.02,1.63,0,2.67,0-2.17-14.39-8.21-26.84-16.04-38.65Zm25.62-17.49c-.05,0-.11,0-.16.01.19,2.36.4,4.72.56,7.08.26,3.82,2.04,6.93,4.5,9.71.88.99,1.91,1.87,3.24,2.17,5.01,1.11,9.51.08,13.43-3.29.9-.77,1.42-1.75,1.3-2.92-.19-1.83-.34-3.68-.8-5.45-.64-2.44-1.52-4.82-2.36-7.2-1.37-3.88-2.86-7.71-4.9-11.3-1.01-1.78-2-2.29-3.99-1.91-3.55.66-6.26,2.65-8.45,5.43-1.48,1.88-2.33,3.99-2.3,6.42,0,.42-.05.84-.08,1.26Zm-42.88-10.78c1.63.98,3.15,1.82,4.6,2.79,3.9,2.6,7.03,6.04,10.12,9.52.48.54.98,1.06,1.24,1.34,2.02-1.91,3.94-3.71,5.95-5.61-4.52-6.8-9.06-13.62-13.67-20.56-3.57,3.8-6.25,7.9-8.23,12.53Z"/>
        <path class="cls-1" d="m512.02,236.47c-1.41.12-2.46-.57-3.14-1.69-1.13-1.84-2.16-3.74-3.15-5.66-1.08-2.11-2.07-4.27-3.07-6.42-.55-1.17-1.34-2.12-2.3-2.98-3.96-3.57-7.85-7.21-11.83-10.76-4.04-3.61-7.46-7.75-10.68-12.07-3.15-4.23-6.31-8.46-9.5-12.66-2.84-3.73-6.31-6.8-10.09-9.54-.46-.33-1.01-.59-1.55-.78-4.62-1.64-9.34-2.96-14.13-4.01-3.81-.84-7.56-1.91-11.36-2.79-7.14-1.65-14.32-3.07-21.57-4.1-4.38-.62-8.72-1.48-13-2.62-1.47-.39-2.99-.63-4.51-.79-1.51-.16-2.93.29-4.22,1.07-2.26,1.36-4.55,2.67-6.74,4.14-3.59,2.41-7.11,4.94-10.67,7.39-1.74,1.2-3.5,2.36-5.25,3.54-1.35.92-2.73,1.8-4.05,2.77-7.11,5.2-14.27,10.34-21.61,15.22-4.96,3.29-9.77,6.82-14.16,10.9-3.24,3.02-6.74,5.76-10.12,8.63-.52.44-1.03.89-1.53,1.31.9,5.35,1.23,10.66,1.57,15.97.08,1.26.09,2.54.34,3.77.31,1.54.83,3.03,1.26,4.55.18.66.39,1.31.51,1.99.27,1.58.05,3.05-1.16,4.24-.22.21-.36.5-.58.8,1.22.96,2.65,1.11,4.04,1.27,2.88.33,5.76.6,8.65.82,1.1.09,2.21-.03,3.32-.02,2.9.04,5.8.13,8.7.16,3.97.04,7.87-.56,11.79-1.11,2.01-.28,4.2-.39,5.97,1.15,1.58,1.39,3.24,2.7,4.75,4.17,3.86,3.75,8.46,6.28,13.4,8.22,4.27,1.68,8.67,3.02,12.9,4.78,9.52,3.97,18.57,8.84,27.01,14.79,2.16,1.52,4.31,3.04,6.38,4.68,1.14.91,2.21,1.97,3.09,3.13,3.41,4.49,6.72,9.07,10.1,13.58.95,1.26,1.94,2.52,3.07,3.61,5.52,5.33,10.28,11.32,15.07,17.29,1.81,2.26,3.68,4.48,5.57,6.68,4.01,4.68,7.2,9.88,9.84,15.44,1.56,3.28,3.23,6.52,4.8,9.8.63,1.32,1.14,2.7,1.66,4.07.09.23-.11.57-.22,1.08-.72-.35-1.37-.56-1.89-.94-.89-.65-1.74-1.37-2.53-2.14-.79-.77-1.61-1.55-2.2-2.47-1.77-2.75-3.6-5.48-5.09-8.38-3.66-7.15-8.36-13.53-13.62-19.55-2.5-2.86-4.82-5.87-7.21-8.82-2.32-2.88-4.86-5.55-7.59-8.05-1.51-1.39-2.85-2.97-4.3-4.42-2.43-2.42-4.78-4.93-7.36-7.18-2.85-2.5-5.83-4.89-8.92-7.08-4.25-3.02-8.52-6.03-13.12-8.55-6.67-3.66-13.48-7-20.73-9.37-6.5-2.12-12.69-4.86-18.51-8.48-3.11-1.94-5.97-4.17-8.52-6.78-.65-.66-1.26-.94-2.2-.88-3.16.18-6.32.42-9.48.32-5.01-.16-10.02-.45-15-.95-2.87-.29-5.72-.95-8.52-1.69-2.96-.78-5.34-2.64-6.99-5.14-1.15-1.75-1.83-3.82-2.63-5.78-.53-1.3-.27-2.68-.26-4.05.02-2.42-.1-4.85-.26-7.27-.27-3.84-.62-7.67-.94-11.51-.01-.15-.08-.29-.19-.67-1.61,1.35-3.16,2.59-4.61,3.93-.26.25-.22.98-.12,1.44.63,2.87.8,5.77.11,8.63-1.39,5.8-4.36,10.49-9.91,13.18-3,1.45-6.12,1.43-9.26.53-6.37-1.81-9.63-6.45-11.25-12.53-.19-.71-.31-1.44-.47-2.16-.16-.73-.3-1.44.22-2.12.15-.19.24-.5.22-.74-.14-1.7.83-2.87,1.91-4.14,1.1.61,2.25,1.11,3.23,1.85.48.36.77,1.13.9,1.77.55,2.65,1.44,5.12,2.91,7.45,1.6,2.54,3.8,3.2,6.5,2.78,2.57-.4,4.79-1.64,6.67-3.41,1.27-1.2,1.89-2.75,1.98-4.53.1-2.08-.14-4.09-.74-6.09-.9-3-2.13-5.87-3.85-8.47-2.72-4.13-6.52-6.6-11.52-7.25-3.68-.47-7.36-.43-11.04-.61-2.47-.12-4.76-.92-6.91-2.08-2.76-1.49-4.3-3.9-4.51-7.01-.14-2.03.52-3.98,1.51-5.73,2.42-4.29,5.36-6.08,11.61-5.25.56.07,1.1.21,1.75.33-.89-1.47-1.7-2.81-2.55-4.22-1.72-.11-3.51-.24-5.29-.33-1.76-.1-3.55.07-5.27-.39,0-1,.63-1.36,1.25-1.61,2.15-.87,4.32-1.67,6.48-2.49.33-.13.68-.22,1.12-.36-.53-1.78-1.03-3.49-1.55-5.19-1.04-3.39-1.84-6.82-1.93-10.38-.12-4.46.91-8.68,2.65-12.74.23-.53.57-1.01.91-1.48,1.06-1.45,1.9-1.67,3.53-.92,2.42,1.11,4.58,2.57,6.42,4.52,1.88,1.99,3.93,3.83,5.87,5.76,1.53,1.53,3.07,3.05,4.51,4.66,2.04,2.28,4.01,4.62,5.97,6.98,3.52,4.24,6.41,8.9,9,13.75.52.98,1.16,1.65,2.21,2.09,1.16.49,2.27,1.14,3.3,1.86.57.4,1.09,1.01,1.38,1.65.63,1.37.26,1.93-1.25,2.05-.56.04-1.13-.08-1.61-.12,1.47,4.72,2.94,9.42,4.43,14.21.16-.1.47-.26.71-.48,3.79-3.6,7.58-7.19,11.35-10.81,4.15-4,8.73-7.49,13.33-10.94,6.41-4.82,12.83-9.63,19.26-14.43,1.9-1.42,3.88-2.73,5.81-4.12,3.64-2.62,7.23-5.31,10.9-7.88,3.15-2.21,6.39-4.3,9.58-6.46.91-.62,1.81-1.27,2.64-2,.56-.5,1.14-.75,1.86-.64.62.1,1.27.17,1.85.38,3.31,1.21,6.68,2.31,9.9,3.74,4.32,1.92,8.8,3.23,13.41,4.15,6.15,1.24,12.31,2.42,18.42,3.81,6.94,1.58,13.85,3.24,20.72,5.09,3.03.81,6.08,1.7,8.87,3.29,1.26.72,2.25,1.6,2.81,2.88,1.29,2.95,3.3,5.35,5.36,7.77,3.55,4.18,6.94,8.5,10.33,12.82,3.19,4.08,6.57,7.98,10.25,11.64,2.43,2.42,4.74,4.96,7.1,7.45,2.44,2.59,4.54,5.49,6.14,8.61,1.15,2.26,2.69,4.23,3.89,6.43,1.21,2.22,2.63,4.33,3.95,6.49.4.65.77,1.31,1.16,1.97v.95Zm-211.2-17.67c1.84-1.97,3.58-3.8,5.26-5.69.25-.28.29-.88.22-1.29-1.17-7.13-3.59-13.85-6.64-20.38-1.02-2.18-2.29-3.54-4.74-3.97-3.26-.57-6.45-1.6-9.72-2.09-2.75-.41-5.57-.35-8.36-.47-.28-.01-.57.13-1.04.24.28.42.45.73.67.98.48.55,1.04,1.04,1.48,1.61,1.83,2.39,2.52,5.32,3.65,8.04.2.47.24,1.03.25,1.55.01,1.31-.9,2.12-1.77,2.86-.65.55-1.54.37-2.24,0-1.01-.54-2.02-1.12-2.91-1.85-1.26-1.03-2.58-1.81-4.22-1.98-2.1-.22-4.11,0-5.94,1.14-.91.56-.92.83-.52,1.84.58,1.43,1.7,2.16,3.16,2.26,2.26.16,4.52.25,6.79.3,3.49.07,6.95.38,10.32,1.35.34.1.68.17.98.25.6-.86,1.1-1.68,1.69-2.41,1-1.23,1.6-1.28,3.14-.37-1.08,1.23-2.91,1.66-3.62,3.32,1.6.91,3.13,1.78,4.57,2.59.95-1.59,1.71-3.1,2.69-4.45,1.15-1.59,2.47-1.57,3.81-.11.66.72.64,1.28-.12,1.84-.55.4-1.13.77-1.73,1.1-1.27.69-2,1.79-2.53,3.17,3.54,2.74,5.39,6.62,7.41,10.62Zm-26.6-39.71c1.77,0,3.24-.08,4.7.02,1.46.1,2.95.26,4.37.61,2.4.6,4.75,1.39,7.12,2.09,1.45.43,2.91.84,4.68,1.35-.42-.75-.67-1.2-.92-1.63-2.72-4.69-6.47-8.58-9.89-12.72-1.27-1.54-2.73-2.93-4.16-4.34-2.06-2.04-4.15-4.05-6.24-6.05-.62-.59-1.29-1.14-2.03-1.8-.9,2.51-1.01,4.86-.93,7.23.18,5.33,2.24,10.24,3.29,15.23Z"/>
        <path class="cls-1" d="m364.08,9.35c1.29.21,2.57.45,3.87.61,3.84.46,7.61,1.15,11.07,3.01.31.17.7.2,1.05.31.54.17,1,.43.91,1.09-.07.56-.38.95-.98,1.09-2.17.5-4.33.75-6.57.37-2.59-.44-5.21-.77-7.83-1.03-4.61-.47-9.15.18-13.66,1.06-4.55.89-9.06,1.95-13.62,2.77-2.84.52-5.73.8-8.61,1.08-4.48.44-8.83,1.42-13.15,2.63-3.1.86-6.21,1.66-9.31,2.53-5.6,1.58-10.99,3.69-16.01,6.68-1.04.62-1.64,1.45-2.13,2.59-5.56,13.06-9.65,26.67-14.94,39.83-2.63,6.55-5.39,13.06-8.08,19.59-.94,2.29-1.81,4.61-2.82,6.88-.59,1.32-.62,2.61-.44,4.01.64,5.01,1.33,10.02,1.77,15.05.39,4.51.44,9.05.72,13.57.22,3.52.58,7.03.87,10.55.09,1.05.19,2.1.19,3.15,0,.62-.09,1.29-.34,1.85-.15.35-.66.72-1.03.75-.38.03-.97-.23-1.15-.55-.39-.67-.63-1.45-.83-2.21-1.33-5.11-2.15-10.32-2.76-15.55-.84-7.12-2.12-14.17-3.68-21.16-.42-1.9-1.1-3.76-1.32-5.69-.32-2.78-.67-5.55.53-8.34,3.22-7.51,6.22-15.11,9.38-22.64,4.1-9.78,7.71-19.74,11.14-29.77,1.04-3.04,2.31-6,3.41-9.02.77-2.12,1.44-4.29,2.16-6.43.22-.65.4-1.31.64-1.95.86-2.29,2.4-3.84,4.71-4.8,5.24-2.19,10.64-3.72,16.24-4.61,5.73-.91,11.45-1.85,17.19-2.66,2.76-.39,5.56-.77,8.34-.74,5.57.05,11.03-.64,16.49-1.7,4.08-.8,8.22-1.31,12.33-1.96.19-.03.37-.15.56-.23,1.9,0,3.8,0,5.7,0Z"/>
        <path class="cls-1" d="m231.22,197.44c-1.06.62-1.79.38-2.41,0-1.22-.73-2.48-1.44-3.54-2.37-5.8-5.15-11.55-10.35-16.58-16.29-1.67-1.97-3.54-3.77-5.32-5.64-3.46-3.63-6.91-7.26-10.37-10.88-.58-.6-1.2-1.16-2-1.94-.06.57-.15.91-.12,1.22.33,2.77.84,5.53,1.01,8.3.32,5.22,1.36,10.33,2.01,15.5.29,2.35.27,4.73.46,7.09.13,1.57-.36,3.02-.75,4.49-.07.28-.42.48-.7.78-1.32-1.79-1.41-3.76-1.69-5.66-.61-4.06-1.04-8.15-1.76-12.19-.82-4.61-1.55-9.27-3.22-13.68-1.75-4.64-3.33-9.35-4.36-14.19-.51-2.41-.98-4.96.01-7.45.6-1.5.74-1.61,2.31-1.01.44.17.9.39,1.35.38,1.41-.04,2.36.74,3.24,1.68,2.17,2.31,4.3,4.65,6.5,6.92,5.84,6.04,11.19,12.5,16.38,19.09,3.43,4.35,6.75,8.79,10.13,13.17,2.74,3.55,5.53,7.06,8.27,10.61.46.6.75,1.32,1.16,2.06Z"/>
        <path class="cls-1" d="m215.83,316.87c.22-.49.28-.87.49-1.03,1.8-1.33,3.27-3.06,5.59-3.72,4.15-1.18,8.25-2.57,12.34-3.98,2.19-.76,4.29-1.74,6.43-2.63.81-.34,1.62-.68,2.42-1.02.07.1.13.19.2.29-.29.25-.55.55-.87.74-2.07,1.26-4.06,2.7-6.24,3.71-4.4,2.03-8.92,3.79-13.37,5.72-1.99.86-4.07,1.39-6.14,1.96-.18.05-.4-.01-.86-.04Z"/>
        <path class="cls-1" d="m265.82,285.41c0,.64.12,1.07-.02,1.41-1.16,2.95-2.68,5.71-4.72,8.16-.33.4-.95.7-1.48.77-1,.15-1.49-.57-1.06-1.48.34-.7.73-1.41,1.23-2.01,1.71-2.07,3.47-4.09,5.22-6.12.19-.22.43-.39.82-.74Z"/>
        <path class="cls-1" d="m313.71,193.36c.16.23.32.38.29.44-.07.17-.23.3-.35.44-.09-.1-.27-.21-.25-.29.03-.17.16-.33.31-.59Z"/>
        <path class="cls-1" d="m173.14,307.06c1.47.44,2.86.86,4.26,1.27.86.25,1.73.45,2.57.73.25.08.51.34.59.58.05.14-.22.54-.4.58-2.23.42-4.49.91-6.55-.58-.96-.69-1.05-1.15-.47-2.58Z"/>
      </g>
    </g>
  </g>
</svg>