<?xml version="1.0" encoding="UTF-8"?>
<svg id="Layer_2" data-name="Layer 2" xmlns="http://www.w3.org/2000/svg" viewBox="0 0 621.45 342.81">
  <defs>
    <style>
      .cls-1 {
        fill: #f9faed;
      }

      .cls-1, .cls-2 {
        stroke-width: 0px;
      }

      .cls-2 {
        fill: #45382f;
      }
    </style>
  </defs>
  <g id="Layer_1-2" data-name="Layer 1">
    <g>
      <path class="cls-2" d="m0,41.51c10.5-13.95,24-27.45,53.25-11.7s29.39,9.13,70.95,2.31,67.49-9.39,67.49-9.39l74.17-16.92,62.38-5.25s34.8-3.75,77.15,8.25,87.36,21.75,87.36,21.75c0,0,36,6.83,53.25,36.79s17.25,73.95,17.25,73.95c0,0-40.1,45.25-36.55,84.25s23.8,41.25,58.3,64.5,47.25,36,26.25,48-30.75-1.77-44.25-7.64-67.5,3.14-78-19.36-26-27.5-41.75-42.5,16.14-90.58-4.78-98.83c-13.95-5.5-59.84-4.33-94.22,5.01-20.49,5.56-49.79,11.06-70.85,13.79-31.02,4.03-61.15,19.03-74.9-23.08-3.82-11.71-40.03-6.51-87.14-2.82s-100.36,23.34-102.61-14.99,19.5-22.85,12-51.21S0,41.51,0,41.51Z"/>
      <g>
        <path class="cls-1" d="m491.36,187.41c-.96-.32-1.72-.54-2.44-.83-4.97-2.01-7.73-6.09-9.71-10.74-4.15-9.74-2.89-19.28,1.68-28.5,3.96-8,10.06-14.29,17-19.74,3.3-2.59,6.92-4.78,10.43-7.08.68-.45.82-.74.4-1.46-1.06-1.8-1-1.76-3.04-1.04-6.91,2.44-13.97,3.87-21.35,3.08-2.19-.24-4.45-.1-6.55-.64-4.59-1.18-7.83-4.35-10.36-8.19-4.1-6.22-5.66-12.96-3.43-20.24,1.36-4.46,4.6-7.55,8.21-10.28.33-.25.67-.5.99-.76.05-.04.05-.15.11-.33-1.04-.26-2.09-.46-3.1-.8-2.6-.89-5.18-1.83-7.75-2.8-.61-.23-1.19-.61-1.72-1-.71-.51-1.38-1.27-.89-2.1.36-.6,1.22-1.12,1.93-1.25.86-.15,1.81.13,2.71.25,6.11.8,12.21,1.69,18.34,2.38,1.92.21,3.9-.14,5.86-.19,2.11-.06,3.73,1.12,4.19,3.02.55,2.24-.97,4.59-3.25,4.5-5.42-.21-9.6,2.46-13.55,5.59-5.76,4.56-7.01,10.16-3.8,16.8,3.24,6.67,8.61,10.09,16.11,9.92,4.96-.11,9.75-1.2,14.44-2.77.98-.33,2.3-.4,2.82-1.08.48-.62.04-1.91.08-2.9.29-7.4,3.34-13.19,10.06-16.66,3.91-2.02,8.04-2.36,12.22-.73.15.06.31.08.62-.04-.51-.55-.99-1.13-1.52-1.66-4.02-4.02-8.37-7.64-13.11-10.78-5.8-3.83-11.36-8.01-17.6-11.19-10.28-5.24-20.85-9.7-32.04-12.62-.75-.2-1.22-.24-1.5.67-3.63,11.65-8.89,22.65-13.66,33.84-4.1,9.63-8.27,19.22-10.99,29.37-.33,1.23-1.22,2.36-2.02,3.4-.8,1.03-2.02,1.3-3.29.97-1.33-.34-2.29-1.23-2.42-2.57-.14-1.55-.24-3.2.14-4.68,2.28-8.83,5.86-17.19,9.52-25.51,3.56-8.09,7.22-16.13,10.83-24.19.2-.44.37-.9.62-1.5-.54,0-.9-.05-1.25,0-7.51,1.16-14.92,2.73-22.15,5.09-1.08.35-1.36.85-1.29,1.98.68,11.08-1.37,21.59-6.92,31.28-2.51,4.39-5.81,8.15-10.13,10.87-6.57,4.14-15.23,3.28-20.96-2.03-5.36-4.97-6.87-11.66-4.22-18.87,2.35-6.41,6.61-11.42,11.74-15.76,5.91-4.99,12.56-8.77,19.61-11.88,1.7-.75,1.7-.75,1.27-2.61-1.25-5.48-3.27-10.66-5.98-15.59-.78-1.41-1.81-2.21-3.45-2.52-11.26-2.12-22.51-4.32-33.76-6.48-.27-.05-.55-.05-1.02.18.36.31.74.61,1.09.93,4.1,3.73,7.28,8.12,9.45,13.22,3.47,8.15,2.22,15.63-3.24,22.5-3.62,4.56-8.36,7.61-13.61,9.92-8.53,3.74-17.45,6.13-26.65,7.47-5,.73-9.98.41-14.88-.91-.24-.07-.48-.12-.73-.17-.07-.01-.16.02-.49.08,2.9,5.69,6.92,10.35,11.59,14.53,1.22-1.13,2.25-2.37,3.54-3.22,2.14-1.42,4.38-2.71,6.68-3.84,3.18-1.55,6.43-.89,9.61.18.29.1.46.57.68.86-.32.13-.67.43-.94.37-5.43-1.24-10.08.79-14.55,3.49-1.37.82-2.62,1.85-4.06,2.88.52.45.8.76,1.14.97,2.1,1.35,4.17,2.75,6.34,3.99,1.73.99,3.25,2.16,4.48,3.73.82,1.05.62,1.84-.34,2.8-5.55,5.57-12.68,9.11-18.48,14.36-.09.08-.16.18-.39.43.99-.06,1.82-.2,2.65-.14,1.12.08,2.27.16,3.31.53.58.2.97.97,1.45,1.48-.58.39-1.12.9-1.76,1.12-.61.21-1.33.04-1.98.13-4.23.63-7.88,2.59-11.29,5.07-.19.14-.3.37-.59.72,3.41.8,6.9-.7,10.05.76.02.13.05.26.07.39-.33.18-.63.47-.98.53-2.78.52-5.57,1-8.36,1.48-.28.05-.58.02-.87,0-1.4-.12-2.66-.59-3.31-1.9-.69-1.37-.44-2.88.62-3.83,1.71-1.54,3.68-2.8,5.55-4.16.33-.24.73-.38,1.11-.58-.56-1.61.24-2.95,1.06-4.05,1.28-1.72,2.67-3.51,4.4-4.7,3.48-2.4,7.23-4.43,10.87-6.6.31-.19.65-.35,1.14-.62-1.15-.55-2.17-.99-3.14-1.51-9.33-5.06-16.25-12.53-21.36-21.71-1.68-3.01-3.08-6.18-4.49-9.34-.82-1.83-.85-3.74.92-5.11,1.77-1.36,3.74-1.12,5.69-.27.08.03.15.07.22.12,6.38,4.43,13.47,5.03,20.85,3.73,8.07-1.42,15.96-3.5,23.43-6.96,3.5-1.62,6.73-3.65,9.36-6.55,4.58-5.04,5.34-10.59,2.48-16.75-2.85-6.16-7.39-10.83-12.75-14.81-5.24-3.9-5.24-3.87-11.73-4.72-11.88-1.56-23.81-2.32-35.78-2.43-1.24-.01-1.38.36-1.46,1.54-.32,4.61-.65,9.23-1.36,13.79-2.41,15.53-5.01,31.02-8.63,46.33-1.7,7.22-2.96,14.54-4.54,21.79-.43,1.98-1.2,3.89-1.97,5.77-.54,1.31-1.92,2.03-2.98,1.83-1.03-.19-1.98-1.41-2.03-2.85-.04-1.41-.05-2.85.17-4.23,2.24-13.7,4.45-27.4,6.84-41.07,1.88-10.8,3.97-21.56,6.03-32.32.55-2.86,1.38-5.67,2.07-8.5.16-.64.3-1.28.5-2.13-16.48-.29-32.77.54-49.25,1.53.25.35.36.55.52.7,2.38,2.26,4.97,4.35,7.13,6.81,6.14,7.03,12.24,14.14,16.13,22.77,5.94,13.17,7.51,26.68,3.16,40.67-2.39,7.7-7.38,13.32-13.88,17.77-5.47,3.75-11.43,6.51-17.7,8.64-.87.3-1.71.65-2.58.95-1.4.49-2.58-.04-3.09-1.45-.63-1.74-.47-3.34.51-5.01,1.25-2.11,2.84-3.41,5.22-4.28,6.51-2.35,12.57-5.59,17.54-10.56,2.3-2.3,4.03-4.98,5.07-8.08,1.46-4.34,2.29-8.78,2.34-13.37.01-1.17-.38-1.51-1.52-1.48-6.64.19-13.07,1.58-19.37,3.55-6.98,2.19-13.52,5.25-19.05,10.15-3.97,3.52-6.57,7.86-7.26,13.18-.8,6.19,1.68,9.2,7.89,9.71,2.28.19,2.53.01,3.25-2.11,1.1-3.23,2.24-6.45,3.29-9.7.38-1.17.5-2.43.81-3.63.22-.84.43-1.72.86-2.47,1.13-1.99,2.37-3.92,3.57-5.87.41-.66.94-.89,1.69-.55.8.36.73.94.39,1.54-4.42,7.86-5.42,16.85-8.27,25.22-2.84,8.35-4.19,16.97-4.92,25.72-.14,1.62-.2,3.1,1.5,3.99,1.71.89,3.29.69,4.76-.54.09-.08.21-.13.41-.25.9,1.19,1.2,2.58,1.09,3.98-.24,2.99-.59,5.96-.97,8.94-.19,1.44-.55,2.86-.8,4.15h8.9c-.67-.91-1.26-1.75-1.88-2.57-1.73-2.3-2.55-4.95-2.91-7.75-.11-.81-.04-1.67.11-2.48.5-2.61,2.62-3.94,5.21-3.29,1.9.47,3.46,1.54,4.59,3.08,3.38,4.62,6.45,9.41,8.06,15,.35,1.22,0,2.15-.71,2.99-.44.53-.64.94-.47,1.65.26,1.1-.38,1.59-1.44,1.15-.79-.33-1.51-.84-2.3-1.18-.28-.12-.78-.13-1,.04-.91.72-1.71.43-2.51-.12-.34-.24-.67-.5-.97-.79-3.43-3.22-7.5-3.46-11.81-2.56-.52.11-1.02.37-1.51.59-1.12.52-1.99,1.12-1.52,2.66.29.94-.08,1.96-1.07,2.27-.65.2-1.62.09-2.16-.28-.45-.31-.81-1.3-.66-1.84.41-1.48-.2-2.43-.86-3.7-1.26-2.4-2.15-5.04-2.86-7.68-1.22-4.51-.67-9.12-.22-13.68.67-6.67,1.16-13.38,2.81-19.91.03-.11,0-.24,0-.36-1.57-.46-3.11-.93-4.66-1.35-7.54-2.09-12-7.9-11.92-15.73.09-8.8,3.7-16.06,10.1-21.94,6.81-6.26,15.01-10,23.74-12.68,6.63-2.04,13.4-3.46,20.38-3.6,1.18-.02,1.15-.57.94-1.43-1.75-7.34-4.66-14.17-9.09-20.3-3.59-4.97-7.16-9.95-10.94-14.77-2.05-2.61-4.49-4.91-6.83-7.28-.28-.29-1.02-.3-1.49-.19-6.98,1.6-13.99,3.1-20.92,4.91-4.27,1.11-8.42,2.68-12.59,4.12-.46.16-1.05.79-1.08,1.23-.51,7.23-1.16,14.47-1.32,21.71-.16,7.24.16,14.5.31,21.75.34,16.52-2.09,32.66-6.78,48.47-.63,2.14-1.51,4.22-2.38,6.28-.18.42-.82.65-1.25.97-.3-.44-.8-.85-.88-1.33-1.01-6.27-.58-12.56-.07-18.82.7-8.6,1.68-17.17,2.42-25.77.25-2.9.12-5.83.22-8.75.04-1.27-.57-2.08-1.63-2.56-4.27-1.94-8.66-1.74-13.1-.68-.84.2-.64.83-.6,1.4.26,3.82.72,7.65.72,11.47,0,12.21-2.43,23.95-7.72,34.99-4.49,9.36-12.22,14.71-22.08,17.31-5.93,1.56-11.98,2.03-18.08,2.18-10.73.26-21.29-1.1-31.8-3.04-14.49-2.67-29.05-3.33-43.69-1.59-3.97.47-7.92,1.29-11.9,1.54-9.99.61-19.31-1.66-27.49-7.6-1.84-1.34-3.37-3.23-4.73-5.09-2.77-3.76-1.33-8.77,2.78-10.95.55-.29,1.08-.61,1.49-.85-.4-2.77-.79-5.44-1.15-8.11-.14-1.02.07-1.93,1.07-2.45,1.02-.53,1.88-.09,2.62.59,2.09,1.9,4.06,3.95,6.25,5.72,2.25,1.82,4.84,2.91,8.16,2.11-.35-.88-.68-1.73-1.03-2.58-.32-.77-.76-1.5-.96-2.29-.52-2.06.75-2.78,2.76-2.76,1.37.01,2.78-1.4,4.12-2.24.11-.07-.14-.69-.22-1.05-.23-1.08-.51-2.23.63-2.94,1.07-.67,2.18-.29,2.98.5.9.88,1.56.71,2.45.02.59-.45.81-.83.56-1.54-.15-.42-.18-.91-.14-1.35.12-1.42,1.29-1.94,2.68-1.24.6.3,1.39.96,1.79.78,1.2-.53,2.27-1.38,3.34-2.17.17-.13.1-.62.1-.95-.02-1.98,1.22-2.78,3.03-2.01.33.14.85.05,1.18-.12.51-.26,1.01-.62,1.39-1.05.25-.28.42-.75.39-1.12-.05-.74-.27-1.47-.39-2.21-.16-1.01.18-1.81,1.1-2.31.94-.51,1.85-.43,2.67.28.44.38.86.77,1.38,1.24,1.38-1.44,2.72-2.84,4.06-4.23.12.1.24.2.36.3-.96,1.37-1.9,2.75-2.9,4.09-.4.53-.64.9-.23,1.63.89,1.6.01,3.28-1.78,3.69-.16.04-.35.03-.47.12q-1.62,1.14-2.99-.18c-.57.43-1.15.87-1.72,1.3.95,2.03.88,2.39-.72,3.91-.48.46-.91,1.2-1.47,1.33-1.64.37-1.83.16-2.6-1.81-.85.53-1.68,1.05-2.51,1.57,1,2.26.74,3.22-1.11,4.2-1.27.68-2.94.29-3.77-.96-.69.34-1.31.51-1.01,1.67.46,1.73-.77,3.22-2.62,3.49q-1.94.29-2.85-.98c-.91.52-1.84,1.05-3.16,1.8,2.22,1.35,4.17,2.63,6.21,3.75,1.5.83,3.4.98,4.4,2.65.1.16.44.25.67.25,2.24.02,4.48.01,6.47.01.32-1.24.5-2.19.81-3.09.6-1.77,1.28-3.52,1.92-5.29.38-1.03.9-1.94,2.14-1.98,1.27-.04,2.28.52,2.85,1.67,1.01,2.06,2.02,4.11,2.92,6.22.73,1.7.65,1.73,2.27,1.24.27-2.04.47-3.96.79-5.85.23-1.32,1.09-2.11,2.43-2.36,1.33-.25,2.41.16,3.16,1.27,1.01,1.48,2.03,2.96,2.91,4.51.35.61.68.74,1.28.58.52-.14,1.05-.28,1.58-.36.84-.14,1.13-.59,1.55-1.39.84-1.6.97-3.27,1.37-4.94.15-.62.91-1.32,1.55-1.54,1.07-.37,2.06.2,2.7,1.12.5.71.86,1.52,1.28,2.29,1.2,2.2,1.21,2.2,3.52,1.15.04-.82.07-1.65.12-2.47.08-1.18.5-2.16,1.76-2.42,1.25-.26,2.31.19,3.06,1.24.4.56.71,1.19,1.11,1.87,1.49-.52,2.94-1.02,4.39-1.54,12.51-4.46,24.16-10.65,35.55-17.4,8.72-5.17,17.5-10.21,26.98-13.9,1.71-.67,3.45-1.26,5.19-1.82.7-.23.91-.58.78-1.29-1.64-8.67-3.97-17.13-7.71-25.16-.05-.11-.14-.2-.31-.41-3.07,2.08-5.37,4.92-7.84,7.72.22.23.42.48.66.69,2.78,2.49,4.65,5.53,5.35,9.21.08.4-.16,1.1-.47,1.26-.38.2-1.13.19-1.45-.07-1.8-1.46-3.52-3.02-5.26-4.55-1.19-1.04-2.32-2.16-3.57-3.11-2.24-1.71-4.84-1.77-7.5-1.42-.31.04-.68.03-.95-.1-5.88-2.75-12.03-4.59-18.37-5.95-5.82-1.25-11.57-2.83-17.31-4.45-3.7-1.05-7.32-1.38-11.09-.5-6.4,1.49-12.9,2.12-19.46,2.31-7.63.22-14.92-1.45-21.95-4.21-5.27-2.07-10.39-4.5-15.6-6.72-1.68-.71-3.41-1.36-5.17-1.85-2.1-.58-4.24-.39-5.96.99-6.12,4.91-10.79,10.85-12.73,18.62-.22.88-.14,1.84-.07,2.79,1.79-2.19,4.34-3.05,6.66-4.13,2.35-1.1,4.86-1.98,7.4-2.51,1.51-.31,3.29-.04,4.79.46,5.88,1.98,11.72,4.09,17.53,6.29,5.73,2.16,11.35,4.61,17.11,6.7,5.34,1.94,10.88,3.15,16.55,3.7,1.36.13,2.74.23,4.08.49.45.09,1.09.63,1.13,1.03.04.4-.48,1.16-.86,1.25-1.35.3-2.21.89-2.49,2.33-.11.57-.52,1.21-.99,1.55-.58.43-1.42.91-2.05.79-.55-.1-1.25-.93-1.37-1.54-.22-1.17-.73-1.54-1.87-1.63-1.36-.11-2.71-.47-4.05-.78-.69-.16-1.17-.15-1.5.61-.48,1.1-1.39,1.62-2.6,1.58-1.18-.03-1.57-.91-1.98-1.81-1.12-2.47-1.14-2.47-2.59-2.68-.43.61-.79,1.28-1.3,1.8-1.13,1.15-2.5.75-2.86-.82-.16-.7-.1-1.44-.25-2.14-.06-.29-.4-.54-.64-.78-.08-.08-.23-.09-.34-.14-.85-.34-1.7-.68-2.53-1.01-.54.49-.98,1.07-1.56,1.4-1.61.91-2.97.26-3.39-1.54-.1-.4-.17-.82-.24-1.23q-.15-.85-1.12-1.05c-.35.57-.61,1.21-1.05,1.67-.86.88-2.05.57-2.51-.56-.06-.15-.13-.32-.12-.48.14-2.03-1.11-2.76-2.82-3.24-1.64-.46-3.21-1.12-5.02-1.76-.41,1.42-.71,2.78-1.22,4.05-.26.66-.88,1.18-1.34,1.77-.55-.44-1.33-.76-1.6-1.33-.93-1.98-1.68-4.05-2.51-6.07-.09-.21-.25-.52-.41-.55-1.18-.21-2.38-.41-3.58-.49-.16-.01-.5.6-.53.94-.24,2.78-.43,5.56-.63,8.35-.04.5.05,1.07-.17,1.47-.27.49-.76,1.07-1.24,1.15-.38.07-1.05-.44-1.3-.87-.56-.92-.87-1.99-1.4-2.93-1.18-2.1-2.4-4.18-3.7-6.2-.2-.31-.92-.5-1.32-.41-2.35.52-4.67,1.15-6.99,1.74-.11-.16-.24-.57-.47-.63-1.63-.43-2.4-1.16-2.47-2.98-.06-1.57.1-3.16.35-4.71.19-1.18.56-2.36,1.05-3.46,2.53-5.73,6.24-10.61,10.86-14.81,3.3-3,7.2-3.68,11.31-2.27,3.3,1.13,6.51,2.57,9.66,4.07,5.69,2.72,11.55,4.97,17.6,6.75,7.82,2.3,15.71,2.22,23.65.87,3.28-.56,6.57-1.17,9.81-1.93,4.05-.95,7.99-.66,11.98.38,7.49,1.97,15,3.89,22.55,5.62,5.68,1.31,11.42,2.31,17.15,3.41,1.87.36,3.76.49,5.35-.86.49-.42.91-.94,1.29-1.47,1.49-2.05,2.76-4.3,4.5-6.11,1.28-1.33,3.08-2.22,4.77-3.06,3.04-1.5,6.4-.9,9.63-1.17,3.06-.25,6.13-.49,9.15-1.02,2.62-.46,5.18-1.28,7.73-2.03.5-.15.98-.66,1.29-1.13,1.96-2.94,3.71-6.03,5.84-8.83,1.68-2.22,3.88-2.6,6.37-1.28,2.04,1.09,3.91,2.52,5.77,3.91.65.48,1.14.63,1.91.38,3.65-1.16,7.32-2.29,11-3.37.8-.24,1.21-.66,1.57-1.41,1.03-2.18,2.05-4.39,3.3-6.44,1.79-2.94,4.39-3.57,7.41-1.94,2.3,1.24,4.3,2.83,5.73,5.09.19.3.82.48,1.23.45,1.7-.14,3.39-.42,5.09-.57.76-.07,1.11-.45,1.51-1.07,1.96-3.04,3.93-6.08,6.06-9.01.95-1.31,2.32-2.21,4.08-2.42,2.63-.33,4.64.86,6.08,2.76,1.28,1.69,2.17,3.71,3.05,5.67.31.69.05,1.62.05,2.49.05.03.16.13.26.13,3.45-.14,6.91-.27,10.36-.49.38-.02.79-.6,1.07-1,1.86-2.75,3.69-5.52,5.55-8.28.16-.24.4-.43.62-.62,2.61-2.21,5.28-1.75,7.14,1.23,1.45,2.32,2.56,5.39,2.96,8.32,2.29,0,4.62.03,6.93-.03.38-.01.75-.46,1.11-.73,3.01-2.3,5.93-4.73,9.04-6.88,2.84-1.96,5.27-1.51,7.53,1.09,1.64,1.88,3.35,3.75,3.55,6.45.02.25.52.64.82.67,4.23.41,8.47.79,12.7,1.11.41.03.98-.36,1.27-.72,1.18-1.45,2.22-3.02,3.44-4.44,1.24-1.44,3.62-1.73,5.12-.59,2.32,1.78,4.08,4,4.79,6.94.08.32.55.72.89.78,4.76.82,9.53,1.61,14.31,2.34.38.06.95-.2,1.22-.51,2.21-2.45,4.85-4.32,7.8-5.75,1.77-.86,3.55-.57,5.07.61,2.13,1.67,3.58,3.84,4.01,6.56.1.67-.06,1.39-.11,2.2.33.08.67.19,1.02.26,2.78.55,5.57,1.05,8.34,1.65.91.2,1.53.03,2.26-.56,1.32-1.07,2.72-2.08,4.19-2.93,2.17-1.25,4.05-.92,5.76.89,1.27,1.35,2.36,2.85,2.44,4.8.04.97.63,1.15,1.38,1.25,5.66.76,11.3,1.65,16.98,2.25,12.07,1.28,23.98,3.43,35.34,7.71,6.52,2.45,12.68,5.92,18.86,9.18,8.63,4.54,17.29,9.06,25.63,14.09,4.66,2.81,8.72,6.61,12.99,10.04,1.36,1.09,2.51,2.43,3.76,3.66,5.03,4.97,8.13,11.02,10.05,17.75,1.1,3.85,2.35,7.65,3.34,11.53.41,1.62.45,3.36.41,5.04-.03,1.34-1.29,1.83-2.17.83-1.19-1.36-2.43-2.8-3.13-4.43-1.57-3.67-2.81-7.48-4.19-11.24-.43-1.16-.85-2.32-1.29-3.51-.19.12-.28.14-.32.2-.5.61-.99,1.22-1.48,1.83-.61-.5-1.31-.93-1.82-1.52-.87-1-1.57-2.16-2.44-3.16-4.03-4.64-8.97-3.67-12.36-1.39-5.69,3.83-7.27,12.96-2.34,19.25.24.31,1.05.4,1.52.28,4.15-1.03,8.31-1.43,12.49-.31,3.36.9,6.21,2.62,8.11,5.65,1.67,2.67,1.41,5.18-.8,7.36-1.2,1.18-2.78,1.54-4.37,1.59-5.85.17-11.22-1.43-15.99-4.81-1.09-.77-1.92-.82-3.04-.21-9.39,5.08-17.35,11.82-23.37,20.67-4.2,6.18-6.07,13.04-4.96,20.54.54,3.61,2.02,6.85,4.32,9.71,2.13,2.64,5.11,3.48,8.25,3.92.48.07,1.12-.46,1.56-.84,4.61-4.05,9.42-7.84,14.72-10.96,5.26-3.09,10.65-5.9,16.81-6.81.38-.06.8-.64,1-1.07,2.59-5.34,4.17-11.06,6.05-16.67.54-1.62,1.12-3.23,1.72-4.83.53-1.4,1.5-2.01,2.64-1.72,1.07.27,1.77,1.26,1.5,2.66-.84,4.33-1.75,8.65-2.72,12.96-.53,2.36-1.24,4.67-1.87,7.01-.1.36-.13.8-.35,1.06-1.21,1.4-.67,2.46.37,3.71,1.53,1.83,1,3.93-.04,5.74-.77,1.34-1.88,2.56-3.05,3.59-5.89,5.22-12.91,8.24-20.49,9.92-3.93.87-7.98,1.21-11.97,1.84-.63.1-1.36.27-1.8.67-10.74,9.69-17.75,21.52-20.44,35.81-1.9,10.1-.49,19.81,3.83,29.03,6.59,14.06,15.74,26.21,28.16,35.67,3.77,2.87,7.85,5.37,12.01,7.64,2.29,1.25,4.99,1.82,7.57,2.47,7.91,2.01,15.9,3.75,23.77,5.92,9.75,2.68,19.02,6.67,28.19,10.91.34.16.68.31,1.03.45.06.03.15-.02.33-.04-.16-.23-.28-.42-.43-.6-8.98-10.91-20.06-19.07-32.72-25.22-7.05-3.42-14.13-6.79-20.97-10.59-7.28-4.05-13.84-9.16-19.21-15.62-6.32-7.61-9.96-16.22-9.29-26.32.4-6.08,2.3-11.76,4.85-17.23,3.67-7.88,8.15-15.29,13.36-22.26.52-.7,1.1-1.37,1.74-1.95.28-.25.8-.22,1.21-.32.09.42.33.88.24,1.25-.2.76-.52,1.5-.9,2.19-3.43,6.25-6.94,12.44-10.3,18.73-2.72,5.09-4.92,10.41-5.92,16.13-1.52,8.71.8,16.51,5.83,23.62,4.18,5.92,9.72,10.37,15.61,14.45,6.65,4.61,13.99,7.9,21.28,11.32,7.29,3.42,14.42,7.14,21.02,11.79,6.57,4.63,11.89,10.56,17.17,16.52,3.09,3.49,6.03,7.13,9.06,10.67.54.63,1.25,1.1,1.8,1.73,1.42,1.62,2.83,3.24,4.14,4.94.26.34.24,1.17,0,1.53-.18.28-.93.21-1.43.23-.54.02-1.1.02-1.63-.06-.46-.06-1-.13-1.35-.39-2.11-1.62-4.07-3.45-6.27-4.92-7.04-4.71-14.87-7.84-22.65-11.07-10.98-4.55-22.38-7.78-34.02-9.99-20.84-3.94-36.25-15.64-48.13-32.66-4.64-6.65-8.8-13.57-11.5-21.27-5.18-14.74-3.77-29.11,2.46-43.21,2.99-6.76,6.91-12.93,11.87-18.42.24-.27.45-.57.8-1.01ZM182.49,88.59c-1.53.54-2.79.95-4.02,1.42-9.18,3.54-17.69,8.38-26.1,13.42-14.96,8.97-30.55,16.54-47.33,21.53-13.81,4.11-27.8,7.01-42.28,7.04-5.33.01-10.67-.23-16-.14-4.45.08-8.89.44-13.33.75-.78.05-1.54.43-2.51.71,1.77,2.27,3.78,3.8,6.13,4.82,6.85,2.97,13.91,4.56,21.43,3.29,17.67-2.99,35.33-2.9,53.01.09,7.31,1.23,14.67,2.29,22.05,2.9,7.81.65,15.65.5,23.42-1,10.31-2,17.39-7.64,20.99-17.66,3.96-11.03,5.78-22.32,4.8-34.02-.08-.94-.16-1.89-.27-3.15Zm25.63-42.25c-9.32,2.94-18.43,5.82-28.06,5.76,1.4,3.02,2.81,5.8,4,8.67,2.32,5.6,3.8,11.46,5.02,17.38.21,1,.61,1.23,1.53.95,1.31-.4,2.63-.8,3.97-1.07,3.35-.66,6.71-1.28,10.08-1.85.83-.14,1.12-.49,1.1-1.31-.27-9.04.91-17.96,2.21-26.87.07-.48.09-.96.15-1.68Zm210.43,26.92c-1.53.75-2.89,1.36-4.2,2.05-6.46,3.39-12.51,7.35-17.27,12.99-2.17,2.57-3.97,5.36-4.72,8.71-1.07,4.78,1.11,8.52,5.78,10.01,3.04.96,5.76.32,8.21-1.63,2.98-2.37,5.32-5.29,7.04-8.67,3.57-7,5.11-14.49,5.27-22.31,0-.28-.06-.56-.13-1.16Zm38.37-20.64c-12.41-3.49-25.11-3.74-37.75-5.9.19.5.24.7.34.87,2.3,4.08,4.19,8.34,5.42,12.87.28,1.04.88.74,1.53.53,8.37-2.64,16.93-4.38,25.62-5.55.53-.07,1.09-.09,1.62-.02,1.86.25,1.86.27,2.65-1.46.17-.37.32-.75.57-1.34Zm-189.37,123.03c-1.42-2.2-2.8-4.31-4.16-6.45-1.43-2.25-2.75-4.57-4.28-6.75-.69-.99-1.65-1.88-2.67-2.56-1.24-.83-2.1-.37-2.21,1.14-.07,1.01.01,2.13.4,3.04.66,1.56,1.5,3.08,2.48,4.45,2,2.78,4.15,5.46,6.23,8.18.19-.4.07-.66.12-.88.09-.42.18-1.04.45-1.16.36-.15.9.05,1.33.21.25.09.46.36.63.59.6.82,1.18.75,1.66.18Zm242.63,4.46c6.96-.18,19.75-6.42,21.89-10.77-8.56,1.45-15.31,5.92-21.89,10.77Zm-266.38-9.1l.39.05c.32-3.22.71-6.43.91-9.65.06-1.08-.27-2.23-.65-3.26-.34-.91-1.08-.96-1.58-.14-2.31,3.72-3.67,8.91-1.12,13.23.33-.42.69-.89,1.05-1.35.34.38.67.76,1.01,1.14Zm280.97-47.53c-.03.16-.07.31-.1.47,1.32.3,2.64.59,3.96.89.04-.17.07-.34.11-.5-1.32-.29-2.64-.57-3.97-.86Z"/>
        <path class="cls-1" d="m358.1,111.36c.8-.39,1.6-.77,2.42-1.17-1.21-1.62-2.41-3.24-3.84-5.15-1.5,1.24-2.93,2.46-4.42,3.62-.43.34-1.03.48-1.54.7-.15-.64-.54-1.33-.4-1.89.18-.73.67-1.45,1.21-2,3.98-4.08,8.73-6.19,14.52-5.35.83.12,1.64.55,2.39.97.33.18.71.74.65,1.04-.07.32-.61.68-.99.75-1.18.21-2.38.38-3.57.41-1.92.04-3.81.12-5.57,1,1.29,1.72,2.53,3.38,3.82,5.1,2.9-.42,6.05-.88,9.32-1.36-.23-.61-.52-1.41-.81-2.2-1.2-3.24-2.43-6.47-3.55-9.73-.19-.56.1-1.29.17-1.93.64.15,1.55.09,1.87.49,1.01,1.24,2,2.58,2.63,4.04,1.41,3.24,2.55,6.61,3.9,9.88,1.69,4.09,4.55,7.23,8.22,9.66,1.15.76,2.33,1.47,3.41,2.31,1.76,1.38,2.08,3.22.65,4.91-1.58,1.87-3.41,3.53-5.14,5.26-3.35,3.36-6.85,6.59-10.04,10.1-5.55,6.1-12.34,10.08-20.12,12.55-3.5,1.11-6.94,2.33-10.01,4.46-.69.48-1.98.57-2.79.27-1.1-.41-1.27-1.69-1.16-2.81.21-2.15,1.25-3.95,2.5-5.64.34-.46.72-.9,1.14-1.42-1.67-.94-3.2-.64-4.62.27-1.54.99-3,2.11-4.49,3.17-.48.34-.93.71-1.45.97-1.69.83-3.43.04-3.95-1.77-.46-1.61-.12-3.15.51-4.63,1.86-4.37,7.12-7.61,11.85-7.3.65.04,1.33.18,1.93.43.4.17.68.61,1.01.93-.31.3-.57.72-.94.87-.77.3-1.59.5-2.4.67-2.76.57-5.27,1.66-7.12,3.85-.74.88-1.22,1.98-1.81,2.98l.39.31c.8-.55,1.63-1.06,2.39-1.66,3.03-2.42,6.25-2.93,9.8-1.19.37.18,1.08-.04,1.49-.31,2.97-1.92,5.83-4,8.86-5.81,2.05-1.22,4.43-1.48,6.79-.95.65.15,1.21.72,1.81,1.09-.56.49-1.09,1.03-1.69,1.45-.28.2-.71.23-1.08.28-6.61.88-11.28,5-15.76,9.43-.48.48-.79,1.14-1.22,1.78,2.98-1.08,5.82-2.07,8.63-3.14,2.26-.86,4.52-1.72,6.7-2.73,3.9-1.8,7.21-4.45,10.28-7.44,4.8-4.68,9.64-9.32,14.49-13.95.75-.72,1.62-1.3,2.64-2.11-.99-.7-1.49-1.1-2.03-1.44-3.9-2.45-7.3-5.4-9.61-9.46-.27-.47-.53-.95-.74-1.44-.29-.68-.63-.97-1.5-.88-4.43.45-8.86.79-13.3,1.16-.2.02-.4,0-.6,0-.05-.11-.09-.21-.14-.32Z"/>
        <path class="cls-1" d="m118.3,88.13c-.39,1.24-.71,2.39-1.11,3.5-.21.58-.49,1.16-.87,1.65-.82,1.07-2.39.89-2.61-.41-.39-2.37-.49-4.79-.63-7.19-.02-.35.42-.72.72-1.19-.72-.39-1.51-.81-2.43-1.31-.19.95-.32,1.75-.53,2.54-.24.9-.74,1.82-1.75,1.56-.57-.14-1.14-1-1.36-1.65-.34-.97-.48-2.04-.51-3.07-.03-1.22-.6-1.83-1.89-2.07-.44.84-.89,1.76-1.38,2.65-.4.72-.8,1.58-1.83,1.4-1.08-.18-1.31-1.11-1.33-2-.02-1.43.11-2.87.11-4.3,0-.31-.37-.61-.4-.93-.06-.58-.15-1.25.1-1.71.14-.26.99-.37,1.41-.23,3.47,1.17,6.91,2.41,10.37,3.63,3.79,1.34,7.21,3.26,9.92,6.29.7.78,1.29.79,2.16.33,2.73-1.43,5.5-2.77,8.24-4.18,3.12-1.61,6.19-1.73,9.28.11,1.78,1.06,3.62,2.02,5.4,3.08.29.17.39.65.57.99-.38.18-.81.57-1.13.5-1.2-.27-2.54-.43-3.5-1.1-3.26-2.3-6.24-1.9-9.27.39-1.79,1.35-3.72,2.53-5.6,3.77-.56.36-1.15.68-1.75.96-3.64,1.75-5.02,1.49-7.81-1.47-.16-.17-.35-.32-.6-.53Z"/>
        <path class="cls-1" d="m255.3,134.48c-.14-.73-.29-1.5-.51-2.63.41.38.59.47.63.6.56,1.96,1.97,1.98,3.68,1.88,2.89-.17,5.51.7,7.67,2.72.2.19.46.33.72.51,1.08-2.65.97-5.78,3.33-7.74.15.04.29.07.44.11,0,.66.12,1.36-.02,1.98-.5,2.15-1.07,4.28-1.66,6.4-.45,1.63-.28,2.95,1.19,4.07,1.11.84.98,1.21-.41,1.87,2.75,3.19,5.85,5.84,9.61,7.65,2.02.97,4.09,1.85,6.16,2.75,2.74,1.19,4.92,3.1,6.9,5.27.25.27.55.61.57.94.04.54.05,1.29-.27,1.58-.32.3-1.23.4-1.58.16-2.16-1.53-3.73-.06-5.35.98-.74.47-1.32,1.21-2.01,1.87-.67-1.67.31-3.28,3.71-6.13-1.37-.77-2.62-1.59-3.95-2.2-3.7-1.69-7.1-3.85-10.15-6.53-1.68-1.48-3.25-3.07-4.82-4.68-.45-.46-.86-1.08-1.01-1.7-.33-1.32-1.24-1.84-2.42-1.95-1.86-.18-3.72-.26-5.58-.34-.75-.03-1.41.15-1.19,1.35-.74-1.29-1.62-.77-2.39-.4-2.95,1.43-5.87,2.93-8.82,4.36-.38.19-.89.13-1.33.19.01-.46-.16-1.07.07-1.35.67-.83,1.39-1.73,2.29-2.25,2.26-1.32,4.62-2.45,6.95-3.65.36-.19.75-.32,1.18-.51-.18-.54-.33-1-.48-1.47-.79-2.51-.79-2.52-3.37-1.97-.85.18-1.68.43-2.52.64-.05-.11-.1-.23-.14-.34,1.61-.67,3.23-1.35,4.87-2.03Zm1.81,1.31c.44,1.23.82,2.31,1.22,3.43,3.02-.59,5.94-.84,8.86.53.12-.54.2-.93.29-1.34-3.27-1.6-6.55-2.79-10.36-2.63Z"/>
        <path class="cls-1" d="m283.41,173.04c-.53,2.79-1.26,3.03-3.51,1.23-.4-.32-.93-.53-1.43-.64-2.56-.57-4.82-1.59-6.31-3.88-.11-.17-.25-.35-.41-.46-3.26-2.29-5.25-5.65-7.37-8.88-1.18-1.8-1.89-3.74-.41-5.68,1.48-1.94,3.6-2.11,5.79-1.53,3.33.89,5.98,2.92,8.27,5.38,2.47,2.66,4.63,5.57,6,8.99.14.34.37.64.6.93,1.35,1.65.75,3.93-1.21,4.54Zm-2.7-3.4l.5-.39c-1.08-1.75-2.13-3.53-3.25-5.26-1.76-2.71-3.78-5.22-6.53-6.98-1.03-.66-2.22-1.18-3.41-1.44-1.46-.31-2.44.8-2.11,2.27.17.75.53,1.51.98,2.13,1.4,1.97,3.01,3.8,4.3,5.83,1.07,1.68,2.63,2.58,4.26,3.46.4.22.88.3,1.41.47-.17-.73-.42-1.27-.37-1.78.05-.56.37-1.09.58-1.64.46.26,1,.45,1.37.81.8.79,1.52,1.68,2.27,2.52Z"/>
        <path class="cls-1" d="m444.78,121.58c.33.06.66.09.97.2,7.11,2.38,13.5,5.91,18.38,11.74.93,1.11,1.51,2.56,2.04,3.94.55,1.44-.42,2.3-1.94,1.99-2.13-.44-3.85-1.6-5.35-3.06-3.71-3.61-8.02-6.33-12.5-8.84-1.05-.59-2.06-1.26-3.02-1.99-.8-.61-1.16-1.57-.65-2.45.41-.7,1.19-1.19,1.81-1.77.09.08.17.16.26.24Z"/>
        <path class="cls-1" d="m124.74,65.62c-2.1.97-3.1,3.39-5.57,3.8-.17-1.34.56-2.2,1.35-2.76,2.75-1.93,5.53-3.86,8.87-4.67,1.43-.35,2.82-.2,4.11.53,1.88,1.05,4,1.8,5,3.94.33.71.71,1.46.79,2.21.05.51-.4,1.06-.63,1.6-.48-.25-1.09-.39-1.42-.77-.4-.45-.51-1.14-.85-1.65-.5-.76-1.1-1.47-1.77-2.35-1.4,3.97-3.47,5.52-6.3,4.96-2.32-.46-3.67-2.21-3.58-4.83Zm5.84-1.68c-1.01.16-1.91.29-2.8.45-.93.17-1.12.79-.81,1.57.55,1.4,2.41,1.83,3.55.86,1.04-.89.34-1.8.06-2.89Z"/>
        <path class="cls-1" d="m161.42,43.27c-.11.56-.16.84-.16.83.55.66.98,1.17,1.42,1.68-.63.18-1.26.49-1.89.5-1.45.02-2.91-.11-4.36-.19-7.08-.38-13.68,1.5-20.11,4.23-.78.33-1.57.63-2.35.95-.09-.12-.18-.25-.28-.37.45-.49.83-1.04,1.34-1.45,2.65-2.12,5.79-3.25,8.98-4.24,4.33-1.34,8.74-2.1,13.3-1.7.37.03.76-.36,1.14-.37.93-.02,1.86.07,2.96.13Z"/>
        <path class="cls-1" d="m307.53,122.83c-.17-.15-.6-.35-.7-.66-.08-.24.17-.78.42-.9,2.75-1.35,5.45-2.83,8.3-3.91,2.43-.92,5.04-1.41,7.58-2.01.46-.11,1.02.18,1.53.28-.26.43-.42,1.01-.8,1.27-4.14,2.83-8.73,4.58-13.67,5.46-.41.07-.83.09-1.23.16-.41.07-.81.17-1.44.31Z"/>
        <path class="cls-1" d="m120.76,95.82c-.75,2.21-1.24,4.52-2.28,6.55-1.68,3.26-3.72,6.34-7.27,7.93-.36.16-.83.07-1.24.09.08-.41.05-.9.27-1.21.79-1.11,1.62-2.21,2.53-3.24,2.67-3,4.55-6.44,5.79-10.24.04-.12.05-.26.11-.35.36-.5.73-1,1.1-1.49.3.58.59,1.17.99,1.95Z"/>
        <path class="cls-1" d="m69.51,79.88c.34,0,.7-.06,1.03,0,3.24.63,6.4,1.53,9.25,3.27,1.81,1.11,3.19,2.66,4.12,4.59.79,1.64.84,3.31,0,4.93-.65,1.28-1.4,2.5-2.1,3.75-.15-.05-.29-.11-.44-.16.1-.65.13-1.33.32-1.96,1.31-4.45.17-7.64-3.86-9.97-2.08-1.2-4.37-2.03-6.55-3.05-.65-.3-1.26-.67-1.89-1.01.04-.13.08-.26.12-.39Z"/>
        <path class="cls-1" d="m55.92,55.86c-1.69-.2-3.38-.34-5.06-.63-1.67-.28-2.23-2.04-1.15-3.34,3.02-3.64,5.61-2.13,8.24.73.39.43.41,1.61.1,2.16-.36.63-1.28.94-1.96,1.39-.06-.11-.12-.21-.18-.32Z"/>
        <path class="cls-1" d="m125.09,48.34c.49-.8.73-1.48,1.2-1.92,3.29-3.06,7.22-4.77,11.7-4.91,1.41-.04,2.84.54,4.24.91.27.07.43.52.64.8-.32.2-.62.53-.96.58-1.48.2-2.97.33-4.47.45-3.77.31-7.2,1.64-10.44,3.52-.36.21-.73.39-1.11.56-.1.05-.24,0-.81,0Z"/>
        <path class="cls-1" d="m127.76,57.96c.12.01.27-.01.37.04.5.24.99.5,1.49.75-.43.33-.81.85-1.29.95-2.5.55-4.79,1.5-6.64,3.28-1.23,1.18-2.28,2.54-3.49,3.75-.31.31-.91.32-1.37.47-.05-.46-.26-.98-.13-1.37,1.23-3.51,7.45-7.9,11.06-7.86Z"/>
        <path class="cls-1" d="m187.86,143.34c-1.1-.46-2.51-.92-3.77-1.65-.42-.25-.73-1.26-.59-1.79.22-.83,1.06-.67,1.8-.5,2.27.5,4.55.93,6.81,1.44.37.08.68.45,1.02.68-.28.3-.52.78-.86.87-1.32.36-2.67.59-4.41.95Z"/>
        <path class="cls-1" d="m157.13,117.82c-.2.64-.29,1.36-.63,1.92-1.84,2.96-3.56,6.02-5.67,8.78-3.84,5.03-8.4,9.35-14,12.44-1.38.76-2.82,1.43-4.26,2.08-.26.12-.66-.05-.99-.09.11-.31.13-.74.36-.92,1.12-.93,2.22-1.91,3.47-2.65,4.66-2.76,8.37-6.55,11.79-10.67,2.71-3.27,5.39-6.56,8.1-9.83.4-.49.92-.88,1.38-1.32.15.09.31.18.46.27Z"/>
        <path class="cls-1" d="m108.88,129.71c-.18.36-.28.7-.49.94-1.39,1.63-2.79,3.24-4.23,4.83-.17.19-.56.19-.85.27-.01-.3-.16-.7-.02-.88,1.37-1.81,2.78-3.59,4.22-5.35.19-.23.64-.31.98-.34.11-.01.26.34.39.52Z"/>
      </g>
    </g>
  </g>
</svg>