<?xml version="1.0" encoding="UTF-8"?>
<svg id="Layer_2" data-name="Layer 2" xmlns="http://www.w3.org/2000/svg" viewBox="0 0 556.15 452.02">
  <defs>
    <style>
      .cls-1 {
        fill: #1d1e1e;
      }

      .cls-1, .cls-2 {
        stroke-width: 0px;
      }

      .cls-2 {
        fill: #e18126;
      }
    </style>
  </defs>
  <g id="Layer_1-2" data-name="Layer 1">
    <g>
      <path class="cls-2" d="m46.99,37.45C88.72,25.01,133.99-6.91,178.24,1.34s36.75,27.25,58.5,30.88,79.5-24.88,105-19.63,27.75,63.75,39.75,83.25,99.75,82.5,121.5,94.5,67.5,31.42,48.75,68.58-30,85.17-43.5,84.42-107.25-38.25-113.25-39-35.25,39.01-35.25,39.01l-41.97,9.74s.72,18.75,40.47,19.5,67.5,21.75,30.75,48.75-78,16.5-99,12.75-48.75,6.75-48.75,6.75c0,0,20.25-19.09-28.5-13.67s-69,33.92-95.25,21.92-18.75-48.75,19.5-71.25-10.5-70.58-28.5-118.92-9-60.33-24-52.08-59.53,5.53-34.5-28.98c21.91-30.21,29.91-45.31,14.75-65.77-25.14-33.94-121.25-43.78-17.75-74.64Z"/>
      <g>
        <g>
          <path class="cls-1" d="m91.95,169.32c-2.32,2-4.42,3.68-6.36,5.52-5.62,5.36-11.17,10.8-16.76,16.19-1.21,1.16-2.43,2.32-3.72,3.39-.8.66-1.78,1.1-2.79.42-1.03-.7-1.13-1.81-.7-2.81.78-1.79,1.61-3.59,2.68-5.22,4.68-7.15,10.44-13.42,16.5-19.43,2.62-2.6,5.25-5.2,7.93-7.75.77-.74,1.06-1.45.88-2.53-1.94-11.74-2.98-23.56-2.84-35.47.11-9.27.95-18.47,2.68-27.59.21-1.11-.04-1.63-1.08-2.11-13.78-6.32-27.83-11.99-42.24-16.76-1.28-.42-2.57-.87-3.79-1.43-.66-.3-1.33-.78-1.76-1.35-1.32-1.73-.36-3.89,1.83-4,2.19-.1,4.4-.04,6.59.1,13.31.86,26.63,1.08,39.97.54,2.28-.09,4.55-.25,6.82-.32.88-.02,1.36-.34,1.71-1.15,4.81-11.1,11.49-20.94,20.46-29.21,8.1-7.47,17.38-12.82,28.35-15.03,8.56-1.72,17.08-1.38,25.53.78,11.71,3,21.77,9,31.03,16.48,9.17,7.41,17.26,15.85,24.62,24.97,1.49,1.85,2.47,4.13,3.59,6.25.32.61.6.83,1.25.64,4.05-1.21,8.09-2.43,12.15-3.63.86-.25.82-.9.87-1.59.19-2.61.41-5.22.67-7.83.06-.57.28-1.13.48-1.68,1.18-3.32,4.14-5.3,7.6-5.1,3.35.19,6.19,2.51,6.8,5.91.76,4.22,1.41,8.47,1.86,12.73.94,8.98.82,17.97.08,26.96-.4,4.85-.86,9.73-.74,14.58.22,8.95.86,17.89,1.31,26.84.54,10.9,1.03,21.81,1.61,32.71.82,15.48,1.73,30.95,2.53,46.43.68,13.27,1.29,26.55,1.86,39.83.51,11.86,1.01,23.73,1.34,35.6.19,6.74.19,13.5-.05,20.24-.19,5.45-5.99,8.51-10.68,5.88-2.41-1.35-3.59-3.48-3.66-6.18-.14-5.25-.2-10.5-.37-15.74-.39-11.83-.8-23.65-1.27-35.48-.41-10.41-.87-20.82-1.39-31.22-.6-12.07-1.29-24.13-1.94-36.2-.64-11.98-1.26-23.97-1.9-35.95-.06-1.19-.16-2.39-.24-3.58-.11-.03-.21-.06-.32-.09-.24.53-.51,1.05-.72,1.59-2.6,6.51-5,13.11-7.84,19.52-5.57,12.57-12.79,24.15-22.45,34.13-6.9,7.13-14.72,13.04-24.06,16.77-7.28,2.91-14.81,4.49-22.7,3.27-6.03-.94-11.04-3.76-15.03-8.34-7-8.05-9.61-17.63-10.07-27.95-.54-12.14,2.82-23.33,8.87-33.78,2.37-4.09,4.98-8.03,7.48-12.04.17-.27.29-.56.28-1.03-.61.33-1.24.62-1.82.98-9.2,5.72-18.37,11.47-27.59,17.15-2.29,1.41-4.72,2.61-7.12,3.85-.7.36-1.5.55-2.28.74-.98.23-2.05.07-2.44-.83-.31-.74-.34-1.86.03-2.55.62-1.15,1.52-2.23,2.52-3.09,4.25-3.63,8.52-7.24,12.89-10.73,10.81-8.64,22.67-15.74,34.41-23.04,5.32-3.31,10.57-6.75,15.76-10.27,2.46-1.67,4.61-3.8,7.07-5.48,1.34-.92,2.99-1.6,4.6-1.91,2.68-.53,5.22.95,6.39,3.3,1.16,2.35.68,5.11-1.25,7.04-.24.24-.48.48-.76.66-6.86,4.55-12.27,10.57-17.57,16.7-5.46,6.32-10.62,12.88-14.87,20.07-3.78,6.38-7.37,12.88-9.13,20.13-2.19,9-2.19,17.96,1.65,26.59.95,2.14,2.42,4.1,3.9,5.95,1.96,2.48,4.74,3.52,7.89,3.68,5.26.27,10.14-1.16,14.83-3.3,8.48-3.87,15.19-9.92,21.07-16.92,7.87-9.37,13.58-19.99,18.18-31.21,5.95-14.51,10.7-29.42,14.51-44.6,1.41-5.61,3.05-11.24,2.97-17.08-.09-6.79-.48-13.57-.72-20.36-.04-.99-.56-1.22-1.42-.99-4.64,1.26-9.38,2.26-13.91,3.84-16.15,5.63-31.63,12.73-46.66,20.81-12.04,6.47-23.92,13.19-35.42,20.55-14.77,9.46-29.06,19.57-42.8,30.42-1.03.81-1.3,1.6-1.04,2.89,3.93,19.72,10.2,38.7,18.57,57.01,7.14,15.62,15.65,30.48,25.73,44.46,8.74,12.12,18.18,23.66,28.89,34.15,5.88,5.76,11.87,11.41,18.73,16.08,1.3.88,2.41,2.01,1.95,3.74-.46,1.73-1.76,2.69-3.5,3.08-3.63.8-6.77-.59-9.75-2.31-6.17-3.57-11.53-8.18-16.7-12.99-11.1-10.33-21.1-21.63-30.08-33.79-8.55-11.59-16-23.83-22.57-36.61-5.11-9.94-9.71-20.09-13.62-30.54-3.61-9.63-6.67-19.41-9.07-29.4-.34-1.4-.7-2.8-1.15-4.57Zm10.37-22.08c35.6-29.46,74.52-52.78,117.16-70.75-.41-.49-.98-.78-1.46-1.18-.51-.43-.95-.94-1.39-1.45-6.77-7.79-13.72-15.41-21.76-21.99-6.68-5.46-13.8-10.23-22.04-13.12-13.64-4.79-26.66-3.69-38.73,4.46-8.42,5.68-14.82,13.24-19.78,21.98-7.3,12.87-10.9,26.85-12.53,41.39-1.23,10.93-1.19,21.87-.28,32.81.21,2.48.51,4.95.81,7.85Z"/>
          <path class="cls-1" d="m393.19,145.27c-10.75-6.17-21.98-10.72-33.41-15.36-.06.6-.13.94-.13,1.29.06,5.67.14,11.33.18,17,.04,4.7-4.65,7.84-9.12,6.13-1.96-.75-3.11-2.2-3.71-4.16-.54-1.75-1.05-3.53-1.78-5.21-2.06-4.74-6.88-7.3-12.06-6.51-5.48.84-9.31,4.55-9.83,9.76-.62,6.08,1.05,11.74,3.75,17.13,3.35,6.68,8.59,11.79,14.39,16.43,5.74,4.6,11.51,9.18,17,14.05,5.77,5.12,9.83,11.53,12.88,18.54,4.74,10.87,7.36,22.24,7.84,34.06.34,8.57-.9,16.9-4.67,24.71-4.64,9.6-11.73,16.69-22.16,20.04-6.92,2.22-13.95,2.04-20.86-.17-11.38-3.63-19.07-11.34-24.34-21.69-4.86-9.55-6.33-19.65-4.8-30.15,1.44-9.89,5.4-18.63,13.13-25.41,3.23-2.83,6.88-4.99,11.02-6.27,3.14-.97,6.43.6,7.6,3.56,1.19,2.98-.02,6.53-3.07,7.69-10.93,4.14-15.22,12.83-16.52,23.39-1.35,11.05,1.67,21,9.04,29.51,3.67,4.24,8.32,7.07,13.9,8.22,9.64,1.98,18.34-1.89,23.85-10.5,3.31-5.17,5.1-10.83,5.35-16.88.65-15.49-2.64-30.07-10.99-43.35-2.79-4.44-6.67-7.97-10.72-11.27-4.76-3.88-9.72-7.52-14.4-11.49-8.31-7.04-14.64-15.45-17.71-25.98-1.78-6.09-2.53-12.25-1.17-18.52,1.03-4.77,3.55-8.73,7.33-11.84,5.01-4.13,10.83-6.06,17.37-5.77,3.85.17,7.36,1.41,10.64,3.35.71.42,1.41.87,2.36,1.46.22-1.66.48-3.05.53-4.44.01-.31-.67-.78-1.12-.95-5.47-2.01-10.95-3.99-16.44-5.96-10.98-3.93-22.04-7.63-33.35-10.53-2.73-.7-5.51-1.23-8.38-1.86-.04.44-.1.68-.07.9,1.07,10.44,2.59,20.86,3.14,31.33.95,18.14,1.35,36.31,1.89,54.46.61,20.37,1.22,40.74,1.66,61.11.34,15.41.43,30.83.59,46.25.04,3.5-2.54,6.06-5.88,6.07-3.36.02-5.93-2.5-5.97-6-.09-9.75,0-19.5-.19-29.25-.31-15.16-.91-30.32-1.2-45.49-.45-23.75-.71-47.5-1.13-71.25-.24-13.37-.65-26.74-.94-40.12-.06-2.66.1-5.33.23-7.99.04-.75-.15-1.08-.91-1.13-1.14-.09-2.28-.2-3.41-.34-1.69-.22-2.77-1.19-2.97-2.62-.21-1.51.53-2.9,2.21-3.34,1.98-.52,4.05-.72,6.09-1.02.45-.07.91,0,1.51,0-.14-.36-.18-.59-.3-.79-5.74-9.38-9.31-19.46-9.45-30.48-.1-8.51,1.89-16.55,7.03-23.59,3.18-4.36,7.5-7.33,12.5-9.28,9.5-3.7,19.05-3.04,28.41.39,14.88,5.45,25.08,15.71,30.91,30.21,3.74,9.31,5.58,19.07,6.07,29.02.37,7.48.12,14.99.05,22.48-.01,1.32.41,1.9,1.63,2.36,11.98,4.52,23.87,9.27,35.04,15.53,6.32,3.54,12.48,7.37,18.64,11.18,14.89,9.22,29.02,19.47,42.52,30.56,6.29,5.16,11.95,10.96,17.14,17.19,5,5.99,9.98,11.98,14.9,18.02,2.33,2.85,2.03,6.93-.51,8.75-2.66,1.91-6.49.97-8.78-2.04-2.43-3.2-4.96-6.33-7.46-9.49-.35-.44-.78-.83-1.37-1.44-.21.84-.36,1.43-.5,2.01-1.99,8.01-3.64,16.12-6.04,24.01-3.67,12.05-10.28,22.44-19.85,30.88-3.09,2.72-6.26,5.35-9.48,7.92-1.5,1.19-3.17,2.22-4.86,3.12-.5.27-1.52.09-2.02-.27-.74-.52-.58-1.39-.06-2.13,3.69-5.12,7.43-10.22,11.06-15.38,2.87-4.08,5.65-8.21,8.38-12.37,3.35-5.1,6.02-10.56,7.74-16.39,2.74-9.28,5.23-18.63,7.87-27.94.42-1.49.15-2.6-.99-3.7-3.81-3.67-7.55-7.41-11.32-11.12-.32-.31-.71-.56-1.24-.98-.14.52-.26.85-.31,1.18-1.68,11.51-4.77,22.67-8.66,33.63-5.01,14.12-11.38,27.64-18.85,40.66-2.73,4.75-5.56,9.45-9.58,13.32-2.46,2.37-5.3,4.18-8.46,5.41-1.37.53-2.98.59-4.49.59-1.73,0-2.35-1.75-1.64-3.46,1.45-3.49,4.08-6.2,6.14-9.28,7.62-11.42,14.1-23.44,19.72-35.92.13-.29.2-.61.41-1.28-.84.46-1.41.74-1.95,1.07-5.69,3.5-11.85,5.28-18.58,4.81-6.58-.46-12.13-3.18-16.72-7.77-5.41-5.42-8.21-12.17-9.68-19.48-1.17-5.8-2.07-11.65-3.04-17.49-.49-2.92,1.63-5.31,4.61-5.01,1.41.14,2.92.64,4.11,1.4,7.29,4.66,15.17,6.5,23.73,4.94,6.51-1.18,10.1-5.57,10.29-12.09.08-2.9-.62-5.61-1.8-8.24-2.22-4.93-5.66-9.05-8.97-13.28-2.18-2.79-4.96-4.11-8.38-4.6-2.32-.34-4.47,0-6.51,1.08-1.6.84-3.16,1.77-4.72,2.68-1.64.97-3.16.96-4.34-.07-1.2-1.04-1.36-2.49-.56-4.22,1.47-3.18,4.37-4.87,7.14-6.69.97-.64,2.06-1.1,3.37-1.78Zm-102.11-46.19c2.17.26,4.27.47,6.35.78,11.92,1.81,23.41,5.25,34.85,8.9,5.15,1.64,10.27,3.38,15.39,5.12.95.32,1.34.12,1.37-.87.03-.96.11-1.91.16-2.87.63-11.85-.17-23.56-3.29-35.07-2.67-9.83-7.58-18.24-16.01-24.38-6.98-5.09-14.74-8.04-23.53-7.5-7.36.45-13.45,3.34-16.88,10.18-2.78,5.54-3.64,11.48-3.23,17.63.42,6.33,2.18,12.37,3.81,18.46.83,3.12,1.96,6.23,1.03,9.62Zm94.45,99.33c.72,3.12,1.34,5.96,2.04,8.78.94,3.79,2.4,7.37,4.65,10.62,4.95,7.15,12.88,9.59,21.06,6.43,4.03-1.55,7.31-4.15,10.21-7.25,5.95-6.38,9.58-14,11.96-22.22,1.59-5.48,2.8-11.07,4.31-16.58.34-1.23.1-1.9-.9-2.61-5.51-3.94-10.99-7.92-16.49-11.89-.37-.27-.79-.48-1.48-.9.28.77.39,1.17.57,1.54.32.68.65,1.35,1.03,2.01,3.05,5.33,4.77,10.96,3.81,17.13-1.19,7.64-5.06,13.4-12.57,16.25-7.34,2.79-14.84,2.51-22.33.56-1.87-.49-3.68-1.16-5.87-1.86Z"/>
          <path class="cls-1" d="m225.82,332.41c-.8,4.13-1.55,8.27-2.43,12.38-1.03,4.85-2.37,9.64-3.24,14.52-1.17,6.58-1.36,13.24-1.1,19.93.16,3.98,0,7.97.03,11.96,0,.34.41.77.74,1.01,4.16,3,8.42,5.89,12.51,8.98,4.09,3.09,8.06,6.35,12.03,9.6,2.52,2.06,2.78,5.57.73,7.93-2.08,2.4-5.56,2.62-8.18.49-7.2-5.86-14.45-11.67-21.57-17.64-3.45-2.89-7.4-2.96-11.49-2.51-.87.1-1.7.72-2.51,1.15-9.97,5.22-20.08,10.21-29.85,15.77-6.1,3.47-11.68,7.81-17.51,11.73-1.22.82-2.56,1.46-3.84,2.18-.07.04-.15.07-.23.11-1.76.77-3.48.66-4.28-.26-.83-.96-.7-2.75.71-4.22,2.38-2.47,4.86-4.86,7.46-7.1,8.57-7.4,18.14-13.36,28.09-18.77,4.11-2.24,8.21-4.48,12.31-6.73,2.67-1.46,4.99-3.3,6.52-5.96.25-.43.27-.98.39-1.48-.52.01-1.07-.11-1.54.05-8.13,2.72-16.23,5.55-24.38,8.2-10.68,3.48-21.39,6.87-32.12,10.2-2.41.75-4.93,1.21-7.44,1.52-1.18.15-2.51-.21-3.66-.63-1.2-.43-1.76-1.81-1.16-2.92.62-1.13,1.42-2.32,2.45-3.06,3.18-2.27,6.85-3.59,10.57-4.76,9.79-3.07,19.54-6.29,29.39-9.2,8.34-2.47,16.78-4.62,25.2-6.86,1.58-.42,3.24-.71,4.87-.79,1.27-.06,1.71-.59,2.09-1.67,2.79-7.95,5.55-15.9,7.88-24.01,1.77-6.16,4.22-12.13,6.4-18.17.32-.89.76-1.77,1.29-2.57.9-1.35,1.94-1.77,3.08-1.4,1.1.36,1.65,1.35,1.81,2.99Z"/>
          <path class="cls-1" d="m313.84,392.75c2.56,1.34,5.14,2.66,7.68,4.03,11.46,6.19,22.91,12.39,34.36,18.61,1.22.66,2.36,1.48,3.48,2.29,2.31,1.67,2.93,4.56,1.55,6.89-1.38,2.33-4.29,3.32-6.84,2.04-3.46-1.74-6.82-3.68-10.22-5.55-7.82-4.33-15.65-8.63-23.44-13.01-6.54-3.68-13.01-7.46-19.52-11.2-.22-.12-.45-.23-.76-.38-.74.96-1.42,1.97-2.22,2.86-3.85,4.31-7.67,8.66-11.65,12.86-2.21,2.33-4.96,4.01-8.11,4.88-.69.19-1.83,0-2.28-.47-.5-.52-.71-1.59-.58-2.35.87-5.06,4.12-8.86,7.28-12.64,2.88-3.44,6.03-6.64,9.83-9.16.3-.2.52-.87.42-1.24-4.41-17.19-6.5-34.82-9.99-52.18-.83-4.13-1.8-8.23-2.65-12.35-.47-2.26.02-3.5,1.43-4.08,1.44-.6,2.65-.08,4,1.79,2.12,2.97,3.56,6.29,4.47,9.75,2.59,9.84,5.03,19.71,7.43,29.59,1.63,6.73,3.08,13.49,4.6,20.25.18.8.42,1.23,1.43,1.08,11.34-1.7,22.76-2.06,34.18-1.34,9.03.57,18.03,1.59,27.03,2.56,2.16.23,4.28.95,6.37,1.61,2.07.65,3.19,2.46,2.98,4.42-.22,2.03-1.71,3.44-3.93,3.8-3.18.51-6.33.13-9.47-.32-15.18-2.2-30.44-3.3-45.78-3.32-.33,0-.66.03-1,.05-.03.08-.05.15-.08.23Z"/>
          <path class="cls-1" d="m512.42,304.63c-.8-1.03-1.35-1.86-2.02-2.59-4.29-4.66-9.3-8.49-14.5-12.09-7.4-5.13-14.81-10.26-22.26-15.32-1.71-1.16-2.78-2.77-3.8-4.44-.22-.36-.14-1.13.13-1.46.26-.32.98-.51,1.43-.42,2.43.49,4.55,1.6,6.58,3.05,9.47,6.74,18.95,13.46,27.77,21.02,2.88,2.48,5.52,5.29,7.93,8.23,3.1,3.77,2.27,6.05-2.22,8.1-6.85,3.12-13.83,5.88-21.19,7.58-1.15.27-2.32.48-3.49.63-3.31.45-6.17-.5-8.63-2.72-3.43-3.1-6.03-6.86-8.61-10.62-5.58-8.15-11.17-16.3-16.73-24.47-.94-1.38-1.73-2.86-2.53-4.33-.49-.9-.65-1.92.34-2.58,1.06-.7,1.88.02,2.48.81,3.67,4.84,7.38,9.65,10.94,14.57,4.27,5.9,8.36,11.94,12.61,17.85,1.22,1.69,2.72,3.18,4.11,4.75,1.74,1.95,3.94,2.47,6.45,1.92,1.32-.29,2.65-.56,3.95-.93,5.44-1.56,10.88-3.14,16.3-4.76,1.57-.47,3.08-1.09,4.97-1.76Z"/>
          <path class="cls-1" d="m523.5,252.79c-2.18-.22-4.15-.43-6.11-.6-9.22-.81-18.42-.45-27.63.17-2.91.19-5.85.49-8.61-.81-.57-.27-.99-.86-1.48-1.3.45-.47.82-1.1,1.37-1.39,2.45-1.3,5.17-1.39,7.88-1.57,10.86-.7,21.72-1.08,32.56.15,1.62.18,3.27.48,4.81,1.01,1.9.66,2.85,2.57,2.48,4.54-.16.86-.39,1.71-.68,2.53-1.39,3.97-2.83,7.94-4.23,11.91-.67,1.9-1.63,3.57-3.89,3.79-.98.1-2.01-.07-2.99-.28-6.52-1.42-13.01-3-19.56-4.29-6.55-1.29-13.16-2.26-19.73-3.47-1.73-.32-3.42-.92-5.09-1.51-1.02-.36-1.78-1.11-1.45-2.31.35-1.26,1.43-1.27,2.48-1.12,14.64,2.12,29.35,3.87,43.73,7.44,1.05.26,1.49.05,1.84-.96,1.21-3.47,2.51-6.9,3.77-10.35.16-.43.28-.86.5-1.57Z"/>
          <path class="cls-1" d="m513.02,230.58c-1.99.33-3.67.5-5.29.91-3.21.81-6.47.66-9.71.63-.49,0-1.3-.63-1.38-1.07-.08-.46.43-1.26.91-1.51,4.27-2.26,8.92-3.28,13.7-3.79,1.59-.17,3.18-.41,4.72.41,1.01.54,1.72,1.26,1.84,2.38.12,1.11.22,2.25.09,3.35-.22,1.9-.53,3.8-.99,5.66-.77,3.16-2.45,4.45-5.71,4.37-10.28-.23-20.56-.52-30.84-.82-.92-.03-1.86-.18-2.74-.43-.8-.23-1.59-.84-1.25-1.72.22-.55,1.04-1.14,1.65-1.22,1.76-.22,3.54-.21,5.32-.24,8.89-.13,17.77-.24,26.66-.35,1.86-.02,1.89-.02,2.24-1.79.28-1.46.49-2.94.78-4.75Z"/>
          <path class="cls-1" d="m152,94c-5.61-.12-9.57-3.4-10.67-8.88-.25-1.26-.55-2.53-.59-3.8-.1-2.72,1.12-4.96,2.91-6.96,2.2-2.46,4.77-4.39,7.99-5.29,4.01-1.11,7.76-.6,11.03,2.13.71.59,1.4,1.22,1.99,1.92.59.69,1.29,1.44,1.51,2.27.76,2.9,1.19,5.78.2,8.82-.96,2.93-2.75,5.1-4.94,7.09-1.77,1.61-5.86,2.77-9.41,2.7Z"/>
        </g>
        <path class="cls-1" d="m345.62,311.82c.67-.8,2.28.07,1.96,1.05-.86-.02-1.15-1.38-.46-1.89s1.77-.14,2.23.58.42,1.65.2,2.48c-1.29.32-2.76-.25-3.49-1.34.88-1.3,3.34-.82,3.65.71.04.22.05.46-.05.67-.35.76-1.5.48-2.25.09-.71-.38-1.46-.79-1.92-1.45s-.53-1.66.06-2.2c.93-.85,2.4,0,3.34.83.29.26.61.59.55.97-.07.45-.6.64-1.05.75-.76.19-1.51.38-2.27.57-.94.24-2.43-.02-2.19-.94.89-.34,1.93-.43,2.78,0s1.4,1.48,1.06,2.36c-.29.75-1.23,1.2-2.01.96s-1.29-1.13-1.09-1.92"/>
      </g>
    </g>
  </g>
</svg>