<?xml version="1.0" encoding="UTF-8"?>
<svg id="Layer_2" data-name="Layer 2" xmlns="http://www.w3.org/2000/svg" viewBox="0 0 243.19 196.47">
  <defs>
    <style>
      .cls-1 {
        fill: #2b3c68;
      }

      .cls-1, .cls-2 {
        stroke-width: 0px;
      }

      .cls-2 {
        fill: #fad02e;
      }
    </style>
  </defs>
  <g id="Layer_1-2" data-name="Layer 1">
    <g>
      <path class="cls-2" d="m51.71,83.16c1.5-1.12-24.75-43.12-4.88-50.25s29.25,13.88,36.38,13.12S91.83,8.53,91.83,1.78s13.88,6,23.25,32.62-10.12,14.25,27.75-5.62,42,2.34,34.5,12.8,51.75,10.83,61.12,9.7,5.25,9.75-16.12,16.88-12.38,19.5-12.38,19.5c0,0-46.88,2.25-43.5,4.12s47.62,12.75,52.12,19.88-1.12,26.25-26.62,23.25-41.62-33.75-30-1.88-7.12,49.88-13.5,53.25-3.75-30.75-14.62-28.88-15.75,15-28.88,24.38-34.5,28.12-20.25-.75,12.75-34.88-17.25-27.38-54-6.38-32.25-23.25,69.38-10.12,22.88-17.62-67.12,0-54.38-11.25,21.75-18.38,31.5-19.12,16.5.75,16.5.75Z"/>
      <path class="cls-1" d="m100.46,86.24c4.86-11.06-20.25-34.2-2.44-24.27s12.75,33,21,12.38,12.94-28.5,14.25-19.69-3.56,21.94-3.56,21.94c0,0,17.62-10.31,20.62-9s-2.25,10.31-6.75,15.19,16.5,7.69,18,10.88-4.12,11.06-13.12,10.12-18.75-7.88-9.56.19,20.81,20.06,5.06,14.44-22.12-12.94-23.06-7.12,9.56,20.06,9.19,22.5-17.25,0-18.19-12.56-10.12-9-18-1.12-22.12,12.75-12.19.75,24.38-10.5,14.06-15.19-28.88-5.06-18.19-12.19,19.88-.41,22.88-7.23Z"/>
    </g>
  </g>
</svg>