<?xml version="1.0" encoding="UTF-8"?>
<svg id="Layer_2" data-name="Layer 2" xmlns="http://www.w3.org/2000/svg" viewBox="0 0 172.52 168.58">
  <defs>
    <style>
      .cls-1 {
        fill: #fbbd43;
      }

      .cls-1, .cls-2 {
        stroke-width: 0px;
      }

      .cls-2 {
        fill: #d94e26;
      }
    </style>
  </defs>
  <g id="Layer_1-2" data-name="Layer 1">
    <g>
      <path class="cls-1" d="m46.94,22.7c1.13-2.77,2.45-5.79,3.6-8.86C53.22,6.63,56.76.41,65.63.01c7.35-.33,15.3,4.74,18.14,13.24,3.05,9.09,4.72,18.64,6.96,28,.25,1.06.34,2.15.65,4.26,3.43-6.46,6.37-11.97,9.29-17.5,4.37-8.28,10.97-14.07,19.48-17.88,9.14-4.09,18.47,1.59,18.67,11.47.15,7.33.15,7.3,7.57,7.38,3.16.03,6.38-.12,9.46.46,7.14,1.35,13.52,4.02,15.81,11.9,2.19,7.56,0,14.27-4.81,20-7.22,8.6-16.41,14.53-27.04,18.18-2.03.7-4.07,1.37-7.05,2.37,1.75,2.39,3.3,4.21,4.53,6.23,4.97,8.21,10.09,16.34,14.6,24.8,1.48,2.78,1.73,6.44,1.82,9.71.31,12.23-6.74,18.02-18.64,14.82-4.96-1.33-6.48-.15-8.07,4.52-2.29,6.71-5.22,13.38-8.99,19.37-5.77,9.18-18.54,9.71-25.07,1.02-3.61-4.81-6.05-10.62-8.33-16.26-1.73-4.26-2.37-8.96-3.92-15.14-1.56,3.76-2.37,6.32-3.63,8.63-3.62,6.67-6.71,13.8-11.33,19.72-5.22,6.69-14.26,6.35-19.35-.48-2.85-3.81-4.58-8.82-5.58-13.55-1.72-8.15-1.92-8.18-10.08-9.35-7.15-1.02-14.51-2.53-21.02-5.49-8.58-3.91-11.36-13.23-8.79-22.48,2.59-9.34,8.67-15.83,16.74-20.2,7.26-3.93,15.17-6.68,22.8-9.91,1.33-.56,2.73-.95,4.6-1.58-4.55-5.03-9.11-9.37-12.83-14.34-4.97-6.63-9.38-13.69-13.83-20.69-1.12-1.77-1.65-4-2.12-6.1-2.38-10.74,4.31-18.14,15.32-16.52,4.87.71,9.58,2.5,15.34,4.07Z"/>
      <ellipse class="cls-2" cx="86.26" cy="84.29" rx="27.94" ry="22.5"/>
    </g>
  </g>
</svg>