<?xml version="1.0" encoding="UTF-8"?>
<svg id="Layer_2" data-name="Layer 2" xmlns="http://www.w3.org/2000/svg" viewBox="0 0 192.25 188.81">
  <defs>
    <style>
      .cls-1 {
        fill: #fbbd43;
      }

      .cls-1, .cls-2, .cls-3 {
        stroke-width: 0px;
      }

      .cls-2 {
        fill: #ffecd2;
      }

      .cls-3 {
        fill: #d94e26;
      }
    </style>
  </defs>
  <g id="Layer_1-2" data-name="Layer 1">
    <g>
      <path class="cls-3" d="m58.46,74.51S23.96,27.26,37.46,14.51s42.38-28.12,50.62,7.5,9.75,33,9.75,33c0,0,11.62-46.88,27-46.12s49.5,12.75,31.88,42.38-15,25.5-15,25.5c0,0,31.88-13.12,43.5,5.62s11.62,57.38-21.38,52.12-40.5-13.5-40.5-13.5c0,0,8.25,4.12,11.25,30.38s-9.59,36.38-21.29,37.12-43.96,2.62-38.71-30,.75-31.88.75-31.88c0,0-85.88,21.38-74.25-16.5s57.38-35.62,57.38-35.62Z"/>
      <path class="cls-2" d="m85.83,86.88s-15.88-18.5,1.75-23.5c15.57-4.42,13.58,13.31,12.91,17.5-.09.55-.16.87-.16.87,0,0,2.88-9.38,6.75-13.88s18,1.38,12.5,11-7.88,10.12-7.88,10.12c0,0,13.88-8.5,18,0s-5.88,20.88-14.88,16.62-4.88-2.75-4.88-2.75c0,0,7.75,6.25,1.5,13.12s-22.5,9.75-20.75-8.25l.75-4.12s-22,10.75-23.62-1.75,10-15.38,18-15Z"/>
      <ellipse class="cls-1" cx="100.58" cy="93.05" rx="12.03" ry="10.56"/>
    </g>
  </g>
</svg>