<?xml version="1.0" encoding="UTF-8"?>
<svg id="Layer_2" data-name="Layer 2" xmlns="http://www.w3.org/2000/svg" viewBox="0 0 337.94 450.62">
  <defs>
    <style>
      .cls-1 {
        fill: #1d1e1e;
      }

      .cls-1, .cls-2 {
        stroke-width: 0px;
      }

      .cls-2 {
        fill: #d94e26;
      }
    </style>
  </defs>
  <g id="Layer_1-2" data-name="Layer 1">
    <g>
      <path class="cls-2" d="m69.39,132.25c24.05,4.58,55.77-23.25,21.51-37.5S-21.64,49,26.87,22.75s86.81-33,132.16-3,65.19,32.25,46.65,72.75-38.79,63-9.54,55.5,81-30.75,84-5.25,6.9,49.69,21.07,48.47,23.18,13.03,19.43,25.03,10.5,25.56,15.75,27.78-3.54,23.63-14.9,23.43-33.85,76.29-48.1,98.04-20.25,31.5-20.25,31.5c0,0,26.23,40.15-9.39,46.7s-49.86,3.55-57.36,6.55-39.66-13.5-39.66-13.5c0,0-57.57-11.1-55.83-32.55s-55.26-75.88-53.01-109.41-57-41.54-31.5-56.29,31.77.47,37.63-15.39,9.62-93.86,25.37-90.86Z"/>
      <g>
        <path class="cls-1" d="m173.24,283.04c.31-.23.62-.45.94-.68,3.26-2.32,6.55-4.6,9.78-6.97.82-.6,1.53-1.41,2.13-2.25,5.76-8.09,13.37-13.6,22.91-16.32,6.61-1.88,13.21-1.84,19.57,1.1,7.38,3.41,11.58,10.5,10.95,18.63-.19,2.43-.82,4.82-1.26,7.23-.06.35-.17.68-.1,1.2.31-.25.62-.49.92-.74,3.75-3.05,7.49-6.11,11.25-9.16.53-.43,1.07-.92,1.7-1.15,1.19-.43,1.63-1.35,2.05-2.43,6.24-15.98,13.16-31.65,21.59-46.62.64-1.13,1.39-2.2,1.97-3.36.23-.46.33-1.14.16-1.61-1.43-4.12-2.97-8.21-4.4-12.34-.32-.93-.75-1.01-1.59-.73-6.01,2.06-11.89,4.45-17.52,7.42-.73.39-1.47.76-2.23,1.11-.59.27-1.32.43-1.56-.32-.12-.39.18-1.18.54-1.42,2.27-1.53,4.51-3.16,6.96-4.36,4-1.97,8.16-3.65,12.25-5.45.39-.17.78-.32,1.36-.55-.91-1.75-1.74-3.42-2.67-5.03-.11-.19-.85-.22-1.15-.06-2.51,1.35-4.98,2.76-7.46,4.17-1.35.77-2.66,1.6-4.03,2.32-.38.2-.92.11-1.38.15.13-.46.13-1.04.42-1.35,1.33-1.36,2.63-2.79,4.15-3.93,2.05-1.53,4.28-2.8,6.43-4.19.3-.19.61-.37,1.07-.64-.74-1.12-1.44-2.17-2.25-3.4-2.89,2.01-5.67,3.94-8.44,5.87-.12-.1-.24-.21-.36-.31.24-.51.37-1.13.74-1.51,1.72-1.79,3.51-3.51,5.28-5.25.3-.3.65-.56,1.07-.91-.46-.54-.85-1.04-1.29-1.5-9.8-10.45-21.86-16.16-36.08-17.78-14.73-1.68-28.47,1.25-41.62,7.8-9.11,4.54-17.56,10.11-25.78,16.08-9.67,7.01-19.36,14-29.01,21.03-.48.35-.89,1.07-.96,1.67-3.65,29.76-3.29,59.47,1.08,89.13,2.85,19.38,7.98,38.12,15.87,56.07,6.77,15.42,16,29.29,26.73,42.2,1.91,2.3,3.64,4.75,5.47,7.12.77.99,1.62,1.94,2.43,2.9.56.67.71,1.38.03,2.02-.63.6-1.31.47-1.94-.07-7.72-6.48-14.97-13.45-21.49-21.15-9.32-11.02-16.75-23.2-22.44-36.46-5.83-13.56-9.8-27.66-12.49-42.15-.05-.25-.1-.5-.17-.74-.03-.09-.11-.17-.27-.41-.34.42-.65.77-.93,1.15-4.49,6.08-10.31,10.28-17.7,12.02-7.98,1.87-14.84-.49-20.58-6.18-5.53-5.49-8.44-12.34-9.77-19.89-1.43-8.12-1.15-16.18,1.43-24.07,1.73-5.28,4.45-9.94,8.93-13.39,6.91-5.31,18.63-8.02,28.9-1.2,1.38.92,2.69,1.94,4.03,2.91.25.18.51.36,1.05.73-.46-14.98-.05-29.65,1.45-44.56-.67.38-1.14.6-1.56.88-11.41,7.54-23.33,14.12-36.02,19.28-6.06,2.46-12.26,4.51-18.64,5.94q-1.79.4-1.93,2.29c-1.16,15.64-.27,31.16,2.78,46.54,3.88,19.55,10.4,38.14,20.59,55.33,5.86,9.9,12.55,19.22,20.75,27.35,3.77,3.74,7.78,7.22,12.31,10.03,1.24.77,2.63,1.37,4.02,1.82.77.25,1.7.01,2.55.05.37.02.92.08,1.04.31.16.3.14.93-.08,1.16-.66.72-1.46,1.31-2.21,1.97.56.05,1.26,0,1.89.18,1.12.32,2.24.71,3.28,1.23.31.16.36.84.53,1.28-.44.1-.92.36-1.33.28-4.54-.85-8.68.06-12.41,2.76-1.7,1.23-2.98,2.83-3.75,4.8-.91,2.32-.31,4.09,1.94,5.13,1.76.81,3.64,1.35,5.44,2.07.38.15.65.55.98.83-.25.27-.47.71-.77.77-2.1.41-4.18.56-6.28-.25-4.36-1.7-6.15-5.84-4.05-10.03,2.29-4.57,6.02-7.47,11.01-8.69.35-.08.7-.16,1.07-.25-7.36-1.77-12.65-6.71-17.92-11.57-10.57-9.76-18.94-21.28-25.92-33.79-12.54-22.48-19.63-46.67-22.29-72.21-.91-8.77-1.06-17.57-.68-26.38.07-1.58.06-1.6-1.53-1.54-8.18.32-15.71-1.79-22.62-6.14-.15-.1-.3-.19-.45-.3-.74-.54-1.01-1.26-.56-2.07.46-.82,1.24-1,2.06-.62,1.8.83,3.55,1.77,5.36,2.58,5.51,2.46,11.29,2.78,17.19,2.17,1.03-.11.95-.79,1.01-1.46.69-8.43,2.01-16.76,3.95-25,3.44-14.59,8.51-28.55,16.24-41.46,4.14-6.91,9.04-13.23,15.11-18.57,4.78-4.21,10.1-7.48,16.5-8.56,6.33-1.07,12.24-.1,17.37,3.99,2.91,2.33,4.91,5.36,6.24,8.82,2.3,5.99,2.92,12.25,2.98,18.6.08,7.67-.81,15.27-1.61,22.88-.04.42-.06.84-.09,1.25.08.06.17.13.25.19,5.13-3.8,10.26-7.59,15.44-11.43-1.66-2.27-1.91-4.83-2.16-7.38-.53-5.24-.36-10.47,1.01-15.58.38-1.43,1.19-2.76,1.91-4.08.41-.75.6-1.56,1.43-2.17,1.14-.84,2.31-1.27,3.66-1.42,4.06-.44,8.07-.03,12.05.76,5.4,1.07,10.65,2.6,15.7,4.82.46.2,1.05.35,1.31.71.75,1.04,1.47.7,2.38.25,8.22-3.95,16.78-6.83,25.86-7.91,6.51-.78,13.04-.69,19.54.18.67.09,1.08-.05,1.59-.55.9-.86,1.91-1.67,3-2.27,2.15-1.18,4.34-2.3,6.59-3.26,5.05-2.14,10.13-4.2,15.22-6.23,1.4-.56,2.89-.89,4.36-1.26.95-.24,1.77.06,2.43.81.18.21.41.45.66.52,2.28.61,3.46,2.41,4.48,4.29,1.93,3.55,2.66,7.46,3.06,11.43.24,2.37.37,4.75.38,7.13,0,1.16-.27,2.36-.57,3.49-.21.77-.8,1.61-1.68,1.36-.59-.17-1.27-.91-1.43-1.52-.31-1.16-.29-2.42-.39-3.63-.28-3.34-.33-6.72-.9-10-.42-2.41-1.35-4.78-2.36-7.03-.81-1.82-1.19-1.85-2.93-.89-4.64,2.57-9.23,5.22-13.83,7.85-1.4.8-2.78,1.65-4.29,2.55.34.16.54.28.76.35,10.35,3.57,18.92,9.75,26.19,17.83.76.84,1.29,1.1,2.43.62,1.62-.67,3.37-1.04,5.09-1.43.31-.07.73.37,1.1.58-.26.38-.43.9-.78,1.12-1.54.99-3.13,1.89-4.8,2.88.76,1.18,1.42,2.29,2.18,3.32.14.2.7.23,1.01.15,1.46-.39,2.88-1.01,4.36-1.26,2.16-.35,4.36-.49,6.54-.62.32-.02.67.48,1.01.73-.28.32-.5.81-.86.94-3.07,1.15-6.17,2.23-9.25,3.34-.2.07-.38.19-.69.35.15.34.28.65.43.96.81,1.61,1.65,3.21,2.41,4.84.3.64.67.95,1.39.92.72-.04,1.45-.06,2.16.05.35.06.86.4.91.67.05.28-.31.8-.62.95-2.22,1.05-2.23,1.03-1.38,3.31.79,2.12,1.56,4.26,2.41,6.59.39-.46.65-.77.92-1.08,2.48-2.71,4.9-5.48,7.47-8.1,1.35-1.37,3.11-2.23,5.06-2.53,3.87-.59,6.62,1.14,8.62,4.3,1.88,2.95,2.47,6.29,2.75,9.69.58,7.01-.4,13.9-1.61,20.77-.33,1.88-.73,3.75-1.15,5.62-.17.73,0,1.18.73,1.41,2.82.88,5.63,1.77,8.45,2.65.55.17,1.1.34,1.66.46.94.2,1.88.43,2.84.51,1.11.1,1.88.65,1.96,1.62.08.92-.51,1.63-1.57,1.89-.49.12-1.01.17-1.46.39-4.53,2.18-9.07,1.5-13.58.02-1.04-.34-1.32-.12-1.63.86-7,21.87-14.87,43.42-24.25,64.39-5.52,12.36-12.1,24.2-18.64,36.05-7.85,14.22-15.46,28.56-22.42,43.24-1.6,3.37-2.92,6.87-3.43,10.57-.35,2.59-.36,5.23-.52,7.9.9,0,1.61-.02,2.32,0,3.68.14,6.86,1.35,9.07,4.45,1.65,2.32,1.62,5.75,0,7.96-.18.25-.47.43-.53.49.53,1.38,1.18,2.64,1.48,3.97.41,1.84-.24,3.41-1.8,4.55-2.02,1.47-4.28,2.22-6.79,2.11-1.26-.06-1.69-.29-2.45-1.24-.65,1.42-1.82,2.27-3.23,2.67-6.26,1.8-12.4,1.92-18.15-1.71-1.12-.71-2.11-1.63-3.11-2.5-.28-.24-.41-.67-.6-1.01.08-.1.17-.19.25-.29.62.31,1.25.58,1.84.93,3.8,2.26,7.84,3.79,12.31,3.35,1.93-.19,3.87-.81,5.69-1.53,1.67-.66,1.71-1.25.66-2.71-1.49-2.06-3.45-3.57-5.68-4.74-1.37-.72-2.78-1.37-4.13-2.13-.34-.19-.75-.71-.71-1.03.03-.33.52-.75.9-.89,1.59-.59,3.18-.52,4.74.17,3.31,1.46,6.08,3.59,8.16,6.56.87,1.24,1.42,2.6,1.22,4.32,2.05-.73,4.04-1.28,5.87-2.14,2.12-1,2.3-2.49.5-4.01-.9-.77-2.09-1.25-3.21-1.68-1.37-.53-2.83-.83-4.22-1.32-.36-.13-.88-.64-.84-.9.06-.38.49-.84.88-1.02,2.9-1.35,5.62-.65,8.24.86.27.16.54.33.83.5.64-3.18-1.63-6.97-4.78-7.97-4.13-1.3-7.89-.18-11.49,1.88-.45.26-.99.33-1.49.49.12-.6.04-1.39.39-1.78,1.05-1.16,2.26-2.17,3.43-3.25-.48-.62-1.18-1.34-1.66-2.19-1.35-2.37-1.32-4.98-1.06-7.59.57-5.8,2.63-11.15,5.17-16.32,7.51-15.33,15.45-30.44,23.79-45.33,11.17-19.94,20.88-40.54,28.52-62.09,3.88-10.95,7.79-21.89,11.68-32.83.17-.48.28-.97.45-1.45.24-.63.1-1.07-.48-1.47-6.23-4.25-10.59-10.03-13.73-16.81-.15-.32-.32-.63-.58-1.15-.32.48-.56.81-.76,1.15-6.51,11.35-12.1,23.17-16.92,35.31-4.99,12.57-9.61,25.29-14.29,37.98-5.98,16.18-11.92,32.37-17.76,48.6-2.61,7.26-4.93,14.63-7.39,21.95-.24.72-.48,1.44-.78,2.13-.32.74-.9,1.16-1.72.98-.87-.19-1.29-.86-1.23-1.68.08-1.22.25-2.44.48-3.64,1.98-10.16,5.22-19.96,8.63-29.7,6.74-19.24,13.55-38.45,20.33-57.68.13-.36.24-.73.18-1.23-.23.18-.49.34-.7.54-7.1,6.72-14.41,13.23-20.92,20.55-.36.4-.73.8-1.14,1.16-1.34,1.17-3.24,1.2-4.56.08-1.32-1.11-1.61-3-.67-4.51.34-.55.75-1.06,1.16-1.57,4.47-5.52,7.23-11.86,8.84-18.72.29-1.22.42-2.5.44-3.75.12-5.47-2.63-9.49-7.76-11.41-4.24-1.59-8.58-1.57-12.89-.4-9.19,2.5-16.06,8.05-21,16.14-9.87,16.15-8.3,38.62,3.78,53.06,3.7,4.42,8.31,7.54,13.76,9.41,1.16.4,2.33.79,3.44,1.31.66.31,1.36.76,1.79,1.33.82,1.11,1.59,2.4.75,3.79-.93,1.53-2.3,2.47-4.22,2.32-2.71-.22-5.2-1.15-7.63-2.29-8.48-3.97-14.78-10.27-19.14-18.46-7.37-13.86-8.73-28.36-4.21-43.41.07-.23.1-.47.2-.96-.47.35-.77.53-1.01.77-3.27,3.05-6.55,6.09-9.79,9.18-1.57,1.51-3.39,1.87-4.98.84-1.59-1.03-2.1-2.87-1.25-4.88,1.95-4.61,3.46-9.34,4.14-14.31.38-2.81.37-5.62-.3-8.39-1.8-7.54-9.45-10.35-15.68-5.72-3.28,2.44-5.16,5.87-6.46,9.66-2.51,7.3-2.74,14.79-1.65,22.35,2.02,13.99,6.93,26.88,15.3,38.32,4.36,5.97,9.76,10.9,16.25,14.55,1.35.76,2.74,1.44,4.01,2.31.42.29.7,1.08.68,1.63-.03.76-.72,1.03-1.46,1.18-4.65.94-8.76-.6-12.69-2.82-4.77-2.7-8.51-6.6-11.71-10.93-11.3-15.26-17.62-32.37-18.38-51.39-.31-7.67.99-15.13,4.45-22.06,2.37-4.76,5.69-8.71,10.7-10.9,11.8-5.15,21.76,2.09,23.99,12.41.95,4.38.78,8.75-.04,13.11-.1.52-.2,1.04-.3,1.56.09.05.18.1.27.15Zm-112.85-39.01c.84-.2,1.43-.32,2.01-.49,8.47-2.42,16.44-6.04,24.32-9.91,10.95-5.38,21.08-12.09,31.13-18.95.48-.33.87-1.08.94-1.68.59-5.01,1.14-10.04,1.63-15.06.7-7.08,1.33-14.16.71-21.28-.34-3.86-.9-7.68-2.66-11.2-1.61-3.21-4.18-5.19-7.78-5.72-3.43-.51-6.68.15-9.79,1.61-3.47,1.63-6.42,3.99-9.16,6.63-6.31,6.08-11.06,13.29-15.11,20.99-8.08,15.37-12.8,31.81-15.41,48.91-.3,1.95-.53,3.92-.83,6.14Zm52.4,67.72c.37-.48.64-.73.79-1.04,1.22-2.64,2.43-5.29,3.62-7.95.48-1.08.94-2.17,1.35-3.27.16-.42.26-.91.22-1.35-.53-5.82-1.07-11.64-1.68-17.44-.09-.89-.42-1.86-.93-2.59-3.06-4.3-7.03-7.54-11.92-9.54-6.18-2.52-14.34-.61-18.74,4.22-.68.74-.78,1.29-.15,2.14,2.24,3.05,4.38,6.18,6.62,9.23,5.77,7.84,11.56,15.67,17.38,23.48,1.03,1.38,2.22,2.64,3.46,4.11Zm-31.58-31.18c-.21.63-.37,1.02-.48,1.42-2.05,7.76-1.85,15.5.41,23.17,1.06,3.59,2.73,6.91,5.19,9.77,5.33,6.22,12.41,7.32,19.41,3.08.8-.48.75-.86.22-1.5-1.31-1.58-2.67-3.14-3.82-4.84-6.75-9.97-13.44-19.98-20.15-29.97-.21-.31-.43-.63-.78-1.14Zm216.98-42.07c.15-.53.29-.88.36-1.26.54-2.76,1.14-5.51,1.58-8.29.81-5.14,1.51-10.3.72-15.5-.24-1.57-.8-3.14-1.45-4.6-.57-1.26-1.49-1.44-2.69-.72-.83.5-1.67,1.07-2.29,1.79-2.72,3.17-5.37,6.4-7.99,9.66-.28.35-.34,1.14-.15,1.56,1.18,2.63,2.38,5.26,3.73,7.8,1.8,3.37,4.15,6.33,7.12,8.77.3.24.61.46,1.06.79Zm-150.88-45.28c6.44-4.59,12.73-9.07,19.26-13.72-1.88-.08-2.99-1.03-4.14-1.97-2.03-1.66-4.01-3.43-6.21-4.85-1.7-1.1-3.67-1.79-5.56-2.55-.96-.38-1.79.01-2.16,1.04-.35.98-.72,1.97-.92,2.98-1.09,5.39-1,10.81-.51,16.25.08.89.16,1.78.25,2.8Z"/>
        <path class="cls-1" d="m106.93,21.61c-16.34-.03-32.34,4.64-46.53,15.03-3.09,2.26-6.08,4.69-8.37,7.8-1.16,1.58-2.2,3.33-2.89,5.15-1.1,2.88-.32,5.42,2.23,7.15,1.89,1.28,3.98,2.44,6.15,3.09,5.97,1.81,12.01,3.38,18.05,4.95,8.7,2.27,17.38,4.59,25.61,8.28,5.59,2.51,10.88,5.52,15.55,9.52,4.88,4.18,8.07,9.29,8.5,15.86.29,4.36-.49,8.6-2.09,12.62-2.35,5.93-4.94,11.77-7.45,17.64-1.39,3.25-2.85,6.47-4.25,9.71-.34.79-.61,1.62-.84,2.45-.21.76-.48,1.46-1.41,1.27-.95-.2-.83-.98-.77-1.74.65-7.98,3.75-15.21,6.83-22.46,1.69-3.98,3.27-8.03,4.49-12.16,1.5-5.09,1.23-10.16-1.74-14.8-1.96-3.06-4.67-5.38-7.62-7.44-7.08-4.98-14.94-8.32-23.2-10.68-8.7-2.49-17.5-4.64-26.24-7.01-4.11-1.12-8.18-2.42-11.74-4.87-4.92-3.39-6.41-8.54-4.11-14.07,1.39-3.35,3.58-6.17,6.17-8.67,8.6-8.33,18.82-13.9,30.17-17.46,16.58-5.21,33.27-4.97,49.98-.64,11.84,3.07,22.94,7.82,32.79,15.2,8.22,6.15,15.19,13.46,19.77,22.75,6.62,13.42,6.78,27.07,1.06,40.84-3.97,9.54-9.85,17.85-16.67,25.53-7.96,8.96-16.87,16.89-26.42,24.11-1.35,1.02-2.83,1.86-4.29,2.71-.32.18-.83.03-1.26.04.16-.37.22-.86.49-1.09,2.35-1.97,4.77-3.85,7.12-5.82,10.84-9.15,20.88-19.08,29.15-30.67,5.07-7.11,9.12-14.74,11.01-23.33,3.14-14.2-.12-26.98-8.96-38.39-7.39-9.54-16.9-16.38-27.83-21.3-12.48-5.63-25.56-8.75-40.43-9.05Z"/>
        <path class="cls-1" d="m174.1,438.73c-.97,0-1.9.16-2.75-.03-2.97-.66-5.07-3.62-5.13-7.08-.09-4.83,3.86-10.37,8.65-12.01,1.04-.35,2.2-.58,3.28-.49.94.08,1.88.61,2.71,1.11.31.18.47.91.39,1.32-.05.23-.77.49-1.15.44-5.02-.61-8.78,3.24-10.22,7.52-.88,2.61-.14,4.55,2.09,6.12.56.39,1.11.79,1.76,1.25.05-.22.11-.38.12-.53.28-5.16,3.18-8.59,7.44-11.05.71-.41,1.65-.49,2.49-.54.34-.02.7.47,1.06.72-.28.28-.52.67-.86.83-3.2,1.44-5.35,3.85-6.59,7.09-.25.66-.39,1.39-.46,2.1-.25,2.48.62,3.76,3.05,4.32,1.92.44,3.88.74,6.05,1.15-1.76-2.57-1.74-5.12-.73-7.69.81-2.08,1.98-3.96,3.88-5.21.72-.47,1.64-.65,2.5-.85.26-.06.76.2.86.44.08.21-.2.62-.4.88-1.09,1.37-2.46,2.59-3.24,4.11-.64,1.24-.77,2.82-.8,4.26-.03,1.36.67,1.89,2.05,1.72,1.21-.14,2.44-.39,3.56-.84,4.32-1.73,8.22-4.16,11.76-7.19,1.81-1.54,2.42-3.37,1.99-5.68-1.4-7.59-2.71-15.2-4.12-22.79-.55-2.95-1.19-5.88-.88-8.9.04-.42.42-.81.64-1.22.38.3.92.51,1.13.9,2.34,4.47,2.68,9.47,3.65,14.29,1.17,5.83,2.32,11.67,3.42,17.52.64,3.37-.45,6.19-2.99,8.46-4.28,3.82-9.13,6.68-14.55,8.54-1.9.65-3.86.92-5.85.29-.2-.06-.52-.02-.66.11-3.6,3.07-11.67,1.5-13.13-3.39Z"/>
        <path class="cls-1" d="m231.01,214.02c1.92.99,2.61,3.08,4.59,3.74,1.03.35,2.04.42,2.88-.25,1.91-1.52,3.79-3.09,5.6-4.74.28-.26.25-1.1.07-1.55-.41-.99-1.07-1.88-1.5-2.87-.33-.74-.55-1.56-.65-2.37-.1-.81.41-1.13,1.16-.78.58.27,1.16.62,1.61,1.06,1.37,1.37,2.09,3.09,2.38,4.99.19,1.24-.27,2.31-1.13,3.14-2.09,2.04-4.2,4.06-6.37,6.01-1.17,1.05-2.68,1.4-4.16.86-3.05-1.1-6.04-.62-9.03.13-1.67.42-3.32.98-4.96,1.51-.37.12-.71.35-1.04.56-3.4,2.11-6.97,3.78-10.96,4.42-2.01.32-3.9-.06-5.62-1.09-2.78-1.68-5.14-3.84-6.92-6.58-.22-.34-.36-.73-.53-1.1.09-.07.17-.14.26-.22.42.39.84.79,1.25,1.18,1.5,1.4,2.94,2.87,4.51,4.19,1.74,1.47,3.83,2.02,6.08,1.59,6.58-1.26,11.84-4.56,15.54-10.21.17-.26.29-.56.35-.67-1.41-1.04-2.95-1.83-4-3.04-1.38-1.58-2.5-3.44-3.53-5.28-.94-1.69-.62-3.51.9-4.82,3.46-3.01,7.54-4.48,12.1-3.74,4.55.74,6.53,4.03,5.41,8.51-.69,2.77-1.74,5.36-4.28,7.41Z"/>
        <path class="cls-1" d="m213.94,194.7c.13,9.57-11.26,13.98-16.69,11.05-1.28-.69-2.54-1.56-3.54-2.61-4.38-4.57-5.73-13.37-2.97-19.06,1.61-3.33,4.1-5.66,7.85-6.33,2.67-.48,5.11.13,7.18,1.89.87.74,1.78,1.53,2.39,2.48,1.82,2.8,4.31,5.23,5.09,8.64.29,1.29.46,2.62.68,3.93Zm-21.57-3.84c.17,3.16.85,6.27,2.7,9.02,1.96,2.91,4.8,4.02,7.94,3.19,3.45-.91,6.16-3.98,6.48-7.19.29-2.92-.72-5.63-1.81-8.13-.88-2.01-2.68-3.75-4.38-5.25-2.5-2.21-5.46-1.93-7.85.42-2.18,2.15-2.99,4.86-3.09,7.94Z"/>
        <path class="cls-1" d="m249.83,190.76c.04,2.26-.35,4.8-2.2,6.88-3.09,3.49-8.69,3.8-12.55.73-5.31-4.23-6.82-13.63-3.1-19.3,1.24-1.89,2.86-3.22,5.15-3.63.23-.04.5-.14.65-.31.79-.91,1.83-1.03,2.76-.55,1.39.71,2.82,1.49,3.95,2.55,3.8,3.56,5.32,8.12,5.34,13.65Zm-4.32.06c-.1-1.03-.1-2.02-.29-2.97-.83-4.2-2.3-8.01-6.56-9.92-.47-.21-1.21-.22-1.68,0-2.1.98-3.32,2.75-3.85,4.94-.87,3.6-.23,7.03,1.5,10.25.95,1.76,2.38,3.08,4.29,3.78,2.86,1.05,5.76-.58,6.32-3.56.16-.85.18-1.72.27-2.52Z"/>
        <path class="cls-1" d="m135.84,417.04c.9-3.75,3.32-6.68,5.59-6.51-.31.48-.56.87-.81,1.27-.74,1.15-1.63,2.22-2.18,3.46-.79,1.79-.04,2.93,1.92,2.96,3.55.07,6.83-.96,9.87-2.75.93-.55,1.38-1.46,1.28-2.57-.06-.72-.25-1.45-.19-2.15.11-1.2.28-2.42.61-3.57.26-.91,1.32-1.07,1.72-.27.57,1.13,1.21,2.37,1.28,3.59.28,4.74-1.92,7.9-6.5,9.22-2.33.67-4.78,1.01-7.21,1.23-1.98.18-3.78-.49-4.91-2.37-4.43,1.94-8.87,1.59-13.32.23-.48-.15-.94-.38-1.38-.62-3.66-2.02-4.37-5.65-1.63-8.76,2.37-2.69,5.26-4.66,8.87-5.19,1.02-.15,2.16.26,3.19.57.28.08.38.75.56,1.15-.37.13-.74.36-1.12.38-4.02.22-7.16,2.01-9.41,5.33-.84,1.24-.56,2.43.8,3.07,1.22.57,2.57.94,3.9,1.17,1.49.25,3.02.18,4.52.36,1.5.18,2.97.5,4.53.78Z"/>
        <path class="cls-1" d="m190.98,208.27c1.09.21,1.91.32,2.7.55.32.09.57.44.85.67-.29.26-.55.69-.88.76-2.07.45-4.19.73-6.24,1.23-7.09,1.74-13.46,5.1-19.53,9.04-2.38,1.54-4.56,3.39-6.81,5.13-.55.42-1.07.86-1.7.26-.62-.58-.29-1.22.14-1.73.53-.63,1.1-1.25,1.73-1.78,6.87-5.83,14.53-10.26,23.2-12.81,2.2-.65,4.51-.92,6.53-1.32Z"/>
        <path class="cls-1" d="m176.7,202.46c1.4.09,2.51.13,3.62.26.35.04.67.36,1.01.55-.32.22-.62.58-.96.64-3.08.55-6.21.9-9.26,1.58-3.51.78-6.95,1.84-10.42,2.78-.31.08-.62.28-.92.28-.32,0-.63-.19-.95-.29.12-.34.15-.8.38-1,.49-.41,1.08-.72,1.66-.99,3.79-1.76,7.83-2.66,11.93-3.32,1.38-.23,2.78-.35,3.91-.49Z"/>
        <path class="cls-1" d="m228.12,230.92c-2.69,0-4.51-.55-6.04-1.9-.47-.42-.92-.93-.47-1.58.51-.73,1.14-.39,1.7-.02,1.66,1.09,3.44,1.35,5.37.9.76-.18,1.57-.21,2.35-.23.28,0,.77.18.79.32.04.29-.12.67-.32.91-1.06,1.25-2.49,1.63-3.39,1.61Z"/>
        <path class="cls-1" d="m170.16,195.05c.38-.13.75-.33,1.14-.37,3.72-.37,7.14.43,10.16,2.69.22.16.24.57.36.87-.32.05-.67.21-.96.13-2.73-.75-5.45-1.55-8.18-2.3-.83-.23-1.69-.31-2.54-.46,0-.19,0-.38.01-.56Z"/>
        <path class="cls-1" d="m205.68,193.65c-.1,1.11-.45,2.11-1.59,2.69-1.32.67-2.54.35-3.45-.61-.76-.81-1.41-1.84-1.77-2.89-.57-1.64,0-2.74,1.74-3.98,1.04-.74,2.13-.44,3.04.16,1.29.85,1.59,2.33,1.94,3.73.07.28.07.57.11.91Z"/>
        <path class="cls-1" d="m240.73,191.21c-1.5-.01-2.49-.75-2.67-1.98-.19-1.23.44-2.13,1.84-2.65.13-.05.28-.08.4-.15.85-.53,1.74-.84,2.56-.02.74.75,1.11,1.68.75,2.76-.36,1.1-.97,1.93-2.24,2.04-.21.02-.43,0-.65,0Z"/>
      </g>
    </g>
  </g>
</svg>