<?xml version="1.0" encoding="UTF-8"?>
<svg id="Layer_2" data-name="Layer 2" xmlns="http://www.w3.org/2000/svg" viewBox="0 0 361.65 537.86">
  <defs>
    <style>
      .cls-1 {
        fill: #1d1e1e;
      }

      .cls-1, .cls-2 {
        stroke-width: 0px;
      }

      .cls-2 {
        fill: #869e57;
      }
    </style>
  </defs>
  <g id="Layer_1-2" data-name="Layer 1">
    <g>
      <path class="cls-2" d="m18.22,78.87C18.97,36.99,63.97,12.24,63.97,12.24c0,0,41.11-7.5,77.55-11.25s52.55,3,50.87,23.25,13.32,27,35.07,30,32.25,13.87,33.75,19.68,36,14.82,42.75,34.32,21.75,49.5-1.5,68.25-22.21,47.21-22.21,47.21l-5.54,15.79s-24.75,14.25,20.25,24,97.5,57.6,44.25,59.55-99.29-15.6-103.65-16.57-50.85,135.52-26.1,151.27,35.25-35.21,64.5-47.98,73.5-24.77,39.75,38.98-76.5,111.75-125.25,78-54.75-95.25-39.75-136.5,33.75-107.17,22.5-113.59-19.5-22.16-36,3.34-37.13,82.35-60.94,43.05-38.81-73.05-29.06-88.05,15.75-18.75-3-24S-14.03,172.18,5.47,147.33s12.75-68.46,12.75-68.46Z"/>
      <g>
        <path class="cls-1" d="m154.16,148.12c2.02-3.09,3.95-6.34,6.15-9.39,5.2-7.19,11.99-12.63,19.45-17.31,9.76-6.12,20.38-10.27,31.27-13.83,3.8-1.24,3.36-.45,2.91-4.7-.61-5.73-1.38-11.44-1.98-17.17-.19-1.87-.15-3.78-.03-5.66.07-1.04-.16-1.44-1.22-1.52-3.48-.26-6.96-.71-10.44-.88-13.54-.66-26.72,1.67-39.75,5.09-2.24.59-4.44,1.31-6.68,1.87-1.04.26-1.31.79-1.25,1.81.89,15.58.49,31.16-.04,46.73-.05,1.53-.42,3.08-.82,4.57-.47,1.7-2.01,2.73-3.72,2.74-1.72,0-3.27-.99-3.75-2.7-.42-1.53-.79-3.13-.81-4.71-.23-12.89-.37-25.78-.55-38.67-.01-.84-.08-1.68-.3-2.61-5.65,12.73-13.55,23.53-25.86,30.85,1.51.59,1.45,1.73,1.24,2.83-.69,3.66-1.3,7.35-2.21,10.96-1.86,7.42-3.77,14.83-5.92,22.16-.92,3.13-2.47,6.08-3.81,9.08-.21.46-.87.72-1.32,1.08-.18-.54-.57-1.09-.51-1.6.13-1.21.47-2.39.76-3.76-.41-.13-.88-.28-1.36-.42-9.69-2.68-19.37-5.4-29.08-8.02-7.29-1.97-14.01-5.05-20.11-9.52-1.78-1.3-3.7-2.42-5.82-3.44.23.58.33,1.27.7,1.72,1.48,1.82,3.04,3.57,4.6,5.33.4.45,1.06.74,1.34,1.24.31.55.62,1.41.39,1.87-.23.46-1.19.91-1.72.8-5.35-1.09-10.21.38-14.89,2.73-1.52.77-2.89,1.85-4.32,2.79l.19.46c.47-.08.94-.13,1.4-.24,3.63-.83,7.26-1.67,10.9-2.5.41-.09.89-.25,1.25-.12.6.21,1.46.52,1.6.97.15.49-.23,1.37-.67,1.78-.63.6-1.52.93-2.3,1.38-3.27,1.86-6.55,3.72-9.82,5.57.06.13.12.26.18.4.81-.23,1.61-.56,2.44-.68,1.3-.19,2.61-.3,3.92-.31.36,0,.72.45,1.09.69-.23.32-.4.83-.7.93-3.3,1.12-6.59,2.26-9.94,3.17-.7.19-2.04-.33-2.39-.93-.34-.6-.11-2.02.41-2.52,1.84-1.8,3.9-3.38,5.91-5,.57-.46,1.28-.77,1.84-1.39-1.19.29-2.39.58-3.58.86-.41.1-.83.19-1.25.25-1.19.17-2.47.33-3.18-.9-.71-1.23.02-2.34.82-3.21,3.6-3.92,8.13-6.21,13.3-7.31.51-.11,1.02-.19,1.53-.27.46-.08.91-.14,1.63-.25-.44-.54-.75-.92-1.05-1.3-1.68-2.1-2.95-4.4-3.28-7.11-.34-2.77,1.41-4.13,4.02-3.13,1,.39,1.97.92,2.88,1.51,2.7,1.73,5.38,3.5,8.05,5.29,4.56,3.06,9.56,5.04,14.85,6.48,8.1,2.22,16.15,4.63,24.19,7.08,2.28.69,4.42,1.81,6.49,2.68,3.49-12.45,6.97-24.89,10.5-37.5-.68.32-1.36.64-2.05.97-14.28,6.83-28.06,6.26-41.09-3.04-9.45-6.74-13.91-16.24-14.55-27.69-.26-4.8.23-9.52,1.27-14.2.15-.69.28-1.38.41-2.04-8.31-4.68-11.81-15.95-7.69-24.52,2.7-5.61,8.52-6.66,12.82-2.17,1.31,1.37,2.19,3.16,3.25,4.77.25.38.4.81.58,1.18,2.26-2.81,4.33-5.69,6.71-8.28,6.23-6.77,13.46-12.17,22.36-14.92,9.69-2.99,19.35-2.77,28.88.88,5.05,1.94,9.6,4.62,13.42,8.47.09.09.24.12.57.29.06-.63.12-1.16.17-1.69.2-2.11.32-4.24.63-6.34.15-1-.02-1.47-1.04-1.7-2.17-.48-4.31-1.04-6.47-1.56-.32-.08-.65-.11-.97-.19-1.08-.28-2.37-.36-2.43-1.89-.04-1.01,1.1-1.89,2.74-1.94,1.83-.05,3.7-.06,5.5.25,6.2,1.06,12.31,2.49,18.19,4.78,2.06.8,3.98,1.82,5,3.91.26.54.49,1.35.26,1.8-.23.45-1.08.87-1.6.81-1.8-.2-3.61-.52-5.35-.99-1.52-.41-2.96-1.11-4.63-1.75-.68,6.44-.12,12.58.1,19.04.64-.47,1.04-.76,1.44-1.05,3.26-2.42,6.73-4.38,10.87-4.82,5.54-.59,9.08,2.49,9.05,8.05-.03,7.23-3.6,12.62-9.12,16.93-.4.32-.87.55-1.24,1.06.81-.21,1.63-.42,2.44-.64,9.22-2.51,18.47-4.86,28.06-5.3,12-.55,23.88.24,35.48,3.7,5.97,1.78,11.2,4.77,15.39,9.41,1.35,1.5,2.52,3.18,3.58,4.9.29.47.13,1.65-.26,1.99-.47.4-1.54.53-2.14.27-5.33-2.3-10.57-4.79-15.92-7.04-2.84-1.2-5.85-2.02-9.09-3.12.15.79.18,1.15.28,1.48,2.53,7.9,4.11,16,5.15,24.21.68,5.4-1.56,9.03-6.64,10.93-6.68,2.49-13.47,4.7-20.03,7.46-9.54,4.02-18.48,9.15-25.69,16.76-11.17,11.78-15.35,25.78-12.42,41.74,1.12,6.13,4.09,11.36,9.41,14.96,3.68,2.49,7.79,3.53,12.22,3.31.55-.03,1.09-.16,1.76-.26-.57-2.19-1.12-4.23-1.63-6.28-1.58-6.42-2.36-12.91-1.74-19.52.85-9.03,4.37-16.73,11.93-22.06,6.23-4.39,13.15-5.74,20.41-2.82,3.81,1.53,6.47,4.58,8.07,8.35,3.5,8.26,2.84,16.53-.48,24.65-4.08,9.98-10.95,17.54-20.34,22.8-1.05.59-1.18,1.17-.76,2.27,1.84,4.9,3.67,9.81,5.3,14.78.55,1.67.52,3.53.77,5.3.15,1.02.31,2.04.5,3.05.25,1.32-.15,2.36-1.34,2.99-1.13.59-2.22.39-3.1-.55-1.34-1.44-2.68-2.88-3.96-4.37-3.3-3.84-5.48-8.35-7.51-12.93-.59-1.34-1.23-2.66-1.7-4.05-.45-1.3-1.13-1.7-2.53-1.47-4.14.68-8.28.54-12.38-.37-7.64-1.7-13.46-6.04-17.72-12.47-5.79-8.74-7.22-18.52-6.45-28.75.47-6.17,1.87-12.12,4.29-17.83.07-.17.1-.36.11-.41-7.34,2.54-14.72,5.1-22.09,7.65,3.7,5.02,4.59,10.17,2.2,15.66-3.25,7.46-13.53,10.3-20.08,5.49-3.19-2.34-3.89-5.8-3.18-9.53.9-4.78,3.69-8.48,7.38-11.42,8.92-7.11,19.06-11.23,30.53-11.75,2.14-.1,4.27.22,6.19,1.25Zm-37.35-53.9c.08.23.09.39.17.47,2.55,2.5,5.1,5.02,7.71,7.46.19.18,1.01.05,1.23-.21,1.28-1.44,2.58-2.9,3.68-4.48,5.91-8.47,9.04-18.1,11.4-28.02.31-1.32.43-2.7.52-4.06.03-.44-.25-.99-.56-1.34-1.37-1.6-2.93-3.05-4.17-4.75-2.45-3.35-4.67-6.91-8.13-9.36-7.37-5.22-15.52-6.52-24.27-4.68-7.22,1.51-13.16,5.28-18.38,10.33-.27.26-.48,1.05-.32,1.24,1.86,2.11,3.8,4.16,5.79,6.29.31-.4.55-.73.81-1.04,1.26-1.5,3.11-2.18,4.51-1.55,6.21,2.79,6.87,9.55,3.35,12.85,3.38,4.25,6.75,8.49,10.24,12.88,1.53-3.22,3.81-4.72,7.17-4.04,2.3.46,3.94,2.34,4.13,4.81.28,3.62-1.16,6.22-4.9,7.18Zm-35.92-33.02c-1.53,2.53-3.01,4.76-4.27,7.1-4.02,7.51-6.56,15.45-6.41,24.08.26,14.98,11.99,26.01,26.75,25.04,7.36-.49,13.83-3.52,19.94-7.44.76-.49.73-.93.22-1.59-1.82-2.35-3.6-4.73-5.4-7.08-8.37-10.94-16.74-21.88-25.12-32.81-1.8-2.35-3.65-4.65-5.71-7.29Zm113.5,134.83c.71-.43,1.17-.66,1.56-.96,6.62-5.09,11.09-11.67,13.31-19.71,1.02-3.7,1.1-7.49-.13-11.18-1.01-3.02-3.01-4.18-6.11-3.72-2.52.37-4.65,1.53-6.45,3.29-2.58,2.53-4.06,5.66-4.79,9.15-1.16,5.53-.47,11,.8,16.42.51,2.18,1.17,4.33,1.82,6.71Zm-42.68-126.3c.18,2.97.36,5.95.55,9.15,1.45-.52,2.66-.95,4.01-1.44-.96-.92-.65-1.58.06-2.29,1.87-1.86,3.79-3.69,5.51-5.68,1.66-1.91,3.23-3.93,4.59-6.06,1.32-2.07,1.74-4.47,1.45-6.94-.22-1.89-1.15-2.79-3.03-2.92-.79-.05-1.61-.02-2.39.12-4.01.73-7.41,2.7-10.46,5.32-.31.27-.73.66-.73.99.02,2.16.14,4.33.23,6.49.61-.37.8-.86,1.16-1.1,1.14-.78,2.29-1.58,3.54-2.14.76-.34,1.42.13,1.27,1.1-.31,2.02-3.65,5.19-5.75,5.38Zm-90.99,4.2c.09-.1.22-.19.27-.31,2.06-4.6,4.12-9.2,6.13-13.81.15-.35.1-.99-.13-1.26-1.44-1.74-2.8-3.59-4.48-5.08-2.92-2.6-5.26-1.96-6.87,1.61-.15.34-.31.69-.42,1.05-1.76,6.04-.13,12.66,5.48,17.8Zm67.29,86.49c-.1.03-.31.02-.44.12-2.61,2.08-5.35,4.02-7.73,6.33-1.14,1.11-1.78,2.87-2.31,4.44-.55,1.63.11,2.44,1.81,2.86,4.32,1.06,8.36-1.86,8.66-6.38.16-2.43.03-4.89.03-7.37Z"/>
        <path class="cls-1" d="m223.33,272.33c-4.21-1.93-8.27-3.79-12.37-5.67-.49.76-.99,1.49-1.44,2.26-4.18,7-15.13,8.11-20.59,2.04-.61-.68-.98-1.57-1.27-2.56,4.06,2.97,8.39,4.01,13.16,2.66,2.68-.76,7.29-3.78,8.39-5.34-.81-.56-1.65-1.08-2.42-1.68-.78-.61-1.42-1.39-.77-2.42.65-1.03,1.59-.77,2.51-.36,5.31,2.35,10.62,4.7,15.93,7.05.25.11.51.19.91.34,1.18-2.18,2.35-4.33,3.52-6.48,6.83-12.58,13.54-25.21,18.74-38.58,2.3-5.91,4.37-11.91,5-18.25.3-3.03.33-6.15-.05-9.16-.94-7.42-5.19-12.28-12.28-14.62-2.46-.81-5-1.42-7.42-2.32-2.58-.96-3.88-3.06-3.67-5.44.22-2.47,1.87-4.28,4.67-4.76,4.65-.8,9.35-1.31,13.98-2.2,7.98-1.54,15.73-3.8,22.35-8.78,6.37-4.79,10.82-10.92,12.23-18.92.99-5.63-.36-10.61-4.54-14.64-6.56-6.33-14.57-9.67-23.43-11.11-4.94-.81-9.87-.74-14.7.92-1.75.6-3.34.02-4.27-1.34-.93-1.35-.78-2.93.27-4.48,1.34-1.97,3.31-2.9,5.48-3.51,6.3-1.77,12.63-1.43,18.93-.09,8.14,1.73,15.68,4.89,22.22,10.13,9.86,7.89,12.86,18.32,9.28,30.27-3.76,12.54-12.15,21.14-23.87,26.5-4.23,1.93-8.79,3.12-13.21,4.64-.38.13-.77.24-1.58.49,1.51,1.41,2.92,2.47,4.02,3.8,5.93,7.2,7.66,15.63,6.87,24.7-.81,9.28-3.87,17.97-7.37,26.51-5.62,13.7-12.66,26.7-19.76,39.66-10.72,19.56-20.88,39.38-29.12,60.13-6.9,17.38-12.13,35.26-15.9,53.57-2.38,11.57-4.28,23.22-5,35.03-.85,14.1-.52,28.14,2.55,42,1.63,7.36,3.97,14.51,7.97,20.96,3.66,5.91,8.09,11.11,14.97,13.45,6.32,2.15,12.66,1.65,18.95-.26,8.47-2.58,15.73-7.31,22.45-12.9,5.52-4.59,11.06-9.18,16.21-14.15,2.96-2.85,5.3-6.39,7.71-9.76,2.88-4.03,5.45-8.28,8.33-12.32,1.01-1.42,2.43-2.59,3.83-3.65,1.28-.97,2.81-1.21,4.16.03,1.58,1.46,3.03,3.09,1.96,5.42-1.37,3-2.77,6-4.44,8.83-5.08,8.63-11.27,16.42-18.44,23.4-8.66,8.42-17.86,16.18-28.7,21.71-8.51,4.34-17.49,6.83-27.17,5.99-9.02-.78-16.65-4.46-22.96-11-6.91-7.16-10.96-15.85-13.91-25.17-4.06-12.84-5.25-26.06-5.34-39.43-.13-18.09,2.47-35.86,6.27-53.49,3.03-14.05,6.89-27.86,11.68-41.42,4.51-12.75,9.78-25.18,15.73-37.31,4.51-9.2,9.32-18.25,13.99-27.36.24-.46.45-.93.75-1.53Z"/>
        <path class="cls-1" d="m179.47,251.14c-1.33-.27-2.39-.29-3.28-.69-7.69-3.5-15.34-7.08-23.01-10.6-4.24-1.95-8.52-3.82-12.85-5.77-.19.34-.36.6-.49.89-2.11,4.69-4.11,9.44-6.35,14.07-1.02,2.1-2.32,4.13-3.79,5.94-2.07,2.56-4.58,2.87-7.46,1.24-4.29-2.42-7.33-6.12-9.78-10.23-5.06-8.47-9.88-17.08-14.81-25.63-3.91-6.79-7.83-13.57-11.73-20.36-.35-.61-.67-1.25-.95-1.9-.61-1.42-.48-2.79.54-3.98,1-1.17,2.37-1.81,3.8-1.29,1.78.64,3.43,1.65,5.16,2.52.07-.64.1-1.56.3-2.43.45-1.99,1.76-2.69,3.59-1.77,1.15.58,2.12,1.51,3.27,2.36-.11.04.01.03.04-.02,1.34-2.67,2.52-2.99,5.1-1.31,3.52,2.28,5.98,5.59,7.77,9.22,3.12,6.29,5.84,12.78,8.71,19.19.4.9.72,1.83,1.33,2.75,0-.47.03-.93,0-1.4-.33-3.95-.74-7.9-1-11.86-.34-5.1-.4-10.21.68-15.23.3-1.4,1.02-2.72,1.65-4.03.16-.33.76-.7,1.06-.63.3.07.67.66.69,1.03.08,1.74.04,3.49.06,5.23.04,6.65.07,13.3.14,19.95.05,5.14.16,10.29.22,15.43.01.96-.04,2.16-1.16,2.29-.79.09-1.78-.43-2.46-.96-.59-.46-.99-1.26-1.27-1.99-2.6-6.69-5.15-13.39-7.73-20.09-1.89-4.91-4.13-9.64-7.5-13.74-.94-1.15-2.04-2.16-3.06-3.24-.14.07-.28.13-.42.2.09.8.17,1.61.28,2.41.15,1.12.43,2.24.43,3.37,0,.56-.36,1.41-.78,1.59-.43.18-1.28-.16-1.69-.55-.53-.49-.85-1.23-1.2-1.9-.79-1.5-1.48-3.06-2.35-4.52-.43-.72-1.14-1.28-1.73-1.91-.18.08-.36.16-.54.24.13.98.15,2,.42,2.95.58,2.04,1.31,4.04,1.96,6.06.28.87.58,1.83-.47,2.38-1.1.57-1.71-.23-2.34-.99-1.53-1.86-3.05-3.72-4.67-5.5-.59-.64-1.41-1.1-2.19-1.53-.31-.17-.8-.03-1.21-.03,0,.4-.11.85.05,1.18,1.08,2.26,2.2,4.49,3.33,6.72,6.32,12.52,13.08,24.81,20.48,36.72,2.3,3.7,4.93,7.32,7.97,10.42,4.65,4.75,6.53,3.3,8.88-1.33,2.93-5.75,5.3-11.79,7.85-17.73,3.41-7.93,6.79-15.88,10.15-23.84,1.03-2.43,1.93-4.91,2.88-7.37.29-.75.45-1.72,1.55-1.43,1.03.28.9,1.24.75,2.02-.26,1.34-.48,2.72-.97,3.98-2.96,7.66-6,15.29-9.01,22.92-.45,1.13-.88,2.28-1.35,3.52,11.16,2.44,20.44,9.04,30.84,12.97,2.24.85,4.45,1.81,6.8,2.78.44-6.06,3.3-10.77,7.45-14.85-2.99-4.34-6.64-8.13-10.61-11.64-3.08-2.72-6.07-5.54-9.09-8.32-.42-.38-.85-.77-1.18-1.22-.15-.21-.07-.58-.09-.88.3-.02.68-.16.89-.04.8.49,1.6,1.01,2.31,1.62,5.52,4.73,11.04,9.47,16.51,14.26,1.13.99,2.12,2.15,3.08,3.32,1.23,1.5,1.09,2.44-.32,3.69-.35.31-.62.72-.89,1.1-2.28,3.24-4.04,6.72-4.63,10.68-.29,1.94.12,3.77,1.32,5.36,1.09,1.45,2.3,1.51,3.3-.01.82-1.24,1.34-2.69,1.95-4.06.54-1.2.98-2.45,1.58-3.62.17-.34.76-.71,1.09-.66.33.05.77.58.84.96.18.96.46,2.05.18,2.92-.73,2.26-1.4,4.66-2.7,6.6-2.46,3.69-6.58,3.47-9.07-.21-.45-.66-.8-1.38-1.04-1.8Z"/>
        <path class="cls-1" d="m310.98,291.63c-8.11-.94-15.39-4.41-22.23-8.92-11.82-7.78-24.35-14.26-37.03-20.48-1.16-.57-2.27-1.38-3.16-2.3-.43-.44-.61-1.61-.32-2.11.3-.51,1.38-.94,1.99-.81,1.26.26,2.53.78,3.65,1.43,10.79,6.33,21.54,12.73,32.33,19.06,6.46,3.79,13.35,6.63,20.48,8.89,3.05.97,6.19,1.36,9.37.95,2.29-.29,4.3.69,6.3,1.42,1.01.37,1.88,1.71,2.35,2.81,1.11,2.56.88,5.2-.45,7.65-3.39,6.26-8.36,10.9-14.8,13.9-.96.45-2.24.22-3.38.3-.13,0-.29-.1-.41-.07-2.99.79-5.49-.63-7.9-1.97-16.05-8.92-32.06-17.91-48.07-26.9-2.47-1.39-4.9-2.84-7.28-4.37-.9-.58-2.3-1.34-1.53-2.61.73-1.22,1.91-.14,2.73.3,9.27,4.98,18.52,9.99,27.76,15.03,8.95,4.88,17.85,9.86,26.84,14.68,2.36,1.26,4.93,2.14,7.45,3.06.56.21,1.44.09,1.97-.22,5.49-3.25,9.93-7.63,13.6-12.82.27-.38.51-.8.68-1.24.56-1.45.24-2.82-.65-4.01-.77-1.04-1.95-.85-3.01-.6-5.21,1.28-7.8,5.11-9.44,9.83-.09.27-.13.55-.2.83-.19.84-.57,1.75-1.52,1.45-.56-.18-1.24-1.12-1.25-1.72,0-1.19.17-2.52.73-3.54,1.31-2.37,2.89-4.6,4.39-6.92Z"/>
        <path class="cls-1" d="m78.81,271.27c0-1.29.23-2.62-.04-3.85-1.04-4.83.67-8.6,4.18-11.77,1.16-1.04,2.29-2.12,3.55-3.03.52-.38,1.33-.36,2.01-.53-.24.62-.35,1.33-.73,1.85-.72.99-1.64,1.83-2.39,2.79-1.01,1.3-2.16,2.56-2.84,4.03-.58,1.26-.74,2.78-.8,4.2-.11,2.48.17,4.98-.05,7.45-.1,1.13-.79,2.34-1.53,3.25-1.31,1.59-3.36,1.2-4.28-.62-.04-.08-.09-.17-.12-.26-1.32-4.03-2.75-8.02-3.94-12.09-1.13-3.84-.56-7.62,1.8-10.81,2.89-3.89,6.19-7.47,9.23-11.25,3.34-4.15,6.58-8.37,9.87-12.55.03-.04.05-.08.08-.12.72-.84,1.31-2.02,2.71-1.53.86.3,1.17,2.02.35,3.33-1.6,2.55-3.26,5.1-5.18,7.4-3.38,4.06-7.03,7.9-10.47,11.91-1.41,1.64-2.67,3.43-3.82,5.25-1.51,2.39-1.89,5.08-1.09,7.77.92,3.11,2.11,6.13,3.18,9.19.11,0,.22-.01.32-.02Z"/>
        <path class="cls-1" d="m46.16,186.9c3.49,1.76,6.92,3.33,10.21,5.17,9.8,5.49,19.55,11.06,29.3,16.65,2,1.15,3.96,2.39,5.8,3.77.65.49.9,1.5,1.33,2.28-.92.12-1.95.55-2.75.3-1.69-.53-3.36-1.27-4.87-2.2-8.26-5.05-16.41-10.26-24.71-15.24-4.94-2.96-10.1-5.53-15.1-8.39-2.58-1.47-5.03-3.16-7.5-4.82-.56-.38-.93-1.05-1.39-1.58.14-.19.27-.38.41-.57,2.44,1.2,4.88,2.4,7.45,3.66.29-2.41,1.3-4.42,2.78-6.24,1.49-1.82,3.37-3.02,5.6-3.64.41-.11.92.09,1.38.15-.18.43-.27.93-.55,1.28-2.32,2.9-4.68,5.76-7.02,8.65-.14.18-.21.42-.37.77Z"/>
        <path class="cls-1" d="m104.3,291.62c-.67-.51-1.39-.79-1.59-1.28-.2-.5-.08-1.33.22-1.81,1.13-1.76,1.28-2.94-.12-4.55-1.07-1.23-2.39-2.26-3.7-3.25-1.62-1.22-3.37-2.25-5.02-3.44-4.14-2.98-5.26-6.87-2.89-11.37,1.46-2.77,3.19-5.5,5.25-7.84,3.11-3.52,6.62-6.7,9.99-10,.5-.49,1.1-.92,1.74-1.18.4-.16,1.13-.11,1.38.16.23.25.2,1.04-.04,1.36-.88,1.16-1.86,2.25-2.84,3.33-3.16,3.49-6.43,6.9-9.47,10.5-1.35,1.6-2.36,3.53-3.27,5.43-1.27,2.67-.65,4.82,1.77,6.56,2.26,1.62,4.63,3.09,6.91,4.67,2.43,1.69,4.31,3.81,4.84,6.86.26,1.49.2,2.98-.83,4.16-.58.66-1.46,1.06-2.35,1.67Z"/>
        <path class="cls-1" d="m111.02,189.36c-1.07-.17-2.16-.24-3.2-.52-11.65-3.06-23.18-6.51-34.27-11.27-2.46-1.05-4.73-2.55-7.06-3.88-.57-.32-1.14-.73-1.54-1.23-.37-.46-.52-1.09-.77-1.65.64-.03,1.36-.25,1.91-.04,5.91,2.24,11.71,4.77,17.69,6.8,7.5,2.56,15.15,4.68,22.7,7.1,2,.64,3.89,1.65,5.77,2.6.43.22.63.89.94,1.36-.53.2-1.05.42-1.58.61-.17.06-.37,0-.56,0,0,.04-.01.07-.02.11Z"/>
        <path class="cls-1" d="m192,260.81c1.13-6.25,5-8.3,8.84-4.65.17-.22.35-.41.49-.64.73-1.21,1.71-2.05,3.21-1.93,1.54.13,2.6,1.02,3.29,2.37.04.08.1.17.11.26.1.75.18,1.5.27,2.26-.69-.23-1.45-.34-2.06-.7-1.61-.96-2.05-.91-2.4.9-.29,1.46-.31,2.99-.31,4.48,0,1.07.02,2.11-1.29,2.27-1.32.16-1.75-.79-1.99-1.91-.33-1.5-.61-3.04-1.17-4.45-.27-.69-1.14-1.13-1.74-1.69-.53.66-1.38,1.27-1.53,2.01-.36,1.78-.4,3.62-.54,5.44-.03.37.2.79.1,1.12-.2.62-.43,1.49-.89,1.68-.44.18-1.29-.25-1.76-.64-1.53-1.31-2.86-2.87-4.47-4.06-1.54-1.14-2.28-.76-2.59,1.12-.21,1.28-.1,2.62-.19,3.93-.03.42-.24.83-.37,1.25-.42-.14-.94-.17-1.24-.44-2.18-1.97-1.87-7.68.5-9.4,1.3-.94,2.77-.97,4.19-.39,1.21.49,2.33,1.19,3.54,1.82Z"/>
        <path class="cls-1" d="m66.71,277.96c.74-2.95,1.48-6.15,2.37-9.3.14-.5.95-.8,1.45-1.2.19.61.62,1.25.54,1.82-.28,1.91-.77,3.78-1.11,5.69-1.01,5.59.88,10.42,4.11,14.82,1.56,2.12,3.41,4.02,5.08,6.06.62.75,1.19,1.57,1.63,2.44.19.38.19,1.13-.06,1.4-.24.25-.95.22-1.39.09-.52-.15-1.07-.45-1.44-.84-4.17-4.35-7.96-8.98-9.84-14.83-.6-1.86-.85-3.84-1.34-6.15Z"/>
        <path class="cls-1" d="m98.65,294.4s0,.09,0,.14c.01,1.59-.66,2.99-1.61,2.98-1.59,0-1.81-1.38-1.95-2.5-.46-3.46-2.3-6.23-4.14-9.05-1.5-2.28-2.88-4.65-4.21-7.03-.26-.46-.05-1.19-.06-1.79.54.2,1.25.24,1.59.62,3.5,3.83,7.07,7.63,9.28,12.41.61,1.3.87,2.77,1.3,4.16-.06.02-.13.04-.19.06Z"/>
        <path class="cls-1" d="m92.05,296.82c-.01.24.05.52-.06.7-.43.67-.91,1.3-1.38,1.94-.58-.48-1.41-.85-1.68-1.47-1.14-2.58-2.02-5.28-3.16-7.86-1.18-2.67-2.56-5.25-3.84-7.88-.21-.42-.5-.85-.54-1.29-.05-.45.16-.93.25-1.4.46.12,1.08.09,1.35.39.88.98,1.74,2,2.4,3.13,1.96,3.32,3.89,6.67,5.7,10.08.58,1.09.77,2.4,1.14,3.6-.06.02-.12.04-.18.06Z"/>
        <path class="cls-1" d="m296.37,298.16c-.82.09-1.44.36-1.83.17-2.88-1.37-5.76-2.78-8.56-4.3-1.61-.87-3.11-1.95-4.61-3.01-.74-.52-1.47-1.25-.9-2.25.58-1.02,1.57-.72,2.39-.35,4.69,2.15,9.23,4.52,12.68,8.52.21.24.37.52.85,1.21Z"/>
        <path class="cls-1" d="m209.39,223.18c.45.38.92.73,1.33,1.14,2.57,2.56,5.2,5.06,7.65,7.73,1.62,1.75,3.08,3.68,4.39,5.67.54.82.69,2.05.62,3.07-.07,1.16-1.08,1.4-1.92.59-.4-.39-.77-.85-1-1.35-1.58-3.48-4.05-6.33-6.5-9.2-1.49-1.75-2.83-3.64-4.18-5.51-.38-.53-.56-1.22-.83-1.83l.44-.31Z"/>
        <path class="cls-1" d="m81.35,290.63c-.16.26-.26.65-.49.76-.23.11-.68.05-.88-.12-.58-.47-1.16-.98-1.61-1.57-2.23-2.95-3.54-6.32-4.09-9.95-.09-.63.3-1.72.79-1.96.93-.46,1.33.5,1.66,1.25,1.25,2.89,2.53,5.77,3.74,8.68.38.9.57,1.88.87,2.91Z"/>
        <path class="cls-1" d="m202.77,245.92c.04-4.39,3.99-7.99,8.05-7.6.39.04.74.43,1.11.65-.23.36-.4.82-.72,1.08-1.1.88-2.44,1.53-3.34,2.57-1.08,1.24-1.8,2.78-2.67,4.19-.27.44-.51.89-.77,1.33-.48-.38-1.05-.69-1.41-1.16-.25-.33-.22-.89-.25-1.05Z"/>
        <path class="cls-1" d="m37.32,182.08c-.61-2.61,1.1-4.41,3.58-3.94-1.21,1.33-2.27,2.49-3.58,3.94Z"/>
        <path class="cls-1" d="m91.79,53.63c.33-.6.56-1.31,1.02-1.8,3.67-3.91,11.78-4.84,16.32-1.92,3.23,2.08,4.37,4.95,3.47,8.94-.31,1.38-.76,2.73-1.06,4.11-.16.73-.23,1.51-.16,2.24.17,1.63.97,2.38,2.62,2.34,1.65-.04,3.29-.27,4.93-.43,5.05-.49,9.06,1.17,11.43,5.81.63,1.23.69,2.78.87,4.2.05.39-.34,1.08-.69,1.21-.32.12-1-.2-1.27-.52-.78-.94-1.55-1.91-2.11-2.99-1.59-3.04-4-4.55-7.45-4.35-1.55.09-3.11.23-4.67.23-4.71.01-7.19-2.86-6.4-7.5.28-1.67.85-3.29,1.23-4.94.85-3.72-.63-6.33-4.32-7.33-4.36-1.18-8.41-.25-12.16,2.17-.41.27-.82.54-1.22.81-.13-.1-.26-.2-.39-.3Z"/>
        <path class="cls-1" d="m94.05,108.97c.35-.69.54-1.57,1.09-2.02.93-.76,1.24-1.7,1.47-2.78.21-1.01.49-2.02.83-2.99.52-1.5,1.82-2.21,3.2-1.84,1.43.38,2.14,1.71,1.81,3.34-.46,2.3-.9,4.61-1.35,6.92-.37,1.91-2.51,3.42-4.43,3.13-1.52-.23-2.39-1.55-2.62-3.76Z"/>
        <path class="cls-1" d="m64.17,64.49c-.26.1-.69.44-1.05.39-1.31-.21-4.41-3.95-4.5-5.36-.06-.83.44-1.09,1.18-.94,1.53.31,4.43,4.01,4.37,5.91Z"/>
      </g>
    </g>
  </g>
</svg>