<?xml version="1.0" encoding="UTF-8"?>
<svg id="Layer_2" data-name="Layer 2" xmlns="http://www.w3.org/2000/svg" viewBox="0 0 417.88 539.91">
  <defs>
    <style>
      .cls-1 {
        fill: #1d1e1e;
      }

      .cls-1, .cls-2 {
        stroke-width: 0px;
      }

      .cls-2 {
        fill: #ffecd2;
      }
    </style>
  </defs>
  <g id="Layer_1-2" data-name="Layer 1">
    <g>
      <path class="cls-2" d="m109.95,292.66c39.04-.66,93.5-20,102.5-45.5s7.89-37.5,7.89-37.5c0,0-135.39-12-89.89-57.5s60.05-20,59.02-31-21.52-74.5-2.02-97,50.5-43,71.5,5.5,27.5,80,36.5,80,19.5-5,20,11.5-21,19.11,3.5,36.31,61,33.69,62.5,75.69,1.5,82.5-9,98.5-63.5,66-16,81.5,49-14.15,56.5-8.83,11,53.33-24,51.83-56.5,0-63.5,1.5-5.5,14.5-11,24.5-40,89-71,44-41.5-50.32-46.5-51.66-21.5,10.16-87.5,3.66-132-8.5-102-52.5,38-42,29.5-63.5-14.12-85,15.19-81.5,28.31,12.5,57.81,12Z"/>
      <g>
        <path class="cls-1" d="m219.95,32.52c.96.2,1.92.37,2.87.59,3.27.76,6.25,2.2,9.06,3.97,9.91,6.25,18.12,14.3,25.03,23.73,3.34,4.56,6.27,9.36,8.5,14.57,1.95,4.56,3.34,9.3,4.54,14.1,1.76,7.1,3.38,14.23,5.18,21.32,2.66,10.47,6.06,20.68,11.1,30.28,1.03,1.97,2.21,3.86,3.34,5.78.19.32.46.6.93,1.2.1-.93.19-1.53.23-2.13.24-3.25.41-6.51.73-9.75.12-1.21.51-2.42.94-3.56.47-1.26,1.48-1.85,2.63-1.79,1.2.06,2.2.81,2.47,2.19.34,1.74.58,3.51.67,5.28.29,6.03.14,12.06-.4,18.07-.09.95.25,1.62.86,2.25,2.87,2.93,5.68,5.92,8.6,8.8,6.83,6.73,13.77,13.35,20.55,20.13,7.24,7.25,13.86,15.06,19.48,23.65,4.25,6.49,7.61,13.41,9.34,21.02.27,1.2.36,2.44.42,3.67.07,1.38.03,2.76.04,4.14.01,1.12-.51,1.96-1.47,2.34-.95.37-2.05.1-2.65-.76-1.04-1.49-2.15-2.96-3.01-4.55-1.45-2.69-2.85-5.43-4.05-8.24-3.65-8.48-8.68-16.06-14.51-23.17-6-7.32-12.67-13.99-19.38-20.63-4.85-4.8-9.61-9.68-14.42-14.52-.3-.3-.62-.58-1.11-1.04-.14.64-.25,1.05-.33,1.46-1.37,7.63-2.73,15.27-4.11,22.9-.19,1.07-.44,2.13-.68,3.19-.3,1.37-.31,1.38.9,2.14,1.3.81,2.65,1.54,3.92,2.4,1.8,1.22,3.66,2.37,5.26,3.82,1.87,1.68,3.94,2.96,6.12,4.13,7.03,3.78,13.17,8.71,18.67,14.47,4.47,4.69,8.85,9.45,12.85,14.55,7.89,10.03,14.69,20.71,19.3,32.68,1.28,3.32,2.37,6.7,2.98,10.23.29,1.69-.08,3.27-.76,4.75-.84,1.86-3.02,2.19-4.79.98-1.99-1.35-3.03-3.34-3.92-5.44-1.58-3.73-3.12-7.48-4.69-11.21-2.48-5.9-5.79-11.35-9.28-16.69-3.98-6.1-8.53-11.76-13.29-17.25-.38-.43-.78-.84-1.45-1.15,0,.46-.04.93,0,1.39.89,8.85,1.78,17.7,2.68,26.55.08.84.12,1.68.23,2.51.27,2.07-.63,3.66-2.09,4.97-1.98,1.78-4.77,1.36-6.07-.95-.83-1.46-1.52-3-2.24-4.51-2.95-6.25-7.78-10.1-14.58-11.41-1.01-.19-2.06-.2-3.1-.19-1.69,0-3.01.79-3.62,2.36-.71,1.84-1.34,3.72-1.76,5.64-.91,4.15-.38,8.27.63,12.33,2.21,8.84,5.51,17.25,10.48,24.9,5.06,7.79,11,14.85,18.39,20.59,2.43,1.89,5.03,3.5,7.87,4.71,3.88,1.65,7.01.44,8.82-3.37,1.15-2.44,1.72-5.04,2.16-7.68.24-1.41.57-2.81.84-4.21.26-1.38.84-2.62,1.58-3.8.33-.52.51-1.17.63-1.78.3-1.43,1.2-2.34,2.45-2.34,1.3,0,2.22.99,2.48,2.48.14.81.36,1.65.75,2.37.99,1.83,1.05,3.81.96,5.77-.13,2.78-.81,5.48-1.75,8.09-.77,2.13-1.53,4.29-2.61,6.28-2.57,4.75-6.72,7.04-12.07,7.3-3.71.18-6.97-1.12-10.14-2.82-5.86-3.14-10.86-7.37-15.37-12.2-4.77-5.1-9.11-10.55-12.74-16.53-3.24-5.34-5.77-11.03-7.85-16.91-1.37-3.87-2.56-7.79-3.32-11.83-1.18-6.32-.69-12.51,1.53-18.53.82-2.23,1.99-4.27,3.82-5.91,2.19-1.96,4.78-2.77,7.6-2.86,5.91-.2,11.14,1.84,15.94,5.14.37.25.71.53,1.06.8.35.27.7.54,1.1.85.5-.54.25-1.15.25-1.69-.09-5.53-.24-11.07-.29-16.6-.02-1.92.15-3.85.36-5.76.09-.84-.11-1.38-.67-1.97-3.69-3.85-7.95-6.96-12.56-9.61-4.41-2.53-8.82-5.09-13.23-7.62-.38-.22-.78-.39-1.32-.65-.2.52-.4.96-.54,1.41-2.93,9.4-6.52,18.55-10.55,27.53-3.35,7.45-7.1,14.68-11.34,21.66-4.16,6.85-8.55,13.56-13.96,19.5-2.22,2.44-4.72,4.64-7.16,6.87-.63.58-1.56.84-2.32,1.29-.93.55-1.86,1.11-2.72,1.75-1.08.8-2.22.84-3.08-.02-.84-.83-.9-2.09,0-3.06.84-.9,1.26-1.99,1.73-3.08.39-.9.8-1.81,1.35-2.61,4.07-5.84,8.2-11.63,12.28-17.47,5.44-7.8,10.18-16.01,14.34-24.56,5.16-10.59,9.51-21.51,13.13-32.72.93-2.87,1.04-2.29-1.35-4.21-7.2-5.81-15.59-8.58-24.62-9.77-7.54-.99-15.09-.68-22.65-.36-6.71.28-13.43.64-20.15.32-10.13-.48-19.51-3.46-28.29-8.42-9-5.08-17.13-11.35-24.65-18.41-1.87-1.76-3.58-3.66-4.45-6.2-.77-2.25-.33-4.32.83-6.22,1.1-1.8,2.79-3.03,4.65-4.03,3.73-2,7.69-3.37,11.76-4.44,12.37-3.27,24.94-4.08,37.65-2.95,3.49.31,6.97.82,10.45,1.23.24.03.48,0,.99,0-.27-.55-.45-.96-.67-1.36-2.69-4.83-5.52-9.6-8.06-14.51-5.08-9.8-8.68-20.14-10.54-31.04-1.44-8.48-1.86-17-.86-25.55.77-6.56,2.42-12.91,4.83-19.06,1.57-4.01,3.36-7.91,5.69-11.55,1.22-1.9,2.67-3.56,4.63-4.7.59-.34,1.26-.54,1.91-.76.69-.24,1.4-.42,2.11-.63.4,0,.79,0,1.19,0Zm62.88,160.94c.21-.7.35-1.12.46-1.54,2.36-9.55,4.27-19.19,5.78-28.92.18-1.16-.04-2.06-.79-2.99-3.91-4.87-7.31-10.08-10.12-15.66-4.86-9.67-8.42-19.82-11.07-30.29-1.97-7.81-3.7-15.68-5.6-23.5-1.39-5.73-3.15-11.34-6.06-16.51-6.41-11.38-14.96-20.83-25.69-28.3-2.56-1.78-5.23-3.4-8.26-4.28-2.13-.61-2.76-.36-4.01,1.45-.25.37-.49.74-.71,1.13-5.14,9.25-8.23,19.14-8.91,29.72-.77,12.11,1.18,23.84,5.24,35.24,3.16,8.89,7.52,17.19,12.35,25.26,1.93,3.22,3.97,6.37,5.94,9.57,1.16,1.88.89,3.67-.42,5.37-1.32,1.7-2.92,2.6-5.15,1.98-4.34-1.2-8.77-1.93-13.24-2.48-11.06-1.36-22.09-1.35-33.07.66-4.97.91-9.86,2.12-14.5,4.16-.86.38-1.71.79-2.52,1.26-1.6.93-1.64,1.18-.44,2.52.66.73,1.36,1.44,2.09,2.11,5.26,4.81,10.88,9.18,16.84,13.09,4.72,3.1,9.71,5.72,15.01,7.69,6.39,2.38,13.06,3.19,19.8,3.21,6.57.02,13.14-.29,19.71-.48,6.92-.19,13.84-.23,20.71.87,6.24,1,12.19,2.87,17.84,5.74,2.81,1.42,5.75,2.58,8.79,3.92Z"/>
        <path class="cls-1" d="m130.1,365.39c-6.84-6.29-13.45-12.37-20.17-18.56-.5.24-1.03.47-1.53.75-6.48,3.61-12.86,7.38-18.85,11.78-5.31,3.9-10.21,8.27-15.09,12.68-3.38,3.04-6.85,5.98-10.32,8.91-.7.6-1.56,1.04-2.4,1.44-.7.34-1.45.32-2.09-.23-.69-.59-.82-1.37-.53-2.16.3-.83.66-1.65,1.12-2.4,1.94-3.17,4.3-6.04,6.78-8.8,4.67-5.19,9.55-10.15,14.95-14.59,5.36-4.41,11.11-8.24,17.04-11.83,8.3-5.02,16.99-9.3,25.83-13.28,5.81-2.61,11.62-5.25,17.52-7.65,7.79-3.16,15.78-5.79,23.97-7.72,9.14-2.15,18.31-4.14,27.47-6.2,2.99-.67,5.96-1.42,8.96-2.05,1.25-.26,2.54-.37,3.82-.45.63-.04,1.27.13,1.9.24.78.13,1.54.33,2.32.43,1.3.18,2.2.86,2.48,1.99.3,1.19-.15,2.11-1.06,2.88-.64.54-1.26,1.1-1.83,1.71-1.35,1.44-3.15,2.07-4.93,2.59-3.5,1.03-7.07,1.83-10.61,2.73-.56.14-1.12.27-1.86.46.71,1.57,1.33,2.95,1.97,4.33,3.26,7.01,5.98,14.22,8.1,21.64,2.04,7.12,4.07,14.26,5.77,21.47,1.76,7.45,3.2,14.98,4.6,22.51,1.03,5.54,1.89,11.11,2.57,16.7.81,6.57,1.53,13.16,1.96,19.77.63,9.78,1.41,19.52,3.78,29.06,2.48,9.99,6.85,19.05,13.72,26.79,3.75,4.22,8.07,7.72,13.46,9.69,7.3,2.67,14.62,2.72,21.89-.07,1.37-.52,2.61-1.39,3.9-2.12,3-1.72,5.98-3.46,8.98-5.19,1.26-.73,2.55-.62,3.86-.11,2.21.87,2.89,2.91,1.65,4.93-1.26,2.06-3.08,3.59-4.9,5.12-.34.29-.69.57-1.07.8-3.09,1.95-6.19,3.89-9.29,5.82-1.47.91-2.9,1.89-4.44,2.68-2.66,1.36-5.59,1.56-8.51,1.7-6.34.31-12.23-1.37-17.84-4.17-6.83-3.41-12.88-7.89-18.11-13.45-3.91-4.16-7.15-8.82-9.96-13.79-5.36-9.52-8.32-19.82-9.91-30.57-1.19-8.03-1.76-16.11-2.21-24.2-.44-8.09-.85-16.19-1.41-24.27-.54-7.85-1.71-15.62-3.41-23.31-.77-3.47-1.56-6.94-2.35-10.41-.11-.47-.27-.92-.44-1.51-.92.44-1.68.9-2.49,1.18-4.86,1.7-9.83,2.95-14.84,4.15-6.25,1.49-12.46,3.13-18.67,4.78-2.58.68-5.11,1.55-7.65,2.35-.51.16-1,.35-1.67.58.3.45.48.77.71,1.05,3.43,4.21,6.94,8.37,10.29,12.65,3.91,4.98,7.43,10.24,10.67,15.68,3.29,5.52,6.46,11.1,9.62,16.7,2.19,3.88,4.09,7.9,5.47,12.15.88,2.7,1.42,5.49,1.14,8.32-.24,2.44-.88,4.78-2.36,6.92-2.22,3.23-5.26,5.34-8.68,6.95-6.03,2.84-12.45,4.48-18.96,5.75-10.15,1.98-20.41,2.33-30.71,1.92-7.66-.3-15.27-1.19-22.85-2.35-8.7-1.33-17.32-3.05-25.87-5.14-10.34-2.52-20.49-5.64-30.33-9.69-2.05-.85-4.09-1.79-5.98-2.94-1.5-.91-2.89-2.09-4.11-3.36-1.79-1.85-2.49-6.7-1.68-9.14,1.26-3.81,3.6-6.91,6.29-9.76,4.57-4.83,9.84-8.85,15.21-12.73,6.45-4.67,13.11-9.03,19.98-13.05,5.8-3.4,11.67-6.68,17.63-9.77,5.97-3.08,12.05-5.95,18.17-8.74,4.95-2.25,10.01-4.23,15.03-6.33.36-.15.7-.32,1.42-.64Zm-81.73,63.29c.68.38,1.13.67,1.61.9,5.05,2.42,10.3,4.33,15.61,6.05,9.79,3.17,19.77,5.6,29.88,7.55,11.71,2.25,23.5,3.9,35.44,4.22,10.88.29,21.63-.57,32.16-3.48,3.34-.92,6.64-1.94,9.72-3.59,3.45-1.84,4.22-3.39,3.1-7.11-.72-2.4-1.62-4.79-2.75-7.03-2.24-4.46-4.63-8.84-7.06-13.2-5.08-9.12-10.65-17.94-17.08-26.17-2.89-3.7-5.93-7.28-8.92-10.9-.96-1.16-1.09-1.17-2.54-.63-1.67.62-3.31,1.29-4.97,1.94-9.76,3.82-19.33,8.09-28.69,12.81-8.52,4.3-16.84,8.95-24.92,14.04-7.75,4.87-15.32,9.99-22.37,15.83-2.63,2.18-5.14,4.49-7.21,7.23-.32.42-.58.89-1,1.53Zm68.81-85.64c.48.36.7.54.95.7,7.77,4.88,14.74,10.79,21.53,16.93.78.7,1.45.8,2.4.46,2.37-.85,4.76-1.65,7.17-2.4,8.68-2.73,17.42-5.21,26.32-7.1,5.24-1.11,10.54-1.59,15.89-1.66.57,0,1.14.06,1.87.1-2.3-10.38-6-20.15-9.24-30.07-23.55,4.11-45.36,12.7-66.88,23.05Z"/>
        <path class="cls-1" d="m229.58,354.7c-1.08-.67-2.02-1.2-2.9-1.83-3.76-2.71-5.55-6.59-6.38-10.99-1.15-6.08,0-11.89,2.25-17.54,1.02-2.57,2.13-5.11,3.74-7.39,1.18-1.68,2.54-3.17,4.39-4.11,2.07-1.06,4.21-1.37,6.41-.32,1.36.65,2.29,2.26,2.12,3.76-.13,1.17-.89,2.05-2.12,2.1-1.69.07-2.8.95-3.57,2.29-3.03,5.28-4.96,10.88-4.69,17.06.08,1.94.61,3.8,1.57,5.51.98,1.73,2.5,2.6,4.42,2.88.69.1,1.21-.08,1.75-.54,1.27-1.09,2.59-2.14,3.94-3.12,2.03-1.47,4.33-2.28,6.79-2.81,2.19-.47,4.26-.09,6.26.58,2.01.67,3.18,2.29,3.11,4.41-.05,1.5-.44,3.04-.97,4.45-.3.81-1.1,1.51-1.83,2.06-3.34,2.56-7.21,3.87-11.31,4.51-1.22.19-1.94.74-2.57,1.71-5.53,8.41-7.6,17.71-7.22,27.65.2,5.28,1.15,10.41,3.12,15.33,1.24,3.1,2.9,5.95,5.1,8.47,4.06,4.64,9.19,7.06,15.35,7.25,6.05.19,11.63-1.55,16.88-4.39,7.21-3.9,13.33-9.17,18.81-15.23.8-.88.77-.96.03-1.85-3.43-4.15-6.98-8.21-10.26-12.48-5.05-6.56-9.46-13.54-12.68-21.19-2.8-6.67-4.51-13.6-4.48-20.88.03-6.99,1.48-13.64,5.05-19.72.46-.79.39-1.36-.14-2.13-3.33-4.9-6.67-9.81-9.84-14.82-1.61-2.54-2.88-5.29-3.13-8.4-.16-2.04.6-3.65,2.24-4.45,1.66-.81,3.47-.5,4.86.99,1.14,1.23,2.17,2.56,3.21,3.88,3.16,3.99,6.3,7.99,9.45,12,.67.85,1.34,1.71,1.99,2.58.44.59.87.76,1.64.43,3.91-1.68,7.92-1.81,12.03-.78,4.67,1.17,8.71,3.52,12.23,6.69,2.97,2.67,5.63,5.69,7.78,9.1,2.22,3.52,4.16,7.17,5.59,11.1,1.52,4.16,2.51,8.42,3.04,12.8.67,5.43.64,10.85-.13,16.26-.73,5.11-2.05,10.06-4.01,14.85-1.8,4.41-4.02,8.59-6.62,12.57-.61.93-.63,1.13.23,1.9,2.84,2.53,5.68,5.07,8.6,7.5,5.33,4.43,10.98,8.42,16.88,12.06,6.9,4.26,13.93,8.31,21.55,11.19,5.51,2.09,11.15,3.45,17.1,2.89,2.85-.27,5.71-.55,8.53-1.01,1.34-.22,2.63-.8,3.9-1.33,1.06-.44,2.01-.5,2.91.25,1.17.98,1.16,2.82-.1,3.74-2.47,1.81-4.96,3.58-7.51,5.28-2.25,1.5-4.85,2.22-7.47,2.76-7.95,1.63-15.71.76-23.34-1.89-6.43-2.24-12.41-5.39-18.29-8.75-5.41-3.1-10.65-6.46-15.6-10.26-4.04-3.1-7.92-6.39-11.85-9.63-1.03-.85-1.97-1.8-2.97-2.68-.28-.25-.63-.44-1-.69-.34.31-.64.56-.91.84-3.61,3.81-7.44,7.36-11.64,10.53-5.68,4.29-11.73,7.89-18.55,10.04-6.91,2.18-13.96,2.78-21.06,1.03-5.33-1.31-10.01-3.9-13.98-7.72-4.78-4.59-7.91-10.18-10.06-16.39-3.16-9.16-3.77-18.56-2.47-28.09.88-6.42,2.79-12.53,5.91-18.23.28-.51.52-1.05.82-1.66Zm70.83,30.28c.36-.48.62-.76.81-1.09,4.26-7.27,7-15.04,7.52-23.49.58-9.5-1.09-18.51-6.11-26.73-2.28-3.74-4.95-7.15-8.61-9.67-1.89-1.3-3.91-2.3-6.23-2.6-1.67-.21-3.13.22-4.41,1.31-1.3,1.1-2.33,2.41-3.15,3.89-2.65,4.83-3.57,10.02-3.19,15.46.53,7.61,3.28,14.5,7.05,21.03,4,6.91,8.79,13.24,13.96,19.31.72.85,1.5,1.65,2.35,2.58Z"/>
        <path class="cls-1" d="m51.93,326.46c.06,10.27,1.82,20.24,5.44,29.87.12.32.32.65.33.98,0,.36-.05.9-.28,1.04-.31.19-.88.23-1.21.07-.47-.22-.92-.62-1.21-1.05-.74-1.11-1.48-2.23-2.04-3.42-1.79-3.83-2.85-7.89-3.71-12.01-1.95-9.38-2.32-18.82-.73-28.29.59-3.52,1.53-6.95,3.28-10.11.92-1.65,1.99-3.19,3.41-4.45,2.71-2.4,6.11-2.57,8.91-.27,1.44,1.19,2.67,2.63,3.96,3.99.64.68,1.22,1.43,1.82,2.15,1.66,2.04,3.81,3.08,6.43,3.17,4.16.16,8.27.7,12.3,1.78,4.61,1.24,9.04,2.84,12.89,5.79,1.53,1.17,2.62,2.67,3.74,4.18.26.35.41.8,0,1.03-.24.13-.76.02-1.01-.17-1.56-1.13-3.07-2.32-4.6-3.49-2.18-1.67-4.58-2.91-7.17-3.82-4.92-1.73-9.96-2.87-15.2-3.02-.84-.02-1.67-.14-2.51-.24-2.29-.27-4.27-1.19-5.93-2.78-1.03-.99-2-2.06-3.05-3.03-.87-.8-1.77-1.59-2.75-2.24-2.12-1.42-3.95-1.14-5.64.8-1.59,1.82-2.6,3.96-3.29,6.25-1.35,4.43-1.97,8.97-2.14,13.58-.05,1.23,0,2.47,0,3.7Z"/>
        <path class="cls-1" d="m284.04,469.16c.06.97.17,2.2.22,3.44.04,1.04-.57,1.78-1.48,1.89-.87.1-1.57-.4-1.86-1.34-.01-.05-.02-.1-.04-.14-.55-1.42-1.08-2.85-1.67-4.25-.67-1.59-1.48-3.13-2.1-4.74-2.41-6.22-6.25-11.43-11.26-15.77-2.8-2.42-5.78-4.63-8.67-6.95-.65-.52-1.31-1.06-1.9-1.64-.44-.44-.64-1.01-.32-1.63.29-.57.85-.71,1.4-.61.96.19,1.95.37,2.85.73,5.35,2.15,9.93,5.47,14.11,9.38,3.69,3.45,6.61,7.47,8.73,12.05,1.36,2.95,2.27,6.01,1.99,9.57Z"/>
        <path class="cls-1" d="m277.73,437.11c.7.4,1.16.56,1.46.87.62.63,1.18,1.32,1.73,2.03,5.4,7.01,12.24,11.96,20.75,14.53.09.03.19.06.28.1,1.89.7,3.76,1.49,5.85,1.45.86-.01,1.4.66,1.39,1.42,0,.7-.48,1.36-1.27,1.4-3.14.18-6.24.97-9.42.2-2.49-.6-4.77-1.59-6.89-2.97-5.84-3.78-10.03-8.98-13.05-15.19-.3-.62-.54-1.28-.71-1.94-.12-.49-.07-1.02-.11-1.9Z"/>
        <path class="cls-1" d="m342.36,345.59c-.27.7-.55,1.61-.96,2.44-1.96,3.99-3.9,7.99-5.96,11.92-1.53,2.93-3.26,5.75-4.87,8.64-1.34,2.41-3.37,4.23-5.15,6.27-.37.42-.83.57-1.31.2-.47-.36-.4-.83-.21-1.34,1.24-3.18,2.84-6.17,4.63-9.08,2.46-3.99,4.9-8,7.28-12.04,1.33-2.25,2.51-4.59,3.76-6.89.24-.43.41-.95.77-1.25.33-.27.9-.45,1.31-.37.6.11.77.69.71,1.48Z"/>
        <path class="cls-1" d="m52.14,394.43c0,1.33-.48,2.51-1.19,3.61-2.14,3.32-4.26,6.66-6.43,9.96-.48.73-1.1,1.39-1.74,2-.39.38-1.02.64-1.48.22-.36-.32-.65-.89-.68-1.36-.04-.62.16-1.27.36-1.88,1.35-4.05,3.2-7.87,5.48-11.47.81-1.28,1.85-2.32,3.32-2.82,1.58-.53,2.38.07,2.36,1.73Z"/>
        <path class="cls-1" d="m295.69,479.97c-.02,1.67-1.79,3.4-3.47,3.37-1.25-.02-2.24-1.01-2.27-2.26-.03-1.58,1.43-3.3,3-3.53,1.95-.28,2.76.43,2.74,2.42Z"/>
        <path class="cls-1" d="m221.95,56.81c.13.66.31,1.18.32,1.69.24,9.73,2.06,19.25,3.99,28.75.58,2.86,1.09,5.73,1.7,8.58.25,1.16.66,2.28,1,3.41.19.64.12,1.19-.55,1.5-.6.28-1.17,0-1.49-.8-.35-.87-.59-1.78-.92-2.66-.63-1.71-1.29-3.42-1.94-5.13-3.47-9.05-4.68-18.46-4.35-28.08.06-1.86.5-3.71.83-5.56.12-.65.35-1.34,1.39-1.69Z"/>
        <path class="cls-1" d="m201.61,168.95c-.07.71-.41.94-.93.85-.78-.14-1.54-.37-2.32-.47-4.26-.54-8.26-1.98-12.23-3.5-2.42-.93-4.63-2.25-6.52-4.04-.78-.74-1.41-1.64-2.02-2.53-.31-.45-.4-1.04.05-1.51.49-.51,1-.21,1.49.04.13.07.25.15.37.24,4.82,3.46,10.18,5.86,15.66,8.03,1.93.76,3.85,1.54,5.77,2.34.28.12.5.39.69.54Z"/>
        <path class="cls-1" d="m246.66,72.44c.21.14.64.31.92.63.59.66,1.15,1.36,1.62,2.1,1.73,2.78,3.07,5.73,3.87,8.92.59,2.34,1.24,4.67,1.87,7,.06.24.14.47.19.72.09.5-.08.89-.57,1.07-.51.19-.85-.08-1.08-.52-.11-.22-.17-.46-.26-.69-.69-1.79-1.33-3.61-2.1-5.37-1.74-3.97-3.55-7.92-5.33-11.87-.14-.31-.28-.64-.32-.97-.06-.62.38-1.05,1.19-1.01Z"/>
        <path class="cls-1" d="m209.7,167.33c2.16.16,4.33.32,6.49.46.89.06,1.78.03,2.67.06.97.03,1.47.41,1.48,1.09,0,.63-.43,1.02-1.29,1.15-2,.31-4,.61-6,.94-1.93.31-3.85.26-5.73-.25-.61-.16-1.21-.44-1.76-.75-.57-.32-.82-.86-.65-1.51.16-.61.65-.88,1.23-.89,1.18-.04,2.37-.01,3.56-.01,0-.1,0-.19.01-.29Z"/>
        <path class="cls-1" d="m132.12,444.15c-2.38.03-5.12-.23-7.72-1.34-2.02-.87-3.61-2.24-4.57-4.24-1.22-2.54-.83-5.05.54-7.37.74-1.26,1.68-2.48,2.78-3.43,3.65-3.18,7.88-5.32,12.74-5.82,3.82-.39,7.61.02,11.09,1.85.74.39,1.45.86,2.09,1.39,2.9,2.35,3.72,5.54,2.36,9.02-.6,1.54-1.48,2.9-2.72,4.01-2.23,2.01-4.73,3.56-7.61,4.47-2.8.88-5.67,1.33-9,1.46Zm13.74-10.34c1.61-1.53,1.9-3.09.88-4.26-.29,1.38-.58,2.79-.88,4.26Z"/>
        <path class="cls-1" d="m139.49,416.76c.89.12,2.31.26,3.72.51,2.99.52,5.82,1.54,8.58,2.76,2.18.96,3.66,2.63,4.74,4.71.54,1.05.7,2.15.32,3.3-.4,1.22-1.15,1.49-2.08.64-.64-.59-1.26-1.28-1.66-2.05-.96-1.86-2.38-3.11-4.35-3.78-.7-.24-1.39-.52-2.08-.79-6.87-2.73-13.56-2.02-20.07,1.19-1.9.94-3.67,2.13-5.51,3.18-.68.39-1.37.79-2.1,1.09-.27.11-.81.07-.94-.11-.19-.26-.29-.79-.15-1.07.35-.69.73-1.46,1.31-1.93,1.64-1.33,3.3-2.68,5.12-3.75,4.48-2.64,9.44-3.68,15.14-3.91Z"/>
      </g>
    </g>
  </g>
</svg>