<?xml version="1.0" encoding="UTF-8"?>
<svg id="Layer_2" data-name="Layer 2" xmlns="http://www.w3.org/2000/svg" viewBox="0 0 447.46 485.33">
  <defs>
    <style>
      .cls-1 {
        fill: #1d1e1e;
      }

      .cls-1, .cls-2 {
        stroke-width: 0px;
      }

      .cls-2 {
        fill: #d94e26;
      }
    </style>
  </defs>
  <g id="Layer_1-2" data-name="Layer 1">
    <g>
      <path class="cls-2" d="m14.15,111.03c11.25-27.71-27-62.21,19.5-78.71s58.79,5.25,115.64-1.5,127.36-59.73,141.61-9.24,0,86.49,30,97.74,37.5,43.5,43.5,58.5,52.5,109.43,52.5,109.43c0,0,59.25,103.57,12.75,102.07s-34.5,37.5-36.75,48.75-45,38.25-94.5,27-55.5,4.5-82.5,13.5-55.96,9-66.61,0-62.3-10.5-62.3-10.5c0,0-21.69-33.75-21.02-49.5s7.42-39-13.58-58.5-42.75-54.75-42-85.5S-6.85,195.74,2.9,164.66s11.25-53.63,11.25-53.63Z"/>
      <g>
        <path class="cls-1" d="m132.99,289.69c-3.01-.68-4.38-2.8-5.4-5.38-2.65-6.64-5.4-13.25-8.1-19.87-.83-2.04-.86-2.1-3.05-1.79-9.34,1.33-18.72,1.96-28.15,1.68-12.32-.37-23.98-3.32-34.82-9.17-14.71-7.94-23.54-20.21-26.08-36.79-1.9-12.44-.47-24.65,3.08-36.66,4.56-15.41,13-28.31,25.07-38.85,3.64-3.18,7.43-6.18,11.98-8.04,3.76-1.55,7.57-1.73,11.38-.33,2.59.94,4.38,2.98,5.73,5.25,1.7,2.85,3.18,5.84,4.56,8.86,6.25,13.64,11.73,27.61,16.78,41.73,6.43,17.96,12.71,35.98,19.05,53.97,1.25,3.55.97,3.19,4.32,2.15,13.1-4.08,25.02-10.35,35.46-19.32,8.89-7.63,15.19-17.06,18.68-28.21,5.88-18.8,6.39-37.78.81-56.75-1.14-3.89-2.72-7.7-4.45-11.37-2.19-4.65-4.74-9.13-7.12-13.69-.81-1.55-2.04-2.24-3.78-2.29-11.04-.33-22.08-.69-33.12-1.07-8.91-.31-17.81-.66-26.71-1.03-1.25-.05-2.5-.23-3.73-.45-2.53-.46-4.12-2.11-4.27-4.32-.15-2.25,1.15-4.2,3.61-4.87,2.23-.6,4.53-1.15,6.83-1.24,7.77-.3,15.56-.53,23.33-.51,13.11.05,26.23.11,39.34.54,24.47.81,48.43,4.83,71.82,12.08,4.67,1.45,9.28,3.13,13.91,4.7,1.39.47,2.61,1.21,3.56,2.37,1.93,2.36,2.15,5.68.56,8.28-1.62,2.64-4.76,3.96-7.83,3.11-1.87-.52-3.66-1.31-5.49-1.96-.68-.24-1.39-.4-2.26-.64-.07.73-.17,1.22-.15,1.7.48,11.64-.34,23.2-1.81,34.74-1.23,9.71-2.14,19.46-3.56,29.15-1.97,13.5-5.44,26.68-9.51,39.69-4.09,13.07-8.91,25.87-14.62,38.32-1.2,2.62-2.52,5.2-3.97,7.69-.87,1.5-2.11,2.79-3.17,4.19-.19.24-.31.53-.54.91.37.43.71.86,1.08,1.27,8.8,9.55,13.36,20.82,13.55,33.8.22,15.52-5.19,28.97-15.35,40.58-10.94,12.5-24.91,19.62-40.98,22.9-13.85,2.83-27.49,1.52-40.9-2.59-10.08-3.09-19.44-7.8-28.44-13.23-10.52-6.35-20.25-13.76-28.97-22.42-8.3-8.24-15.9-17.1-22.33-26.9-2.93-4.47-5.66-9.09-6.97-14.33-.54-2.16-.58-4.46-.73-6.7-.06-.95.57-1.65,1.5-1.96,1.01-.33,1.78.07,2.53.79,3.24,3.11,5.77,6.76,8.21,10.49,12.13,18.59,27.45,34.06,45.78,46.53,12.47,8.49,26,14.65,40.8,17.85,9.84,2.13,19.67,2.23,29.49-.17,12.4-3.03,22.41-9.84,30.69-19.38,4.45-5.12,8.09-10.74,10.03-17.3,3.48-11.82,2.83-23.21-3.93-33.84-4.13-6.49-9.87-10.75-17.48-12.37-9.33-1.99-18.59-1.49-27.82.56-4.3.96-8.47,2.3-12.37,4.41-4.94,2.68-8.18,6.74-9.96,12.02-1.55,4.6-1.39,9.16.63,13.58,1.79,3.92,4.14,7.45,7.45,10.28.62.53,1.21,1.11,1.7,1.75,1.47,1.94,1.09,4.16-.91,5.57-2.59,1.82-5.35,1.43-8.12.53-2.44-.8-4.47-2.29-6.22-4.11-6.94-7.22-9.99-15.78-8.75-25.79.62-5.01,2.36-9.62,5.04-13.86.96-1.51,2.25-2.81,3.59-4.44Zm-19.15-39.92c-.17-.66-.26-1.15-.42-1.61-5.4-15.39-10.75-30.8-16.24-46.16-5.28-14.77-10.69-29.49-17.12-43.81-1.59-3.55-3.23-7.07-4.96-10.56-.92-1.86-1.62-2.08-3.46-1.13-1.55.8-3.07,1.73-4.44,2.81-21.26,16.89-30.03,39.15-27.59,65.85,1.21,13.22,8.39,22.86,20.15,29.01,6.79,3.55,14.03,5.79,21.64,6.72,10.42,1.26,20.79.54,31.15-.76.36-.05.71-.2,1.3-.37Zm74.39-29.71c1.39,0,2.55-.04,3.71,0,5.63.2,10.88-1.13,15.53-4.27,7.68-5.19,13.68-11.78,16.36-20.91,1.68-5.72,3.34-11.44,4.85-17.2,2.03-7.72,3.36-15.57,3.54-23.58.21-9.28.49-18.56.74-27.84.04-1.37-.03-1.53-1.5-1.93-12.42-3.39-25.01-5.98-37.8-7.53-.43-.05-.95-.13-1.29.06-.83.46-1.57.14-2.36-.02-1.01-.2-2.03-.35-3.05-.52-.13.14-.26.27-.39.41,6.9,10.15,11.01,21.35,13.14,33.34,2.14,12.04,2.21,24.07.4,36.15-1.8,12.02-5.18,23.49-11.87,33.84Zm33.04,4.25c-.13-.08-.25-.16-.38-.25-.41.26-.82.51-1.23.77-2.63,1.7-5.13,3.66-7.91,5.06-9.67,4.89-19.74,5.91-30.09,2.41-1.67-.57-2.71-.37-3.96.88-6.06,6.08-12.96,11.06-20.41,15.32-7.77,4.44-15.89,8.05-24.49,10.56-.63.18-1.23.46-2.02.77,2.99,7.96,6.16,15.58,9.8,22.94,19.47-9.04,39.43-11.26,60.09-4.03.17-.36.35-.68.48-1.02.84-2.23,1.52-4.53,2.53-6.67,6.87-14.56,12.49-29.59,17.15-44.99.18-.58.29-1.18.43-1.76Z"/>
        <path class="cls-1" d="m386.4,304.75c-.12-4.07-16.25-38.6-20.02-42.7-.33.57-.68,1.07-.94,1.6-6.82,14.23-14.77,27.83-23.03,41.24-6.35,10.31-12.82,20.55-19.45,30.69-6.17,9.42-13.36,18.04-21.51,25.85-2.39,2.29-5.18,3.93-8.05,5.47-.91.49-1.86.31-2.63-.39-.7-.63-.97-1.46-.72-2.39.86-3.22,1.88-6.37,3.76-9.18,5.62-8.39,11.17-16.84,16.84-25.19,7.76-11.43,15.1-23.12,22.23-34.94,5.09-8.44,10.11-16.92,15.15-25.38.5-.84.93-1.73,1.5-2.77-.69-.17-1.15-.38-1.61-.39-5.21-.12-10.41-.23-15.62-.29-1.39-.02-1.52.15-1.83,1.62-1.03,4.94-2.61,9.68-4.85,14.21-3.61,7.3-8.58,13.57-14.63,18.97-8.07,7.21-17.27,12.48-27.67,15.56-10.45,3.09-20.94,3.44-31.29-.22-10.64-3.76-19-10.42-24.09-20.68-3.59-7.23-4.6-14.94-3.43-22.92,1.07-7.24,3.9-13.7,8.56-19.39,1.63-1.99,3.76-3.13,6.03-4.02,2-.78,3.86.64,3.76,2.83-.1,2.18-.31,4.36-1.07,6.47-1.73,4.8-2.86,9.75-3.37,14.84-.29,2.89-.19,5.76.28,8.63,1.03,6.22,4.02,11.29,8.94,15.22,7.59,6.07,16.32,8.01,25.7,6.31,15.72-2.84,28.37-10.94,36.94-24.4,8.82-13.86,8.97-28.29.29-42.48-1.3-2.12-2.98-4.05-4.71-5.85-3.32-3.45-7.46-5.44-12.17-6.31-2.54-.47-4.96-.24-7.37.74-4.13,1.67-8.32,3.18-12.72,4.02-2.42.46-4.63.11-6.56-1.47-4.46-3.64-3.67-11.18,1.55-13.58,2.83-1.3,5.87-2.18,8.85-3.15,1.25-.4,2.56-.64,3.87-.79,3.17-.37,6.06-1.47,8.87-2.96,6.46-3.43,12.59-7.31,17.75-12.57,3.43-3.49,6.18-7.43,8.07-11.94.68-1.61,1.25-3.29,1.71-4.98,4.23-15.41-10.26-26.47-22.02-24.38-8.84,1.57-15.47,6.26-19.91,14.03-1.63,2.85-2.71,5.93-3.58,9.09-.3,1.09-.58,2.18-.95,3.25-.67,1.97-2.03,3.15-4.15,3.28-1.9.12-3.48-.99-4.4-2.94-1.18-2.47-1.28-5.09-1.03-7.74.48-5.1,2.22-9.79,4.99-14.06,6.5-10.05,15.81-16.07,27.52-17.98,14.9-2.43,29.09,4.87,35.74,18.15,3.59,7.17,4.08,14.7,2.26,22.38-2.54,10.71-8.23,19.59-16.4,26.89-2.06,1.83-4.29,3.47-6.44,5.2-.37.3-.7.65-1.19,1.12.56.45.95.83,1.41,1.11,7.42,4.63,12.56,11.26,16.45,18.95,2.86,5.65,4.62,11.65,5.19,17.98.16,1.82.29,1.9,2.09,1.76,7.51-.59,15.03-.99,22.56-.24,1.14.11,1.95-.22,2.48-1.26.17-.33.37-.66.6-.96.75-.98.67-1.88.02-2.93-3.35-5.38-6.65-10.79-9.97-16.19-1.05-1.71-2.09-3.43-3.12-5.15-.26-.43-.49-.88-.7-1.33-1.13-2.53-.6-5.17,1.36-6.86,1.91-1.65,4.56-1.88,6.82-.41,1.41.92,2.76,1.98,3.97,3.15,4.55,4.37,8.22,9.47,11.91,14.55,6.47,8.91,11.96,18.41,17.07,28.14,4.43,8.45,8.79,16.93,12.43,25.76,4,9.72,7.44,19.61,9.06,30.03.66,4.27,1.04,8.6,1.32,12.91.26,4,.3,8.03.27,12.04-.02,1.8-.46,3.59-.7,5.39-.11.8-.2,1.61-.25,2.41-.09,1.42-.81,2.35-2.03,2.58-1.22.22-2.2-.44-2.77-1.74-.42-.97-.97-1.88-1.44-2.82-.7-1.4-1.5-2.77-2.03-4.23-1.95-5.37-3.8-10.77-5.69-16.16-.24-.68-.51-1.34-.77-2.01-.12.02-.25.03-.37.05-.16.51-.36,1.01-.47,1.53-1.72,8.79-6.59,15.48-13.78,20.58-5.15,3.65-10.86,5.73-17.22,5.79-7.05.06-12.96-2.51-17.65-7.81-.29-.33-.59-.65-.9-.95-.07-.07-.23-.05-.58-.11-.15.61-.34,1.24-.46,1.89-1.8,9.71-2.79,19.5-3.03,29.37-.05,2.13-.26,4.26-.36,6.39-.14,2.66-.76,5.21-1.89,7.62-.33.7-.92,1.28-1.45,2,1.09.78,1.53,2.07,1.86,3.42.56,2.25,1.15,4.5,1.68,6.76.86,3.71-.03,5.63-3.6,6.94-6.87,2.52-13.3,5.88-19.41,9.89-.94.62-1.82,1.33-2.71,2.03-.23.18-.37.47-.6.79,1.05,1.02,2.3,1.45,3.55,1.73,3.06.69,6.12,1.45,9.22,1.85,5.53.73,11.09,1.29,16.65,1.77,3.94.34,7.9.28,11.81-.55,3.75-.79,6.96-2.53,9.4-5.5,1.55-1.89,2.95-3.9,4.41-5.86,1.58-2.11,3.07-4.29,4.76-6.3,1.12-1.33,2.48-2.48,3.83-3.6.33-.28,1.16-.35,1.5-.12.35.23.63,1.02.5,1.42-.55,1.73-1.07,3.5-1.94,5.08-2.85,5.2-6.48,9.84-10.68,14.03-4.14,4.13-9.31,5.91-14.99,6.09-4.5.14-9.04-.05-13.53-.38-6.51-.49-12.98-1.38-19.33-2.96-1.52-.38-3.01-.89-4.46-1.47-.92-.37-1.81-.89-2.6-1.49-2.44-1.85-2.68-4.22-.6-6.45.93-1,2.02-1.9,3.15-2.66,6.4-4.33,13.03-8.27,20.16-11.31,1.55-.66,1.6-.71,1.3-2.4-.37-2.1-.83-4.19-1.16-6.29-.23-1.46-.57-2.98.59-4.31-3.37-2.15-5.07-5.31-5.88-9.05-.92-4.21-1.1-8.46-.87-12.73.89-16.38,3.77-32.39,9.22-47.9.48-1.36,1-2.71,1.62-4.01,2.04-4.24,7.34-4.72,10.16-.94,1.08,1.46,1.61,3.1,1.6,4.92-.01,1.76-.13,3.53.03,5.27.18,1.93.4,3.89.98,5.73,1.7,5.43,6.17,8.34,11.82,7.79,5.62-.55,10.05-3.42,13.63-7.6,6.67-7.8,6.17-19.02-1.06-26.31-2.1-2.11-4.48-3.84-7.09-5.25-1.3-.7-2.39-1.61-3.18-2.86-1.39-2.2-.75-4.54,1.57-5.7,1.5-.75,3.06-1,4.74-.59,5.28,1.31,9.61,4.21,13.44,7.96.36.35.72.7,1.09,1.03.08.07.23.05.35.08Z"/>
        <path class="cls-1" d="m77.17,85.73c-1.32.51-2.23.88-3.16,1.21-3.84,1.38-7.66,2.8-11.52,4.1-2.15.72-4.38,1.11-6.67.94-2.72-.21-4.78-1.54-5.24-3.82-.31-1.55-.31-3.28.04-4.83.5-2.25,1.27-4.47,2.2-6.58,2.98-6.76,7.06-12.85,11.52-18.71.34-.45.72-.88,1.12-1.27.98-.96,1.08-.95,2.34.09,7.72-2.7,15.61-4.99,23.62-6.84,6.85-1.58,13.73-3.01,20.79-3.28,3.65-.14,7.28-.03,10.88.62,8.87,1.61,15.56,6.36,20.22,14.03,2.16,3.56,3.9,7.33,5.04,11.32.58,2.02.66,4.19.94,6.3.09.64-.18,1.22-.83,1.25-.39.02-1-.32-1.17-.67-1.1-2.18-2.14-4.39-3.12-6.63-.98-2.24-1.76-4.57-2.82-6.77-4.84-10.07-12.97-15.12-24.06-15.62-6.32-.28-12.54.44-18.7,1.72-7.43,1.54-14.82,3.29-22.25,4.85-2.93.62-5.91.97-8.87,1.44-2.85,5.1-5.83,10.33-8.69,15.61-1.1,2.04-2.02,4.18-2.87,6.34-.53,1.33-.88,2.75-1.12,4.17-.41,2.37.18,3.03,2.61,2.7,1.91-.26,3.84-.69,5.66-1.34,5.31-1.9,10.58-3.94,15.86-5.95,7.63-2.91,15.28-5.71,23.27-7.48,6.25-1.38,12.52-1.94,18.86-.58,3.15.68,6.11,1.84,8.98,3.3,1.87.95,3.11,2.49,4.34,4.07.24.31.28.98.13,1.37-.26.67-.9.73-1.59.63-2.2-.32-4.21-1.12-6.16-2.18-5.05-2.76-10.49-3.78-16.18-3.26-2.56.23-5.11.64-7.62,1.18-7.2,1.56-14.09,4.09-20.96,6.68-.97.36-1.28.95-1.44,1.93-1.44,9.12-2.35,18.29-2.76,27.52-.07,1.56-.18,3.13-.37,4.69-.05.41-.37,1.04-.68,1.12-.75.2-.88-.5-.97-1.06-.29-1.92-.66-3.84-.83-5.77-.24-2.62-.33-5.26-.49-7.89-.36-5.9.51-11.64,2.32-17.25.09-.29.17-.59.4-1.37Z"/>
        <path class="cls-1" d="m187.69,404.1c.4.66.94,1.27,1.19,1.98.55,1.6,1.02,3.23,1.39,4.88.77,3.51,1.92,6.88,3.49,10.12,1.83,3.78,3.68,7.56,5.52,11.34,2.16,4.42,1.78,6.63-1.8,10.04-3.3,3.14-7.09,5.59-11.13,7.65-.67.34-1.36.65-2.04.98-2.1,1.03-2.29,1.97-.61,3.66.7.7,1.54,1.29,2.41,1.77.98.54,2.03,1.02,3.11,1.32,6.17,1.71,12.38,3.16,18.85,3.27,5.94.1,10.71-2.24,14.64-6.51,2.45-2.66,4.26-5.74,5.7-9.04,3.09-7.1,5.34-14.48,7.19-21.97,1.85-7.49,3.56-15.02,5.29-22.53.39-1.68.93-3.26,2.01-4.61.28-.34.95-.8,1.15-.68.4.23.8.79.85,1.25.11,1.05.2,2.17-.04,3.18-3.11,13.31-5.73,26.75-10.28,39.69-1.54,4.38-3.15,8.74-5.68,12.68-2.19,3.42-4.85,6.39-8.27,8.64-3.44,2.25-7.21,3.46-11.33,3.63-5.99.25-11.93-.31-17.76-1.57-2.54-.55-5-1.62-7.4-2.67-2.04-.89-3.63-2.46-4.84-4.35-1.81-2.81-1.86-6.59,2.25-8.72,2.95-1.53,5.84-3.18,8.64-4.95,1.58-1,3-2.27,4.37-3.56,1.84-1.74,1.84-2.17.78-4.44-2.06-4.37-4.19-8.71-6.13-13.13-1.83-4.17-2.75-8.59-2.92-13.15-.04-.99.14-2,.3-2.98.06-.39.36-.75.55-1.12.18-.03.36-.07.54-.1Z"/>
        <path class="cls-1" d="m202.17,49.62c.33-.68.52-1.33.9-1.82.77-.98,1.62-1.92,2.5-2.81,7.37-7.47,15.65-13.73,24.84-18.77,3.87-2.12,7.9-3.84,12.34-4.4,7.86-1,14.49,1.34,19.74,7.34,2.71,3.1,4.81,6.6,6.24,10.45,1.4,3.76,2.62,7.59,3.82,11.42,2.08,6.67,4.62,13.13,8.12,19.2,2.61,4.53,4.85,9.23,5.93,14.38,1.38,6.57,1.71,13.17.4,19.81-.42,2.15-1.38,4.02-2.57,5.8-.38.56-.8,1-1.54.74-.71-.25-.85-.83-.79-1.52.24-2.87.39-5.75.7-8.61.97-9.1-.28-17.85-4.7-25.89-4.72-8.58-8.18-17.61-10.86-27-.7-2.47-1.63-4.88-2.55-7.28-1.09-2.82-2.61-5.42-4.43-7.84-4.72-6.27-10.98-8.5-18.59-6.9-1.95.41-3.86,1.11-5.69,1.91-5.77,2.54-11.04,5.95-16.08,9.71-3.62,2.7-7.12,5.56-10.69,8.33-1.44,1.12-2.89,2.21-4.37,3.27-.65.46-1.35.96-2.67.48Z"/>
        <path class="cls-1" d="m122.32,433.33c-.57-.93-.99-1.68-1.48-2.39-1.18-1.7-2.36-3.4-3.59-5.07-6.01-8.14-9.38-17.39-11.52-27.17-.21-.98-.41-1.96-.58-2.95-.13-.74-.24-1.49-.29-2.24-.04-.73-.22-1.66.83-1.79.91-.12,1.04.72,1.21,1.39.48,1.95.98,3.89,1.41,5.85,2.49,11.51,7.7,21.69,15.04,30.84.55.68,1.08,1.4,1.49,2.16.85,1.59.61,2.94-.88,3.97-1.22.85-2.57,1.59-3.96,2.14-4.25,1.7-8.54,3.29-12.82,4.93-1.21.46-2.41.95-3.62,1.43,0,.14.01.29.02.43.92.35,1.81.84,2.76,1.04,3.86.82,7.71,1.75,11.62,2.29,6.27.87,12.58,1.52,18.89,2.13,2.49.24,5.01.16,7.52.12,2.41-.04,4.46-1.02,6.33-2.54,6.61-5.4,10.08-12.52,11.47-20.77.6-3.59.95-7.22,1.57-10.8.29-1.65.98-3.22,1.5-4.83.21-.65.66-1.21,1.36-.98.43.14.86.69,1.03,1.15.86,2.42.81,4.95.48,7.44-1.45,10.94-5.52,20.79-12.29,29.53-3.04,3.92-6.97,5.99-11.96,6.09-4.85.1-9.65-.4-14.42-1.2-7.11-1.2-14.21-2.46-21.3-3.78-1.53-.28-3.01-.86-4.47-1.42-.87-.33-1.72-.8-2.45-1.38-1.79-1.41-1.75-3.42.12-4.71.92-.63,1.97-1.11,3.02-1.51,3.69-1.42,7.41-2.75,11.1-4.16,2.27-.87,4.56-1.73,6.88-3.24Z"/>
        <path class="cls-1" d="m188.08,66.17c-.02-1.28.48-2.88,1.28-4.4,1.84-3.5,4.49-6.34,7.51-8.82.6-.49,1.42-.86,2.18-.99,1.22-.2,1.89.84,1.29,1.92-.36.65-.92,1.19-1.36,1.79-1.56,2.12-3.16,4.21-4.62,6.4-.62.92-1.04,2.01-1.34,3.09-.57,2.02.2,3.63,2.16,4.41,1.21.48,2.52.77,3.81.96,4.01.59,8.02.21,12.01-.21,5.62-.58,11.22-1.3,16.84-1.84,5.44-.52,10.9-.65,16.34.15,4.26.63,8.3,1.93,11.94,4.32,5.23,3.42,8.01,8.37,8.79,14.46.18,1.39-.12,2.87-.35,4.28-.07.44-.59.96-1.03,1.15-.65.28-1.22-.13-1.53-.76-.71-1.46-1.42-2.92-2.06-4.41-.27-.63-.41-1.32-.58-1.98-1.23-4.71-4.24-7.86-8.58-9.86-3.95-1.82-8.16-2.42-12.45-2.59-6.36-.26-12.65.49-18.95,1.25-5.61.67-11.2,1.45-16.87,1.35-2.9-.05-5.77-.32-8.51-1.33-3.76-1.38-5.9-4.28-5.92-8.35Z"/>
        <path class="cls-1" d="m260,432.03c-4.84-.49-9.57-.94-14.3-1.46-.86-.09-1.71-.4-2.51-.74-1.01-.43-1.39-1.22-1.16-2.08.22-.84.96-1.3,2.05-1.27.25,0,.5.05.75.09,7.24,1.29,14.47.97,21.71.05,7.79-.99,15.4-2.8,23.02-4.6,1.33-.31,2.71-.46,4.07-.58.35-.03.92.24,1.05.52.13.28-.05.92-.32,1.13-1.07.85-2.15,1.75-3.36,2.34-5.46,2.65-11.27,4.19-17.25,5.04-4.58.65-9.2,1.04-13.75,1.54Z"/>
        <path class="cls-1" d="m93.57,394.86c.15.89.34,1.78.43,2.68.58,5.51,1.7,10.9,3.62,16.11.31.85.91,1.6,1.37,2.4.31.54.67,1.07.89,1.65.74,1.97-.13,3.54-2.18,3.89-1.05.18-2.12.18-3.18.31-1.09.13-2.22.14-3.55,1,1.4.5,2.49.91,3.59,1.28,1.9.64,3.82,1.21,5.69,1.9.37.14.59.66.88,1.01-.38.25-.74.67-1.15.72-3.46.46-6.74-.18-9.86-1.69-.67-.32-1.32-.75-1.86-1.25-1.85-1.72-1.64-4.01.49-5.37,1.67-1.07,3.58-1.49,5.52-1.73.56-.07,1.11-.11,1.67-.16.59-.93.35-1.81.04-2.72-1.29-3.87-2.39-7.8-2.88-11.86-.23-1.86-.34-3.75-.41-5.62-.03-.84.16-1.69.26-2.53.21,0,.42,0,.63-.01Z"/>
        <path class="cls-1" d="m107.43,164.66c1.8.23,3.14,1.04,4.29,2.09,3.01,2.73,6.1,5.41,8.89,8.36,3.57,3.77,6.99,7.71,10.26,11.74,1.68,2.07,2.91,4.5,4.34,6.78.3.48.34,1.04-.21,1.29-.3.14-.9.03-1.14-.2-1.81-1.72-3.76-3.35-5.3-5.29-5.85-7.37-12.1-14.38-18.49-21.28-.76-.83-1.49-1.69-2.2-2.57-.21-.26-.3-.61-.45-.92Z"/>
        <path class="cls-1" d="m128.46,150.6c.23-1.29.46-2.83.8-4.35.13-.59.43-1.2.8-1.68.91-1.16,2.04-2.18,3.63-1.88,1.66.31,2.81,1.48,3.17,3.11.67,3.03-.12,5.86-1.8,8.38-.76,1.15-1.99,2.01-3.54,1.58-1.51-.42-2.34-1.61-2.8-3.03-.19-.58-.16-1.23-.27-2.12Z"/>
        <path class="cls-1" d="m65.98,267.69c.08-.39.12-1.03.35-1.59.11-.28.55-.58.84-.58.28,0,.64.33.82.61.2.3.24.71.34,1.07,1.09,3.87,3.15,7.09,6.34,9.55,1.44,1.11,2.95,2.12,4.43,3.18,1.78,1.27,3.58,2.53,5.33,3.85.28.21.56.92.44,1.06-.26.31-.82.63-1.19.55-2.59-.51-5.12-1.16-7.32-2.77-2.49-1.82-4.93-3.68-6.85-6.13-1.97-2.51-3.36-5.29-3.54-8.79Z"/>
        <path class="cls-1" d="m139.49,175.99c.07.67-.54,1.03-1.23.78-1.94-.71-3.87-1.44-5.79-2.21-3.72-1.48-7.43-3.01-11.16-4.48-1.57-.62-3.2-1.11-4.78-1.71-.58-.22-1.16-.52-1.63-.91-.28-.24-.52-.8-.43-1.1.09-.3.6-.59.98-.67.4-.09.88,0,1.3.11,5.59,1.43,11.19,2.87,16.31,5.63,2.08,1.12,3.96,2.62,5.91,3.97.24.17.4.46.52.6Z"/>
        <path class="cls-1" d="m107.57,140.14c-.52,2.3-1.11,4.36-2.42,6.08-1.12,1.47-3.07,1.96-4.36,1.31-1.34-.67-2.14-2.9-1.66-4.62.26-.96.57-1.91.75-2.89.3-1.61,1.28-2.69,2.61-3.5,1.48-.9,3.21-.51,4.06.99.48.85.72,1.84,1.02,2.62Z"/>
        <path class="cls-1" d="m337.2,202.34c2.74.03,4.87,2.23,4.8,4.95-.07,2.65-2.24,4.71-4.89,4.66-2.65-.05-4.73-2.21-4.7-4.86.03-2.65,2.18-4.78,4.8-4.76Z"/>
        <path class="cls-1" d="m130.88,431.92c3.16.21,6.07.92,8.41,3.22.48.47.95.88.58,1.58-.32.59-.87.58-1.47.44-3.34-.75-6.69-1.47-10.04-2.2-.06-.01-.12-.04-.18-.06-.65-.25-1.47-.51-1.29-1.33.1-.47.73-1,1.24-1.17.87-.29,1.83-.33,2.75-.47Z"/>
        <path class="cls-1" d="m204.01,86.68c.02-3.75,1.58-6.88,3.97-9.66.12-.14.26-.3.43-.36.39-.13.89-.38,1.16-.24.24.13.4.79.29,1.11-1.04,3.08-2.13,6.15-3.23,9.21-.25.7-.52,1.42-.91,2.05-.18.29-.68.53-1.04.53-.22,0-.59-.47-.64-.77-.1-.61-.03-1.25-.03-1.87Z"/>
        <path class="cls-1" d="m110.63,429.31c-1.37-.23-2.74-.36-4.06-.73-.48-.13-.8-.82-1.2-1.25.43-.39.82-1.06,1.31-1.14,2.22-.37,4.46-.58,6.69-.83.24-.03.5.02.74.08.8.2,1.35.68,1.41,1.54.06.86-.39,1.5-1.19,1.69-1.2.29-2.45.43-3.7.63Z"/>
        <path class="cls-1" d="m63.83,190.65c-.37,3.69-1.48,7.11-3.93,9.97-1.54,1.8-3.26,1.81-5.13.39-2.15-1.63-2.81-3.62-1.83-6.1.8-2.04,1.59-4.09,2.61-6.02.54-1.01,1.47-1.87,2.39-2.6,1.16-.93,2.68-.82,3.82.13,1.31,1.08,2.23,2.39,2.06,4.24Z"/>
        <path class="cls-1" d="m84.96,197.34c-.38,1.69-.46,3.53-1.2,5.05-1.43,2.98-3.4,3.38-5.61,2.18-.71-.38-1.39-1.13-1.71-1.87-1.33-3.02-1.17-6.07.08-9.11.74-1.79,2.72-2.34,4.93-2.28,1.37.04,2.66,1.42,3.03,3.16.19.91.2,1.86.29,2.79.06.02.13.04.19.06Z"/>
      </g>
    </g>
  </g>
</svg>