<?xml version="1.0" encoding="UTF-8"?>
<svg id="Layer_2" data-name="Layer 2" xmlns="http://www.w3.org/2000/svg" viewBox="0 0 612.85 246.7">
  <defs>
    <style>
      .cls-1 {
        fill: #f9faed;
      }

      .cls-1, .cls-2 {
        stroke-width: 0px;
      }

      .cls-2 {
        fill: #45382f;
      }
    </style>
  </defs>
  <g id="Layer_1-2" data-name="Layer 1">
    <g>
      <path class="cls-2" d="m71.35,49.87S126.1-10.42,221.35,1.58s125.25,24,132,57.75-4.5,39,12,48,39,25.5,52.5,48.75,34.77,44.33,59.52,43.58,37.48,1.42,94.98-21.83c60.33-24.4,54,33.8-24,58.9s-155,0-183.75-43.9c-25.73-39.29-28.5-26.25-81-15.75s-69-3.75-102.75-9-76.33-20.25-76.33-20.25c0,0-6.08,9.5,0,20.25s-6.17,29.25-21.92,32.25-13.75-29-20.25-47.5-21.25-29.75-18.25-37.5.5-9.75-8.25-16.75S7.1,75.08.85,65.58s23.5-27,33.75-27.75,36.75,12.04,36.75,12.04Z"/>
      <g>
        <path class="cls-1" d="m259.66,85.36c-.98.01-1.68,0-2.38.03-6.93.31-13.85.72-20.78.92-4.8.14-9.53-.33-14.1-2.03-7.73-2.87-13.18-10.45-13.34-18.68-.08-3.98.61-7.8,2.29-11.41,2.26-4.85,6.22-7.79,11.14-9.54,6.47-2.31,13.11-2.25,19.8-1.27,4.7.69,9.18,2.03,13.32,4.43.24.14.51.22.95.4-.11-.58-.18-.99-.27-1.39-.7-3.08-1.46-6.15-2.08-9.24-.2-.98-.77-1.14-1.55-1.31-10.44-2.29-21.01-3.73-31.66-4.62-8.02-.67-16.05-1.24-24.07-1.81-2.61-.18-2.08.05-1.57,2,1.68,6.46,3.2,12.97,5,19.4,2.79,9.99,5.47,20.04,9.75,29.54,1.59,3.53,3.36,6.99,5.14,10.43,1.21,2.34,1.31,4.49-.37,6.64-.17.22-.13.91.05,1.04,7.94,5.6,12.53,13.9,17.68,21.76,2.87,4.38,5.75,8.77,8.87,12.98,4.8,6.49,11.26,10.78,18.86,13.41,1.11.39,2.16.95,3.24,1.42.89.38,1.76.8,2.68,1.11,1.32.45,2.07,1.35,2.01,2.59-.05,1.19-.84,2.02-2.15,2.35-.94.23-1.89.44-2.8.78-3.12,1.17-6.25.64-9.36.11-6.01-1.02-11.01-4-15.4-8.12-5.52-5.17-9.47-11.5-13.41-17.87-3.25-5.25-6.58-10.45-10.01-15.58-1.72-2.57-3.88-4.8-6.6-6.41-5.11-3.02-9.44-2.55-13.74,1.54-4.93,4.69-7.31,10.65-8.36,17.22-.48,3-.56,6.01.11,9,1.79,8.01,9.32,11.75,16.79,8.34,4.03-1.84,6.71-5.09,8.99-8.73,1.41-2.24,2.34-4.68,2.8-7.3.12-.67.25-1.34.38-2.01.33-1.65.96-2.43,2.05-2.57,1.13-.14,2.1.53,2.75,2,.83,1.87.75,3.85.58,5.83-.71,8-8.22,19.96-20.01,22.43-8.62,1.81-18.05-2.64-22.08-10.47-2.82-5.46-3.26-11.26-2.62-17.2.78-7.16,3.11-13.79,7.39-19.64,3.31-4.51,7.37-8.13,12.79-9.98,2.46-.84,4.97-1.08,7.55-.85.32.03.64.03.97.03.1,0,.19-.08.45-.19-2.1-4.65-4.19-9.28-6.35-14.06-.23.35-.39.54-.48.76-3.03,7.03-7.96,12.43-14.43,16.4-6.67,4.1-13.93,6.53-21.81,6.65-8.79.14-16.28-2.88-21.82-9.92-3.45-4.38-5.18-9.49-5.83-14.97-1.08-9.07,1.08-17.46,5.45-25.37.2-.35.36-.73.55-1.1-.21-.08-.29-.14-.34-.12-3.14,1.3-6.28,2.63-9.42,3.92-.6.25-1.26.35-1.89.52-.11-.65-.44-1.35-.29-1.94,1.62-6.5,2.78-13.17,6.56-18.92.33-.5.57-1.07.88-1.67-.18-.02-.29-.07-.36-.04-3.56,1.86-7.11,3.74-10.68,5.6-4.77,2.48-8.17,6.1-9.64,11.39-1.03,3.72-1.88,7.43-1.3,11.35.25,1.69-.09,1.96-1.78,2.26-.28.05-.55.16-.8.29-10.48,5.63-20.32,12.2-29.09,20.29-1,.92-1.91,1.95-2.88,2.91-1.02,1-2.1,1.24-3.12.73-1.07-.53-1.65-1.61-1.28-3.01.32-1.23.81-2.46,1.49-3.54,2.83-4.49,6.6-8.12,10.72-11.41,7.06-5.63,14.41-10.85,22.49-14.94.86-.44,1.03-1.12,1.14-1.91.73-5.19,3.33-9.31,7.45-12.41,2.46-1.85,5.18-3.36,7.75-5.07,3.31-2.21,6.6-4.47,9.89-6.72.92-.63,1.83-1.24,2.97-.61.93.51,1.34,1.77.95,3.18-.34,1.2-.79,2.38-1.28,3.53-1.03,2.41-2.13,4.79-3.18,7.18-.16.35-.25.73-.44,1.3.47-.14.76-.2,1.03-.32,6.36-2.83,12.74-5.65,19.08-8.53,1.61-.73,3.16-.96,4.75-.09,2.55,1.39,3.14,4.81,1.16,7.03-.88.99-1.92,1.83-2.91,2.72-5.89,5.32-10.42,11.58-13.02,19.12-1.98,5.77-2.18,11.62-.29,17.47,2.4,7.4,8.04,11.83,15.83,11.83,9.57,0,17.82-3.49,24.35-10.62,4.03-4.41,5.63-9.74,5.68-15.63.07-7.76-.81-15.42-2.76-22.93-1.24-4.8-2.63-9.56-3.92-14.34-.2-.73-.66-.75-1.23-.69-2.32.24-4.65.49-6.97.72-.68.07-1.37.16-2.04.11-1.3-.09-2.22-.78-2.66-2.02-.42-1.19-.09-2.52.98-3.28.9-.63,1.89-1.21,2.93-1.55,6.8-2.2,13.82-2.99,20.93-3.06,9.83-.09,19.59.92,29.36,1.77,25.06,2.19,49.19,8.38,72.71,17.1,10.85,4.03,21.51,8.52,31.62,14.22,2.25,1.27,4.52,2.51,6.75,3.83.95.56,1.81,1.28,2.71,1.93.93.67,1.85,1.35,2.79,2,.82.57,1.13,1.41.78,2.23-.36.83-1.19,1.16-2.14,1.02-9.12-1.36-17.55-4.8-25.94-8.43-.38-.16-.78-.29-1.32-.25.15.25.28.53.46.75,9.59,11.89,17.69,24.77,25.57,37.81,3.96,6.55,7.09,13.47,9.97,20.52,2.76,6.76,7.5,11.59,13.92,14.97,5.37,2.83,10.73,5.7,15.86,8.93,7.03,4.42,12.78,10.36,17.95,16.8,6.13,7.65,12.01,15.5,17.94,23.3,6.63,8.72,13.75,16.96,22.6,23.56,6.95,5.18,14.21,9.75,22.56,12.39,6.69,2.12,13.58,3.07,20.56,3.52,6.17.4,12.36.56,18.52-.05,8.41-.83,16.36-3.41,24.16-6.52,17.26-6.9,33.79-15.24,49.6-25,4.67-2.88,9.65-5.12,15-6.41,1.49-.36,3.05-.58,4.58-.6,2.89-.03,4.35,2.13,3.09,4.73-.75,1.55-1.81,3.06-3.08,4.21-5.26,4.78-11.21,8.63-17.38,12.12-10.82,6.12-21.52,12.45-32.81,17.7-13.17,6.12-26.72,11.16-40.89,14.41-8.86,2.03-17.82,3.39-26.93,2.64-10.8-.88-21.13-3.65-31.03-8.09-12.47-5.59-23.81-12.91-33.74-22.29-4.7-4.43-8.95-9.34-13.58-13.85-12.39-12.05-26.02-22.4-41.85-29.59-10.41-4.73-21.42-6.66-32.81-6.72-6.75-.03-13.52-.03-20.26-.31-9.91-.42-19.67-1.89-29.05-5.32-5.51-2.01-10.45-4.94-14.33-9.44-2.78-3.21-4.65-6.92-5.76-10.98-2.91-10.67-3-21.36.32-31.97,1.32-4.22,3.58-7.98,6.28-11.47.23-.29.44-.6.82-1.14Zm334.01,98.47c-.09-.14-.17-.28-.26-.42-.73.07-1.51.01-2.19.24-2.04.67-4.1,1.33-6.05,2.22-6.05,2.74-11.49,6.51-16.98,10.19-15.25,10.24-31.91,17.66-49.09,23.95-8.69,3.18-17.66,5.3-27,4.7-5.91-.38-11.79-1.15-17.67-1.88-14.01-1.74-26.56-7.01-37.82-15.55-11.1-8.42-20.74-18.25-29.32-29.18-6.32-8.05-12.49-16.23-19.56-23.66-4.98-5.23-10.57-9.62-17.16-12.65-4.15-1.9-8.34-3.69-12.48-5.61-7.14-3.3-12.71-8.3-16.3-15.38-3.29-6.47-6.64-12.89-10.71-18.93-6.25-9.26-12.26-18.67-18.62-27.85-3.51-5.07-7.52-9.79-11.26-14.71-.61-.81-1.02-1.79-1.41-2.75-.37-.92-.67-1.9-.86-2.88-.14-.71-.3-1.59-.01-2.18.51-1.04.07-1.28-.75-1.6-11.85-4.68-24.01-8.4-36.36-11.49-.35-.09-.72-.1-1.2-.17.12.46.17.74.26,1.01,1.58,4.66,3.15,9.32,4.74,13.98.56,1.63,1.2,3.23,1.7,4.88.64,2.13-.05,4.14-1.69,5.26-1.63,1.12-3.63,1.03-5.42-.28-.98-.72-1.94-1.48-2.87-2.27-8.6-7.27-18.54-9.56-29.44-7.45-5.99,1.16-8.74,3.83-9.06,11.34,0,.14,0,.29,0,.43.05,4.34,2.15,7.47,5.92,9.41,1.47.76,3.15,1.29,4.8,1.5,2.7.34,5.45.53,8.16.44,7.61-.25,15.22-.72,22.83-1,8.11-.31,16.21.03,24.06,2.24,5.21,1.46,10.33,3.33,15.36,5.33,6.7,2.66,13.07,5.99,18.68,10.6,5.15,4.23,8.52,9.5,8.87,16.34.26,5.06-1.18,9.46-5.07,12.96-2.07,1.86-4.59,2.58-7.14,3.3-.86.24-1.63-.18-2.16-.9-.56-.76-.6-1.59-.19-2.44,1.21-2.52,2.42-5.03,3.61-7.56,1.94-4.11,1.36-7.99-1.49-11.37-1.58-1.86-3.53-3.49-5.54-4.89-4.25-2.97-8.89-5.3-13.71-7.21-6.58-2.61-13.19-5.16-20.3-6.04-1.64-.2-3.13.01-4.58.78-3.29,1.74-5.53,4.45-7.45,7.57-6.43,10.45-5.34,28.05-.4,37.07,1.01,1.85,2.46,3.55,4,5.01,2.83,2.71,6.37,4.27,10.06,5.44,8.45,2.7,17.16,3.92,25.99,4.18,6.79.2,13.58.19,20.37.26,13.32.14,26.04,2.97,38,8.86,16.88,8.31,31.59,19.59,44.62,33.09,5.89,6.1,11.68,12.28,18.36,17.56,11.06,8.73,22.73,16.34,36.33,20.65,6.48,2.05,12.98,3.69,19.81,3.83,8.35.16,16.45-1.39,24.47-3.46,10.45-2.71,20.56-6.43,30.62-10.33,15.49-5.99,30.37-13.21,44.52-21.89,4.16-2.55,8.29-5.19,11.81-8.64.62-.6,1.1-1.34,1.64-2.02Z"/>
        <path class="cls-1" d="m61.45,107.75c.52-.94,1.03-1.72,1.39-2.57.13-.31,0-.83-.17-1.16-4.08-7.36-8.61-14.43-13.79-21.07-3.43-4.39-6.84-8.79-10.25-13.18-.3-.38-.56-.79-.69-1.29,9.83,10.69,18.79,22.02,25.87,35.04.53-.91.97-1.59,1.34-2.31.11-.21.09-.57-.02-.79-3.8-7.37-7.39-14.85-11.47-22.06-5-8.84-10.41-17.45-15.63-26.16-.41-.69-.77-1.41-1.15-2.12l.29-.23c.34.31.73.58,1,.94,3.1,4.27,6.34,8.45,9.23,12.85,6.68,10.16,12.48,20.81,17.46,31.9.52,1.16.98,2.36,1.53,3.7.59-.9,1.22-1.63,1.56-2.47.2-.48.03-1.18-.14-1.73-1.9-6.06-3.86-12.1-5.76-18.16-.81-2.6-1.53-5.23-2.27-7.85-.12-.44-.16-.9-.24-1.35.1-.04.2-.08.3-.12.39.75.85,1.48,1.16,2.27,1.5,3.85,3.01,7.69,4.4,11.57,1.41,3.92,2.7,7.88,4.04,11.82.08.24.17.47.32.89.56-.73,1.02-1.39,1.54-1.99.77-.89,1.54-1.8,2.41-2.6.27-.25.83-.18,1.26-.26-.02.4.09.88-.09,1.19-1.21,2.04-2.5,4.02-3.7,6.07-.24.4-.32,1.02-.21,1.48.86,3.59,1.8,7.16,2.67,10.75.08.32-.2.73-.31,1.1-.31-.27-.77-.49-.9-.83-1.13-3.01-2.2-6.05-3.36-9.25-.82,1.38-1.49,2.77-2.4,3.98-1.32,1.76-1.36,3.43-.17,5.21.15.22.21.51.13.88-.59-.8-1.18-1.6-1.87-2.54-.49.85-.97,1.55-1.29,2.32-.11.26.09.73.27,1.03,1.08,1.82,2.21,3.6,3.28,5.43.16.27.04.69.06,1.04-.34-.11-.77-.11-.99-.33-1.39-1.39-2.74-2.82-4.15-4.29-1,1.75-1.99,3.48-2.99,5.22-.61,1.06-1.26,2.09-1.83,3.17-.56,1.07-.53,2.16.23,3.14.9,1.16,1.75,2.38,2.76,3.43,2.47,2.57,5.69,2.75,9.16,2.68-.51-1.38-.99-2.64-1.44-3.91-.27-.74-.55-1.49-.72-2.25-.07-.32.1-.94.29-1,.32-.1.91,0,1.11.25.62.78,1.16,1.64,1.64,2.52.61,1.14,1.19,2.3,1.68,3.49.31.75.76,1.05,1.54,1.01.77-.04,1.55-.02,2.45-.03-.66-1.36-1.3-2.63-1.89-3.92-.36-.78-.72-1.57-.95-2.4-.11-.41.06-.89.11-1.34.35.26.81.44,1.02.78,1.27,2.05,2.5,4.11,3.68,6.2.38.67.8.98,1.6.97,1.29-.02,2.58.09,4.03.15-.17-.34-.27-.58-.41-.8-.99-1.54-2.02-3.05-2.94-4.63-.26-.45-.19-1.08-.27-1.63.47.25,1.06.4,1.38.77,1.55,1.79,3.06,3.62,4.51,5.49.49.64,1,.9,1.8.89,7.19-.08,14.38.07,21.55-.22,9.91-.39,19.45,1.22,28.82,4.33,6.44,2.14,12.94,4.09,19.43,6.09,1.05.32,2.16.42,3.53.68-.34-.76-.57-1.26-.79-1.76-1.41-3.29-2.96-6.54-4.18-9.9-1.24-3.42-3.23-6.17-6.27-8.1-2.48-1.58-5.07-2.99-7.59-4.51-.34-.2-.51-.67-.77-1.01.35-.25.67-.65,1.06-.72,3.14-.53,6.01.32,8.62,1.98,4.19,2.67,7.08,6.4,8.4,11.2.91,3.31,2.21,6.44,3.77,9.48.54,1.05,1.01,2.15,1.34,3.28.5,1.75-.34,3.07-2.12,3.42-2.61.51-5.23.61-7.77-.31-8.29-3.01-16.83-5.11-25.32-7.43-5.9-1.61-11.91-2.31-18-2.51-4.96-.17-9.91-.27-14.87-.4-.17,0-.35.02-.71.04.31.65.57,1.19.97,2.02-.35-.23-.49-.27-.53-.35-.76-1.6-2.08-1.98-3.73-1.85-1.06.08-2.14-.05-3.45-.1.28.46.48.76.66,1.08,2.17,3.8,4.35,7.59,6.49,11.41.14.25-.05.7-.09,1.05-.34-.16-.83-.22-1.01-.48-2.8-3.99-5.6-8-8.33-12.04-.59-.87-1.22-1.27-2.28-1.25-1.31.03-2.63-.1-4.14-.17.25.51.42.85.59,1.19,4.94,9.47,9.15,19.26,12.35,29.45.76,2.43,1.31,4.92,1.9,7.4.08.35-.2.79-.31,1.19-.26-.29-.64-.53-.76-.86-4.62-12.76-9.45-25.43-15.79-37.47-.41-.78-.86-1.12-1.74-1.07-.85.05-1.71-.04-2.69-.08.73,1.95,1.42,3.78,2.1,5.62,3.05,8.31,4.77,16.92,5.58,25.71.44,4.75.81,9.52,1.06,14.28.15,2.79.02,5.59-.05,8.39,0,.32-.44.63-.68.95-.3-.3-.81-.57-.86-.91-.7-4.72-1.52-9.43-1.96-14.17-.87-9.26-1.58-18.54-4.22-27.52-1.15-3.92-2.58-7.76-3.86-11.65-.2-.62-.54-.81-1.17-.83-1.29-.04-2.58-.13-3.87-.28-3.62-.41-6.49-2.18-8.78-4.95-.59-.72-1.15-1.47-1.71-2.22-1.43-1.9-1.63-3.94-.59-6.08.3-.61.63-1.21.96-1.8,1.33-2.34,2.65-4.69,4.02-7,.38-.64.3-1.06-.17-1.61-4.28-5.07-9.06-9.61-14.22-13.77-6.83-5.51-14.03-10.5-21.52-15.06-2.06-1.26-4.43-2-6.64-3.03-.38-.18-.65-.61-.96-.92.4-.24.84-.71,1.21-.67,1.27.15,2.64.24,3.75.8,3.23,1.63,6.47,3.29,9.48,5.28,7.2,4.74,14.18,9.82,20.59,15.61,3.35,3.03,6.45,6.33,9.67,9.52.15.15.29.3.58.6Z"/>
        <path class="cls-1" d="m85.26,96.6c.5-4.99,2.3-8.78,6.38-11.17.72-.42,1.59-.68,2.42-.78,1.89-.22,3.51,1.44,2.92,3.24-1.5,4.58-4.53,8.01-8.77,10.26-1.48.78-2.96-.36-2.95-1.55Z"/>
        <path class="cls-1" d="m105.36,128.07c-1.81-.35-3.49-.65-5.16-1.01-.44-.1-.88-.32-1.27-.58-1.02-.68-1.95-1.53-1.71-2.87.23-1.33,1.27-2.17,2.55-2.31,3.73-.4,7.39-.04,10.73,1.84,1.85,1.04,1.84,2.79-.12,3.65-1.56.69-3.35.87-5.02,1.28Z"/>
        <path class="cls-1" d="m162.96,128.07c.47.06.94.1,1.41.19,2.91.56,5.83,1.12,8.73,1.71.3.06.56.32.84.49-.24.17-.47.42-.74.5-3.69,1.02-6.9-.28-10-2.09-.16-.09-.24-.32-.36-.49.04-.1.07-.2.11-.3Z"/>
      </g>
    </g>
  </g>
</svg>