<?xml version="1.0" encoding="UTF-8"?>
<svg id="Layer_2" data-name="Layer 2" xmlns="http://www.w3.org/2000/svg" viewBox="0 0 354.08 328.96">
  <defs>
    <style>
      .cls-1 {
        fill: #869e57;
        stroke-width: 0px;
      }
    </style>
  </defs>
  <g id="Layer_1-2" data-name="Layer 1">
    <g>
      <path class="cls-1" d="m344.85,194.12s-231.08-64.3-261.51-57.98S-5.1,156.87.36,134.18c5.46-22.69,57.93-23.16,57.93-23.16,0,0,128.57,7.47,176.27,33.66s110.32,37.99,114.34,41.68,11.03,10.83-4.05,7.75Z"/>
      <path class="cls-1" d="m204.16,53.38c-12.56-9.02-51.24-66.45.66-50.63,51.9,15.82,49.49,24.33,62.52,48.01,13.03,23.68-1.23,26.25,13.77,63.68s20.34,44.71,14.96,76.14-21.29,49.97-43.47,58.27c-22.18,8.3-28.89,14.57-36.44,29.54s-48.54,47.11-66.78,50.36c-18.24,3.25-35.01-31.33,4.93-52.27s49.71-36.59,55.24-50.53c5.53-13.94,53.01-41.25,53.01-41.25l6.94-10.75s-16.38-52.07-24.14-71.93c-7.77-19.87-41.21-48.64-41.21-48.64Z"/>
      <path class="cls-1" d="m134.91,30.76s33.47,5.83,51.09,34.61,38.98,57.92,30.36,86.94-25.09,56.69-36.71,66.44c-11.62,9.75-25.66,6.92-37.1,22.71s-17.86,31.16-31.22,32.31-46.98-17.84-12.83-39.63,54.32-53.48,54.32-53.48c0,0,27.31-7.1,27.51-22.58.19-15.48-33.01-61.1-37.05-80.62-4.03-19.52-28.74-21.09-23.95-31.94s12.63-18.16,15.59-14.76Z"/>
      <path class="cls-1" d="m66.47,72.66s4.04-19.25,32.54,2.88c28.5,22.13,42.77,33.16,40.32,50.06-2.45,16.9-18.38,44.67-28.78,60.71s-29.49,25.09-40.79,26.73-50.61-20.9-23.85-34.64c26.76-13.75,44.11-15.57,56.68-33.82s1.64-31.79-12.15-35.65-43.37-30.87-23.97-36.27Z"/>
    </g>
  </g>
</svg>