<?xml version="1.0" encoding="UTF-8"?>
<svg id="Layer_2" data-name="Layer 2" xmlns="http://www.w3.org/2000/svg" viewBox="0 0 320.23 487.45">
  <defs>
    <style>
      .cls-1 {
        fill: #fbbd43;
      }

      .cls-1, .cls-2 {
        stroke-width: 0px;
      }

      .cls-2 {
        fill: #1d1e1e;
      }
    </style>
  </defs>
  <g id="Layer_1-2" data-name="Layer 1">
    <g>
      <path class="cls-1" d="m8.91,134.93S.91,58.43,12.41,34.43,39.91-15.07,56.91,10.93s38,32.5,38,32.5c0,0,25.5,16.57,14,24.04s-23.5,1.96-17.5,14.46,8.96,30.48,20.48,15.99,44.52-11.99,42.02,7.51-8.5,32-12,43.5,9,35,9,35c0,0,28.5,22.89,32,28.95s17-10.45,34.5-14.45,32,17,28.5,33.5,1.5,32.5,1.5,35.5-8,18.5-11.5,21-2,24.5-2,24.5c0,0-8,11,15,12s29.5,22,21,36-14.5,28.5-31,21.5-36.12-24.5-38.06-16.5-3.94,34.5,10.06,46,23.5,30,29.5,36,20.5,8.5,47.5-3.5,51.5,11,10.5,25-83.41,29-91.95,6.5,6.45-28.5-18.05-40-51.67-14.5-39.84-42.5,14.16-65.5,0-62.5-.16,36.5-31.16,15.5-37.5-44.5-24.5-59,1.5-37-12-38-2.5-5.5-29.5,1.5-69-16.5-43.5-32,42.5-15.5,27-42-26-42-26-42Z"/>
      <g>
        <path class="cls-2" d="m124.47,291.1c-.43,1.12-.89,1.98-1.1,2.9-.44,1.9-.76,3.83-1.11,5.76-.54,3.06-1.07,6.12-1.6,9.18-.12.67-.21,1.35-.33,2.14,1.28.64,2.5,1.25,3.72,1.88,1.4.72,2.65,1.59,3.46,3,.93,1.61.7,3.31-.64,4.32-1.33,1.01-3.1.77-4.32-.58-1.26-1.39-1.32-1.43-3.44-2.28-.09.7-.23,1.34-.25,1.98-.02,1.09.13,2.19.05,3.27-.14,1.94-1.86,3.32-3.66,3.04-1.88-.29-2.83-1.98-2.43-4.02.43-2.18.71-4.38,1.08-6.72-1.47.19-2.53.47-3.47,1.55-1.21,1.38-3.02,1.68-4.76,1.29-1.79-.4-2.6-2.51-1.73-4.16.58-1.11,1.48-1.9,2.7-2.26,1.7-.5,3.39-1.01,5.32-1.58-.5-.31-.79-.54-1.13-.69-2.05-.9-4.12-1.78-6.18-2.66-.26-.11-.53-.22-.78-.37-1.23-.75-1.71-2.16-1.17-3.43.53-1.25,1.92-1.97,3.28-1.52,1.08.36,2.11.9,3.13,1.43,1.68.87,3.32,1.81,5.14,2.8.17-.58.34-.99.42-1.41.58-3.4,1.04-6.83,1.76-10.19.41-1.89,1.09-3.76,1.95-5.49,1.83-3.66,5.19-4.82,9-3.3,1.49.6,2.87,1.44,4.31,2.16,1.23.61,2.46,1.24,3.73,1.78,1.07.46,2,.17,2.8-.7,1.01-1.1,1.7-2.22,1.48-3.85-.15-1.11.1-2.29.26-3.42.58-4.22,1.2-8.43,1.8-12.64.05-.33.04-.67.08-1.26-.99.63-1.79,1.15-2.61,1.65-3.04,1.83-6.24,3.18-9.87,3.23-4.36.06-7.61-1.84-9.91-5.48-2.11-3.35-3.04-7.09-3.28-10.96-.5-8.27.56-16.35,3.98-23.93,3.15-6.98,8.33-11.93,15.87-14.04,4.68-1.31,9.22-1.14,13.37,1.76.09.07.2.12.31.15.11.03.22.04.54.08.29-1.49.57-2.99.88-4.6-.49-.28-.91-.55-1.36-.77-1.65-.82-3.31-1.6-4.95-2.45-.71-.37-1.41-.8-2.02-1.31-.91-.75-1.2-1.87-.79-2.79.46-1.04,1.3-1.61,2.43-1.64.63-.01,1.27.07,1.88.22,6.69,1.72,12.95,4.44,18.53,8.53,2.7,1.98,5.05,4.34,6.5,7.46.47,1.01.54,1.64-.02,2.21-.62.62-1.29.47-2.07.24-2.79-.84-5.2-2.41-7.67-3.86-.53-.31-1.07-.59-1.84-1-.53,3.82-1.02,7.37-1.56,11.22.86-.17,1.56-.33,2.26-.45,3.19-.56,5.96.31,8.13,2.68,1.5,1.64,2.27,3.7,2.67,5.9.7,3.91.4,7.81-.2,11.68-1.31,8.35-2.79,16.67-4.04,25.03-.51,3.46-.78,6.98-.84,10.48-.13,7.35,1.98,14.05,6.32,20.04,2.4,3.3,4.8,6.61,6.99,10.05,4.12,6.48,6.15,13.69,7,21.28,1.11,9.91-.06,19.62-2.3,29.26-1.33,5.71-2.67,11.42-3.12,17.3-.56,7.43.46,14.56,3.78,21.31,2.43,4.95,5.9,9.03,10.18,12.45,2.69,2.16,5.39,4.32,8.12,6.42,7.54,5.82,13.49,12.96,18.04,21.3,1.74,3.18,3.46,6.37,5.35,9.46,1.5,2.45,3.17,4.8,4.89,7.1,5.31,7.08,12.48,9.58,21.11,8.47,6.14-.79,12.06-2.46,17.88-4.47,6.36-2.19,12.65-4.59,18.98-6.86,1.4-.5,2.86-.84,4.28-1.27,1.15-.35,2.3-.7,3.44-1.08.66-.22,1.34-.26,1.73.31.28.42.39,1.08.31,1.58-.06.36-.54.7-.9.96-.51.37-1.13.59-1.61.99-5.65,4.8-12.24,7.92-19.1,10.47-7.34,2.73-14.8,5.07-22.57,6.26-4.06.62-8.12.8-12.19-.01-6.59-1.31-11.88-4.72-16.17-9.85-3.67-4.4-6.59-9.27-9.32-14.28-1.13-2.07-2.3-4.11-3.47-6.16-3.64-6.43-8.35-11.95-14.1-16.6-2.68-2.17-5.33-4.38-8.02-6.55-12.63-10.19-18.22-23.47-17.37-39.57.3-5.65,1.43-11.17,2.58-16.69,1.53-7.28,2.65-14.6,2.21-22.08-.29-4.84-1-9.6-2.19-14.3-1.5-5.96-4.46-11.18-8.11-16.06-2.41-3.23-4.78-6.48-6.64-10.07-3.38-6.56-4.52-13.59-4.37-20.88.12-5.89,1.17-11.66,2.16-17.44,1.06-6.23,2.16-12.47,3.05-18.72.35-2.43.36-4.94.19-7.39-.2-2.86-1.43-3.38-3.87-1.82-2.44,1.56-4.29,3.5-4.8,6.59-1.74,10.55-3.61,21.08-5.41,31.62-.37,2.15-.57,4.34-.99,6.48-.25,1.28-.75,2.52-1.18,3.77-.11.32-.3.67-.56.86-1.54,1.1-2.36,2.8-3.54,4.19-2.74,3.24-6.04,4.15-10.06,2.58-1.87-.73-3.61-1.76-5.41-2.65-.91-.45-1.82-.89-2.96-1.45Zm-.74-40.72c-.02,3.35.25,6.78,1.64,10.01,1.33,3.1,2.98,3.8,6.19,2.68.65-.23,1.28-.51,1.89-.83,2.34-1.2,4.34-2.83,5.83-5,1.2-1.75,2.29-3.57,3.31-5.44,3.78-6.96,4.82-14.67,5.97-22.35.08-.56-.15-1.28-.47-1.77-1.69-2.6-4.05-4.02-7.24-3.76-3.25.27-6.12,1.5-8.59,3.61-2.91,2.48-4.96,5.55-6.18,9.17-1.48,4.39-2.17,8.92-2.34,13.65Z"/>
        <path class="cls-2" d="m124.48,117.13c-2.04,0-3.94.02-5.83,0-2.05-.02-2.99-.92-3.24-3.02-.24-2.02.76-3.82,2.37-4.28,1.17-.33,2.88.42,3.73,1.65.22.33.37.71.61,1.19h2.31c-.09-.7-.15-1.36-.26-2.01-.41-2.47-.29-4.93.19-7.38.3-1.53,2.2-2.86,3.74-2.69,1.07.12,1.96.9,2.1,1.98.14,1.05.11,2.15-.66,2.93-.69.7-.82,1.47-.78,2.35.04.95.08,1.9.31,2.91,1.69-2,4.18-3.31,4.66-6.17.17-.98.8-1.67,1.81-1.86,1.02-.19,1.78.24,2.34,1.09.28.43.6.84.91,1.26,1.3,1.75.34,4.39-1.82,4.62-.99.11-1.56.55-2.15,1.19-.53.59-1.09,1.15-1.5,1.97,1.2-.28,2.39-.6,3.59-.82,1.81-.33,3.43.03,4.69,1.49,1.12,1.3.95,2.93-.47,3.87-1.28.84-2.6,1.21-3.97.07-.3-.25-.86-.36-1.25-.29-2.03.35-4.05.78-6.2,1.2,0,.35-.03.74,0,1.11,1.29,15.08-2.62,28.71-11.47,40.94-2.93,4.05-6.44,7.51-10.95,9.81-2.59,1.32-5.31,2.19-8.22,2.41-5.06.39-9.4-1.31-13.09-4.68-1.01-.92-1.81-1-3.04-.47-4.84,2.1-9.91,2.89-15.17,2.31-8.8-.97-15.7-7.23-17.93-15.7-2-7.61-.91-14.94,2.33-22.02,1.95-4.27,4.62-8.07,7.76-11.56.27-.3.54-.6.79-.91.07-.08.08-.21.17-.49-.5-.21-1.01-.42-1.53-.63-7.57-3.03-12.79-8.23-14.92-16.24-1.7-6.41-1.26-12.68,1.66-18.66,3.19-6.54,7.73-11.83,14.47-14.93,1.55-.72,3.23-1.16,5.06-1.8-.68-1.15-1.36-2.3-2.11-3.57-.67.19-1.27.34-1.85.53-5.59,1.82-10.96,4.18-16.2,6.83-.87.44-1.74.89-2.65,1.26-1.18.48-2.16.2-2.76-.67-.59-.85-.55-1.96.39-2.81,1.31-1.19,2.71-2.33,4.2-3.28,4.18-2.68,8.7-4.68,13.33-6.46.58-.22,1.15-.47,1.73-.71-.09-.29-.1-.47-.19-.61-4.72-7.35-9.12-14.92-14.53-21.81-1.1-1.4-2.28-2.74-3.47-4.07-.45-.5-1.02-.9-1.72-1.52-.65.78-1.36,1.39-1.77,2.16-1.19,2.23-2.41,4.46-3.37,6.79-3.84,9.31-6.15,19.04-7.26,29.03-.74,6.63-1.29,13.28-1.56,19.94-.16,3.88.37,7.8.65,11.69.56,7.89,2.18,15.59,4.1,23.24,1.62,6.47,3.25,12.93,4.93,19.39.83,3.18,1.59,6.35,1.69,9.65.02.65-.07,1.17-.72,1.38-.59.19-.95-.18-1.26-.65-1.56-2.36-2.9-4.83-3.74-7.54-2.64-8.51-5.31-17.01-7.89-25.54-.58-1.92-.86-3.93-1.26-5.9-.54-2.64-1.18-5.27-1.59-7.93-1.47-9.48-1.55-19.02-.83-28.57.66-8.85,1.84-17.62,3.98-26.24.18-.74.03-1.26-.41-1.9-1.58-2.27-1.29-5.09.66-6.9.45-.41,1.03-.84,1.6-.93,1-.15,1.29-.75,1.57-1.55,1.32-3.75,2.76-7.45,4.83-10.86,1.23-2.03,2.64-3.92,4.88-4.97,1.95-.92,3.88-.87,5.79.12,1.88.98,3.27,2.53,4.53,4.18,1.89,2.46,3.72,4.97,5.52,7.5.57.79,1.12,1.27,2.19,1.37,1.73.16,2.83,1.42,3.66,2.84.84,1.43.99,3.03.83,4.67-.05.49-.09,1.09.13,1.49,1.92,3.33,3.9,6.63,5.95,10.08.62-.15,1.22-.28,1.81-.43,5.53-1.43,11.11-2.41,16.86-2.33,2.83.04,5.41.94,8.06,1.66.76.21,1.14.81,1.1,1.56-.04.85-.59,1.31-1.42,1.51-3.63.87-7.32,1.41-11.02,1.86-3.59.44-7.16,1.07-10.74,1.63-.38.06-.75.21-1.22.35.65,1.74,1.23,3.39,1.9,5.02.12.29.59.52.94.63,4.11,1.35,6.95,4.15,8.97,7.88,2.29,4.23,3.41,8.78,3.6,13.55.04.95-.13,1.97-.47,2.86-.51,1.32-1.72,1.43-2.51.26-.47-.7-.76-1.54-.99-2.36-.51-1.83-.81-3.72-1.41-5.51-.75-2.22-1.61-4.43-2.64-6.54-.56-1.16-1.45-2.22-2.38-3.15-2.23-2.24-4.99-3.03-8.08-2.37-1.23.26-2.49.61-3.59,1.19-7.7,4.08-12.32,10.48-13.36,19.12-1,8.35,3.5,15.63,11.29,18.83,1.95.8,4.08,1.16,6.13,1.68,1.13.29,2.1-.05,3.07-.72,2.95-2.04,6.09-3.7,9.55-4.71,1.72-.5,3.48-.76,5.28-.62,2.19.18,4.51,2.32,4.84,4.49.19,1.22-.18,2.26-.97,3.19-1.25,1.48-2.79,2.54-4.55,3.34-3.67,1.67-7.54,2.48-11.54,2.58-1.31.04-2.28.48-3.23,1.32-4.99,4.41-9.01,9.52-11.33,15.83-1.63,4.42-2.06,8.95-.95,13.57,1.63,6.78,6.81,10.93,13.79,11.05,2.67.05,5.27-.4,7.79-1.28.42-.14.8-.37,1.29-.59-.58-1.36-1.21-2.59-1.65-3.89-3.52-10.39-2.22-19.97,5.08-28.4,2.77-3.2,6.25-5.39,10.59-5.96,3.87-.5,7.83,1.5,9.69,4.93,1.74,3.2,2.2,6.64,1.94,10.19-.75,10.41-5.43,18.74-13.56,25.19-.4.32-.8.64-1.29,1.04.27.36.47.7.74.94,2.67,2.42,5.8,3.16,9.29,2.54,3.19-.58,5.95-2.07,8.42-4.14,3.9-3.26,6.83-7.29,9.26-11.7,4.82-8.76,7.26-18.1,6.66-28.16-.11-1.88-.17-3.77-.26-5.84Zm-38.64,39.82c2.15-1.51,3.85-3.12,5.34-4.95,3.78-4.65,5.98-9.94,6.1-15.96.03-1.52-.3-3.09-.73-4.55-.39-1.32-1.36-1.84-2.71-1.54-1.1.24-2.2.69-3.16,1.28-2.2,1.37-3.76,3.35-4.97,5.63-2.33,4.4-2.75,9.08-1.93,13.92.35,2.09.87,4.14,2.05,6.19Z"/>
        <path class="cls-2" d="m189.21,272.54c.36-.52.7-1.04,1.06-1.54,2.35-3.33,5.01-6.3,8.86-7.97.36-.16.78-.58.85-.94.29-1.46.57-2.94.04-4.59-1.84-.19-3.72-.39-5.59-.59-1.26-.13-2.52-.23-3.77-.4-.68-.09-1.36-.25-2.01-.47-1.31-.46-1.91-1.25-1.9-2.37,0-1.12.62-1.96,1.94-2.32,1.21-.33,2.47-.58,3.72-.66,2.01-.13,4.02-.09,6.03-.12.56,0,1.12,0,1.79,0,.25-2.19.47-4.24.71-6.29.7-5.95,1.7-11.84,3.81-17.49,1.35-3.63,2.95-7.13,5.48-10.11,2.32-2.74,5.11-4.79,8.72-5.51,3.85-.77,7.1.82,8.87,4.32,1,1.98,1.48,4.1,1.77,6.28.72,5.51.51,11.03-.16,16.52-.7,5.76-1.61,11.5-2.43,17.25-.03.22-.04.45-.07.8.38.2.76.42,1.16.61,2.28,1.1,4.55,2.2,6.83,3.29,1.44.69,2.28,1.94,2.93,3.29.89,1.83-.3,3.9-2.33,4.06-1.49.12-2.97.02-4.35-.76-1.4-.79-2.86-1.47-4.31-2.17-.45-.22-.94-.37-1.5-.58-.18.46-.35.81-.45,1.18-2.3,9.2-4.66,18.39-6.87,27.62-1.58,6.6-2.77,13.29-3.01,20.1-.16,4.56.07,9.1,1.47,13.49,2.25,7.08,6.66,12.52,12.77,16.64,1.48,1,3.11,1.72,4.82,2.15,1.89-2.49,3.74-4.89,5.54-7.34.46-.63.81-1.38,1.07-2.13.46-1.31,1.38-2.23,2.39-3.1.17-.15.39-.24.61-.32,1.77-.7,3.14.21,4.44,1.18,1.18.89,1.48,2.15,1.12,3.56-.48,1.92-1.49,3.38-3.56,3.78-.81.16-1.32.61-1.73,1.28-.68,1.11-1.4,2.18-2.21,3.43.63.14,1,.25,1.38.31,2.22.33,4.43.68,6.66.96.67.08,1.37,0,2.05-.07,2.07-.2,4.47,1.51,4.7,3.48.22,1.93-.69,3.5-2.07,4.7-1.34,1.17-2.94.94-4.34.06-1.33-.84-2.76-1.06-4.26-1.15-1.31-.08-2.62-.24-4.09-.39,0,.52-.07.96.01,1.38.4,2.03.8,4.06,1.29,6.07.11.44.46.93.84,1.17,1.96,1.27,1.9,2.98,1.31,5.23-.45,1.73-1.71,2.54-3.82,2.55-.68,0-1.4-.04-2.04-.24-1.6-.49-2.47-1.96-2.24-3.81.12-.95.12-1.77-.45-2.61-.33-.49-.4-1.19-.52-1.8-.34-1.68-.65-3.37-1-5.23-.45.26-.77.36-.98.57-1.49,1.43-2.99,2.86-4.43,4.35-.27.28-.39.8-.42,1.22-.28,3.16-3.4,5.04-6.29,3.69-.63-.3-1.24-.88-1.59-1.49-1.1-1.92.1-5.36,2.15-6.19.74-.3,1.25-.63,1.61-1.38.28-.59.85-1.07,1.34-1.55,1.36-1.33,2.74-2.62,4.11-3.94.07-.07.08-.2.14-.38-.17-.11-.35-.25-.54-.34-11.35-5.44-19.2-16.39-20.7-28.88-.85-7.04-.44-14.04.93-20.95,1.76-8.91,3.84-17.75,5.8-26.62.78-3.54,1.63-7.06,2.43-10.59.14-.6.22-1.22.32-1.78-2.07-1.18-10.81-3.44-13.25-3.44-.03.21-.1.43-.09.64.65,9.83.28,19.66-.17,29.49-.2,4.48-.13,8.97-.2,13.46-.02,1.09-.03,2.19-.17,3.27-.23,1.82-1.63,3.02-3.4,3.04-1.83.03-3.31-1.23-3.52-3.11-.12-1.02-.12-2.07-.08-3.1.4-9.36.84-18.73,1.24-28.09.07-1.58,0-3.17,0-5.08-.6.56-1.07.94-1.47,1.38-2.88,3.21-4.9,6.94-6.48,10.92-.27.68-.33,1.45-.49,2.18-.11.51-.16,1.03-.32,1.52-.42,1.32-1.52,2.15-2.81,2.16-1.34.01-2.59-.87-2.88-2.27-.18-.87-.13-1.83,0-2.72.45-3.29-.54-6.14-2.62-8.64-1.06-1.28-1.68-1.3-2.85-.13-6.48,6.4-4.74,15.69.07,19.72.88.74,1.86,1.35,2.76,2.06,1.11.9,2.24,1.79,3.26,2.78.94.91.62,2.13-.62,2.6-1.99.76-3.93.7-5.8-.39-6.87-4.01-10.02-10.11-9.75-17.94.18-5.23,2.4-9.67,6.14-13.3,1.65-1.6,3.6-2.62,6.05-2.42,1.58.13,2.91.79,3.99,1.84,1.26,1.24,2.35,2.65,3.66,4.17Zm31.35-18.36c.14-.52.28-.89.34-1.28,1.21-7.73,2.11-15.5,2.28-23.33.06-2.74-.18-5.52-.57-8.24-.58-3.96-2.19-4.51-5.4-2.03-1.62,1.25-2.8,2.88-3.78,4.66-1.62,2.93-2.92,6.03-3.64,9.29-1.23,5.61-2.24,11.27-3.33,16.91-.06.31.04.65.06.88,4.71,1.06,9.29,2.09,14.04,3.15Z"/>
        <path class="cls-2" d="m117.34,188.48c-.24,1.47-.46,2.7-.64,3.95-.67,4.56-1.72,9.02-3.03,13.45-.83,2.8-1.23,5.73-1.69,8.62-1.74,10.94-2.31,21.95-2.05,33.02.04,1.78-.07,3.57-1.08,5.16-1.06,1.67-2.25,1.93-3.9.84-1.71-1.12-2.43-2.87-2.98-4.7-1.23-4.08-1.22-8.29-1.07-12.49.12-3.33.4-6.66.6-9.99.05-.74.09-1.47.16-2.63-.72.54-1.16.84-1.57,1.17-4.64,3.76-9.87,6.08-15.87,6.47-6,.39-10.56-2.25-13.96-7.02-3.08-4.32-4-9.3-3.56-14.45.39-4.57,1.26-9.11,1.92-13.66.54-3.75,1.17-7.5,1.58-11.26.17-1.52.01-3.12-.28-4.62-.5-2.58-2.22-3.51-4.59-2.36-2.77,1.34-5.02,3.3-5.34,6.66-.49,5.11-.53,10.23.35,15.3.73,4.25,1.59,8.47,2.38,12.71.52,2.79.78,5.58-.1,8.36-.91,2.88-2.46,5.3-4.9,7.12-1.98,1.48-4.24,1.98-6.66,1.9-3.35-.12-6.64-.63-9.86-1.53-.5-.14-1-.27-1.5-.38-.09-.02-.2.07-.49.19.25,1.58.5,3.2.77,4.83.12.74.32,1.46.4,2.21.15,1.51-.77,2.75-2.2,3.05-1.4.29-2.78-.51-3.17-1.99-.35-1.33-.55-2.7-.86-4.29-.85.58-1.59,1.09-2.32,1.59-.71.48-1.44.96-2.15,1.45-.52.36-1.01.77-1.55,1.1-1.41.86-2.82.69-3.74-.41-.9-1.08-.85-2.61.3-3.74,1.64-1.61,3.38-3.12,5.07-4.68.58-.53,1.15-1.09,1.89-1.79-.73-.22-1.2-.36-1.68-.5-.77-.22-1.57-.39-2.31-.67-1.84-.7-2.65-2.03-2.23-3.53.42-1.48,1.68-2.2,3.55-1.95.97.13,1.92.38,2.87.57.62.12,1.23.25,2.05.42.12-.78.27-1.49.34-2.2.07-.69,0-1.39.1-2.06.23-1.48,1.46-2.45,2.92-2.39,1.48.06,2.58,1.12,2.58,2.69,0,1.49-.16,2.97-.26,4.58.4.18.79.39,1.21.53,3.17,1.08,6.42,1.78,9.77,2.04,3.89.29,6.68-1.87,7.13-5.8.18-1.58.1-3.23-.13-4.81-.6-4.15-1.38-8.28-2.02-12.43-.8-5.21-.73-10.44-.16-15.66.4-3.62,1.73-6.78,4.82-8.99.74-.53,1.34-1.26,2.07-1.81,5.42-4.1,12.18-1.89,14.14,4.61.82,2.73,1.13,5.55.85,8.36-.49,4.98-1.15,9.93-1.72,14.9-.3,2.63-.59,5.26-.82,7.89-.19,2.25-.06,4.51.64,6.66.4,1.24.94,2.49,1.68,3.56,1.84,2.63,4.38,3.77,7.63,3.19,3.41-.61,6.51-1.89,9.18-4.12,4.03-3.35,7.33-7.32,9.59-12.06.71-1.49,1.25-3.1,1.62-4.71,1.07-4.71,2.02-9.44,3.02-14.17.09-.44.14-.9.22-1.45-.47-.15-.89-.33-1.32-.42-3.54-.75-7.09-1.48-10.64-2.23-.45-.09-.9-.18-1.35-.3-1.73-.45-2.7-1.63-2.6-3.16.1-1.48,1.12-2.54,2.81-2.77,1.13-.15,2.3-.29,3.43-.2,8.79.64,17.5,1.81,25.95,4.48.77.24,1.52.52,2.28.8,2.65,1,3.86,3.35,2.94,5.72-.91,2.36-3.35,3.28-6.03,2.29-1.62-.6-3.24-1.17-4.88-1.73-.42-.14-.87-.2-1.56-.35Z"/>
      </g>
    </g>
  </g>
</svg>