<?xml version="1.0" encoding="UTF-8"?>
<svg id="Layer_2" data-name="Layer 2" xmlns="http://www.w3.org/2000/svg" viewBox="0 0 374.69 470.7">
  <defs>
    <style>
      .cls-1 {
        fill: #1d1e1e;
      }

      .cls-1, .cls-2 {
        stroke-width: 0px;
      }

      .cls-2 {
        fill: #f9faed;
      }
    </style>
  </defs>
  <g id="Layer_1-2" data-name="Layer 1">
    <g>
      <path class="cls-2" d="m37.19,41.96s42-9.75,87.75-29.25,77.66-18,77.46,14.62,15.54,49.88,17.79,68.62,30.75,54,39,66,25.98,9.84,29.12,22.17,55.93,63.46,69.66,109.52,16.73,74.82,16.73,74.82c0,0-26.25-22.21-36-20.98s-33,6.28-35.25,0-20.41-17.53-20.41-17.53l-27.56-22.5s2.22,21,5.97,39.75,16.47,33,7.48,46.5-2.23,28.5,24.77,36,13.5,35.25-24,37.5-159.92,12.6-128.33-18.08,45.83-23.17,49.58-38.17.75-84.75,1.5-105.75-34.57-54-34.57-54c0,0-11.18-19.5-12.68-33.75s-39.75-59.25-39.75-59.25c0,0-3-62.25-3-69s-45.75-17.25-69-16.5-63.75,0,3.75-30.75Z"/>
      <g>
        <path class="cls-1" d="m198.96,138.8c-.72.62-1.42,1.25-2.16,1.85-1.16.95-2.28,1.88-3.18,3.16-1.19,1.7-3.04,2.78-4.94,3.61-6.47,2.8-13.2,4.36-20.29,3.78-12.31-1.01-23.4-10.36-24.73-24.13-.72-7.49,1.47-14.23,5.13-20.63,4.03-7.04,9.49-12.87,15.31-18.41,5.01-4.77,10.05-9.51,14.9-14.44,4.92-5.01,7.71-11.14,8.41-18.13.64-6.38-1-12.33-4.02-17.91-2.02-3.73-4.6-7.05-7.72-9.94-4.31-3.99-9.51-5.91-15.22-6.64-7.8-1-15.3.4-22.46,3.39-7.56,3.16-15.05,6.52-22.49,9.97-13.93,6.46-28.02,12.52-42.37,17.97-2.28.87-4.59,1.65-6.86,2.63,2.07-.31,4.14-.56,6.2-.94,7.94-1.46,15.91-2.8,23.8-4.47,16.62-3.52,33.19-7.23,49.79-10.85,1.19-.26,2.42-.39,3.61-.62,1.23-.24,2.36.05,3.48.49.89.35,1.03,1.24.36,1.94-.96,1.01-2.1,1.65-3.48,1.93-8.01,1.64-16,3.35-24.01,4.94-9.69,1.92-19.37,3.9-29.1,5.58-10.81,1.86-21.67,3.36-32.5,5.12-5.08.82-10.12,1.88-15.18,2.82-.92.17-1.84.31-2.77.41-.4.04-.92.06-1.21-.15-.38-.27-.72-.75-.82-1.2-.05-.24.37-.73.68-.87.93-.43,1.9-.79,2.88-1.09,13.15-4.03,26-8.88,38.56-14.47,13.05-5.81,26.04-11.75,39.06-17.61,5.69-2.56,11.41-5.08,17.45-6.74,6.11-1.68,12.34-2.36,18.64-1.62,7.44.87,13.89,3.93,19.15,9.32,6.36,6.52,10.45,14.2,11.29,23.34.92,9.99-2.42,18.72-8.91,26.12-4.47,5.09-9.52,9.67-14.28,14.5-1.53,1.56-2.97,3.21-4.15,4.49.86,1.03,1.93,2.25,2.94,3.53,3.9,4.91,6.96,10.33,9.74,15.94,3.28,6.63,6.76,13.16,10.13,19.75.45.87.76,1.82,1.15,2.79.17-.1.38-.17.53-.31,3.29-3.03,6.12-6.42,8.09-10.48,1.39-2.86,1.57-5.88,1.39-8.96-.13-2.25-.19-4.52-.58-6.72-.98-5.58-5.05-8.85-10.71-8.6-1.37.06-2.76.56-4.05,1.09-1.93.79-3.75,1.82-5.86,2.16-1.51.25-2.84.06-3.85-1.16-1.01-1.22-.94-2.55-.43-4,1.43-4.09,4.68-6.08,8.49-7.33,5.06-1.66,10.02-1.18,14.84,1.02.4.18.81.34,1.37.57.04-.56.11-.95.09-1.35-.22-6.04-.46-12.09-.67-18.13-.03-1.02.04-2.06.16-3.08.2-1.61,1.52-2.94,2.99-3.12,1.31-.16,2.75.76,3.4,2.24,1.26,2.86,1.94,5.88,2.23,8.96.66,6.95,1.31,13.9,1.74,20.87.55,8.96.96,17.93,1.28,26.9.27,7.46.27,14.93.5,22.39.26,8.49.56,16.98.97,25.46.49,10.16,1.12,20.3,1.67,30.46.06,1.06.02,2.12-.02,3.18-.1,2.8-2.16,4.93-4.85,5.05-2.71.12-5.02-1.78-5.28-4.58-.45-4.8-.85-9.61-1.1-14.43-.58-11.38-1.12-22.75-1.54-34.13-.25-6.78-.25-13.58-.35-20.36-.01-.66,0-1.31,0-1.97-.1-.04-.2-.07-.31-.11Zm-39.78-37.78s-.23.15-.36.32c-3.14,3.86-5.92,7.95-7.78,12.6-3.86,9.64-1.01,22.43,11.24,27.57,5.04,2.12,10.25,1.87,15.46.69.17-.04.33-.17.49-.25-7.32-13.22-12.59-27.34-19.05-40.92Z"/>
        <path class="cls-1" d="m234.99,279.16c-7.96.19-15.34-1.48-22.54-4.85.12.4.17.63.26.83,9.98,21.19,16.82,43.33,20.36,66.5,1.08,7.08,1.02,14.1-.22,21.13-.36,2.06-.31,4.09.18,6.13,2.69,11.06,3.99,22.28,4.16,33.65.11,7.56.49,15.12.48,22.68,0,4.4-.49,8.8-.86,13.19-.08,1.03-.47,2.06-.85,3.03-.33.83-.97,1.53-1.96,1.46-.93-.06-1.39-.82-1.76-1.61-.72-1.54-.52-3.15-.41-4.75.28-4.08.86-8.16.79-12.23-.15-8.88-.59-17.75-.97-26.62-.32-7.57-1.22-15.07-2.78-22.49-.36-1.7-.78-3.39-1.2-5.07-.62-2.47-.72-4.95-.39-7.47.37-2.77.76-5.55,1-8.34.5-5.76-.45-11.43-1.27-17.1-2.76-18.9-8.11-37.06-15.44-54.67-1.4-3.36-2.81-6.71-4.21-10.06-.39-.94-1.01-1.66-1.87-2.25-7.25-4.99-13.02-11.46-18.16-18.52-9.05-12.45-15.36-26.23-19.66-40.96-1.81-6.19-3.17-12.48-3.34-18.96-.04-1.44.2-2.88.28-4.33.04-.74.05-1.48.02-2.21-.05-1.16.48-1.94,1.44-2.03.93-.1,1.58.51,1.8,1.61.16.79.27,1.6.57,2.34,1.95,4.79,2.94,9.86,4.18,14.85,3.7,14.88,9.5,28.82,18.17,41.52,5.39,7.88,11.76,14.81,19.8,20.08,11.54,7.57,23.87,9,36.92,4.73,4.61-1.51,8.83-3.72,12.58-6.8.62-.51,1.22-1.05,1.79-1.62,4.17-4.22,5.08-9.31,2.65-14.72-1.42-3.15-3.47-5.79-6.33-7.75-2-1.37-4.22-2.02-6.64-1.99-4.82.07-7.84,4.28-6.39,8.89.53,1.68,1.59,2.99,2.87,4.16.66.61,1.36,1.19,1.97,1.85,1.03,1.12,1.25,2.5.63,3.44-.62.93-2.19,1.44-3.49,1.02-3.66-1.19-6.29-3.61-7.88-7.07-1.95-4.23-1.75-8.47.49-12.52,1.76-3.19,4.54-5.24,8.06-6.17,6.33-1.66,11.87.09,16.85,4.1.64.52,1.26,1.07,2.01,1.72.16-.56.29-.97.39-1.4,1.71-7.32,2.07-14.74,1.17-22.16-.89-7.34-2.13-14.64-3.19-21.97-.37-2.55-.69-5.1-.91-7.66-.13-1.58.62-2.59,1.84-2.9,1.21-.31,2.35.23,3.02,1.66.62,1.33,1.13,2.74,1.53,4.15,2.09,7.44,3.86,14.96,4.95,22.61,1.61,11.26,1.18,22.4-2.12,33.35-.12.4-.21.88-.49,1.14-.96.91-.65,1.84-.29,2.88,1.49,4.22,1.69,8.48.32,12.78-1.23,3.85-3.47,7.03-6.47,9.66-8.07,7.08-17.62,10.68-28.19,11.85-.41.04-.81.11-1.03.14.04.93.23,1.77.09,2.54-1.18,6.53-.74,13.09-.31,19.64.69,10.51,1.72,20.98,3.67,31.34,1.32,7.05,2.86,14.06,4.54,21.03,1.14,4.74,1.61,9.45.58,14.23-.81,3.75-.87,7.52-.56,11.33.98,11.94,1.19,23.91.83,35.89-.18,5.95-.53,11.89-.81,17.83-.03.57-.14,1.13-.23,1.85,1.65-1.18,3.4-1.3,5.18-1.2,1.18.06,2.42.94,2.71,1.86.29.91-.27,2.36-1.29,3.01-.75.47-1.58.87-2.43,1.13-2.75.84-5.59,1.21-8.46,1.15-.33,0-.84-.33-.92-.6-.07-.26.29-.67.54-.96.13-.15.41-.15.62-.24,1.26-.53,1.21-.62.99-1.93-.23-1.39-.37-2.81-.36-4.21.11-9.36.27-18.73.43-28.09.18-10.73-.16-21.43-1.29-32.1-.16-1.52-.24-3.13.07-4.61,1.14-5.33.27-10.44-1.04-15.63-4.17-16.54-7.01-33.31-7.87-50.37-.13-2.54-.26-5.08-.31-7.62-.11-5.26.26-10.43,3.36-15.19Zm11.26,157.53c-.56-.41-.96-.7-1.41-1.03-.14.56-.25,1.03-.4,1.62.65-.21,1.16-.38,1.8-.59Z"/>
        <path class="cls-1" d="m338.03,298.1c.12,1.71.26,3.43.34,5.14.33,6.71.13,13.39-1.39,19.96-1.13,4.88-2.67,9.63-5.49,13.83-.87,1.29-2.04,2.38-3.14,3.5-.52.53-1.24.51-1.88.11-.68-.42-.76-1.07-.77-1.84-.08-5.17,1.68-10,2.8-14.94,1.73-7.6,2.15-15.28,1.85-23.02-.19-4.85-.47-9.71-.62-14.56-.05-1.6.22-3.2.3-4.81.02-.52.04-1.14-.19-1.57-2.71-4.97-5.47-9.92-8.22-14.87-.07-.13-.19-.23-.46-.54.04.51.03.78.08,1.04,1.67,8.97,1.87,18.04,1.67,27.12-.15,6.74-.71,13.45-2.37,19.99-.93,3.67-2.13,7.29-3.33,10.88-.35,1.04-1.05,1.99-1.74,2.88-.87,1.13-2.43,1.47-3.77.98-1.37-.5-2.32-1.8-2.23-3.28.07-1.12.2-2.26.53-3.32,2.93-9.33,4.53-18.89,4.81-28.66.14-4.6.09-9.2.13-13.8,0-.41-.03-.81-.06-1.46-.43.35-.71.55-.95.77-3.91,3.61-7.71,7.29-10.62,11.81-1.15,1.8-3.48,2.16-5.2,1.02-1.69-1.13-2.09-3.25-1.13-5.13,3.4-6.6,4.73-13.59,3.47-20.93-.3-1.75-1.13-3.49-2.04-5.05-1.38-2.35-3.63-3.08-6.26-2.46-3.8.9-6.89,3-9.34,5.99-5.05,6.14-7.03,13.32-6.7,21.14.62,14.77,7.79,25.46,20.68,32.43,1.54.83,3.04,1.71,4.17,3.05.38.45.63,1.2.59,1.79-.04.78-.76,1.07-1.5,1.28-3.34.97-6.37-.08-9.3-1.46-5.01-2.36-8.87-6.14-12.26-10.4-7.32-9.19-10.28-19.76-9.44-31.4.59-8.18,3.35-15.58,8.84-21.79,3.56-4.04,7.93-6.91,13.29-7.88,6.04-1.09,10.62,1.12,13.78,6.54,2.46,4.22,2.88,8.88,2.59,13.64-.09,1.54-.28,3.07-.42,4.61-.03.3-.05.6-.09,1.16.7-.48,1.18-.83,1.69-1.15,1.8-1.12,3.6-2.25,5.43-3.32.5-.29.65-.61.65-1.14.03-3.02.01-6.05.16-9.07.07-1.5.53-2.97.7-4.46.06-.48-.11-1.08-.38-1.48-3.56-5.24-7.09-10.51-10.78-15.67-4.64-6.49-9.46-12.85-14.13-19.32-1.99-2.77-3.86-5.65-4.82-8.97-.28-.96-.39-2.03-.31-3.03.12-1.39,1.07-1.76,2.15-.88.82.67,1.56,1.45,2.24,2.25,6.13,7.2,12.51,14.21,18.3,21.68,8.4,10.83,16.33,22.02,23.02,34.03,3.28,5.89,5.9,12.08,8.46,18.3,4.43,10.78,8.73,21.6,12.2,32.73,2.31,7.4,4.67,14.79,5.96,22.46.45,2.63.5,5.24.13,7.86-.06.41-.63,1.04-.99,1.05-.44.02-1.06-.4-1.32-.81-2.06-3.36-2.93-7.18-4.12-10.88-3.01-9.34-5.97-18.69-9.06-28-1.02-3.08-2.4-6.04-3.63-9.05-.1-.25-.25-.47-.38-.71-.06.02-.13.04-.19.06Z"/>
        <path class="cls-1" d="m242.52,175.65c-.23-.67-.41-1.21-.61-1.74-2.05-5.33-4.8-10.32-7.53-15.32-2.45-4.5-5.2-8.81-8.22-12.95-.65-.9-1.21-1.92-1.56-2.97-.67-1.97.75-3.61,2.77-3.12,1.27.31,2.55.95,3.59,1.74,3.79,2.88,6.6,6.66,9.12,10.65,3.54,5.61,6.85,11.35,9.37,17.51,3.28,8.03,5.78,16.25,6.01,25.01.18,7.07-1.15,13.78-4.99,19.83-2.53,3.99-5.85,7.12-10.38,8.7-3.31,1.15-6.72.97-9.92-.39-9.2-3.93-14.16-11.08-14.98-20.95-.64-7.71,2.06-14.37,7.48-19.85,2.84-2.86,6.38-4.61,10.33-5.3,2.77-.48,5.62-.53,8.43-.77.31-.03.61-.04,1.09-.08Zm4.51,19.61c-.44-2.98-.91-5.96-1.32-8.95-.15-1.05-.71-1.57-1.72-1.75-4.25-.77-8.43-.55-12.36,1.3-1.49.7-2.94,1.81-4,3.08-3.66,4.39-4.99,9.49-3.54,15.07,1.24,4.77,4.06,8.42,8.65,10.5,2.39,1.08,4.68.84,6.82-.76,1.79-1.34,3.16-3.01,4.21-4.96,2.27-4.21,3.12-8.75,3.26-13.52Z"/>
        <path class="cls-1" d="m210.86,432.85c.01-.21.04-.4.04-.59,0-8.24-.08-16.47,0-24.71.09-10.1-.44-20.13-2.77-30.01-.96-4.07-.91-8.2.08-12.25,2.6-10.72,2.64-21.63,2.43-32.54-.18-9.52-.56-19.04-.8-28.56-.07-2.73.03-5.46.1-8.2.02-.56.22-1.15.48-1.65.49-.93,1.39-.92,1.82.03.32.72.54,1.53.61,2.32.53,5.57,1.25,11.14,1.47,16.72.44,11.22.65,22.45.86,33.68.12,6.63-.94,13.14-2.36,19.6-.74,3.35-.71,6.73.09,10.05,2.44,10.13,2.86,20.42,2.82,30.78-.03,7.79.11,15.57.18,23.36.02,1.74.02,3.43-.95,5.02-.85,1.39-1.57,1.57-2.8.25-2.59.95-5.23,1.92-7.87,2.88,5.65,1.65,11.39.52,16.87,1.03-.04-3.86-.1-7.73-.11-11.61-.04-12.87-.11-25.74-.09-38.62,0-3.76.2-7.53.44-11.28.36-5.46.07-10.87-.89-16.25-1.25-7.01-1.51-14.06-1.08-21.16.3-4.91.47-9.83.7-14.75.04-.77.09-1.55.25-2.3.07-.33.41-.84.62-.83.33,0,.82.31.95.61.39.91.81,1.86.9,2.83.32,3.49.56,6.98.72,10.48.27,5.88.35,11.77.72,17.64.18,2.91.8,5.8,1.28,8.69.88,5.37.79,10.75.67,16.17-.23,10.61-.25,21.23-.27,31.85-.02,8.66.07,17.31.09,25.97,0,.82-.13,1.67-.34,2.47-.44,1.64-1.22,2.11-2.94,1.95-.24-.02-.52.04-.75.14-2.84,1.19-5.83,1.36-8.82,1.16-3.78-.25-7.55-.71-11.31-1.12-.59-.06-1.19-.31-1.73-.58-1.92-.98-2.19-2.94-.59-4.42,2.17-2.01,4.86-2.97,7.67-3.64,1.15-.27,2.34-.39,3.61-.6Z"/>
        <path class="cls-1" d="m151.7,178.5c-6.37-.14-11.29-2.23-15.82-5.36-7.52-5.2-12.29-12.44-15.14-21-5.61-16.84-3.25-32.89,5.12-48.24,3.6-6.61,8.67-12.08,14.37-16.9,4.91-4.14,10.11-7.95,15.18-11.9.33-.25.69-.54,1.08-.62.36-.08.9-.03,1.12.2.23.22.33.81.19,1.11-.27.6-.65,1.21-1.14,1.64-2.36,2.04-4.76,4.03-7.17,6.01-5.08,4.17-10.06,8.42-14.45,13.35-6.77,7.6-10.69,16.55-12.6,26.42-2.31,11.92-.83,23.44,4.77,34.24,4.98,9.61,12.86,15.54,23.65,17.41,1.71.29,3.39.74,5.06,1.2.31.08.74.58.72.84-.04.34-.43.86-.75.92-1.63.34-3.29.55-4.2.69Z"/>
        <path class="cls-1" d="m179.55,434.55c-.55.44-.89.8-1.3,1.03-2.78,1.55-5.65,2.96-8.35,4.63-3.93,2.44-7.76,5.05-11.61,7.63-.62.42-1.11,1.02-1.9,1.76,1.01.4,1.75.83,2.53.96,2.98.51,5.96,1.01,8.96,1.34,9.68,1.08,19.41.73,29.12.83,15.09.15,30.18.45,45.27.73,2.57.05,5.14.27,7.7.48.37.03.94.44,1,.75.12.64-.47.8-1.02.85-5.57.53-11.14.91-16.76.85-15.41-.16-30.83-.13-46.24-.26-8.11-.07-16.22-.42-24.22-1.88-2.2-.4-4.4-1-6.49-1.8-2.71-1.03-3.26-3.48-1.19-5.5,1.88-1.82,3.98-3.47,6.17-4.91,4.77-3.13,9.85-5.71,15.34-7.37.86-.26,1.75-.59,2.98-.13Z"/>
        <path class="cls-1" d="m151.78,62.8c-5.72-.14-10.14-.29-14.29-2.05-1.51-.64-3.04-1.31-4.37-2.23-4.75-3.31-9.96-4.21-15.62-3.51-9.9,1.22-19.8,2.37-29.71,3.48-4.63.52-9.29.88-13.93,1.25-.54.04-1.11-.27-1.66-.42.5-.32.96-.84,1.49-.93,3.39-.55,6.8-1,10.21-1.49,7.89-1.14,15.78-2.28,23.67-3.43,3.82-.56,7.63-1.21,11.45-1.7,4.73-.62,9.22.16,13.41,2.55,2.65,1.51,5.27,3.09,8.33,3.72,4.26.88,8.57.9,12.88.63,1.86-.12,3.7-.43,5.56-.64.54-.06,1.09-.1,1.64-.08.93.04,1.9.75,1.94,1.46.06.93-.45,1.62-1.25,2.01-.6.29-1.27.52-1.92.59-3.03.34-6.08.61-7.82.78Z"/>
        <path class="cls-1" d="m273.14,438.15c-.05,1.58-.65,2.79-1.76,3.57-1.19.84-2.49,1.62-3.85,2.13-7.03,2.63-14.3,4.42-21.63,5.98-3.57.76-7.18,1.08-10.8,1.33-.49.03-1.11.08-1.09-.57,0-.27.59-.65.98-.75,9.5-2.48,19.34-3.67,28.49-7.49,1.51-.63,2.98-1.37,4.39-2.2,2.46-1.45,2.53-2.59.05-4.04-2.07-1.21-4.33-2.08-6.54-3.02-.94-.4-1.97-.58-2.95-.89-.78-.24-1.35-.7-1.16-1.61.19-.91.91-1.12,1.71-1.01,4.41.61,8.47,2.12,12.03,4.83,1.26.96,2.12,2.24,2.14,3.76Z"/>
        <path class="cls-1" d="m195.77,434.36c-.46.33-.89.71-1.39.97-2.47,1.3-5.02,2.48-7.43,3.89-1.91,1.12-3.7,2.44-5.45,3.8-1.15.89-1.05,1.54.34,1.9,1.92.5,3.89.93,5.86,1.03,6.71.33,13.43.56,20.15.73,6.4.16,12.8.19,19.2.31,1.64.03,3.27.19,4.9.34.24.02.45.33.67.5-.24.15-.47.4-.73.45-5.29.93-10.63.81-15.97.84-9.01.04-18.02.01-27-.85-2.26-.22-4.51-.68-6.74-1.17-.88-.19-1.76-.65-2.51-1.17-1.13-.79-1.37-1.99-.63-3.15.51-.8,1.15-1.57,1.9-2.15,3.96-3.08,8.37-5.26,13.23-6.52.45-.12.93-.11,1.39-.16.07.14.13.27.2.41Z"/>
        <path class="cls-1" d="m288.31,438.95c-.21,1.47-.71,2.67-1.58,3.71-1.27,1.52-2.87,2.56-4.77,3.11-1.02.3-2.04.59-3.08.76-.34.06-.75-.24-1.12-.38.2-.35.32-.82.62-1.03,1.98-1.37,4.02-2.64,5.99-4.02,1.36-.95,1.85-2.31,1.56-3.97-.06-.35.15-.75.23-1.12.35.18.85.28,1.03.57.45.74.76,1.58,1.13,2.37Z"/>
        <path class="cls-1" d="m141.36,35.09c0,1.47-1.24,2.69-2.71,2.67-1.63-.03-3.28-1.55-3.3-3.04-.01-1.43,1.11-2.54,2.57-2.54,1.9,0,3.44,1.29,3.44,2.91Z"/>
      </g>
    </g>
  </g>
</svg>