<?xml version="1.0" encoding="UTF-8"?>
<svg id="Layer_2" data-name="Layer 2" xmlns="http://www.w3.org/2000/svg" viewBox="0 0 595.87 518.66">
  <defs>
    <style>
      .cls-1 {
        fill: #fbbd43;
      }

      .cls-1, .cls-2 {
        stroke-width: 0px;
      }

      .cls-2 {
        fill: #1d1e1e;
      }
    </style>
  </defs>
  <g id="Layer_1-2" data-name="Layer 1">
    <g>
      <path class="cls-1" d="m91.85,235.42c15.75-13.5-76.5-89.96-83.25-117.54S-13.9-1.31,27.73.05s130.5-7.64,182.25,29.49,110.25,60.75,141.75,50.62,21.38,1.12,68.62-23.62,63.64.11,67.26-15.7,87.99-56.62,64.37-15.96-37.12,60.75-22.5,81.08,65.25,48.45,66.38,56.33-43.88,16.77-47.25,12.89-9,72.61-27,79.36-40.5-4.5-30.38,15.75,25.88,51.75,31.5,75.38-20.25,38.25-34.88,34.88-16.26,48.43-16.26,48.43c0,0-45.06-44.2-71.21-17.63s-26,42.04-18.77,55.12,15.7,50.58-13.28,29.58-67.23-33.38-67.23-33.38c0,0,15.75,47.25-7.88,54s-77.62-3.38-91.12-33.75-19.8-14-50.4-13.19-51.3-49.46-61.2-96.89,1.35-137.43,1.35-137.43Z"/>
      <g>
        <path class="cls-2" d="m224.95,297.67c.16,1.04.25,1.67.36,2.3,1.01,5.9,1.3,11.81-.02,17.69-1.84,8.19-6.12,14.71-13.65,18.72-7.45,3.97-15.19,4.03-22.64.32-10.45-5.21-15.69-13.98-16.02-25.65-.11-4.04.41-8.03,1.34-11.97.12-.53.2-1.07.27-1.61.01-.11-.09-.24-.22-.56-.52.07-1.1.12-1.67.24-3.09.62-6.17,1.05-9.34.72-6.55-.68-10.98-4.24-13.53-10.12-1.18-2.73-1.81-5.7-2.66-8.57-.21-.7-.29-1.45-.47-2.4-.49.37-.87.53-1.08.82-3.94,5.14-7.96,10.23-11.75,15.48-1.78,2.48-3.11,5.28-4.64,7.94-.24.41-.41.87-.65,1.28-1.07,1.84-2.8,2.65-4.62,2.17-1.76-.46-2.85-1.92-2.98-3.95-.14-2.23.38-4.33,1.18-6.39,1.96-5.08,4.96-9.55,8.12-13.93,2.07-2.88,4.28-5.66,6.4-8.5,3.15-4.2,6.29-8.41,9.41-12.64,2.05-2.77,4.8-3.73,8.09-2.71,2.93.91,4.61,3.22,4.52,6.3-.04,1.16-.2,2.31-.28,3.47-.3,4.17-.29,8.33.7,12.42.41,1.71,1.07,3.38,1.8,4.98.77,1.7,2.25,2.54,4.11,2.57,1.15.02,2.35.04,3.46-.23,2.71-.67,5.39-1.47,8.05-2.29,1.56-.48,3.06-1.18,4.63-1.63,2.97-.86,5.62.16,7.27,2.76,1.71,2.69,2.22,5.46.87,8.54-1.9,4.32-3.33,8.82-3.77,13.55-.18,1.96-.28,3.96-.11,5.92.56,6.62,5.28,12.35,11.32,13.84,5.11,1.26,9.44-.16,12.92-4.09,2.25-2.53,3.39-5.57,3.85-8.89.76-5.44.14-10.76-1.47-15.97-2.81-9.09-7.52-17.11-14.02-24.01-6.18-6.55-12.61-12.86-18.91-19.29-2.91-2.97-5.79-5.97-8.62-9.02-.64-.69-1.22-.86-2.13-.82-3.02.13-4.75-2.16-3.62-4.99.88-2.2,2.06-4.31,3.3-6.33,3.79-6.2,8.63-11.6,13.5-16.95,4.96-5.45,10.08-10.74,15.14-16.09,1.25-1.32,1.32-1.61.47-3.19-.8-1.47-2.05-2.43-3.62-2.79-2.32-.53-4.67-1.08-7.03-1.22-4.7-.27-9.41-.35-14.11-.36-7.71,0-15.41-.05-23.09-.88-12.17-1.33-22.98-5.66-32.05-14.01-2.16-1.99-4.38-3.91-6.48-5.96-10.03-9.8-20.87-18.61-32.21-26.83-9.4-6.81-18.58-13.88-27.02-21.88-8.3-7.87-15.83-16.37-21.91-26.11-4.5-7.21-7.62-14.92-8.6-23.43-1.81-15.67,6.02-28.55,20.83-34.15,7.74-2.92,15.76-3.7,23.96-3.01,10.92.91,21.23,4.21,31.34,8.23,13.97,5.57,27.37,12.32,40.31,19.93,16.87,9.93,33.56,20.16,50.29,30.31,2.5,1.52,4.82,3.34,7.28,4.94.77.5,1.73.71,2.6,1.06,1.77.71,3.59,1.29,5.29,2.14,5.34,2.7,9.9,6.53,14.35,10.46,3.07,2.71,6.05,5.52,9,8.35,6.19,5.95,13.28,10.42,21.44,13.16,1.87.63,3.73,1.3,5.58,1.99.26.1.45.4.87.81-.62.15-.97.3-1.33.31-3.32.1-6.49-.55-9.56-1.84-6.3-2.64-11.92-6.29-16.89-10.97-4.97-4.68-9.89-9.4-14.95-13.97-3.49-3.16-7.27-5.97-11.53-8.07-.78-.38-1.45-.83-2.46-.38-.44.2-1.25-.31-1.84-.6-12.85-6.38-24.78-14.35-37.06-21.71-14.22-8.52-28.47-16.98-43.36-24.29-11.03-5.42-22.25-10.37-34.1-13.74-7.06-2-14.23-3.25-21.59-3.04-5.77.16-11.39,1.15-16.74,3.41-12.03,5.1-17.58,15.2-16.49,27.97.62,7.27,3.11,13.95,6.7,20.24,5.28,9.27,12.17,17.26,19.79,24.66,6.58,6.38,13.77,12.01,21.08,17.52,7.62,5.75,15.34,11.39,22.74,17.42,5.65,4.61,10.86,9.74,16.25,14.66,2.82,2.57,5.58,5.22,8.43,7.76,7.87,7.04,17.15,10.96,27.55,12.47,7.45,1.08,14.94,1.26,22.45,1.35,5.38.07,10.76.39,16.14.68,1.35.07,2.7.39,4.03.69,4.25.95,8.11,2.54,10.15,7.01.55-.42.98-.7,1.36-1.04,6.57-5.85,12.92-11.97,19.75-17.51,21.74-17.62,44.87-33.16,69.89-45.79,9.83-4.96,20.08-8.9,30.42-12.61,2.9-1.04,6.4.41,7.26,2.88.85,2.44-1.01,5.66-3.9,6.77-1.12.43-2.24.88-3.44,1.34.16.6.23.99.37,1.36,4.84,13.01,8.43,26.37,11.6,39.86.37,1.58.89,3.15,1.5,4.66.85,2.14,1.49,4.25.69,6.55-.06.17.04.39.08.66.83.03.96-.69,1.25-1.14,2.39-3.69,5.13-7.09,8.72-9.67,3.44-2.47,7.12-4.33,11.59-3.56.59.1,1.23-.04,1.83.02,1.14.12,1.95.84,2.17,1.87.22,1.04-.16,1.86-.98,2.51-5.1,4.06-9.44,8.82-13.02,14.27-4.54,6.91-6.49,14.65-7.37,22.75-.51,4.72-.29,9.38.62,14.04,1.94,9.98,3.79,19.97,5.58,29.98.38,2.13.32,4.33.52,6.49.1,1.01.23,2.04.53,3,2.26,7.15,4.57,14.29,6.87,21.43.52,1.62,1.01,3.26,1.6,4.86.73,1.99.85,4.15,2.38,5.92.87,1.01,1.07,2.62,1.5,3.99,1.7,5.41,3.67,10.71,6.55,15.63,1.98,3.38,4.31,6.47,7.16,9.16,3.57,3.36,7.73,5.32,12.71,5.23.81-.01,1.63-.16,2.43-.32,2.86-.57,4.54-2.36,5.14-5.17.86-4.04.46-7.95-1.94-11.37-2.18-3.12-4.5-6.19-7.07-8.99-3.08-3.36-6.43-6.5-9.79-9.59-3.97-3.66-7.77-7.47-11.24-11.61-.79-.94-1.52-1.93-2.26-2.9-1.43-1.88-1.93-3.83-1.43-6.3.61-3.04,1.06-6.22-.34-9.26-.16-.35-.21-.81-.14-1.19.33-1.81.68-3.62,1.11-5.41.13-.53.55-1,.84-1.5,1.2.52,1.15,1.39,1.1,2.18-.16,2.59-.17,5.2-.61,7.74-1.08,6.19.4,11.45,4.96,15.85,3.68,3.55,7.15,7.31,10.87,10.82,5.22,4.92,10.39,9.85,14.73,15.61,2.81,3.74,4.78,7.77,5.05,12.52.05.95.37,1.89.38,2.83.02,2.67,1.22,4.71,3.19,6.36,2.78,2.32,5.49,4.72,8.39,6.86,4.65,3.44,8.69,7.48,12.09,12.13,3.83,5.22,7.52,10.55,11.29,15.81,2.14,2.99,4.31,5.97,6.5,8.93.92,1.24,1.9,2.44,2.3,4.24-1.49.05-2.29-1.02-3.32-1.5.88,1.75,3.6,4.48,5.21,5.06.45.16,1.09.16,1.51-.04.89-.42,1.58-.42,2.05.52.46.92.13,1.96-.75,2.48-.91.55-1.88.52-2.72-.02-1.6-1.02-3.24-2.04-4.66-3.28-1.32-1.16-2.45-2.56-3.55-3.95-2.26-2.85-4.81-5.38-7.66-7.65-2.34-1.87-4.61-3.84-6.87-5.82-4.09-3.58-7.49-7.77-10.33-12.37-3.51-5.69-8.14-10.24-13.59-13.98-1.61-1.11-3.43-1.95-5.21-2.77-1.37-.63-2.85-.71-4.4-.56-5.8.56-10.89-1.27-15.4-4.86-3.45-2.75-6.21-6.12-8.57-9.83-2.75-4.34-4.83-9-6.55-13.84-.45-1.27-1.09-2.49-1.7-3.7-1.25-2.5-2.66-4.92-3.79-7.47-3.52-7.91-6.95-15.87-10.4-23.81-.49-1.13-.98-2.25-1.41-3.4-.62-1.68-1.35-3.21-2.93-4.3-1.26-.87-1.86-2.32-2.28-3.79-3.32-11.58-5.6-23.34-6.23-35.4-.05-.89-.11-1.77-.2-2.65-.02-.18-.17-.35-.32-.63-.31.13-.65.2-.9.38-6.25,4.3-13.12,4.64-20.21,3.01-7.99-1.84-13.38-6.84-16.37-14.37-4.29-10.83-4.45-21.75.17-32.48,3.54-8.21,9.82-13.5,18.7-15.3,2.04-.41,4.2-.25,6.31-.33.66-.02,1.32.06,2.31.11-2.02-9.22-4.26-18.11-6.88-27.21-.84.28-1.52.47-2.18.73-9.44,3.82-18.45,8.55-27.25,13.64-6.38,3.69-12.58,7.67-18.85,11.53-.51.31-.96.71-1.53,1.13.67,1.04,1.26,1.94,1.83,2.85,5.91,9.37,10.97,19.2,15.17,29.44,5.93,14.45,11.77,28.95,16.67,43.79,2.93,8.87,5.74,17.79,8.66,26.67,1.23,3.76,2.71,7.43,3.89,11.21.46,1.46.47,3.08.57,4.63.21,3.4.42,6.81.48,10.21.08,4.36.12,8.73-.03,13.09-.15,4.38.4,8.7.66,13.05.31,5.32,1.62,10.34,3.26,15.33.83,2.53,1.57,5.08,2.45,7.59.51,1.47.61,2.91.37,4.42-.23,1.46-.35,2.95-.83,4.48-.17-.38-.39-.74-.51-1.14-2.62-8.61-5.65-17.1-7.61-25.9-.29-1.32-1.09-2.52-1.41-3.83-1.07-4.44-1.99-8.91-3.04-13.35-.68-2.85-1.47-5.67-2.26-8.49-.92-3.28-1.86-6.56-2.84-9.82-.37-1.23-.9-2.41-1.37-3.61-.25-.63-.56-1.25-.76-1.89-2.42-7.96-4.93-15.9-7.2-23.9-5.14-18.13-11.51-35.85-18.04-53.51-.21-.57-.48-1.11-.8-1.87-.37.4-.66.64-.86.93-1.99,3.01-3.89,6.08-5.96,9.04-2.31,3.3-4.78,6.47-7.15,9.73-1.43,1.97-1.4,1.99.22,3.72,5.76,6.17,10.83,12.83,14.24,20.61,2.81,6.42,3.85,13.08,2.09,19.97-1.58,6.18-4.88,11.2-10.31,14.72-7.2,4.66-18.08,3.64-24.38-2.2-5.7-5.28-7.77-12.02-8.01-19.5-.24-7.66,1.72-14.88,4.73-21.83,1.52-3.5,3.25-6.91,4.95-10.33,1.02-2.05,1.07-2.02-.82-3.42-9.6-7.08-20.4-9.9-32.21-8.83-2.69.24-5.37.94-7.97,1.7-1.25.36-2.52,1.17-3.42,2.12-5.49,5.8-10.87,11.69-16.28,17.56-.5.54-.89,1.16-1.23,1.61,12.26,11.64,23.76,23.76,35.83,35.3,10.11,9.66,20.34,19.2,31.04,28.21.26.22.51.45.79.66,1.16.88,1.34.9,2.42-.12,5.32-5.01,11.75-7.11,18.9-6.9,9.92.29,18.08,4.35,24.09,12.32,4.46,5.92,6.2,12.74,5.5,20.06-1.23,12.82-7.64,22.52-18.37,29.46-3.62,2.34-7.49,4.23-11.59,5.59-8.8,2.93-17.81,4.56-27.14,4.14-2.25-.1-4.28-.91-6.2-1.92-1.85-.97-2.68-2.68-2.55-4.78.13-2.1,1.21-3.64,3.15-4.41,2.02-.8,4.1-1.44,6.35-1.38,4.44.11,8.87,0,13.26-.76,6.94-1.21,13.48-3.48,19.33-7.46,6.59-4.48,10.69-10.66,11.78-18.62,2-14.61-11.34-22.82-22.34-20.4-4.27.94-7.44,3.36-9.18,7.42-2.3,5.34-2.82,10.92-1.99,16.64.08.54.26,1.06.41,1.58.3,1.04.91,1.66,2.08,1.52.27-.03.55-.04.82-.03,2.95.02,4.39,1.76,3.81,4.64-.47,2.33-2,4.01-4.06,4.83-2.71,1.08-5.5,1.25-8.2-.55-2.66-1.77-4.2-4.23-5.18-7.13-1.52-4.48-1.65-9.12-1.13-13.76.29-2.57.85-5.11,1.38-7.64.22-1.03.14-1.79-.73-2.53-4.37-3.7-8.7-7.46-13.05-11.19-.29-.25-.65-.43-1.36-.88Zm41.18-106.4c-3.49-8.71-6.98-17.41-10.51-26.23-.65.4-1.19.68-1.68,1.02-15.73,10.99-30.73,22.86-44.59,36.16-.3.29-.5.69-.95,1.32,6.86-.36,13.28.17,19.56,2.01,6.33,1.86,12.01,5.05,17.53,8.89,1.07-1.46,1.98-2.71,2.9-3.96,5.2-6.99,10.08-14.27,17.75-19.21Zm31.93-.55c.11.02.22.03.32.05,0,.61-.03,1.23,0,1.84.25,4.75,1.2,9.33,3.56,13.52,1.3,2.31,3.01,4.22,5.51,5.28,3.29,1.4,6.71,1.79,10.22,1.04,3.22-.69,5.51-2.59,6.83-5.62,1.17-2.68,1.64-5.49,1.15-8.4-1.46-8.6-2.97-17.2-4.42-25.81-.21-1.25-.83-1.91-1.99-2.28-3.31-1.04-6.58-1.06-9.81.27-5.14,2.12-8.46,5.94-9.88,11.26-.76,2.88-1.02,5.89-1.5,8.84Zm-49.52,40.56c-.32.41-.52.6-.64.83-2.58,4.9-4.82,9.93-6.21,15.31-.92,3.52-1.41,7.09-1.13,10.73.21,2.82.82,5.54,2.38,7.95,3.61,5.59,11.03,6.12,15.37,1.1,2.32-2.68,3.43-5.85,3.56-9.37.12-3.33-.61-6.5-1.9-9.55-2.54-6.03-6.24-11.32-10.53-16.22-.22-.25-.5-.43-.9-.78Zm145.79,100.53c1.82,1.1,3.63,2.06,5.29,3.23,5.63,3.95,10.51,8.63,14.14,14.55,3.35,5.45,7.6,10.11,12.55,14.16,2.85,2.33,5.63,4.73,8.45,7.09.38.32.75.64,1.13.96-5.27-8.59-10.65-17.04-17.18-24.65-2.34-2.73-4.95-5.26-7.68-7.6-4.48-3.83-9.44-7.11-13.25-11.73-1.19,1.37-2.33,2.69-3.45,3.99Z"/>
        <path class="cls-2" d="m484.86,143.29c.34.97.58,1.66.82,2.35,8.22,22.91,9.47,46.09,2.59,69.54-2.47,8.44-6.29,16.28-11.33,23.49-2.09,2.98-4.5,5.64-7.77,7.42-.9.49-1.71.94-2.62.21-.9-.72-.65-1.63-.42-2.61.97-4.21,3.28-7.77,5.48-11.37,4.41-7.21,7.89-14.8,9.83-23.05,1.08-4.59,1.8-9.24,1.95-13.96.02-.73,0-1.46,0-2.19-.16-.04-.32-.09-.47-.13-.37.91-.74,1.81-1.1,2.72-3.53,8.73-8.53,16.45-15.6,22.74-9.89,8.79-21.49,13.54-34.63,14.58-8.18.64-16.24,0-24.03-2.73-11-3.85-19.67-10.75-26.16-20.39-4.55-6.76-7.66-14.14-8.93-22.23-.45-2.85-.57-5.71-.05-8.56.19-1.06.57-2.1.98-3.1,1.79-4.39,5.47-6,9.82-6.59,2.84-.39,5.71-.62,8.5-1.23,7.56-1.66,13.16-6.11,17.01-12.73,1.01-1.74,1.8-3.71,2.27-5.67,1.04-4.32.07-8.27-2.92-11.62-.9-1.01-1.89-2-2.99-2.78-6.04-4.28-12.74-6.77-20.18-7.06-4.87-.19-9.35,1.09-13.22,4.08-1.93,1.49-3.69,3.22-5.51,4.86-.4.36-.72.83-1.15,1.16-1.64,1.28-3.62.6-4.15-1.41-.48-1.83.02-3.52.85-5.13,1.83-3.53,4.57-6.26,7.74-8.59,4.37-3.2,9.32-4.84,14.68-5.08,11.05-.48,21.09,2.54,29.73,9.49,9.44,7.6,12.15,19.62,6.96,30.64-6.22,13.19-16.73,20.66-31.16,22.63-1.22.17-2.45.24-3.66.4-1.3.18-1.53.43-1.49,1.7.03.81.1,1.64.28,2.44,2.94,12.58,9.32,22.75,20.71,29.37,4.87,2.83,10.18,4.25,15.76,4.69,14.54,1.15,27.23-2.97,37.62-13.44,1.05-1.06,1.99-2.24,2.94-3.4.32-.39.52-.89.98-1.72-1.16.17-1.94.27-2.72.41-5.06.93-10.06.73-14.94-.95-5.93-2.05-10.47-5.81-13.35-11.4-4.23-8.2-4.47-16.79-1.94-25.47,2.34-8.04,6.91-14.64,13.77-19.53,5.94-4.23,12.56-6.14,19.87-5.57.34.03.68.07,1.02.07.12,0,.25-.09.64-.25-1.45-4.94-4.23-9.32-6.2-14.35-.55.47-.99.83-1.42,1.2-1.34,1.16-2.61,2.41-4.04,3.44-.8.58-1.83.98-2.8,1.13-1.91.29-3.14-1.24-2.56-3.09.24-.77.69-1.48,1.11-2.18,1.29-2.09,2.58-4.18,3.95-6.21.68-1.01.63-1.76-.13-2.73-2.92-3.72-5.38-7.74-7.03-12.18-4.61-12.39-3.26-24.02,4.84-34.6,6.5-8.48,15.9-10.83,25.73-6.58,2.24.97,4.33,2.3,6.48,3.48.59.32,1.15.69,2.03,1.22.34-.49.61-.96.96-1.37,3.56-4.13,7.2-8.2,10.7-12.38,2.55-3.05,5.29-5.89,8.49-8.24,1.59-1.17,3.28-2.21,4.98-3.22,1.33-.79,2.8-1.05,4.34-.72,1.64.35,2.56,1.38,2.4,3.03-.09.99-.42,2-.83,2.9-.36.79-.94,1.51-1.54,2.15-3.18,3.46-6.41,6.87-9.58,10.35-3.76,4.13-7.47,8.3-11.19,12.47-.44.49-.78,1.08-1.17,1.61.22.36.32.62.5.81,8.16,8.76,13.85,19.04,18.43,30.01,3.84,9.21,7,18.64,9.36,28.34.48,1.98.49,2,2.58,2.18,9.61.8,19.1,2.26,28.35,5.08,2.93.89,5.89,1.73,8.83,2.58.52.15,1.06.23,1.6.32.34.06.68.06,1.02.11,3.45.57,5.56,2.82,5.3,5.66-.26,2.85-3.43,5.38-6.6,5.23-1.43-.07-2.86-.13-4.28-.31-.8-.1-1.65-.29-2.33-.69-3.16-1.85-6.66-2.78-10.13-3.8-6.57-1.92-13.29-3.05-20.06-3.92-.45-.06-.92,0-1.63,0,.11,1.12.17,2.11.3,3.1,1.1,8.06,1.61,16.16,1.36,24.29-.35,11.22-1.67,22.31-4.96,33.09-2.14,7.02-5.39,13.55-8.93,19.95-.53.95-1.24,1.79-1.88,2.68-1.03,1.44-2.09,2.86-3.09,4.32-.87,1.27-1.98,1.72-3.1,1.16-1.04-.52-1.32-1.61-.96-2.99,3.32-12.94,7.37-25.69,9.64-38.89,2.63-15.2,2.66-30.41.24-45.63-.36-2.25-.39-2.29-2.74-2.36-7.64-.23-15.27-.44-22.91-.65-.46-.01-.93.07-1.76.14Zm1.27-60.28c-.41.36-.6.46-.7.63-6.51,10.33-13.01,20.66-19.51,31-.11.17-.16.37-.23.56-.02.06,0,.13,0,.2,0,.07.03.13.05.17.11.11.18.25.3.3.25.11.5.22.77.27,2.07.42,3.58,1.62,4.67,3.38,2.9,4.7,5.86,9.37,8.65,14.13.78,1.33,1.6,1.72,3.09,1.65,8.17-.4,16.36-.68,24.53-1.02.58-.02,1.15-.13,1.72-.19.04-.41.1-.61.07-.8-.08-.47-.19-.93-.31-1.4-2.33-8.78-5.26-17.36-8.88-25.7-3.27-7.54-7.19-14.71-12.39-21.11-.55-.67-1.15-1.31-1.82-2.07Zm-14.54,83.74c-.4-2.41-.56-4.89-1.24-7.22-1.43-4.93-5.26-7.44-10.38-7.07-3.36.24-6.38,1.42-9.01,3.53-4.07,3.26-6.75,7.47-8.03,12.51-1.01,3.97-1.08,7.96.21,11.91,1.46,4.49,4.59,6.96,9.24,7.54,6.87.85,12.83-2.31,16.08-8.5,2.08-3.96,2.79-8.23,3.13-12.69Zm6.83-90.86c-2.57-1.87-5.16-3.44-8.17-4.23-3.85-1-7.12-.08-9.79,2.92-2.73,3.08-4.52,6.63-5.36,10.64-1.61,7.74.68,14.66,4.64,21.19.06.09.23.12.58.28,5.97-10.16,11.94-20.34,18.09-30.81Z"/>
        <path class="cls-2" d="m173.15,371.95c1.04.12,1.75.23,2.47.29,10.44.92,20.44,3.4,29.66,8.55,4.88,2.73,9.2,6.1,12.33,10.83,2.97,4.49,4.14,9.46,3.87,14.78-.5,9.66-4.24,18.11-9.87,25.81-3.7,5.06-8.12,9.38-13.54,12.6-6.95,4.11-14.38,4.99-22.09,2.85-10.39-2.88-17.29-9.79-21.49-19.51-3.24-7.5-3.84-15.43-3.35-23.48.38-6.22,1.56-12.31,3.25-18.3.18-.64.33-1.3.55-2.19-.62,0-1.07-.07-1.5,0-8.83,1.61-16.55,5.38-22.88,11.85-.52.53-1.09,1.03-1.7,1.46-.55.39-1.17.67-1.92,1.09.17.65.29,1.3.5,1.93,2.99,9.28,6,18.56,8.98,27.85.5,1.56,1,3.12,1.35,4.72.47,2.13-.27,3.74-1.89,4.51-1.63.78-3.42.41-4.67-1.36-1.37-1.93-2.71-3.97-3.61-6.14-2.8-6.74-5.53-13.51-8.01-20.37-5.6-15.5-9.78-31.38-12.34-47.67-2.17-13.83-2.61-27.69-.2-41.56.47-2.71,1.06-5.37,3.07-7.43.71-.73,1.44-1.47,2.27-2.05,1.73-1.21,3.52-.84,4.43,1.09.65,1.37,1.59,1.71,2.94,2.05,3.23.82,6.46,1.74,9.55,2.98,10.33,4.15,20.28,9.12,30.17,14.2,7.1,3.64,14.31,7.1,21.24,11.05,17.11,9.75,33.03,21.24,47.99,34.05,3.47,2.97,6.82,6.08,10.22,9.13.46.41.9.85,1.28,1.32,1.85,2.32,1.76,5.56-.2,7.7-2.01,2.2-5.31,2.55-7.81.78-.55-.39-1.05-.87-1.54-1.34-14.08-13.2-29.39-24.8-45.56-35.29-1.79-1.16-1.81-1.14-3.2.42-2.91,3.27-5.47,6.81-7.66,10.6-.36.62-.63,1.29-1.07,2.21Zm-55.17-48.86c-.23,1.07-.39,1.73-.5,2.39-.91,5.81-1.28,11.64-1.15,17.52.33,15.18,3.49,29.89,7.34,44.48.11.42.38.79.76,1.57.45-.63.7-1.04,1.01-1.39,4.02-4.58,8.81-8.1,14.43-10.49,5.63-2.39,11.52-3.8,17.57-4.48,1.55-.17,2.4-.81,3.05-2.22,2.97-6.4,6.69-12.33,11.26-17.73.33-.39.55-.87.93-1.5-17.84-10.16-35.87-19.54-54.71-28.16Zm44.87,84.58c-.01,5.47.48,9.99,2,14.36,1.49,4.3,3.99,7.89,7.56,10.72,6.43,5.08,14.68,5.4,21.24.54,8.02-5.95,13.15-13.9,15.42-23.64.26-1.12.37-2.29.46-3.44.36-4.51-1.07-8.41-4.47-11.36-2.15-1.86-4.49-3.59-6.97-4.95-8.79-4.84-18.36-6.75-28.31-7.01-1.67-.04-1.8.05-2.37,1.65-2.76,7.76-4.44,15.74-4.55,23.13Z"/>
        <path class="cls-2" d="m365.69,474.19c.05-4.58-.47-9.12-1.27-13.61-1.57-8.8-3.81-17.44-6.56-25.95-3.34-10.33-6.02-20.82-7.73-31.56-.6-3.79-.77-7.6-.63-11.42.02-.66,0-1.32,0-2.07-6.73,1.38-11.97-1.33-16.37-5.75-6.81-6.85-11.45-15.07-14.17-24.32-.52-1.78-.33-3.77-.42-5.67-.03-.66.27-1.21,1-1.35.71-.14,1.17.24,1.47.84,1.05,2.14,2.26,4.21,3.1,6.43,2.28,6.05,5.3,11.66,9.22,16.8,2,2.62,4.18,5.09,7.14,6.63,1.55.8,3.26,1.42,4.97,1.75,2.34.45,3.89-.53,4.96-2.69,1.02-2.06,1.33-4.29,1.45-6.54.36-6.78-.91-13.32-3.06-19.7-3.33-9.92-8.18-19.02-14.96-27.05-1.72-2.03-3.41-4.09-5.05-6.18-6.19-7.87-9.07-16.84-8.88-26.83.01-.61.05-1.23.17-1.83.14-.66.6-1.2,1.28-1.03.41.11.8.65,1,1.09.19.41.1.94.15,1.41.31,2.85.46,5.72.96,8.53,1.11,6.25,4.01,11.7,7.97,16.61,3,3.72,6.18,7.3,8.96,11.17,7.17,10.03,12.48,20.96,14.99,33.11.99,4.76,1.37,9.59.67,14.44-.44,3.11-1.39,5.99-3.76,8.2-.7.65-.78,1.44-.68,2.25.41,3.45.7,6.93,1.34,10.33,2.45,13.08,5.87,25.93,9.38,38.76,2.41,8.82,4.65,17.69,5.67,26.79.43,3.84.29,7.75.33,11.63,0,.72-.22,1.51-.56,2.15-.71,1.37-2.11,1.44-2.85.07-.67-1.25-1.2-2.61-1.55-3.98-1.82-7.2-3.63-14.41-5.33-21.64-2.32-9.89-3.96-19.94-6.96-29.66-2.94-9.51-5.7-19.08-9.56-28.27-.24-.56-.47-1.14-.63-1.73-.33-1.22-.1-2.2.58-2.34.96-.2,1.54.43,1.94,1.18.48.9.95,1.82,1.28,2.78,1.14,3.28,2.24,6.58,3.31,9.89,3.43,10.64,6.99,21.24,9.31,32.21,2.38,11.27,4.84,22.53,7.27,33.79.18.83.41,1.65.62,2.47.16-.04.33-.09.49-.13Z"/>
        <path class="cls-2" d="m273.8,372.84c1.06.89,1.14,1.93,1.15,2.93.02,3.07.07,6.14-.08,9.2-.37,7.79-1.24,15.51-4.06,22.86-1.88,4.91-4.07,9.69-6.99,14.08-.83,1.25-1.66,2.54-2.72,3.57-1.6,1.56-2.07,3.44-2.18,5.54-.29,5.79,1.1,11.25,3.45,16.46,1.57,3.47,3.46,6.8,5.18,10.21,2,3.95,4.07,7.87,5.9,11.91,1.46,3.23,2.41,6.61,2.29,10.28-.06,1.85.8,3.71,1.04,5.59.45,3.51.91,7.05.26,10.59-.11.6-.25,1.2-.44,1.78-.4,1.26-1.21,2.22-2.54,2.39-1.36.18-2.33-.69-2.97-1.79-.48-.81-.91-1.7-1.1-2.62-.46-2.2-.87-4.42-1.1-6.65-.96-9.65-3.53-18.87-7.31-27.78-3.06-7.22-5.87-14.54-7.73-22.18-1.07-4.38-1.31-7.17-.87-10.59-2.88-1.95-3.81-4.99-4.26-8.23-.82-5.85-.56-11.7.2-17.54.9-7,3.07-13.69,4.9-20.47.35-1.32.68-2.64,1.05-3.95.16-.59.35-1.18.61-1.73.57-1.16,1.28-1.58,2.22-1.39,1,.19,1.53.96,1.45,2.36-.05.88-.24,1.76-.47,2.61-1.2,4.48-2.48,8.93-3.64,13.42-2.11,8.18-3.24,16.46-2.2,24.92.2,1.61.58,3.23,1.16,4.74.66,1.69,1.62,1.86,3,.68.87-.75,1.65-1.64,2.32-2.58,5.92-8.39,9.71-17.65,11.07-27.85.76-5.68,1.38-11.37,2.12-17.05.16-1.23.09-2.59,1.28-3.72Zm-.6,123.2c.2-.03.4-.06.59-.08.1-.73.28-1.46.27-2.19-.01-1.84-.1-3.68-.18-5.52-.11-2.64-.72-5.27-.23-7.94.11-.62-.11-1.34-.33-1.97-2.22-6.31-4.94-12.4-7.85-18.42-2.02-4.17-3.91-8.4-5.66-12.7-2.26-5.55-3.55-11.31-2.91-17.37.03-.26-.06-.52-.1-.89-.86.06-1.65.12-2.52.18.24,3.81.99,7.39,2,10.93,1.81,6.39,4.61,12.38,7.31,18.42,3.63,8.12,6.62,16.45,7.85,25.3.42,3.04.61,6.1.99,9.15.13,1.04.5,2.06.76,3.09Z"/>
        <path class="cls-2" d="m127.44,125.44c-5.07-1.15-10.07-2.23-15.03-3.43-6.57-1.6-13.02-3.55-19.28-6.13-4.59-1.89-8.73-4.47-12.41-7.79-.49-.45-.88-.93-.48-1.59.45-.74,1.11-.57,1.8-.31,5.36,2.02,10.69,4.08,16.08,6.01,10.18,3.64,20.68,6.06,31.3,7.93,22.41,3.95,44.31,9.93,66.09,16.38,7.65,2.27,15.3,4.52,22.94,6.81,1.17.35,2.32.8,3.44,1.29.74.33,1.64.77,1.38,1.77-.28,1.1-1.33,1.07-2.21.96-1.15-.15-2.28-.4-3.41-.67-23.53-5.67-47.06-11.35-70.6-17.01-4.31-1.04-8.66-1.91-12.97-2.92-1-.23-1.64-.04-2.31.74-1.33,1.55-2.73,3.05-4.18,4.5-1.92,1.93-3.89,3.81-5.9,5.66-.33.31-1,.56-1.39.44-.73-.22-.61-.91-.45-1.55.8-3.22,2.68-5.78,4.93-8.11.89-.92,1.71-1.9,2.65-2.96Z"/>
        <path class="cls-2" d="m462.29,299.91c-.55,1.66-1.03,3.14-1.63,4.96,1.48,1.69,3.03,3.68,4.8,5.45,2.21,2.22,4.59,4.28,6.92,6.38,5.29,4.75,9.16,10.43,11.36,17.21.44,1.36.89,2.72,1.4,4.06,1.36,3.53,2.12,7.36,5.14,9.98-1.03,1.41-1.83,1.61-2.81.66-.53-.51-1-1.15-1.28-1.82-1.27-3.01-2.47-6.05-3.67-9.09-.32-.82-.57-1.68-.8-2.54-1.77-6.59-5.3-12.06-10.43-16.53-1.13-.99-2.23-2.01-3.33-3.03-3.2-2.95-6.65-5.68-8.65-9.79-4.49,2.33-9.01,1.74-13.49.61-7.16-1.81-13.71-4.96-19.56-9.49-5.13-3.97-9.91-8.36-14.17-13.27-2.73-3.14-5.39-6.34-8.07-9.53-1.46-1.73-2.69-3.6-3.38-5.79-.19-.6-.57-1.26.15-1.6.35-.16,1,.09,1.41.34,1.96,1.17,3.43,2.87,4.85,4.64,3.51,4.35,6.96,8.76,10.62,12.99,7.44,8.62,16.61,14.68,27.53,18.01,2.95.9,5.97,1.42,9.08,1.11,3.51-.35,4.82-1.91,4.5-5.44-.31-3.38-1.71-6.37-3.88-8.86-2.05-2.35-4.31-4.58-6.75-6.51-7.75-6.14-16.51-10.57-25.53-14.52-2.12-.93-4.26-1.82-6.36-2.79-.76-.35-1.44-.89-2.42-1.52,1.24-.58,2.06-.16,2.82.12,4.08,1.54,8.18,3.02,12.18,4.75,3.75,1.62,7.41,3.46,11.05,5.34,4.87,2.51,9.39,5.55,13.47,9.22,5,4.5,7.36,8.61,8.74,15.27,1.18-.55,2.16,0,3.12.63,3.87,2.5,7.22,5.59,10.2,9.09,2.71,3.18,5.03,6.63,6.99,10.32,3.08,5.8,5.58,11.84,7.64,18.07.95,2.87,1.43,5.83,1.34,8.85-.01.41-.22,1.06-.51,1.17-.68.26-.88-.37-1.07-.9-.93-2.63-1.94-5.24-2.81-7.9-2.18-6.62-4.87-13.02-8.17-19.17-3.3-6.14-7.64-11.44-12.9-16-1.18-1.02-2.37-2.04-3.64-3.13Z"/>
        <path class="cls-2" d="m382.4,105.44c5.87.1,13.02.56,20.08,1.87,2.41.45,4.78,1.13,6.34,3.35,1.43,2.02,1.16,3.65-.94,4.98-1.12.71-2.31,1.18-3.65,1.14-1.84-.06-3.71.08-5.51-.21-13.89-2.22-27.74-1.67-41.59.34-2.23.32-4.47.57-6.7.84-.61.07-1.22.13-1.84.12-1.85-.02-3.18-.93-3.61-2.44-.45-1.55.12-3.08,1.73-3.98,1.42-.79,2.92-1.56,4.47-1.98,3.48-.94,7-1.8,10.55-2.43,6.39-1.14,12.85-1.63,20.65-1.59Z"/>
        <path class="cls-2" d="m230.5,99.22c-.51-.2-1.05-.35-1.54-.6-9.2-4.66-17.86-10.25-26.4-15.97-11.95-8-23.73-16.26-35.56-24.45-8.02-5.56-16.1-11-24.67-15.68-8.59-4.69-17.49-8.65-27.09-10.71-4.18-.9-8.48-1.27-12.73-1.87-.99-.14-2.05-.05-2.73-1.09.58-1.06,1.59-.96,2.51-1.01,5.77-.3,11.42.39,17,1.87,9.56,2.53,18.46,6.58,27.03,11.44,7.9,4.48,15.41,9.55,22.87,14.71,14.13,9.77,28.31,19.46,42.46,29.22,6.12,4.22,12.18,8.51,18.26,12.78.34.24.57.62.85.94-.09.14-.17.28-.26.42Z"/>
        <path class="cls-2" d="m74.14,84.3c.48.33,1,.61,1.43,1.01,3.06,2.86,6.54,5.13,10.24,7.06,3.81,1.98,7.73,3.75,11.48,5.82,3.21,1.77,6.27,3.83,9.39,5.77.47.29,1.03.68.57,1.27-.2.26-.87.39-1.22.27-8.42-2.84-16.52-6.37-23.99-11.23-1.48-.96-2.95-2-4.2-3.23-1.34-1.33-2.47-2.88-3.59-4.42-.39-.54-.46-1.31-.67-1.97.19-.11.38-.23.57-.34Z"/>
        <path class="cls-2" d="m107.44,72.87c.66.39,1.31.7,1.88,1.12,9.87,7.18,19.67,14.45,28.97,22.37,1.82,1.55,3.67,3.05,5.51,4.56.44.36.9.74.5,1.35-.42.63-.97.29-1.43,0-2.94-1.84-6.05-3.47-8.78-5.6-7.48-5.82-14.81-11.82-22.17-17.8-1.42-1.16-2.7-2.5-3.98-3.82-.48-.49-1.14-1.05-.5-2.18Z"/>
        <path class="cls-2" d="m396.3,242.23c.53.46,1.15.84,1.58,1.38,2.05,2.56,3.81,5.31,5.06,8.36,1.33,3.25,1.09,6.57.06,9.81-1,3.14-3.37,4.59-6.52,3.72-6.17-1.72-11.36-4.91-14.21-11-.71-1.51-.95-3.05-.14-4.78,1.35.82,1.93,2.03,2.41,3.27,1.16,3.01,3.12,5.4,5.59,7.42,2.03,1.66,4.37,2.43,6.97,2.55,1.87.09,3.13-.73,3.9-2.38.62-1.32.89-2.69.64-4.17-.47-2.79-1.55-5.35-2.88-7.82-.71-1.32-1.47-2.61-2.16-3.94-.33-.63-.57-1.31-.84-1.97.18-.15.37-.3.55-.45Z"/>
      </g>
    </g>
  </g>
</svg>