<?xml version="1.0" encoding="UTF-8"?>
<svg id="Layer_2" data-name="Layer 2" xmlns="http://www.w3.org/2000/svg" viewBox="0 0 457.09 518.97">
  <defs>
    <style>
      .cls-1 {
        fill: #fbbd43;
      }

      .cls-1, .cls-2 {
        stroke-width: 0px;
      }

      .cls-2 {
        fill: #1d1e1e;
      }
    </style>
  </defs>
  <g id="Layer_1-2" data-name="Layer 1">
    <g>
      <path class="cls-1" d="m7.2,174.14c18.22-21.43,24.75-63,38.25-93.38S62.6,11.01,84.96,6.51,127.58,3.14,154.58.89s57.98,7.98,54.3,40.55-25.05,91.07-18.3,96.7,36,1.12,66.38-51.75S291.83-5.32,352.58.6s91.12,27.29,83.25,41.92-40.62-7.83-19.75,22.52,61.37,55.09,28.75,71.97-49.93-.6-57.59,16.01-9.91,45.87-9.91,45.87c0,0-18.74-11.25-18.93,0s4.31,45-23.82,72-31.5,28.12-42.75,57.38-35.73,47-44.3,56.69-18.81,43.87-15.38,53.78,31.78,20.67,29.98,31.6-4.05,32.31-52.42,42.44-85.62,7.88-84.43-6.75-44.94-21.38-35.94-48.38,28.12-31.77,21.38-45.7S17.33,347.48,15.08,317.06s-27-120.42-7.88-142.92Z"/>
      <g>
        <path class="cls-2" d="m302.76,93.15c-.83-1.99-1.83-3.78-2.35-5.71-1.91-6.98-1.03-13.88,1.33-20.57,6.1-17.33,17.65-30.18,33.08-39.78,10.3-6.42,21.53-9.36,33.56-7.84,10.81,1.37,20.46,5.49,27.5,14.4,2.48,3.14,5.47,5.97,6.73,9.87.53,1.64.39,3.58.18,5.34-.17,1.47-1.71,1.9-3.06,1.08-1.81-1.09-3.44-2.4-4.29-4.4-4.22-9.98-12.62-14.19-22.56-15.87-11.15-1.89-21.85-.6-31.79,5.37-9.59,5.76-17.56,13.15-23.69,22.49-3.7,5.63-6.4,11.69-7.47,18.39-.6,3.73-.65,7.47.16,11.18.1.46.23.91.38,1.35.06.18.22.34.42.62,1.93-.79,3.84-1.59,5.75-2.36,8.45-3.42,17.21-5.63,26.25-6.69,4.91-.57,9.79-.56,14.46,1.33,1.47.6,2.89,1.47,4.1,2.49,2.01,1.7,1.81,4.75-.54,6.12-2.45,1.42-5.06,2.79-7.78,3.46-5.1,1.24-10.33,1.91-15.49,2.91-2.45.48-4.87,1.11-7.26,1.83-.52.16-1.18.93-1.22,1.46-1.09,14.33-2.32,28.65-3.09,42.99-1.22,22.55.45,44.95,4.2,67.21.32,1.9.78,3.77,1.16,5.66.92,4.51-1.68,8.57-6.02,9.41-4.25.82-8.16-1.93-9.05-6.37-3.98-19.79-5.47-39.79-5.01-59.96.32-13.86,1.15-27.68,3.43-41.37.68-4.1,1.79-8.13,2.71-12.18.14-.64.32-1.27.57-2.24-.84.33-1.38.47-1.86.73-4.4,2.36-8.81,4.72-13.17,7.16-.51.29-1.01,1.1-1.03,1.69-.31,7.02-.6,14.04-.77,21.06-.42,17.18-.9,34.38.82,51.5,1.23,12.22,2.9,24.4,4.59,36.56,1.03,7.37,2.49,14.68,3.76,22.01.82,4.75-2.04,9.04-6.64,9.92-4.65.9-8.95-2.07-9.89-6.89-2.5-12.84-4.19-25.79-5.21-38.83-1.28-16.3-2.32-32.62-2.04-48.98.21-12.44.25-24.9,2.4-37.21.07-.4.05-.81.11-1.76-16.76,11.82-31.73,25.25-47.73,37.45,6.68,3.62,10.58,9.58,14.33,15.53,10.92,17.31,18.04,36.19,22.42,56.13,2.87,13.07,4.24,26.31,3.8,39.7-.42,12.78-2.92,25.13-8.54,36.69-4.85,9.98-11.84,18.15-21.65,23.52-6.63,3.64-13.85,5.04-21.29,2.96-6.75-1.89-11.89-6.04-15.06-12.43-3.91-7.86-4.19-16.12-2.55-24.53,2.34-12.01,8.02-22.45,15.27-32.16,7.75-10.37,17.28-18.85,27.73-26.36,1.83-1.32,3.73-2.71,5.82-3.48,2.69-.99,2.82-.74,2.13-3.65-3.88-16.3-9.78-31.84-17.84-46.53-2.95-5.39-6.15-10.64-9.16-15.99-.75-1.33-1.21-2.82-1.87-4.4-.47.32-.93.62-1.39.93-6.88,4.69-13.62,9.61-20.68,14.01-7.62,4.75-15.68,8.7-24.66,10.26-5.94,1.03-11.81.69-17.15-2.33-6.1-3.45-10.14-8.6-11.27-15.66-.24-1.47-.04-3.15.43-4.58.69-2.08,2.71-2.5,4.39-1.07.94.8,1.68,1.84,2.52,2.76,1.09,1.19,2.11,2.45,3.28,3.55,5.63,5.29,12.1,5.91,19.16,3.42,6.2-2.19,11.81-5.46,17.22-9.09,15.58-10.47,30.2-22.18,44.62-34.17,11.21-9.32,22.32-18.77,34.53-26.8,5.08-3.34,10.38-6.37,15.57-9.54.43-.27.87-.52,1.22-.73Zm-35.72,156.42c-.17-.12-.34-.23-.51-.35-1.53.83-3.15,1.54-4.59,2.51-10.57,7.12-19.03,16.3-25.83,27.01-4.14,6.52-7.23,13.5-8.32,21.22-.54,3.85-.55,7.71,1,11.38,1.73,4.11,5.16,6.1,9.6,5.67,3.88-.38,7.13-2.16,10.12-4.52,7.49-5.89,11.93-13.79,14.86-22.65,3.77-11.39,4.63-23.12,4.04-35.02-.09-1.75-.25-3.5-.38-5.24Z"/>
        <path class="cls-2" d="m158.39,97.36c-.82-.96-1.33-1.67-1.94-2.26-2.11-2.02-4.3-3.95-6.35-6.01-.51-.51-.62-1.42-.91-2.15.79-.22,1.67-.78,2.36-.6,1.59.42,3.2,1,4.6,1.85,8.29,5.05,14.39,12.21,19.25,20.5.28.47.39,1.04.65,1.75-1.96-.49-3.67-1.08-5.43-1.35-10.87-1.68-19.16,2.4-25.34,11.34-3.8,5.49-4.66,11.51-4.13,17.99.8,9.83,2.95,19.41,4.9,29.05,3.41,16.81,8.05,33.29,12.61,49.8.41,1.48.98,1.74,2.41,1.35,9.98-2.67,20.15-4.3,30.39-5.56,2.26-.28,4.47-.97,6.72-1.38,3.21-.59,3.14-.57,3.73-3.91,1.36-7.69,2.45-15.46,5.81-22.62.96-2.04,2.32-3.94,3.74-5.7,1.14-1.41,2.84-1.98,4.66-1.31,1.82.68,2.74,2.23,2.67,4.04-.12,2.84-.41,5.7-.94,8.5-3,15.71-5.14,31.54-6.77,47.45-1,9.68-2.16,19.35-3.46,29-2.15,15.94-4.43,31.87-6.73,47.79-.85,5.92-1.87,11.83-2.89,17.73-.24,1.37.02,1.85,1.49,2.13,10.57,2.08,18.85,7.48,23.59,17.36,4.67,9.74,3.21,19.1-2.92,27.73-4.91,6.92-11.95,11.12-19.8,13.82-16.16,5.57-32.76,7.76-49.69,4.71-15.24-2.74-28.89-9.24-40.78-19.25-.67-.56-1.2-1.3-1.8-1.94-1.28-1.36-2.52-2.76-3.87-4.04-1.19-1.14-1.51-2.47-.67-3.58.8-1.06,2.12-1.16,3.5-.44,1.61.83,3.3,1.5,4.94,2.27,2.3,1.08,4.67,2.06,6.88,3.29,7.51,4.19,15.01,8.41,23.22,11.09,14.83,4.84,29.85,5.16,45.01,1.64,5.91-1.37,11.68-3.09,16.98-6.12,3.34-1.91,6.28-4.28,8.5-7.46,5.33-7.63,4.56-16.59-1.99-23.2-6.48-6.54-15.76-8.39-23.69-4.69-4.06,1.9-6.73,5.02-7.88,9.35-.77,2.91.26,5.69,2.58,7.33,2.1,1.48,5.07,1.49,7.46-.25,1.46-1.06,2.68-2.45,4-3.7.91-.86,1.82-2.02,3.2-1.33,1.45.73,1.3,2.2,1.1,3.59-.68,4.76-7.25,11.13-13.74,11.47-5.58.29-11.17-3.12-13.38-8.64-2.73-6.81-1.13-12.96,2.9-18.7,2.13-3.03,4.87-5.41,8.15-7.14.95-.5,1.43-1.04,1.12-2.21-.19-.73-.16-1.56-.06-2.32,1.97-14.28,3.9-28.57,5.97-42.84,1.97-13.65,4.02-27.3,6.15-40.93.87-5.55,2.02-11.06,3.14-16.57.28-1.36-.07-2.1-1.42-2.06-3.73.1-7.5,0-11.18.53-6.69.95-13.34,2.26-20,3.46-1.87.34-1.94.53-1.53,2.42,3.13,14.67,4.16,29.48,2.72,44.41-1.09,11.29-3.89,22.17-9.44,32.15-7.41,13.32-18.29,22.62-32.84,27.49-8.77,2.94-17.72,3.71-26.81,2.19-9.37-1.57-17.53-5.71-23.89-12.83-5.73-6.41-8.43-14.11-8.56-22.72-.17-10.49,3.26-19.95,8.43-28.85,7.12-12.25,16.97-22.05,28.05-30.7,8.03-6.27,16.74-11.48,25.71-16.25,5.55-2.95,11.28-5.59,16.97-8.26,1.3-.61,1.63-1.21,1.27-2.61-2.77-10.52-5.65-21.02-8.14-31.61-3.7-15.7-6.37-31.55-5.67-47.78.32-7.38,1.12-14.65,4.58-21.35,4.04-7.81,9.88-13.37,18.89-14.78,1.67-.26,3.41-.04,5.22-.28-.75-.32-1.48-.81-2.26-.93-4.1-.65-8.22-1.21-12.33-1.79-1.08-.15-2.24-.08-3.23-.47-.82-.32-1.97-1.12-2.01-1.78-.05-.79.74-2.11,1.46-2.38,2.07-.76,4.28-1.41,6.46-1.54,2.78-.17,5.6.21,8.4.37.5.03.99.12,1.92.23Zm-9,142.92c-.72.24-1.12.35-1.49.5-10.19,4.07-19.83,9.19-28.98,15.24-11.17,7.39-21.07,16.14-28.75,27.21-4.32,6.23-7.59,12.95-8.61,20.56-1.04,7.72,1.11,14.29,7.66,18.9,2.1,1.48,4.49,2.7,6.92,3.52,14.25,4.82,33.05-.96,43.1-13.12,5.96-7.21,9.21-15.67,11.07-24.69,2.88-13.96,2.26-27.96.16-41.95-.3-1.99-.69-3.97-1.08-6.16Z"/>
        <path class="cls-2" d="m116.95,45.48c4.23-3.91,8.27-7.91,12.59-11.55,4.07-3.44,8.71-6.04,13.72-7.96,2.51-.96,4.86-.42,7.05.77,1.82.98,2.4,2.76,2.24,4.8-.19,2.62-1.17,4.95-2.57,7.12-1.17,1.81-2.39,3.6-3.71,5.58,2.82-.77,5.39-1.62,8.01-2.17,7.82-1.65,15.43-1.26,22.61,2.64,5.09,2.76,8.66,6.7,8.53,12.78-.12,6.06-2.44,11.27-7.99,14.27-2.01,1.09-4.56,1.24-6.89,1.66-.43.08-1.37-.62-1.43-1.04-.07-.55.36-1.36.82-1.76,3.18-2.7,6.17-5.56,8.35-9.16.37-.62.71-1.31.83-2.01.08-.44-.11-1.11-.44-1.4-1.11-1.01-2.37-1.86-3.51-2.85-3.27-2.87-7.1-4.28-11.4-4.5-7.31-.37-13.98,1.82-20.31,5.24-2.84,1.54-5.54,3.33-8.4,4.81-3.88,2.01-7.29-.31-6.87-4.66.12-1.2.52-2.48,1.15-3.5,2.49-4.03,5.13-7.97,7.7-11.94.16-.24.26-.51.2-.98-.46.28-.94.55-1.39.86-5.83,3.94-10.68,8.95-15.38,14.12-1.19,1.3-2.5,2.5-3.85,3.64-1.55,1.31-3.28,1.1-4.98.26-1.64-.81-2.38-2.17-2.18-3.96.41-3.72.88-7.44,1.33-11.16.07-.56.14-1.12-.14-1.78-.41,1.23-.94,2.44-1.21,3.71-1.3,6.11-2.48,12.25-3.8,18.35-.35,1.6-.9,3.21-1.65,4.67-.95,1.86-2.85,2.35-4.66,1.26-1.09-.65-2.22-1.47-2.91-2.5-3.84-5.76-7.59-11.58-11.29-17.43-1.22-1.92-1.14-3.11-.09-3.93,1.07-.83,2.47-.62,3.94,1.08,2.83,3.26,5.48,6.68,8.2,10.03.38.47.77.95,1.4,1.72.17-1.47.29-2.58.43-3.69,1.08-8.82,4.72-16.55,10.01-23.58,1.19-1.58,2.61-2.83,4.81-2.74,1.5.06,2.7.61,3.17,2.07.41,1.27.83,2.62.79,3.93-.1,3.12-.47,6.22-.73,9.33-.05.55-.11,1.11-.15,1.54Z"/>
        <path class="cls-2" d="m84.96,86.6c-.53.85-1,1.74-1.6,2.54-6.92,9.3-12.77,19.24-17.91,29.62-7.44,15.03-11.45,30.99-12.89,47.65-.34,3.94-1.03,7.84-1.43,11.78-.25,2.48-.29,4.98-.38,7.47-.05,1.27-.59,2.14-1.9,2.23-1.25.09-1.96-.7-2.12-1.86-.61-4.59-1.49-9.17-1.68-13.77-.61-14.79,2.58-28.91,8.69-42.3,6.12-13.41,14.26-25.63,23.36-37.2,1.63-2.07,3.67-3.82,5.58-5.66.48-.46,1.19-.67,1.8-.99.16.16.32.32.48.48Z"/>
        <path class="cls-2" d="m202.19,420.7c-.62,6.46-2.33,12.64-4.97,18.59-2.87,6.45-6,12.71-11.18,17.7-6.38,6.15-13.82,10.7-21.88,14.2-4.81,2.09-9.83,3.67-14.72,5.57-1.49.58-2.83,1.55-4.32,2.15-1.07.44-2.27.75-3.42.78-1.39.03-2.05-.97-1.42-2.21.54-1.06,1.34-2.23,2.34-2.76,5.22-2.79,10.4-5.71,15.85-7.98,13.18-5.5,24.01-13.79,31.41-26.05,2.6-4.31,4.13-9.28,6.08-13.97.88-2.11,1.57-4.3,2.37-6.44.18-.48.4-1.03.77-1.34.55-.46,1.27-1.04,1.87-.99.42.04.79,1.04,1.09,1.65.15.31.08.71.12,1.1Z"/>
        <path class="cls-2" d="m198.87,456.68c4.66.91,9.3,1.42,13.68,2.79,3.87,1.22,7.45,3.39,11.15,5.15.28.13.52.35.76.54,1.49,1.18,2.13,3.08,1.44,4.22-.67,1.09-2.51,1.26-4.28.4-3.6-1.75-7.15-3.61-10.81-5.22-4.23-1.87-8.68-2.49-13.28-1.79-1.63.25-3.22.19-4.62-.86-1.28-.95-1.74-2.45-.84-3.69,4.46-6.16,6.73-13.42,10.09-20.12,4.61-9.19,7.18-19.18,10.67-28.81.3-.83.56-1.7,1.05-2.42.3-.44,1.04-.92,1.49-.83.54.1,1.22.68,1.4,1.21.31.91.47,1.96.34,2.91-.39,2.83-.76,5.68-1.49,8.43-3.1,11.67-7.78,22.73-13.36,33.41-.83,1.58-2.15,2.91-3.23,4.36-.11.15-.14.36-.13.33Z"/>
        <path class="cls-2" d="m214.73,478.78c-.71-.17-2.02-.26-3.1-.8-5.32-2.67-10.84-2.55-16.46-1.44-4.15.82-7.85,2.53-11.29,5.04-6.55,4.77-12.55,10.09-17.82,16.25-1.27,1.48-2.83,2.77-4.43,3.9-.67.47-2.22.73-2.61.34-.56-.57-.78-1.91-.55-2.77.96-3.58,3.32-6.32,5.9-8.85,4.09-4,8.26-7.92,12.4-11.86,6.27-5.97,13.46-10.05,22.24-11,5.58-.6,10.93.14,15.89,2.79,1.35.72,2.55,2.01,3.38,3.32,1.43,2.25-.33,5.04-3.54,5.08Z"/>
        <path class="cls-2" d="m163.86,441.08c-.36,6.57-3.26,11.81-7.66,16.29-3.98,4.04-8.56,7.33-13.98,9.15-1.57.53-3.36.58-5.04.53-1.55-.04-2.1-1.68-1.41-3.2,1.29-2.88,3.58-4.8,6-6.62,2.16-1.63,4.48-3.06,6.54-4.8,3.66-3.08,6.73-6.67,7.15-11.67.2-2.39.03-4.95-.63-7.24-1.42-4.94-3.27-9.75-4.93-14.62-.69-2.01-1.45-4.01-1.97-6.07-.18-.73.26-1.62.42-2.44.72.42,1.7.67,2.1,1.29,1.82,2.78,3.61,5.6,5.16,8.54,2.28,4.32,4.53,8.67,6.42,13.17,1.01,2.39,1.25,5.11,1.83,7.69Z"/>
        <path class="cls-2" d="m358.46,65.29c.62-.09,1.24-.26,1.86-.26,6.75-.03,13.05,1.95,19.14,4.58,15.7,6.78,26.33,18.67,33.25,34,1.67,3.7,2.37,7.85,3.36,11.83.13.51-.56,1.68-1,1.75-.61.1-1.67-.36-1.97-.9-2.64-4.77-5.16-9.61-7.71-14.44-4.57-8.66-10.44-16.29-18.11-22.44-7.05-5.66-15.15-9.24-23.73-11.86-1.24-.38-2.5-.72-3.73-1.12-.5-.16-.95-.45-1.43-.68.02-.15.04-.3.06-.45Z"/>
        <path class="cls-2" d="m186.73,442.19c.05,3.47-3.16,5.48-6.27,4.16-4.79-2.04-8.52-5.42-11.48-9.58-2.04-2.87-3.83-5.95-5.4-9.1-1.63-3.25-2.91-6.67-4.24-10.05-.49-1.24-.77-2.6-.93-3.92-.07-.56.25-1.49.67-1.69.41-.2,1.33.14,1.74.54.81.78,1.46,1.75,2.13,2.67,3.42,4.71,6.78,9.47,10.26,14.14,2.87,3.84,6.37,6.99,10.77,9.04,1.69.79,2.68,2.1,2.75,3.81Z"/>
        <path class="cls-2" d="m369.7,142.33c0,2.24,0,4.47,0,6.71,0,.85.08,1.85-1.06,1.91-1.17.06-1.1-.97-1.22-1.8-1.92-12.7-3.7-25.43-8.01-37.61-.54-1.52-1.36-2.93-1.85-4.46-.2-.61-.05-1.86.29-2,.6-.26,1.74-.17,2.17.26,1.05,1.05,1.99,2.29,2.66,3.61,3.77,7.41,5.79,15.35,6.69,23.57.35,3.25.41,6.53.6,9.8-.09,0-.18,0-.27.01Z"/>
        <path class="cls-2" d="m26.57,241.23c.64-7.8,3.13-14.66,8.36-20.39,1.72-1.88,3.83-3.22,6.32-3.83.76-.19,1.64.12,2.47.19-.27.78-.52,1.56-.81,2.33-.05.14-.19.25-.31.35-5.97,4.98-8.51,11.78-10.04,19.08-.69,3.29-1.09,6.64-1.77,9.93-.12.59-.91,1.43-1.43,1.45-.53.03-1.48-.73-1.59-1.27-.53-2.64-.84-5.33-1.21-7.86Z"/>
        <path class="cls-2" d="m125.18,75.59c7.93.24,10.73,8.15,8.21,13.94-.33.76-1.48,1.7-2.16,1.63-.79-.08-1.71-1.05-2.15-1.86-.55-1.02-.64-2.29-.97-3.43-.88-3.06-2.61-4.1-5.75-3.5-1.32.26-2.63.68-3.96.82-1.9.2-2.62-.84-1.81-2.6,1.09-2.39,3.16-3.67,5.55-4.45.97-.32,2.03-.38,3.05-.56Z"/>
        <path class="cls-2" d="m116.18,93.11c.02-1.88,1.54-3.34,3.4-3.29,1.84.05,3.33,1.63,3.26,3.46-.06,1.77-1.57,3.21-3.35,3.22-1.86,0-3.34-1.5-3.31-3.38Z"/>
      </g>
    </g>
  </g>
</svg>