<?xml version="1.0" encoding="UTF-8"?>
<svg id="Layer_2" data-name="Layer 2" xmlns="http://www.w3.org/2000/svg" viewBox="0 0 643.22 335.38">
  <defs>
    <style>
      .cls-1 {
        fill: #1d1e1e;
      }

      .cls-1, .cls-2 {
        stroke-width: 0px;
      }

      .cls-2 {
        fill: #e18126;
      }
    </style>
  </defs>
  <g id="Layer_1-2" data-name="Layer 1">
    <g>
      <path class="cls-2" d="m31.8,181.55S61.8,67.6,143.55,31.6,293.55-7.4,346.05,11.35s103.5,57,103.5,57l66.75,66.75s1.5,38.25,37.5,31.5,105-2.25,86.25,36.75-48,73.5-101.25,85.5-66,13.23-66,13.23c0,0-10.5,7.77-17.25,13.02s-61.5,3.06-66.75,4.53-39-.78-68.25,9.72-87-5.25-87-5.25c0,0-55.5,12-81,11.25s-60.8-14.19-61.9-15.72-7.1-4.53-7.1-4.53c0,0-94.5-.75-82.5-39.75s21.86-60.75,21.86-60.75l8.89-33.04Z"/>
      <g>
        <path class="cls-1" d="m95.32,266.99c-1.36,1.41-2.52,2.61-3.66,3.81-5.07,5.32-10.6,10.1-17.03,13.71-6.29,3.54-13,5.81-20.29,5.89-6.89.07-13.12-1.92-18.6-6.22-3.9-3.06-7.07-6.7-9.34-11.1-2.27-4.4-3.44-9.11-3.49-14.06-.1-8.83,3.42-16.28,8.78-23.04,4.14-5.23,8.98-9.67,14.63-13.17,8.48-5.27,17.67-8.37,27.75-8.39,2.23,0,4.47.2,6.7.36,1.43.1,1.58,0,1.21-1.42-2.28-8.74-4.13-17.59-7.33-26.08-.86-2.27-1.39-4.67-2.07-7.01-.12-.42-.24-.83-.44-1.56-.34.55-.54.85-.73,1.16-2.55,4.25-5.08,8.51-7.66,12.74-.39.63-.92,1.22-1.51,1.68-1.71,1.34-4.02,1.45-5.61.38-1.89-1.27-2.87-3.54-2.17-5.78.96-3.04,1.99-6.09,3.27-9,5.42-12.34,12.22-23.92,19.99-34.91,4.96-7.01,10.11-13.9,15.28-20.76,3.24-4.31,6.53-8.6,10.06-12.67,2.13-2.45,4.82-4.41,7.16-6.7,2.56-2.5,5.94-3.54,8.94-5.28,1.12-.65,2.53-.31,3.43.58.92.9,1.11,2.19.65,3.44-2.03,5.46-4.72,10.57-8.24,15.21-2.49,3.28-5.19,6.39-7.76,9.61-9.21,11.53-18.33,23.12-26.28,35.57-.31.49-.45,1.31-.28,1.86,2.5,8.02,5.01,16.02,7.62,24,2.58,7.91,5.36,15.74,7.85,23.68,1.66,5.3,2.97,10.71,4.44,16.07.56,2.04,1.13,4.08,1.7,6.12.09.34.25.65.47,1.24,1.03-.86,1.95-1.6,2.84-2.37,5-4.3,10.53-7.68,16.93-9.42,3.49-.95,7.09-1.19,10.7-1.11,9.04.21,17.63,2.36,25.88,5.99.29.13.6.22.91.3.1.03.22-.03.35-.06-11.21-24.83-7.32-48.38,6.05-71.28-.59-.08-1.08-.16-1.57-.2-3.54-.26-7.11-.36-10.63-.79-5.23-.63-10.16-2.3-14.5-5.31-3.67-2.55-6.37-5.95-8.08-10.17-2.57-6.33-2.41-12.69-.67-19.15,2.1-7.79,6.17-14.51,11.07-20.81,6.51-8.37,14.48-15.09,23.46-20.65,3.49-2.16,7.17-3.91,11.33-4.34,2.14-.22,4.23-.09,6.16,1.03,2.54,1.48,2.59,4.48.09,6-.38.23-.77.43-1.18.6-8.51,3.42-15.29,9.22-21.51,15.75-5.46,5.74-10.2,12.04-13.39,19.33-1.27,2.9-2.05,6.04-2.84,9.12-.33,1.28-.24,2.71-.11,4.05.36,3.86,2.23,6.81,5.92,8.17,2.53.93,5.2,1.68,7.87,1.97,8.62.93,17.17.15,25.58-1.91,2.52-.62,4.96-1.56,7.47-2.21,3.58-.93,7.21.58,9.17,3.65,1.91,3.01,1.75,7.02-.58,9.74-.86,1.01-2.02,1.8-3.13,2.56-2.57,1.75-5.37,3.21-7.78,5.16-6.43,5.18-10.57,12.01-13.45,19.66-3.57,9.48-4.76,19.21-3.09,29.23,1.93,11.59,8.03,20.52,17.7,26.99,15.87,10.62,33.22,13.52,51.81,9.58,13.91-2.95,26.39-8.98,37.49-17.77,14.39-11.39,25.17-25.55,31.37-42.91,6.71-18.77,6.77-37.65-.31-56.35-3.43-9.07-8.6-17.1-16.23-23.25-7.66-6.17-16.49-8.97-26.25-7.04-11.07,2.19-18.22,9.02-20.88,20.04-3.09,12.81-1.33,25.17,4.34,37.01,2.11,4.41,4.89,8.35,8.52,11.64,5.85,5.31,12.84,7.75,20.67,8.09,1.95.09,3.87.5,5.82.66,1.22.1,2.47.14,3.68,0,2.26-.25,4.13.67,4.89,2.59.75,1.89.1,3.84-1.66,5.18-2.16,1.64-4.23,3.41-6.46,4.96-1.12.78-2.44,1.42-3.76,1.73-2.67.63-5.4,1.3-8.12,1.37-3.28.09-6.6-.29-9.87-.72-3.15-.42-6.12-1.6-8.89-3.13-2.33-1.29-4.69-2.65-6.73-4.33-3.79-3.13-7.16-6.7-10.05-10.73-3.95-5.52-6.86-11.54-9.03-17.92-2.13-6.27-3.55-12.72-3.74-19.36-.12-4.42-.09-8.87.24-13.28.4-5.32,1.62-10.51,3.83-15.4,1.22-2.69,2.5-5.37,4.04-7.88,1.28-2.1,2.82-4.1,4.53-5.87,3.51-3.63,7.43-6.79,12.01-9.03,1.71-.83,1.82-.9,1-2.6-3.29-6.88-6.6-13.76-9.99-20.6-1.65-3.33-3.55-6.53-5.22-9.85-.58-1.15-.9-2.48-1.12-3.76-.17-1.03-.57-1.28-1.52-1.04-5.47,1.36-11.01,2.47-16.41,4.08-12.18,3.65-24.27,7.56-36.42,11.3-2.17.67-4.42,1.1-6.66,1.48-1.21.21-2.59.26-3.32-1.05-.73-1.3.08-2.42.82-3.4,1.85-2.47,4.35-4.23,6.9-5.89,5.88-3.83,12.22-6.8,18.65-9.57,9.42-4.06,19.16-7.23,29.13-9.59,7.69-1.83,15.49-3.26,23.29-4.55,5.43-.9,10.94-1.38,16.43-1.82,7.31-.58,14.63-.16,21.91.67,5.79.66,11.57,1.51,17.31,2.58,3.2.59,6.35,1.63,9.39,2.79,1.59.61,2.91,1.93,4.36,2.91.65.44,1.3.93,2.01,1.23,1.91.8,2.93,2.5,2.51,4.37-.42,1.87-2.07,2.87-4.15,2.87-1.53,0-3.09.26-4.58.62-2.6.63-5.19.31-7.75-.05-4.99-.71-9.94-1.67-14.92-2.4-11.89-1.75-23.81-2.07-35.74-.42-1.44.2-1.54.42-1.04,1.79,2.55,6.94,5.19,13.84,7.58,20.83,1.34,3.93,2.16,8.03,2.33,12.21.07,1.59.18,1.72,1.77,1.58,5.49-.47,10.95-.25,16.33.94,5.02,1.1,9.79,2.91,14.29,5.42,4.18,2.33,7.97,5.15,11.43,8.46,3.54,3.38,6.78,7.05,9.4,11.16,2.66,4.17,5.18,8.46,7.28,12.93,1.86,3.96,3.3,8.16,4.47,12.38,1.22,4.37,2.05,8.87,2.79,13.36,1.07,6.49,1.17,13.05.81,19.61-.36,6.65-1.44,13.19-3.1,19.63-1.54,5.97-3.64,11.75-6.23,17.36-2.74,5.93-5.89,11.65-9.76,16.9-3.46,4.69-7.29,9.09-10.97,13.62-.25.3-.52.58-1.06,1.18.79.04,1.27.12,1.73.08,8.84-.77,17.35.8,25.69,3.61,5.22,1.76,10.12,4.19,14.69,7.25,5.84,3.9,10.97,8.63,14.67,14.63,3.57,5.8,5.24,12.19,4.83,19.1-.46,7.88-3.51,14.65-8.29,20.8-5.52,7.09-12.68,11.94-20.74,15.64-9.46,4.34-19.47,6.07-29.8,6.43-7.47.26-14.87-.3-22.16-1.92-9.26-2.06-17.98-5.47-25.62-11.2-3.03-2.27-5.96-4.72-8.61-7.41-1.43-1.45-2.11-3.62-3.22-5.41-1.37-2.21-1.11-4.78-1.66-7.16-.08-.35.24-.92.54-1.21,1.19-1.13,3.06-1.22,4.59-.45,1.34.67,2.7,1.45,4.14,1.75,3.03.64,5.47,2.38,8.09,3.81,8.31,4.55,16.88,8.51,26.24,10.32,13.33,2.58,26.53,2.17,39.28-2.95,6.81-2.74,12.88-6.64,17.01-12.96,3.57-5.47,4.72-11.25,1.84-17.4-1.34-2.87-3.46-5.2-5.79-7.28-9.79-8.69-21.29-13.15-34.35-13.24-6.52-.05-12.45,2.01-17.29,6.59-2.65,2.5-4.48,5.52-5.3,9.09-.99,4.31.21,7.08,4.2,8.96,5.39,2.53,11.1,2.82,16.9,1.85,1.3-.22,2.57-.68,3.87-.77.84-.06,1.93.1,2.5.61.83.75.39,1.89-.1,2.78-1.09,1.96-2.85,3.23-4.79,4.22-6,3.09-12.34,3.69-18.9,2.39-4.15-.82-7.91-2.43-11.07-5.36-3.11-2.88-4.76-6.47-5.29-10.59-.45-3.46-.02-6.85,1.11-10.16.15-.43.17-.91.28-1.52-.43.1-.71.12-.94.23-6.46,3.11-13.14,5.67-20.08,7.49-7.68,2.02-15.49,3.17-23.45,3.24-6.07.05-12.06-.54-17.98-1.75-5.84-1.2-11.53-2.97-16.98-5.44-1.82-.83-3.59-1.75-5.39-2.61-.3-.15-.64-.23-1.16-.24,2.51,6.75,3.35,13.63,2.34,20.94,2.09-1.26,3.5-.1,4.89.97,5.28,4.07,8.34,9.59,10.21,15.86.16.53.14,1.11.26,1.65.19.87.41,1.73.66,2.58.54,1.84.15,3.59-1.01,4.96-1.04,1.22-2.32,2.38-3.72,3.12-10.54,5.52-21.63,9.18-33.65,9.34-5.23.07-10.47-.04-15.7-.25-3.32-.13-6.6-.69-9.72-1.95-1.18-.48-2.18-1.13-2.83-2.28-.23-.41-.58-.78-.95-1.06-3.01-2.34-5.03-5.3-5.95-9.02-.14-.56-.52-1.07-.82-1.58-.87-1.46-.64-3.12.61-4.1,1.21-.96,2.8-.82,4.06.24.59.5,1.29.92,2.02,1.2,2.73,1.03,5.45,2.1,8.23,2.93,3.08.91,6.21.81,9.13-.64,7.42-3.71,13.47-8.97,17.2-16.46,5.2-10.46,2.88-22.19-5.76-30.55-3.97-3.84-8.63-6.56-13.71-8.66-5.55-2.29-11.28-3.7-17.28-4.25-6.88-.63-12.94,1.24-18.16,5.64-3.2,2.7-6.17,5.68-9.15,8.63-.46.46-.67,1.47-.56,2.16.89,5.4,1.98,10.77,2.81,16.18,1.07,6.95,2.08,13.91,2.85,20.89.18,1.64-.51,3.45-1.1,5.08-.51,1.42-2.14,1.58-3.41.56-1.98-1.58-3.31-3.6-4.4-5.88-3.61-7.59-5.96-15.59-8.1-23.68-.1-.38-.23-.74-.45-1.43Zm-16.63-41.58c-4.71.07-9.29.66-13.76,2.03-12.33,3.76-21.41,11.49-27.01,23.02-3.39,6.98-2.38,13.82,2.55,19.87,5.01,6.16,11.47,7.73,18.97,5.54,5.68-1.66,10.47-4.87,14.92-8.66,5.84-4.97,10.71-10.86,15.72-16.61.63-.72.69-1.45.47-2.33-1.72-6.78-3.39-13.57-5.15-20.33-.15-.57-.78-1.3-1.32-1.45-1.76-.49-3.58-.74-5.38-1.08Zm92.89,85.04c-.26-2.42.72-4.15,2.33-5.55,2.92-2.55,6.27-3.22,9.95-2.09.74.23,1.11.15,1.57-.48,1.42-1.98,3.21-3.57,5.48-4.51,2.26-.93,4.55-1.04,6.64.38.81.55,1.36,1.49,2.15,2.39.46-1.23,1.13-2.42.65-3.71-.7-1.86-1.66-3.63-2.39-5.48-1.98-5.01-5.02-9.2-9.46-12.62-3.04,14.48-12.3,24.16-24.22,31.81.04.1.09.19.13.29,2.32-.14,4.65-.28,7.16-.42Zm3.35-.39c3.14-.8,6.08-1.54,9.02-2.29-4.34-2.06-7.9-.33-9.02,2.29Zm21.5-7.34c-2.78-1.66-6.68.04-8.3,3.56,2.84-1.22,5.44-2.33,8.3-3.56Z"/>
        <path class="cls-1" d="m605.46,219.02c-.9,1.54-1.67,2.85-2.43,4.16-2.09,3.59-3.94,7.39-7.07,10.21-2,1.81-4.24,3.37-6.48,4.89-2.01,1.36-4.1,2.66-6.29,3.72-1.63.79-3.48,1.13-5.22,1.71-20.23,6.67-41.07,11.02-61.69,16.23-8.56,2.17-17.14,4.28-25.74,6.31-4.72,1.11-9.53,1.68-14.39,1.69-.31,0-.61.05-.96.09.13,2.19.28,4.29.36,6.4.25,5.97-1.52,8.34-7.4,9.04-5.75.69-11.54.96-17.32,1.37-1.06.07-2.14-.09-3.32-.15.06.26.11.59.23.9.76,1.94,1.61,3.84,2.25,5.81.3.91.29,1.95.24,2.93-.05.92-.75,1.38-1.62,1.06-.76-.28-1.41-.83-2.13-1.24-1.02-.57-2.01-1.39-3.11-1.62-2.34-.5-4.19.35-5.44,2.52-1.11,1.94-1.4,4.03-1.63,6.34,3.5-.75,6.81-1.53,9.73-3.51.63-.43,1.45-.78,2.19-.79,1.12-.02,2.26.3,2.71,1.57.44,1.26-.08,2.9-1.23,3.61-.78.48-1.64.82-2.49,1.17-6.49,2.74-13.34,3.79-20.29,4.5-10.62,1.08-21.17.21-31.7-1.12-4.63-.58-9.27-1.35-13.79-2.48-8.43-2.12-11.62-7.1-10.14-15.64.84-4.84,2.08-9.61,3.03-14.43.54-2.7.86-5.45,1.28-8.17.04-.24.04-.48.09-.71.15-.82.36-1.69,1.4-1.62,1.03.07,1.24.98,1.2,1.79-.13,2.79-.16,5.61-.58,8.36-.73,4.82-1.75,9.59-2.56,14.4-.25,1.48-.28,3.02-.23,4.53.11,3.19,1.79,5.48,4.76,6.38,3.7,1.12,7.48,2.05,11.3,2.63,10.22,1.56,20.52,2.18,30.85,1.44,3.47-.25,6.91-.75,10.37-1.13.69-.07,1.04-.26,1.02-1.1-.03-1.11.22-2.22.3-3.34.02-.32-.03-.85-.21-.93-1.41-.64-2.81-1.44-4.31-1.71-1.14-.21-2.48.08-3.61.49-2.13.76-3.95,2.06-5.46,3.79-.68.78-1.42,1.65-2.63,1.12-1.03-.44-1.44-1.73-1.04-3.12.16-.56.37-1.19.76-1.6,2.64-2.78,5.8-4.67,9.64-5.14,3.15-.39,5.75.68,7.44,3.67,1.91-4.54,5.11-6.91,10.06-6.71-.75-2.45-1.53-4.8-2.19-7.17-1.22-4.4-2.15-8.85-2.01-13.47.11-3.61.84-7.06,2.67-10.21,1.52-2.63,3.06-5.24,4.6-7.86.14-.24.31-.47.49-.68.79-.93,1.92-1.16,2.77-.57.89.62.98,1.6.28,2.76-1.36,2.26-2.71,4.52-4.06,6.79-.2.33-.36.69-.63,1.21.79.12,1.44.24,2.09.32,3.06.35,6.11.75,9.18,1.02,3.8.33,7.67.24,11.41.88,10.26,1.76,20.04-.61,29.82-3.05,21.45-5.34,42.9-10.71,64.34-16.08,1.43-.36,2.84-.83,4.28-1.18,7.91-1.89,14.42-6.34,20.72-11.2,1.71-1.32,3.38-2.69,5.16-3.91,2.93-2.01,4.7-4.92,6.59-8.12-1.21.09-2.22.02-3.16.26-3.45.9-6.05-.72-8.49-2.77-.57-.48-1.06-1.11-1.43-1.76-.39-.69-.87-.88-1.57-.63-.9.32-1.83.58-2.67,1.02-2.12,1.13-4.18,2.35-6.27,3.53-.42.23-.84.54-1.29.6-.41.05-1.03-.06-1.23-.34-.2-.28-.1-.9.07-1.27.17-.37.56-.68.91-.93,2.17-1.49,4.35-2.97,6.55-4.42,1.43-.94,2.89-1.85,4.39-2.68.35-.2.92-.08,1.37-.01.2.03.38.28.54.46,2.72,3.07,6.19,4.31,10.23,4.48,2.5.11,4.98.64,7.48.9.28.03.82-.42.9-.73.47-1.9,1-3.81,1.21-5.74.67-6.12.77-12.2-1.29-18.15-2.15-6.19-6.5-9.47-12.97-10.07-5.87-.54-11.58.43-17.16,2.11-4.21,1.26-8.33,2.8-12.48,4.25-.52.18-.98.53-1.45.83-3.06,1.91-6.3,3.07-9.98,2.75-.68-.06-1.49.09-2.06.44-2.9,1.76-5.94,3.35-8.55,5.48-5.44,4.45-10.48,9.4-15.97,13.79-8.68,6.93-17.58,13.59-26.43,20.31-.86.66-1.37,1.3-1.23,2.36.32,2.61.69,5.21.97,7.82.04.42-.16,1.12-.46,1.27-.33.16-1.03-.02-1.34-.3-2.01-1.83-3.24-4.04-3.02-6.87.02-.22-.03-.45-.05-.85-.47.26-.81.43-1.14.62-3.05,1.75-6.12,3.47-9.14,5.28-.47.28-.87.88-1.03,1.41-.36,1.18-.51,2.42-.85,3.6-.1.35-.51.79-.84.84-.33.06-.88-.22-1.08-.51-.54-.83-.95-1.74-1.49-2.76-4.53,1.87-9.19,3.57-14.18,4.69.21-1.12.34-2.07.58-2.98.07-.28.4-.6.68-.69,13.77-4.55,25.49-12.7,37.05-21.09,5.53-4.01,10.82-8.36,16.2-12.57,1.76-1.38,2.16-2.9.72-4.67-2.3-2.82-3.23-6.22-4.56-9.45-1.67-4.06-3.6-7.93-6.78-11.06-.66-.65-1.2-1.43-2-2.41-.49,1.8-.91,3.27-1.3,4.75-1.84,6.83-4.62,13.27-8.01,19.47-2.64,4.83-5.58,9.45-9.28,13.51-3.27,3.6-6.87,6.91-10.35,10.31-.91.89-1.97,1.63-2.94,2.46-1.97,1.69-4.32,2.7-6.65,3.76-1.52.69-2.95,1.59-4.37,2.47-1.63,1.01-3.57.82-4.78-.58-1.17-1.35-1.07-3.28.05-4.73,1.24-1.6,2.35-3.3,3.51-4.96,1.89-2.71,3.77-5.43,5.65-8.15,3.41-4.93,6.96-9.77,10.17-14.83,3.16-4.99,6.11-10.13,8.9-15.34,3.31-6.18,5.5-12.85,7.75-19.48.41-1.21.9-2.4,1.22-3.64.14-.52.12-1.26-.15-1.69-4.63-7.15-9.53-14.11-15.09-20.59-.17-.2-.4-.36-.79-.7-.12.56-.26.94-.29,1.34-.89,12.07-3.48,23.78-7.34,35.24-2.99,8.88-6.58,17.51-10.91,25.82-4.89,9.38-11.02,17.87-18.49,25.4-1.89,1.91-4.04,3.35-6.26,4.77-1.34.86-2.61,1.83-3.85,2.83-1.42,1.14-3.26,1.25-4.64.17-1.38-1.07-1.74-2.94-.94-4.54,1.03-2.06,1.99-4.16,3.03-6.22,1-1.99,1.96-4.02,3.12-5.92,5.71-9.4,11.23-18.9,16.08-28.78.67-1.36,1.29-2.75,1.92-4.13.06-.13.02-.31.04-.62-.59,0-1.13-.02-1.66.01-3.03.17-6.06.39-9.1.52-1.26.05-1.87.53-1.99,1.83-.75,7.94-3.43,15.26-7.31,22.15-2.95,5.25-6.65,9.94-11.02,14.13-4.42,4.24-9.32,7.79-14.76,10.57-3.92,2-8.02,3.66-12.37,4.45-4.16.75-8.36,1.51-12.56,1.69-4.33.18-8.71-.1-13.02-.6-6.58-.78-12.9-2.69-18.96-5.39-5.47-2.44-10.56-5.53-14.91-9.68-2.79-2.66-5.03-5.8-6.66-9.31-1.48-3.19-.7-6.31.84-9.19,1.01-1.88,3.29-2.27,5.64-1.73,3.34.76,5.8,2.95,8.47,4.82,5.71,3.99,11.4,7.99,18.1,10.22,11.51,3.83,23.16,4.67,34.55.12,15.43-6.16,24.44-17.82,26.98-34.26,1-6.49-.65-12.54-4.19-18.07-5.98-9.32-14.22-15.25-25.34-16.74-4.12-.55-8.21-.29-12.22,1-1.93.62-3.48,1.71-4.91,3.11-1.63,1.59-3.28,3.17-5.02,4.63-2.65,2.23-6.33,2.5-9.32.81-2.93-1.65-4.61-4.91-4.11-8.3.53-3.55,1.86-6.68,4.97-8.83,1.61-1.11,3.19-2.27,4.69-3.52,1.1-.92,2.13-1.95,3.03-3.05,5.52-6.77,10.4-13.99,14.42-21.75,3.91-7.55,6.58-15.46,6.48-24.08-.1-9.34-4.03-16.61-12.16-21.33-6.33-3.67-12.92-3.13-19.39-.3-7.33,3.21-13.2,8.2-17.46,15.03-.44.71-.91,1.42-1.39,2.1-1.34,1.91-3.26,2.69-5.29,2.17-2.07-.53-3.28-2.19-3.6-4.58-.34-2.55.19-4.97,1.14-7.26,2.17-5.23,5.63-9.54,9.86-13.26,3.71-3.26,7.78-5.99,12.34-7.96,5.36-2.31,10.91-3.52,16.79-3.27,5.89.26,11.33,1.93,16.36,4.9,3.56,2.1,6.68,4.77,9.41,7.91,2.79,3.2,4.99,6.74,6.59,10.65,1.6,3.91,2.48,8.01,2.79,12.22.86,11.92-2.18,22.98-7.54,33.49-1.96,3.84-4.22,7.52-6.37,11.26-.64,1.12-.56,1.33.74,1.44,6.71.55,12.97,2.52,18.92,5.66,7.07,3.73,12.84,8.93,17.6,15.26,3.36,4.46,5.94,9.38,7.64,14.72.3.94.7,1.19,1.64.93,3.7-1.02,7.49-1.41,11.28-.94,1.82.23,3.57,1.06,5.34,1.67,1.77.62,1.72.63,2.34-1.08,4.15-11.55,6.8-23.49,9.31-35.47.35-1.64.71-3.29,1.21-4.89.34-1.09.06-1.76-.81-2.47-9.58-7.87-19.84-14.7-30.9-20.33-.43-.22-.85-.44-1.26-.7-1.8-1.16-2.67-3.12-2.29-5.15.38-2.04,1.89-3.53,4-3.97,2.64-.55,5.26-.28,7.84.36,5.24,1.28,10.13,3.45,14.89,5.93,5.76,3,11.28,6.4,16.36,10.42,3.94,3.12,7.76,6.43,11.42,9.88,5.13,4.84,9.7,10.22,13.6,16.09,3.66,5.52,7.08,11.21,10.33,16.99,3.06,5.43,5.9,10.99,8.56,16.62,3.55,7.51,6.06,15.39,7.2,23.66.03.22.1.44.19.85.44-.38.76-.66,1.08-.93,4.64-3.85,9.21-7.8,13.97-11.51,1.9-1.48,4.11-2.66,6.35-3.56,1.81-.73,3.87-.82,5.82-1.2,1.08-.21,2.22-.28,3.25-.65,6.27-2.27,12.45-4.82,18.8-6.87,5.64-1.82,11.5-2.83,17.49-2.31,5,.44,9.55,2.02,13.17,5.65,3.12,3.13,4.79,7.06,5.76,11.29,1.44,6.28,1.34,12.63.35,18.95-.46,2.95-1.06,5.9-1.85,8.77-.32,1.15-1.18,2.27-2.05,3.13-.98.96-1.8.67-2.47-.52-.31-.55-.66-1.08-1.14-1.86Z"/>
        <path class="cls-1" d="m406.56,294.7c.42-3.25,1.93-5.54,3.85-7.56,4.53-4.78,10.09-7.47,16.68-7.96.88-.07,1.76-.22,2.62-.16.42.03.81.45,1.21.69-.32.39-.57,1-.97,1.13-4.65,1.5-9.19,3.3-13.29,5.97-2.04,1.33-3.91,3.06-5.5,4.91-1.13,1.31-1.66,3.14-2.48,4.71-.17.32-.51.82-.71.8-.36-.04-.85-.36-.98-.69-.27-.68-.35-1.45-.43-1.84Z"/>
        <path class="cls-1" d="m596.21,188.47c-.12.75-.19,1.51-.38,2.24-.44,1.62-1.93,2.56-3.57,2.32-1.61-.24-2.82-1.64-2.67-3.29.08-.86-.11-1.5-.56-2.21-.96-1.52-.8-3.16-.1-4.71.65-1.42,1.99-1.77,3.41-1.78,1.31,0,2.43.56,2.82,1.83.55,1.81.89,3.68,1.32,5.53-.09.03-.17.05-.26.08Z"/>
        <path class="cls-1" d="m435.88,279.33c-1.81-.11-2.81-.78-2.75-1.61.06-.87,1.29-1.63,2.58-1.37.82.17,1.65.59,2.34,1.09.62.45.47,1.12-.25,1.4-.73.28-1.53.4-1.92.49Z"/>
      </g>
    </g>
  </g>
</svg>