<?xml version="1.0" encoding="UTF-8"?>
<svg id="Layer_2" data-name="Layer 2" xmlns="http://www.w3.org/2000/svg" viewBox="0 0 158.46 128.09">
  <defs>
    <style>
      .cls-1 {
        fill: #f9faed;
      }

      .cls-1, .cls-2 {
        stroke-width: 0px;
      }

      .cls-2 {
        fill: #d94e26;
      }
    </style>
  </defs>
  <g id="Layer_1-2" data-name="Layer 1">
    <g>
      <path class="cls-1" d="m0,44.14c7.13-10.35,16.9-12.28,28.14-8.35,4.53,1.58,6.04.05,6.48-4.2.6-5.78,1.12-11.6,2.22-17.3C39.39,1.06,53.16-2.57,63,1.7c9.22,4,15.91,10.73,20.88,19.33.72,1.24,1.48,2.46,2.27,3.78,4.15-3.93,7.69-7.87,11.81-11.08,9.46-7.38,22.06-8.07,32.32-1.89,8.63,5.2,10.55,13.8,10.15,22.93-.22,5.08-1.54,10.18-2.91,15.12-.82,2.96-.08,4.6,2.18,6.35,3.93,3.06,8,6.06,11.4,9.66,8.72,9.26,9.84,23.84,2.57,31.92-7.19,8-16.8,9.08-26.66,8.04-6.59-.69-13.13-2.21-19.56-3.86-3.69-.95-5.59-.2-6.77,3.45-1.48,4.58-3.03,9.2-5.14,13.51-4.3,8.81-12.02,11.74-20.24,6.53-6.38-4.05-11.54-10.03-17.24-15.16.23-.45.47-.91.7-1.36-.93.56-1.96,1.01-2.77,1.7-7.87,6.75-16.7,9.9-26.76,6.03-11.41-4.39-16.46-13.67-17.11-25.31-.25-4.54,1.3-9.15,1.73-13.76.16-1.74.05-4.05-.96-5.26C8.82,67.46,4.34,62.86,0,58.14c0-4.67,0-9.33,0-14Z"/>
      <ellipse class="cls-2" cx="82.14" cy="70.12" rx="27.94" ry="22.5"/>
    </g>
  </g>
</svg>