<?xml version="1.0" encoding="UTF-8"?>
<svg id="Layer_2" data-name="Layer 2" xmlns="http://www.w3.org/2000/svg" xmlns:xlink="http://www.w3.org/1999/xlink" viewBox="0 0 175 255.31">
  <defs>
    <style>
      .cls-1 {
        fill: #fff8ed;
      }

      .cls-1, .cls-2 {
        stroke-width: 0px;
      }

      .cls-3, .cls-2 {
        fill: #869e57;
      }

      .cls-4 {
        clip-path: url(#clippath);
      }
    </style>
    <clipPath id="clippath">
      <path class="cls-2" d="m73.41,154.51c0-6.25.33-10.73-.1-15.13-.37-3.86-9.77-9.71-13.66-9.83-7.25-.23-14.54-.66-21.68-1.8-5.21-.83-8.78-6.44-9.17-12.95-.24-3.99-.17-8-.05-11.99.09-2.95-1.19-4.46-3.93-5.53-16.03-6.27-19.58-27-6.33-38.29,4.2-3.58,5.19-6.22,2.95-11.66-3.19-7.74-3.21-15.95,2.71-23.1,6.25-7.54,14.16-9.72,23.31-7.08,5.43,1.56,8.61.41,11.97-4.58,10.42-15.46,28.16-16.65,42.7-3.49,1.23,1.12,2.51,2.23,3.55,3.52,2.25,2.78,4.86,3.54,8.38,2.61,9.44-2.49,17.2.86,23.12,8.06,6.02,7.32,7.44,16.04,4.36,24.94-1.52,4.38-1.16,7.19,2.19,10.57,10.37,10.48,8.87,26.68-3.35,35.71-3.85,2.85-5.72,5.62-5.92,10.54-.17,4.16-1.76,8.5-3.65,12.3-4.79,9.67-13.55,11.07-23.03,9.55-4.01-.65-6.33.41-8.02,3.94-.62,1.3-1.75,2.44-2.87,3.4-5.74,4.91-6.84,9.82-3.4,18.51,2.99-2.27,5.88-4.28,8.57-6.52,6-5.01,11.53-10.66,17.93-15.08,7.91-5.45,16.8-8.06,26.52-4.67,13.18,4.6,17.77,18.19,9.4,29.38-8.32,11.14-20.4,14.46-33.64,13.84-7.95-.37-15.86-1.67-23.79-2.53-3.77-.41-5.43.87-4.94,5.08.46,3.91-.02,7.94-.05,11.91-.03,3.96,2.21,4.88,5.81,4.93,10.6.13,20.44-2.48,29.7-7.48,4.1-2.21,8.07-4.72,12.3-6.63,3.46-1.57,7.14-2.95,10.86-3.57,15.96-2.64,26.84,10.63,21.42,25.9-4.69,13.22-17.4,21.04-31.66,18.44-8.12-1.48-15.96-4.53-23.91-6.92-5.74-1.72-11.38-3.79-17.19-5.19-4.81-1.16-6.22.04-5.86,5.02.93,13.1,1.96,26.21,3.45,39.26.48,4.18-.65,5.79-4.58,6.44-15.11,2.53-16.79,1.09-17.14-14.2-.24-10.48-.7-20.97-1.33-31.43-.4-6.56-1.34-7.07-7.28-4.61-8.93,3.69-17.62,8.02-26.74,11.13-6.37,2.17-13.24,3.55-19.95,3.88-12.04.59-19.84-5.99-21.28-16.6-1.11-8.21,6.45-17.97,16.03-21.02,7.58-2.41,14.76-1.24,21.92,1.69,8.13,3.33,16.01,7.69,25.27,6.94.83-.07,1.67-.03,2.5-.1,8.33-.66,8.86-1.25,8.85-9.65,0-.33,0-.67,0-1-.21-13.3,2.01-13.76-13.09-9.49-8,2.26-15.69,5.63-23.74,7.67-10.05,2.55-19.29-1.51-23.73-9.48-4.5-8.05-2.42-19.6,4.97-27.67,5.99-6.54,15.06-8.5,23.82-4.05,6.49,3.29,12.28,7.92,18.51,11.75,3.52,2.17,7.28,3.93,11.99,6.44Z"/>
    </clipPath>
  </defs>
  <g id="Layer_1-2" data-name="Layer 1">
    <g>
      <path class="cls-3" d="m73.41,154.51c0-6.25.33-10.73-.1-15.13-.37-3.86-9.77-9.71-13.66-9.83-7.25-.23-14.54-.66-21.68-1.8-5.21-.83-8.78-6.44-9.17-12.95-.24-3.99-.17-8-.05-11.99.09-2.95-1.19-4.46-3.93-5.53-16.03-6.27-19.58-27-6.33-38.29,4.2-3.58,5.19-6.22,2.95-11.66-3.19-7.74-3.21-15.95,2.71-23.1,6.25-7.54,14.16-9.72,23.31-7.08,5.43,1.56,8.61.41,11.97-4.58,10.42-15.46,28.16-16.65,42.7-3.49,1.23,1.12,2.51,2.23,3.55,3.52,2.25,2.78,4.86,3.54,8.38,2.61,9.44-2.49,17.2.86,23.12,8.06,6.02,7.32,7.44,16.04,4.36,24.94-1.52,4.38-1.16,7.19,2.19,10.57,10.37,10.48,8.87,26.68-3.35,35.71-3.85,2.85-5.72,5.62-5.92,10.54-.17,4.16-1.76,8.5-3.65,12.3-4.79,9.67-13.55,11.07-23.03,9.55-4.01-.65-6.33.41-8.02,3.94-.62,1.3-1.75,2.44-2.87,3.4-5.74,4.91-6.84,9.82-3.4,18.51,2.99-2.27,5.88-4.28,8.57-6.52,6-5.01,11.53-10.66,17.93-15.08,7.91-5.45,16.8-8.06,26.52-4.67,13.18,4.6,17.77,18.19,9.4,29.38-8.32,11.14-20.4,14.46-33.64,13.84-7.95-.37-15.86-1.67-23.79-2.53-3.77-.41-5.43.87-4.94,5.08.46,3.91-.02,7.94-.05,11.91-.03,3.96,2.21,4.88,5.81,4.93,10.6.13,20.44-2.48,29.7-7.48,4.1-2.21,8.07-4.72,12.3-6.63,3.46-1.57,7.14-2.95,10.86-3.57,15.96-2.64,26.84,10.63,21.42,25.9-4.69,13.22-17.4,21.04-31.66,18.44-8.12-1.48-15.96-4.53-23.91-6.92-5.74-1.72-11.38-3.79-17.19-5.19-4.81-1.16-6.22.04-5.86,5.02.93,13.1,1.96,26.21,3.45,39.26.48,4.18-.65,5.79-4.58,6.44-15.11,2.53-16.79,1.09-17.14-14.2-.24-10.48-.7-20.97-1.33-31.43-.4-6.56-1.34-7.07-7.28-4.61-8.93,3.69-17.62,8.02-26.74,11.13-6.37,2.17-13.24,3.55-19.95,3.88-12.04.59-19.84-5.99-21.28-16.6-1.11-8.21,6.45-17.97,16.03-21.02,7.58-2.41,14.76-1.24,21.92,1.69,8.13,3.33,16.01,7.69,25.27,6.94.83-.07,1.67-.03,2.5-.1,8.33-.66,8.86-1.25,8.85-9.65,0-.33,0-.67,0-1-.21-13.3,2.01-13.76-13.09-9.49-8,2.26-15.69,5.63-23.74,7.67-10.05,2.55-19.29-1.51-23.73-9.48-4.5-8.05-2.42-19.6,4.97-27.67,5.99-6.54,15.06-8.5,23.82-4.05,6.49,3.29,12.28,7.92,18.51,11.75,3.52,2.17,7.28,3.93,11.99,6.44Z"/>
      <g class="cls-4">
        <path class="cls-1" d="m51.19,130.32s8.89,2.87,20.69,8.03c16.66,7.28,20.52-2.13,23.88-.12s26.5-10.06,26.5-10.06l17.62-12.47,35.13-59.34s-18.13-28-18.13-30S116.88,3.85,116.88,3.85l-29.37-8.5S58.88,3.35,55.38,3.85s-25,2.5-27.5,2.5-17,4.5-17,4.5L0,36.85l-.63,24.5,6.5,22,2.5,23s23.5,25,36.5,27,6.31-3.03,6.31-3.03"/>
      </g>
    </g>
  </g>
</svg>