<?xml version="1.0" encoding="UTF-8"?>
<svg id="Layer_2" data-name="Layer 2" xmlns="http://www.w3.org/2000/svg" viewBox="0 0 390.24 393.61">
  <defs>
    <style>
      .cls-1 {
        fill: #869e57;
        stroke-width: 0px;
      }
    </style>
  </defs>
  <g id="Layer_1-2" data-name="Layer 1">
    <path class="cls-1" d="m243.08,145.14c0,7.87-.05,15.2.03,22.53.03,2.15.19,4.36.74,6.42,1.41,5.27,7.08,7.77,11.36,4.43,2.66-2.08,5.14-5.56,5.79-8.8,2.27-11.19,3.96-22.52,5.4-33.86,3.26-25.64-.88-50.08-12.5-73.24-2.75-5.49-5.71-11.02-7.4-16.88-3.86-13.38,3.48-21.79,17.25-19.91,4.87.67,9.92,2.09,14.23,4.4,8.77,4.71,17.42,9.8,25.53,15.57,16.5,11.76,22.85,28.91,23.78,48.42,1.07,22.27-6.74,42.18-17.02,61.33-4.65,8.66-10.3,16.86-14.07,25.87-3.21,7.68-4.84,16.13-6.25,24.4-.82,4.8,2.09,7.39,6.96,6.51,3.73-.68,8.09-2.17,10.53-4.81,6.63-7.16,13.19-14.62,18.31-22.88,11.09-17.87,17.6-37.61,21.23-58.32.63-3.58,1.54-7.2,2.93-10.54,2.34-5.65,5.94-6.34,10.41-2.13,7.89,7.43,13.58,16.44,17.78,26.33,12.16,28.6,17.12,57.85,5.82,87.9-10.45,27.8-30.6,44.78-59.82,50.12-10.33,1.89-20.89.96-31.07-2.52-3.41-1.17-7.08-1.98-10.67-2.16-5.68-.28-9.52,3.19-10.09,8.87-.36,3.62-.13,7.31-.03,10.97,1.17,44.58-27.64,84.18-70.48,96.82-37.64,11.11-85.5-4.06-109.66-34.78-.93-1.18-1.83-2.39-2.59-3.67-4.12-6.94-1.89-12.2,6.11-13.12,10.56-1.23,21.3-1.14,31.78-2.77,26.67-4.14,50.69-14.79,71.95-31.47,2.45-1.92,4.75-4.27,6.48-6.84,3.73-5.55,1.95-11.19-4.15-13.97-5.91-2.7-12.03-2.02-18.13-.77-16.71,3.44-31.56,11.4-46.5,19.12-14.83,7.67-29.85,14.68-46.6,17.32-28.27,4.46-50.04-7.74-60.46-34.27-1.7-4.33-3.59-8.61-4.97-13.05-1.69-5.46,1.53-9.22,7.22-8.59,2.62.29,5.33.8,7.75,1.81,31.12,12.97,62.8,13.2,94.91,4.44,6.4-1.75,12.95-3.13,19.14-5.45,4.21-1.58,9-3.65,8.96-9.48-.03-3.61-4.52-7.3-11.15-7.33-6.32-.03-12.99,1-18.91,3.17-19.69,7.21-39.88,11.07-60.7,8.68-13.13-1.5-26.26-4.26-38.98-7.9-16.16-4.62-25.74-16.05-28.23-32.87-1.09-7.4-2.02-14.85-2.38-22.31-.76-15.95,10.63-23.88,25.61-17.89,8.64,3.46,16.79,8.39,25.65,10.98,18.48,5.41,37.27,9.79,55.98,14.37,3,.73,6.31.55,9.45.3,9.71-.77,14.73-8.61,11.47-17.77-2.73-7.67-8.72-11.92-16.29-13.18-9.15-1.53-18.47-2.16-27.74-2.9-16.91-1.34-33.96-1.53-50.71-3.95-19.51-2.82-30.41-15.16-31.84-34.83C2.37,105.26,1.38,79.46.05,53.69c-.11-2.16-.05-4.35.19-6.49.86-7.61,4.36-11.8,11.89-13.52,24.97-5.69,49.89-11.73,75.03-16.58,10.51-2.03,21.53-1.54,32.33-1.96,9.86-.38,16.38,5.05,20.56,13.31,3.3,6.52,6.11,13.32,8.67,20.17,9.7,26.01,15.78,52.91,19.52,80.39.62,4.53,2.05,9.17,4.15,13.22,2.96,5.72,7.81,9.86,14.76,9.31,7.24-.57,12.42-5.16,13.99-11.8,1.4-5.93,1.86-12.74.41-18.59-8.01-32.21-22.71-61.38-41.74-88.48-3.12-4.44-6.13-9.26-7.78-14.37C148.72,8.08,154.57-.23,165.24,0c11.09.24,22.44.64,33.15,3.21,21.63,5.19,32.53,21.32,36.32,42,2.78,15.17,3.72,30.7,4.96,46.11,1.45,18.09,2.32,36.23,3.41,53.82Z"/>
  </g>
</svg>