<?xml version="1.0" encoding="UTF-8"?>
<svg id="Layer_2" data-name="Layer 2" xmlns="http://www.w3.org/2000/svg" viewBox="0 0 93.96 69.82">
  <defs>
    <style>
      .cls-1 {
        fill: #7f713e;
      }

      .cls-1, .cls-2 {
        stroke-width: 0px;
      }

      .cls-2 {
        fill: #4c4325;
      }
    </style>
  </defs>
  <g id="leaf3">
    <g>
      <path class="cls-1" d="m51.56,69.78s-8.4-2.93-11.47-14.93c-3.06-12-15.32-8.17-18.89-13.02s-7.15-16.09-8.94-23.49S.26,5.06,0,1.23s4.6,2.04,12,6.89,24.26,2.81,34.72,17.36,13.28,20.94,22.47,27.83c9.19,6.89,26.9,16.53,24.55,16.5-5.53-.07-42.19-.04-42.19-.04Z"/>
      <path class="cls-2" d="m4.03,4.93c8.63,5.88,17.16,12.07,24.48,19.58,6.8,7.94,14.09,15.4,21.94,22.31,4.52,4.01,11.35,9.41,16.01,13.39,1.92,2.37,3.8,4.77,5.67,7.18,0,0,.03.04.03.04v.04s-.07,2.28-.07,2.28h-.1l-.07-2.28.03.08c-1.93-2.18-4.2-4.78-5.92-6.81-4.72-3.81-11.85-9.13-16.27-13.16-7.77-7.01-14.97-14.64-21.69-22.66-7.09-7.61-15.89-13.89-24.05-19.99h0Z"/>
    </g>
  </g>
</svg>