<?xml version="1.0" encoding="UTF-8"?>
<svg id="Layer_2" data-name="Layer 2" xmlns="http://www.w3.org/2000/svg" viewBox="0 0 106.02 107.8">
  <defs>
    <style>
      .cls-1 {
        fill: #7f713e;
        stroke-width: 0px;
      }
    </style>
  </defs>
  <g id="leaf1">
    <path class="cls-1" d="m39.42,66.76c.14-2.15.28-4.15.39-6.16.03-.59.03-1.19-.09-1.77-.29-1.46-1.8-2.25-3.03-1.41-.76.52-1.5,1.43-1.74,2.3-.82,3.02-1.48,6.08-2.07,9.16-1.34,6.95-.64,13.7,2.12,20.23.66,1.55,1.37,3.11,1.72,4.74.82,3.72-1.34,5.89-5.06,5.13-1.32-.27-2.67-.75-3.81-1.45-2.31-1.44-4.59-2.98-6.7-4.7-4.3-3.5-5.73-8.3-5.64-13.65.1-6.1,2.58-11.4,5.73-16.46,1.42-2.28,3.11-4.43,4.3-6.82,1.01-2.04,1.61-4.32,2.14-6.56.31-1.3-.44-2.06-1.79-1.9-1.03.12-2.25.45-2.96,1.13-1.94,1.84-3.86,3.76-5.41,5.93-3.34,4.69-5.47,9.97-6.83,15.56-.23.97-.55,1.94-.99,2.83-.74,1.5-1.73,1.63-2.88.4-2.02-2.17-3.42-4.73-4.39-7.51-2.82-8.03-3.66-16.11-.04-24.12,3.35-7.41,9.15-11.69,17.23-12.64,2.85-.33,5.73.11,8.45,1.24.91.38,1.9.67,2.88.78,1.55.18,2.66-.7,2.91-2.25.16-.98.16-2,.2-3,.47-12.2,9.04-22.51,20.96-25.21,10.48-2.37,23.29,2.62,29.35,11.43.23.34.46.68.64,1.05,1,1.97.3,3.37-1.9,3.48-2.91.15-5.84-.06-8.73.2-7.36.66-14.11,3.15-20.21,7.33-.7.48-1.37,1.08-1.89,1.76-1.12,1.45-.73,3.02.89,3.89,1.57.84,3.25.76,4.94.53,4.63-.64,8.82-2.56,13.04-4.4,4.19-1.83,8.42-3.48,13.04-3.91,7.8-.72,13.53,3,15.91,10.43.39,1.21.83,2.42,1.13,3.65.37,1.52-.58,2.49-2.12,2.22-.71-.13-1.44-.31-2.09-.63-8.27-4.09-16.92-4.71-25.85-2.89-1.78.36-3.59.63-5.33,1.15-1.18.36-2.52.84-2.61,2.43-.06.99,1.1,2.07,2.92,2.2,1.73.12,3.57-.04,5.22-.53,5.51-1.62,11.09-2.32,16.74-1.3,3.56.64,7.1,1.63,10.51,2.84,4.33,1.55,6.75,4.84,7.13,9.48.17,2.04.29,4.09.26,6.14-.07,4.37-3.33,6.34-7.31,4.44-2.3-1.1-4.44-2.59-6.81-3.45-4.95-1.8-10.01-3.33-15.04-4.91-.81-.25-1.72-.26-2.58-.25-2.67.04-4.18,2.09-3.45,4.65.61,2.14,2.17,3.41,4.22,3.89,2.47.58,5.01.92,7.53,1.28,4.6.67,9.25,1.02,13.78,1.97,5.28,1.11,8.04,4.68,8.08,10.08.05,7.06-.13,14.13-.22,21.2,0,.59-.06,1.19-.17,1.77-.37,2.06-1.4,3.15-3.49,3.48-6.92,1.11-13.84,2.32-20.79,3.21-2.91.37-5.91.04-8.87-.04-2.7-.07-4.39-1.67-5.38-4-.79-1.84-1.43-3.75-2.01-5.66-2.19-7.28-3.38-14.73-3.92-22.31-.09-1.25-.4-2.54-.9-3.69-.71-1.61-1.96-2.83-3.87-2.8-1.99.03-3.48,1.19-4.03,2.98-.49,1.6-.73,3.45-.44,5.07,1.62,8.94,5.12,17.17,9.84,24.91.77,1.27,1.51,2.64,1.87,4.06.73,2.86-1.02,5.02-3.93,4.77-3.02-.26-6.12-.57-9-1.46-5.82-1.8-8.51-6.4-9.18-12.11-.49-4.19-.48-8.45-.54-12.69-.08-4.97,0-9.94.02-14.76Z"/>
  </g>
</svg>