<?xml version="1.0" encoding="UTF-8"?>
<svg id="Layer_2" data-name="Layer 2" xmlns="http://www.w3.org/2000/svg" viewBox="0 0 62.85 138.26">
  <defs>
    <style>
      .cls-1 {
        fill: #fafbee;
      }

      .cls-1, .cls-2 {
        stroke-width: 0px;
      }

      .cls-2 {
        fill: #e97233;
      }

      .cls-3 {
        fill: none;
        stroke: #5e6363;
        stroke-miterlimit: 10;
      }
    </style>
  </defs>
  <g id="f7">
    <g>
      <path class="cls-3" d="m45.44,21.19s18.03,16.97-3.41,52.75S7.82,138.05,7.82,138.05"/>
      <g>
        <path class="cls-1" d="m21.7,24.78c.3-.15-16.51,21.64-5.62,23.03s16.85,2.06,19.49-6.58,1.28-14.82-2.72-16.46c0,0,.09,3.05,10.89,5.02s14.04.58,16.68-3.62,5.62-9.87-5.79-10.04-15.74,1.15-16.43,1.73-4.77,3.95-4.77,3.95c0,0,17.87-10.37,18.13-16.45s-12.26-7.9-17.79-.66-7.49,12.67-7.49,12.67c0,0,8.85-6.91-2.55-12.34s-14.89,1.65-7.83,7.57c7.06,5.92,6.21,6.25,6.21,6.25C22.13,18.86-.08,9.56,0,21s12.43,8.56,21.7,3.78Z"/>
        <path class="cls-2" d="m27.62,15.49s3.32,1.09,4.83,4.32c1.51,3.23,2.76,4.91-.71,6.31-3.47,1.4-4.67.84-6.23-.94s-4.33-4.34-2.11-7.22,4.22-2.46,4.22-2.46Z"/>
      </g>
    </g>
  </g>
</svg>