<?xml version="1.0" encoding="UTF-8"?>
<svg id="Layer_2" data-name="Layer 2" xmlns="http://www.w3.org/2000/svg" viewBox="0 0 27.17 101.28">
  <defs>
    <style>
      .cls-1 {
        fill: #7f713e;
      }

      .cls-1, .cls-2 {
        stroke-width: 0px;
      }

      .cls-2 {
        fill: #4c4325;
      }
    </style>
  </defs>
  <g id="leaf4">
    <g>
      <path class="cls-1" d="m27.17,101.21s-8.85-33.09-9.87-41.69c-1.02-8.6.68-32.08-4.43-39.03S7.42,3.62,4.7.97s-6.81,0-3.4,9.26c3.4,9.26,4.43,28.11,3.4,38.37s1.7,15.88,1.7,23.15-1.7,16.54.34,20.51c2.04,3.97,2.96,9.02,2.96,9.02l17.47-.07Z"/>
      <path class="cls-2" d="m13.58,100.74c-.86-7.89-1.83-15.78-1.96-23.73.04-11.9.47-23.81-.6-35.67-.28-3.99-1.53-7.74-2.59-11.56-1.98-7.7-3.39-15.52-4.63-23.36,1.43,7.8,2.96,15.6,4.96,23.27,1.09,3.82,2.37,7.62,2.68,11.6,1.21,11.87.63,23.82.52,35.71.08,7.92.96,15.84,1.62,23.73h0Z"/>
    </g>
  </g>
</svg>