<?xml version="1.0" encoding="UTF-8"?>
<svg id="Layer_2" data-name="Layer 2" xmlns="http://www.w3.org/2000/svg" viewBox="0 0 76.85 369.02">
  <defs>
    <style>
      .cls-1 {
        fill: #7f713e;
        stroke-width: 0px;
      }
    </style>
  </defs>
  <g id="leaf9">
    <path class="cls-1" d="m42.95,126.88c2.85-7.25,5.27-13.86,8-20.23,4.03-9.39,9.41-17.06,16.28-22.27,5.83-4.42,10.27-.57,9.53,9.83-.73,10.26-3.4,20.25-7.33,29.21-3.74,8.53-8.53,16.34-14.13,22.96-3.7,4.38-6.91,9.68-11.67,11.99-3.43,1.67-4.23,5.62-4.36,10.12-.28,9.49-.73,19-1.09,28.5-.01.31.1.61.63,1.79.11-.45.15-.97.34-1.35,3.29-6.6,6.17-13.71,9.99-19.65,5.78-8.98,11.86-17.95,20.71-20.52,3.34-.97,5.51,1.3,4.78,5.88-.81,5.06-1.89,10.3-3.69,14.91-2.6,6.7-5.69,13.19-9.05,19.28-3.78,6.85-7.93,13.39-12.24,19.63-3.04,4.41-7.07,4.57-11.41,4.77-.21,12.1-.42,24.44-.65,37.52.58-1.42.97-2.42,1.38-3.4,3.91-9.46,8.97-17.17,16.23-21.58,3.19-1.93,5.47-.11,4.66,4.59-1.04,6.06-2.63,12.12-4.57,17.86-2.62,7.74-6.32,14.71-11.16,20.21-2.18,2.48-4.83,4.08-7.19,6.25-.61.56-1.25,1.73-1.38,2.68-.6,4.5-.77,9.08-1.58,13.53-1.44,7.96-3.26,15.85-4.86,23.78-3.11,15.5-8.06,30.02-14.23,43.96-1.15,2.61-2.44,1.86-3.64,1.56-.32-.08-.57-2.59-.21-3.63,1.57-4.51,3.52-8.82,5.07-13.34,2.32-6.75,4.53-13.57,6.57-20.46,1.25-4.2,2.16-8.56,3.1-12.88,1.85-8.47,4.21-16.84,4.63-25.63.09-1.84.69-3.71,1.02-5.58.32-1.79.07-2.79-1.4-3.14-5.85-1.42-9.97-6.17-12.96-12.95-2-4.53-4.03-9.04-6.02-13.58-1.23-2.81-.59-7.48,1.32-9.84,2.16-2.67,5.39-2.73,7.78-.13,5.09,5.54,9.68,11.67,12.04,20.5.09.35.34.59.81,1.39.13-2.22.28-3.82.32-5.41.28-12.77.51-25.54.83-38.32.04-1.78-.22-2.56-1.49-3.23-4.23-2.22-8.55-4.36-12.42-7.44-5.73-4.56-10.5-10.78-14.37-18.32-1.7-3.31-2.58-6.65-.91-10.91.04-.1.06-.21.08-.32,1.67-7.09,3.3-7.89,8.19-6.11,7.47,2.72,11.99,10.54,17.18,17.24,1.07,1.38,2.03,2.93,3.57,5.16.15-3.98.22-7.03.38-10.08.4-8.12.82-16.25,1.27-24.37.05-.86.5-1.74.53-2.6.24-7.26.18-7.12-4.36-9.63-1.87-1.03-3.61-2.56-5.22-4.21-5.17-5.29-10.43-10.44-15.31-16.2-5.07-5.98-8.35-13.98-10.69-22.83-1.66-6.3.35-15.53,4.18-19.74,3.17-3.48,6.18-2.15,8.82-.44,6.06,3.92,10.23,10.83,14.08,18.26,4.75,9.19,7.09,20,9.31,31.35.75-4.91,1.46-9.42,2.11-13.94,1.52-10.53,2.99-21.06,4.53-31.58.35-2.39.95-4.73,1.35-7.12.13-.81.2-1.95-.09-2.48-3.5-6.28-3.4-13.88-2.45-21.73.98-8.04,1.86-16.12,3.33-24.06,2.24-12.11,5.97-23.58,11.92-33.55,1.48-2.48,3.62-4.43,5.66-5.99,2.57-1.96,5.52-.32,7.47,3.21,1.94,3.52,2.36,7.91,2.11,12.23-.6,10.21-2.59,20.2-5.95,29.79-2.3,6.54-4.36,13.23-6.94,19.57-2.63,6.47-5.28,13.17-8.81,18.67-2.69,4.19-3.59,8.43-4.31,13.18-1.36,8.99-2.7,17.99-4.03,26.99-.08.52.03,1.08.08,2.41Z"/>
  </g>
</svg>