<?xml version="1.0" encoding="UTF-8"?>
<svg id="Layer_2" data-name="Layer 2" xmlns="http://www.w3.org/2000/svg" viewBox="0 0 51.32 58.7">
  <defs>
    <style>
      .cls-1 {
        fill: #7f713e;
      }

      .cls-1, .cls-2 {
        stroke-width: 0px;
      }

      .cls-2 {
        fill: #6d6038;
      }
    </style>
  </defs>
  <g id="leaf5">
    <g>
      <path class="cls-1" d="m51.32,58.47s-14.04-23.49-31.66-39.83C2.04,2.3,0,0,0,0c0,0,1.79,13.53,15.06,31.15s18.38,26.81,20.43,27.32,15.83,0,15.83,0Z"/>
      <path class="cls-2" d="m3.37,6.04c8.35,8.74,16.48,17.76,23.46,27.65,4.1,5.99,6.46,13,10.57,18.99,1.55,1.91,3.29,4.01,4.87,6-1.77-1.89-3.49-3.81-5.24-5.72-2.8-3.98-5.2-8.21-7.35-12.57-1.04-2.2-2.26-4.2-3.66-6.16C19.53,25.02,10.63,14.8,3.37,6.04h0Z"/>
    </g>
  </g>
</svg>