<?xml version="1.0" encoding="UTF-8"?>
<svg id="Layer_2" data-name="Layer 2" xmlns="http://www.w3.org/2000/svg" viewBox="0 0 107.31 110.59">
  <defs>
    <style>
      .cls-1 {
        fill: #7f713e;
        stroke-width: 0px;
      }
    </style>
  </defs>
  <g id="leaf">
    <path class="cls-1" d="m37.53,41.62c2.14-.23,4.14-.43,6.13-.67.58-.07,1.18-.18,1.73-.39,1.39-.54,1.91-2.16.87-3.22-.64-.66-1.66-1.24-2.57-1.32-3.11-.29-6.25-.42-9.37-.48-7.07-.14-13.61,1.7-19.57,5.54-1.41.91-2.83,1.88-4.38,2.51-3.53,1.44-6.03-.31-5.92-4.11.04-1.35.28-2.76.78-4,1.03-2.53,2.16-5.03,3.49-7.4,2.72-4.83,7.2-7.06,12.49-7.89,6.03-.94,11.68.6,17.19,2.84,2.49,1.01,4.89,2.31,7.45,3.07,2.18.65,4.53.85,6.82.99,1.33.08,1.95-.79,1.57-2.08-.29-1-.83-2.14-1.62-2.73-2.14-1.59-4.37-3.16-6.76-4.32-5.19-2.5-10.75-3.69-16.5-4.07-.99-.07-2-.21-2.96-.49-1.61-.47-1.9-1.43-.88-2.77,1.79-2.36,4.08-4.18,6.65-5.61C39.61.87,47.43-1.33,55.94.87c7.87,2.03,13.08,7.02,15.39,14.82.82,2.76.87,5.66.22,8.53-.22.96-.33,1.99-.28,2.97.09,1.56,1.15,2.5,2.71,2.49,1,0,1.99-.18,2.99-.31,12.1-1.62,23.72,5.06,28.42,16.35,4.13,9.92,1.4,23.39-6.26,30.87-.29.29-.6.57-.92.81-1.77,1.32-3.26.87-3.75-1.28-.64-2.84-.93-5.76-1.68-8.57-1.91-7.14-5.51-13.37-10.67-18.67-.6-.61-1.3-1.17-2.05-1.56-1.62-.85-3.1-.2-3.68,1.54-.56,1.69-.2,3.33.32,4.96,1.42,4.45,4.03,8.26,6.57,12.1,2.52,3.81,4.87,7.7,6.08,12.18,2.04,7.57-.64,13.85-7.56,17.46-1.13.59-2.24,1.23-3.41,1.73-1.44.62-2.56-.15-2.55-1.71,0-.72.06-1.47.27-2.16,2.62-8.85,1.76-17.48-1.57-25.97-.66-1.69-1.23-3.43-2.04-5.05-.55-1.1-1.26-2.34-2.84-2.16-.98.11-1.86,1.44-1.67,3.25.18,1.72.65,3.51,1.42,5.06,2.54,5.15,4.18,10.53,4.14,16.27-.03,3.62-.39,7.27-1.01,10.84-.79,4.54-3.62,7.48-8.12,8.65-1.98.51-3.98.99-6,1.3-4.32.67-6.81-2.2-5.62-6.45.69-2.45,1.79-4.82,2.24-7.3.93-5.19,1.58-10.43,2.27-15.66.11-.84-.04-1.74-.19-2.58-.49-2.62-2.77-3.76-5.17-2.6-2.01.97-2.99,2.72-3.11,4.82-.15,2.54-.05,5.09.02,7.63.13,4.64.58,9.29.41,13.92-.2,5.39-3.24,8.72-8.55,9.68-6.95,1.26-13.95,2.28-20.92,3.4-.58.09-1.18.14-1.77.14-2.1-.01-3.34-.84-4.03-2.84-2.28-6.63-4.65-13.24-6.71-19.94-.86-2.8-1.05-5.82-1.48-8.74-.39-2.67.89-4.61,3.02-5.99,1.68-1.09,3.45-2.05,5.24-2.95,6.8-3.4,13.94-5.84,21.31-7.66,1.21-.3,2.44-.83,3.48-1.52,1.47-.97,2.46-2.41,2.1-4.29-.37-1.95-1.77-3.23-3.62-3.46-1.66-.21-3.52-.13-5.07.43-8.53,3.12-16.04,7.98-22.87,13.95-1.12.98-2.34,1.94-3.68,2.54-2.69,1.2-5.12-.15-5.37-3.06-.26-3.03-.48-6.13-.1-9.12.78-6.04,4.85-9.48,10.37-11.12,4.05-1.2,8.25-1.91,12.41-2.7,4.88-.92,9.79-1.69,14.55-2.5Z"/>
  </g>
</svg>