<?xml version="1.0" encoding="UTF-8"?>
<svg id="Layer_2" data-name="Layer 2" xmlns="http://www.w3.org/2000/svg" viewBox="0 0 343.77 245.67">
  <defs>
    <style>
      .cls-1 {
        fill: #0e0e0e;
      }

      .cls-1, .cls-2, .cls-3 {
        stroke-width: 0px;
      }

      .cls-2 {
        fill: #e28226;
      }

      .cls-3 {
        fill: #fcbe43;
      }
    </style>
  </defs>
  <g id="Layer_70" data-name="Layer 70">
    <g id="bag">
      <g id="Layer_76" data-name="Layer 76">
        <g>
          <g>
            <path class="cls-3" d="m337.38,168.72h0c-1.12-.23-2.28.2-2.98,1.12-.85,1.13-2.04,2.46-2.78,2.32-.83-.17-3.72-1.96-5.64-3.18-1.07-.68-1.58-1.97-1.29-3.2l.3-1.28c.29-1.23-.22-2.51-1.28-3.2l-3.74-2.42c-1.56-1.01-3.65-.36-4.37,1.36-6.7,16-36.08,63.74-36.08,63.74,0,0-9.19,13.53-14.3,15.06-4.79,1.44-33.69,6.03-37.18,6.59-.23.04-.47.05-.7.03L2.74,227.33c-1.81-.15-3.07-1.87-2.66-3.64L47.33,16.82c.33-1.46,1.7-2.45,3.2-2.3l209.25,20.52c.48.05.98-.01,1.42-.21,2.43-1.11,6.23-.3,10.09.73,4.17,1.11,10.12,4.68,11.14,5.87,1.03,1.19,21.88,17.53,33.28,23.83,11.41,6.3,18.21,7.07,18.21,7.07l6.04.69c1.61.18,2.78,1.62,2.63,3.24-1.19,12.76-5.89,63.49-6.11,70.63-.16,5.11,2.37,12.82,4.3,17.87.84,2.2-1.09,4.45-3.39,3.97Z"/>
            <path class="cls-2" d="m341.94,74.41s1.99,9.25-1.42,32.06c-3.4,22.81-1.36,52.6,1.02,56.34s2.21,9.19,2.21,9.19l-9.22-2.61-2.3,3.38c-.37.54-1.09.7-1.66.37l-7.22-3.73c-.49-.28-.73-.86-.59-1.4l1.66-3.74-8.24-5.88s22.63-75.91,23.83-79.83,1.93-4.15,1.93-4.15Z"/>
          </g>
          <polygon class="cls-2" points="246.67 76.95 258.57 34.92 232.85 31.75 224.95 43.08 246.67 76.95"/>
          <path class="cls-2" d="m137.92,54.14l-13.03,33.4c-.85,2.18-2.68,3.83-4.94,4.45l-7.83,2.14c-3.19.87-6.58-.48-8.28-3.32l-1.91-3.17c-1.18-1.95-1.39-4.33-.57-6.46l13.45-35.16c1.38-3.62,5.32-5.56,9.03-4.44l9.33,2.8c4.14,1.24,6.34,5.75,4.77,9.77Z"/>
          <polyline class="cls-3" points="268.26 37.79 214.93 244.64 264.4 237.66"/>
          <polygon class="cls-2" points="261.75 104.91 305.35 119.07 275.37 175.02 237.18 160.18 261.75 104.91"/>
          <polygon class="cls-2" points="264.74 96.76 308.55 114.44 311.78 141.22 246.67 114.94 264.74 96.76"/>
          <path class="cls-1" d="m232.1,32.82l.92-13.85s4.98-1.55,9.23,1.72,16.42,14.24,16.42,14.24l-26.56-2.11Z"/>
          <path class="cls-3" d="m47.91,14.26s21.71-20.68,13.54-7.31-1.03,28.16-1.03,28.16l186.25,41.85s-11.33-28.14-13.21-45.21c-1.2-10.88-2.94-12.88,10.37-7.19,3.14,1.34,10.98,8.54,15.02,10.37l-18.74-15.48c-.24-.18-1.91-1.24-2.21-1.28L69.87,0"/>
        </g>
      </g>
    </g>
  </g>
</svg>