<?xml version="1.0" encoding="UTF-8"?>
<svg id="Layer_2" data-name="Layer 2" xmlns="http://www.w3.org/2000/svg" viewBox="0 0 169.64 230.13">
  <defs>
    <style>
      .cls-1 {
        fill: #56483e;
      }

      .cls-1, .cls-2, .cls-3, .cls-4, .cls-5 {
        stroke-width: 0px;
      }

      .cls-2 {
        fill: #6c5a4d;
      }

      .cls-3 {
        fill: #41362d;
      }

      .cls-4 {
        fill: #43382f;
      }

      .cls-5 {
        fill: #43372e;
      }
    </style>
  </defs>
  <g id="camera">
    <g>
      <path class="cls-3" d="m132.7,155.73l16-54.81s5.28,1.36,6.47-3.91,8.34-45.79,10.72-52.43,3.74-9.53,3.74-9.53l-9.87-4.77s-7.83,19.23-9.7,38.13-9.43,30.47-9.23,32,3.1,1.7,3.1,1.7c0,0-13.96,33.87-15.32,38.13-1.36,4.26-4.86,13.62-4.86,13.62,0,0,3.15,7.66,8.94,1.87Z"/>
      <path class="cls-3" d="m107.98,115.62s9.71-56.78,10.99-67.67,2.02-45.41,2.02-45.41l-.84-2.54s-7.05,20.63-6.54,28.75c.51,8.12-5.87,36.23-6.13,42.37-.26,6.14-4.68,43.17-4.68,43.17l5.19,1.33Z"/>
      <path class="cls-5" d="m135.53,139.92v55.28c0,3.16-2.11,5.92-5.16,6.75l-16.68,4.55c-1.24.34-2.56.33-3.79-.03l-50.43-14.66c-2.99-.87-5.04-3.61-5.04-6.72v-58.17c0-3.16,2.11-5.92,5.16-6.75l16.5-4.49c1.36-.37,2.79-.32,4.12.14l50.61,17.5c2.82.97,4.71,3.63,4.71,6.61Z"/>
      <path class="cls-4" d="m111.18,141.64s-8.69-6.01-11.37,4.51c-2.68,10.51-4.18,11.48-.64,14.16s4.4,4.51,3.65,10.41-1.07,25.74-1.07,25.74l-.43,10.19s7.4,8.26,19.31,5.15c11.91-3.11,20.81-14.48,20.81-14.48,0,0,.75-8.15.86-16.09s-.97-17.48,1.5-22.42c2.47-4.93,1.07-16.84-4.4-20.17,0,0,.13-4-2.41-4.88s-8.77-2.55-11.05-1.39-5.85,2.52-5.06,6.1c.79,3.58.43,7.65-3,6.22s-6.69-3.04-6.69-3.04Z"/>
      <polyline class="cls-5" points="74.61 127.25 83.26 118.41 95.83 112.47 114.74 117.4 121.18 125.55 122.28 130.57 105.99 137.41 74.61 127.76"/>
      <polygon class="cls-2" points="112.81 117.71 101.75 122.9 101.75 124.94 113.41 119.84 112.81 117.71"/>
      <polygon class="cls-2" points="100.81 114.09 89.75 119.28 89.75 121.32 101.41 116.22 100.81 114.09"/>
      <path class="cls-2" d="m81.3,121.54l20.31,8.3c.36.15.55.53.47.9l-2.3,9.99c-.11.48-.64.74-1.09.54l-24.22-11.08c-.48-.22-.61-.83-.27-1.23l6.21-7.2c.22-.26.58-.34.89-.21Z"/>
      <ellipse class="cls-2" cx="128.24" cy="137.41" rx="9.8" ry="4.56"/>
      <ellipse class="cls-4" cx="128.24" cy="136.06" rx="9.8" ry="4.56"/>
      <path class="cls-2" d="m57.79,203.59h0s-.08.03-.11.06l.11-.06Z"/>
      <path class="cls-5" d="m91.21,198.25l-6.95,3.54-33.97,17.66h0c-1.23.8-2.56,1.45-3.99,1.9-12.02,3.78-26.3-7.57-31.9-25.35-5.06-16.08-1.29-31.9,8.35-37.59l1.79-.91,35.47-18.6,1.66-.84s.07-.04.11-.05h0c.78-.37,1.59-.68,2.43-.94,14.23-4.48,30.32,6.36,35.94,24.2,4.66,14.79.66,29.74-8.94,36.98Z"/>
      <g>
        <ellipse class="cls-2" cx="26.53" cy="193.63" rx="24.17" ry="37.49" transform="translate(-56.91 16.9) rotate(-17.47)"/>
        <ellipse class="cls-1" cx="24.02" cy="195.5" rx="22.82" ry="33.76" transform="translate(-57.59 16.23) rotate(-17.47)"/>
        <ellipse class="cls-5" cx="24.53" cy="194.49" rx="19.86" ry="29.16" transform="translate(-57.26 16.34) rotate(-17.47)"/>
        <ellipse class="cls-2" cx="33.11" cy="190.58" rx="10.35" ry="21.25" transform="translate(-55.69 18.74) rotate(-17.47)"/>
      </g>
      <path class="cls-2" d="m70.78,209.21c-1.69,1.39-3.58,2.52-5.67,3.31-.48.18-2.71,1.44-3.19,1.58l-6.21,3.18h0c1.58-.98,3-2.16,4.27-3.53,3.21-3.42,5.45-7.96,6.57-13.09,1.51-6.95.96-15.01-2.03-22.89-4.07-10.76-11.75-18.72-20.18-22.09-3.65-1.46-7.44-2.08-11.14-1.68-1.73.18-3.44.59-5.11,1.23-.29.11-.57.23-.84.35l10.23-5.1,3.45-1.72c13.45-5.16,29.76,4.95,36.43,22.55,5.64,14.87,2.6,30.35-6.58,37.91Z"/>
    </g>
  </g>
</svg>