<?xml version="1.0" encoding="UTF-8"?>
<svg id="Layer_2" data-name="Layer 2" xmlns="http://www.w3.org/2000/svg" viewBox="0 0 66.3 122.85">
  <defs>
    <style>
      .cls-1 {
        fill: #fafbee;
      }

      .cls-1, .cls-2 {
        stroke-width: 0px;
      }

      .cls-2 {
        fill: #ea702f;
      }

      .cls-3 {
        fill: none;
        stroke: #5e6363;
        stroke-miterlimit: 10;
      }
    </style>
  </defs>
  <g id="Layer_2-2" data-name="Layer 2">
    <g>
      <path class="cls-3" d="m45.54,24.65s21.09,2.26,17.34,33.15-24.18,50.37-2.48,64.63"/>
      <g>
        <path class="cls-1" d="m25.86,21.34S20.16,5.25,29.95.74s6.98,12.77,5.87,18.47,12.6-9.02,18.89-8.68,20.51,12.43,3.57,17.79c-16.94,5.36-21.11.6-21.11.6,0,0,6.64.17,6.98,12.09s-11.74,28.09-14.47,9.79c-2.72-18.3-2.81-17.19-2.81-17.19,0,0,.17,14.3-7.74,14.81s-12.94-.94-10.04-6.72,9.53-8.94,14.21-9.28S-7.67,31.21,1.52,21.51c9.19-9.7,19.57-6.81,25.45,2.64s-1.11-2.81-1.11-2.81Z"/>
        <path class="cls-2" d="m27.24,32.7c.06-.32-.96-9.06,3.06-10.21s8.81,1.21,8.81,5.81.45,6.64-2.3,7.34-3.57,1.79-5.55.83-4.02-3.77-4.02-3.77Z"/>
      </g>
    </g>
  </g>
</svg>