<?xml version="1.0" encoding="UTF-8"?>
<svg id="Layer_2" data-name="Layer 2" xmlns="http://www.w3.org/2000/svg" viewBox="0 0 72.9 144.11">
  <defs>
    <style>
      .cls-1 {
        fill: #d95027;
      }

      .cls-1, .cls-2 {
        stroke-width: 0px;
      }

      .cls-2 {
        fill: #fabd42;
      }

      .cls-3 {
        fill: none;
        stroke: #5e6363;
        stroke-miterlimit: 10;
      }
    </style>
  </defs>
  <g id="f9">
    <g>
      <path class="cls-3" d="m43.11,60.02s-12.46,49.1,27.03,83.72"/>
      <path class="cls-2" d="m19.84,9.59c.48-1.17,1.04-2.44,1.52-3.74C22.49,2.8,23.98.17,27.73,0c3.11-.14,6.46,2,7.67,5.6,1.29,3.84,1.99,7.88,2.94,11.83.11.45.14.91.28,1.8,1.45-2.73,2.69-5.06,3.92-7.39,1.85-3.5,4.64-5.95,8.23-7.55,3.86-1.73,7.81.67,7.89,4.85.06,3.1.06,3.08,3.2,3.12,1.33.01,2.7-.05,4,.19,3.02.57,5.71,1.7,6.68,5.03.93,3.19,0,6.03-2.03,8.45-3.05,3.63-6.93,6.14-11.42,7.68-.86.29-1.72.58-2.98,1,.74,1.01,1.4,1.78,1.91,2.63,2.1,3.47,4.26,6.91,6.17,10.48.63,1.17.73,2.72.77,4.1.13,5.17-2.85,7.61-7.88,6.26-2.1-.56-2.74-.06-3.41,1.91-.97,2.84-2.21,5.65-3.8,8.18-2.44,3.88-7.84,4.1-10.59.43-1.53-2.03-2.56-4.49-3.52-6.87-.73-1.8-1-3.79-1.65-6.4-.66,1.59-1,2.67-1.53,3.65-1.53,2.82-2.83,5.83-4.79,8.33-2.21,2.83-6.02,2.68-8.18-.2-1.2-1.61-1.93-3.73-2.36-5.73-.73-3.44-.81-3.46-4.26-3.95-3.02-.43-6.13-1.07-8.88-2.32-3.63-1.65-4.8-5.59-3.72-9.5,1.09-3.95,3.66-6.69,7.08-8.53,3.07-1.66,6.41-2.82,9.64-4.19.56-.24,1.16-.4,1.94-.67-1.92-2.12-3.85-3.96-5.42-6.06-2.1-2.8-3.96-5.78-5.84-8.74-.47-.75-.7-1.69-.89-2.58-1.01-4.54,1.82-7.66,6.47-6.98,2.06.3,4.05,1.06,6.48,1.72Z"/>
      <ellipse class="cls-1" cx="36.45" cy="35.62" rx="11.8" ry="9.51"/>
    </g>
  </g>
</svg>