<?xml version="1.0" encoding="UTF-8"?>
<svg id="Layer_2" data-name="Layer 2" xmlns="http://www.w3.org/2000/svg" viewBox="0 0 62.85 143.01">
  <defs>
    <style>
      .cls-1 {
        fill: #fafbee;
      }

      .cls-1, .cls-2 {
        stroke-width: 0px;
      }

      .cls-2 {
        fill: #e97233;
      }

      .cls-3 {
        fill: none;
        stroke: #5e6363;
        stroke-miterlimit: 10;
      }
    </style>
  </defs>
  <g id="Layer_2-2" data-name="Layer 2">
    <g>
      <path class="cls-3" d="m45.44,21.92s18.03,17.55-3.41,54.57S7.82,142.81,7.82,142.81"/>
      <g>
        <path class="cls-1" d="m21.7,25.64c.3-.16-16.51,22.38-5.62,23.83s16.85,2.13,19.49-6.81,1.28-15.33-2.72-17.03c0,0,.09,3.15,10.89,5.2s14.04.6,16.68-3.74,5.62-10.21-5.79-10.38-15.74,1.19-16.43,1.79-4.77,4.09-4.77,4.09c0,0,17.87-10.72,18.13-17.02s-12.26-8.17-17.79-.68-7.49,13.11-7.49,13.11c0,0,8.85-7.15-2.55-12.77s-14.89,1.7-7.83,7.83,6.21,6.47,6.21,6.47C22.13,19.51-.08,9.89,0,21.72s12.43,8.85,21.7,3.91Z"/>
        <path class="cls-2" d="m27.62,16.03s3.32,1.13,4.83,4.47c1.51,3.34,2.76,5.08-.71,6.52-3.47,1.45-4.67.87-6.23-.97s-4.33-4.49-2.11-7.47,4.22-2.55,4.22-2.55Z"/>
      </g>
    </g>
  </g>
</svg>