<?xml version="1.0" encoding="UTF-8"?>
<svg id="Layer_2" data-name="Layer 2" xmlns="http://www.w3.org/2000/svg" viewBox="0 0 55.64 109.06">
  <defs>
    <style>
      .cls-1 {
        fill: #d95027;
      }

      .cls-1, .cls-2, .cls-3 {
        stroke-width: 0px;
      }

      .cls-2 {
        fill: #ffedd4;
      }

      .cls-3 {
        fill: #fabd42;
      }

      .cls-4 {
        fill: none;
        stroke: #5e6363;
        stroke-miterlimit: 10;
      }
    </style>
  </defs>
  <g id="f8">
    <g>
      <path class="cls-4" d="m18.47,36.34s-16.17,44.03-2.92,72.5"/>
      <path class="cls-1" d="m16.92,21.56S6.93,7.89,10.84,4.2s12.26-8.14,14.65,2.17,2.82,9.55,2.82,9.55c0,0,3.36-13.57,7.81-13.35s14.33,3.69,9.22,12.26c-5.1,8.57-4.34,7.38-4.34,7.38,0,0,9.22-3.8,12.59,1.63,3.36,5.43,3.36,16.6-6.19,15.08s-11.72-3.91-11.72-3.91c0,0,2.39,1.19,3.26,8.79s-2.77,10.53-6.16,10.74-12.72.76-11.2-8.68c1.52-9.44.22-9.22.22-9.22,0,0-24.85,6.19-21.49-4.78,3.36-10.96,16.6-10.31,16.6-10.31Z"/>
      <path class="cls-2" d="m24.84,25.14s-4.59-5.35.51-6.8c4.51-1.28,3.93,3.85,3.73,5.07-.03.16-.04.25-.04.25,0,0,.83-2.71,1.95-4.02s5.21.4,3.62,3.18-2.28,2.93-2.28,2.93c0,0,4.02-2.46,5.21,0s-1.7,6.04-4.3,4.81-1.41-.8-1.41-.8c0,0,2.24,1.81.43,3.8s-6.51,2.82-6.01-2.39l.22-1.19s-6.37,3.11-6.84-.51,2.89-4.45,5.21-4.34Z"/>
      <ellipse class="cls-3" cx="29.11" cy="26.93" rx="3.48" ry="3.06"/>
    </g>
  </g>
</svg>