<?xml version="1.0" encoding="UTF-8"?>
<svg id="Layer_2" data-name="Layer 2" xmlns="http://www.w3.org/2000/svg" viewBox="0 0 71.25 110.6">
  <defs>
    <style>
      .cls-1 {
        fill: #fafbee;
      }

      .cls-1, .cls-2 {
        stroke-width: 0px;
      }

      .cls-2 {
        fill: #e97233;
      }

      .cls-3 {
        fill: none;
        stroke: #5e6363;
        stroke-miterlimit: 10;
      }
    </style>
  </defs>
  <g id="Layer_2-2" data-name="Layer 2">
    <g>
      <path class="cls-3" d="m16.62,23.76s-1.02,29.71,26.55,56.52,27.57,30.32,27.57,30.32"/>
      <g>
        <path class="cls-1" d="m15.96,17.99s-12.13.26-15.19-8.68S4.22-2.57,12.64,2.41s11.23,9.06,11.23,10.85v2.43s-2.43-7.02,3.32-9.57,15.96.13,9.83,6.64-9.83,7.4-9.83,7.4c0,0,5.49-2.43,9.32,3.45s3.06,9.06-.89,10.34-8.43,1.53-9.32-2.94-3.96-5.74-3.96-5.74l-1.28,1.15s1.74,11.49-1.56,13.79-11.08,3.7-9.17-1.66,7.4-14.04,7.4-14.04c0,0-5.74,9.96-13.02,8.94s-5.49-7.9,1.28-12.31,9.96-3.13,9.96-3.13Z"/>
        <path class="cls-2" d="m17.01,12.86s2.77-.32,5.52,1.93c2.75,2.25,4.49,3.25,2.98,5.81s-2.61,2.54-4.6,1.58-5.21-2.14-5.32-5.53,1.42-3.79,1.42-3.79Z"/>
      </g>
    </g>
  </g>
</svg>