<?xml version="1.0" encoding="UTF-8"?>
<svg id="Layer_2" data-name="Layer 2" xmlns="http://www.w3.org/2000/svg" viewBox="0 0 158.72 164.67">
  <defs>
    <style>
      .cls-1 {
        fill: #fafbee;
      }

      .cls-1, .cls-2 {
        stroke-width: 0px;
      }

      .cls-2 {
        fill: #ea702f;
      }

      .cls-3 {
        fill: none;
        stroke: #545251;
        stroke-miterlimit: 10;
      }
    </style>
  </defs>
  <g id="Layer_2-2" data-name="Layer 2">
    <g>
      <path class="cls-3" d="m29.51,36.93s-34,0-10.34,39.83,90.04,45.62,113.87,61.96,25.19,25.87,25.19,25.87"/>
      <path class="cls-1" d="m15.26,27.26s-7.63,2.6-11.31,7.27-7.63,14.72,2.42,11.67,12.93-5.48,15.35-10.77,1.08-3.41,1.08-3.41l1.44.63s-.81,15.35,8.08,12.57c8.89-2.78,11.4-6.64,6.37-12.84s-8.62-4.49-8.62-4.49c0,0,6.1,2.15,13.19-1.62s10.68-10.68,3.59-10.77c-7.09-.09-16.34,1.26-17.23,4.31,0,0,6.1-6.73,6.01-12.57-.09-5.83-3.14-9.51-6.01-5.65s-7.18,7.36-5.83,14.99.81,5.74.81,5.74c0,0,1.8-10.68-6.82-14.54-8.62-3.86-22.62,6.37-8.71,14.63,13.91,8.26,6.19,4.85,6.19,4.85Z"/>
      <path class="cls-2" d="m21.3,21.18s2.54-3.33,4.87-2.61c2.33.72,4.5,1.59,4.34,4.81s-4.45,5.27-6.46,4.87-4.02-.31-3.87-3.18,1.11-3.89,1.11-3.89Z"/>
    </g>
  </g>
</svg>