<?xml version="1.0" encoding="UTF-8"?>
<svg id="Layer_2" data-name="Layer 2" xmlns="http://www.w3.org/2000/svg" viewBox="0 0 126.14 263.41">
  <defs>
    <style>
      .cls-1 {
        fill: #75844e;
      }

      .cls-1, .cls-2, .cls-3, .cls-4 {
        stroke-width: 0px;
      }

      .cls-2 {
        fill: #fdf3ee;
      }

      .cls-3 {
        fill: #323232;
      }

      .cls-4 {
        fill: #879f57;
      }
    </style>
  </defs>
  <g id="clapboard_in_green_bag" data-name="clapboard in green bag">
    <g>
      <polygon class="cls-2" points="108.55 153.71 95.15 116.52 32.57 124.42 27.5 132.96 36.77 173.11 106.67 160 108.55 153.71"/>
      <path class="cls-4" d="m105.82,146.83c-1.66-.05-62.15,13.21-62.15,13.21l-2.73.02-11.88-49.93L8.73,28.19,1.96,5.8,0,0s30.02,163.37,30.75,165.54l9.84,39.16,13.66,57.78,16.57.92,55.32-33.74-18.43-85.08-2.08.71.18,1.54Z"/>
      <polygon class="cls-3" points="38.64 150.39 102.44 136.76 106.17 146.74 41.14 160.91 38.64 150.39"/>
      <polygon class="cls-3" points="48.77 122.37 61.62 135.08 56.39 146.59 67.16 144.29 70.56 133.46 58.59 121.14 48.77 122.37"/>
      <polygon class="cls-3" points="72.73 119.15 85.58 131.85 80.35 143.37 91.12 141.07 94.52 130.24 82.55 117.91 72.73 119.15"/>
      <polygon class="cls-3" points="37.67 130.9 45.79 129.63 53.97 139.99 54.19 147.06 41.56 149.76 37.67 130.9"/>
      <polygon class="cls-1" points="41.14 160.91 70.82 263.41 54.25 262.49 30.11 162.76 41.14 160.91"/>
      <polygon class="cls-4" points="20.13 46.83 71.02 119.58 55.64 120.97 13.83 35.17 15.94 39.36 20.13 46.83"/>
    </g>
  </g>
</svg>