<?xml version="1.0" encoding="UTF-8"?>
<svg id="Layer_2" data-name="Layer 2" xmlns="http://www.w3.org/2000/svg" viewBox="0 0 108.38 157.89">
  <defs>
    <style>
      .cls-1, .cls-2, .cls-3, .cls-4, .cls-5, .cls-6, .cls-7 {
        stroke-width: 0px;
      }

      .cls-2 {
        fill: #482510;
      }

      .cls-3 {
        fill: none;
      }

      .cls-4 {
        fill: #41362d;
      }

      .cls-5 {
        fill: #492917;
      }

      .cls-6 {
        fill: #ea8264;
      }

      .cls-7 {
        fill: #fffcfd;
      }
    </style>
  </defs>
  <g id="head">
    <g>
      <g>
        <path class="cls-6" d="m102.98,45.58l-.06,13.24s-2.62,15.29-8.23,21.32c-4.51,4.85,6.37,22.84,10.16,32.26,3.49,8.69,3.55,19.4,3.55,19.4,0,0-.48,5.11-5.08,13.28s-27.57,14.81-38.81,12.26-12.26-18.89-12.26-18.89l1.02-16.6-4.34,1.79c-8.43,2.81-13.15,2.58-20.43-6.38-8.08-9.95-13.79-20.27-12.84-32.16.31-3.9-2.97-10.59-6-15.96-3.03-5.36-2-22.41-2-22.41,0,0-.05-23.46,27.44-31.96s51.24-3.61,57.49,6.82c6.25,10.43,10.43,16.05,10.39,23.99Z"/>
        <path class="cls-4" d="m33.62,107.32c2.69.49,5.43-.04,7.45-1.92-1.51,2.44-4.94,3.14-7.45,1.92h0Z"/>
        <path class="cls-2" d="m26.19,72.08c.19,3.47.59,7.06-.2,10.5-.63,2.55-1.56,8.22,2.07,8.72,2.91.29,5.22-1.49,7.95-2.17,0,0,4.15-.65,4.15-.65,1.26-.4,3.63-1.08,3.56-2.78-.44-1.54-1.85-2.94-3.4-3.42,1.62.43,3.11,1.78,3.63,3.38.14,1.92-2.26,2.67-3.73,3.18,0,0-4.13.72-4.13.72-1.32.26-2.53,1-3.86,1.51-6.03,2.31-7.93-.79-7.08-6.52,1.15-4.05,1.21-8.25,1.04-12.46h0Z"/>
        <path class="cls-4" d="m42.87,69.75c1.02-.56,2.26-.6,3.34-1.01.74-.14,4.43-2.07,2.62-.54-1.58.81-3.31,1.33-5.05,1.66-.31-.03-.61-.05-.91-.12h0Z"/>
        <path class="cls-4" d="m19.26,76.76l.51-.29c1.29-.37,2.44-1.1,3.67-1.6-.95.97-2.35,1.36-3.59,1.84-.2.02-.39.05-.59.05h0Z"/>
        <path class="cls-4" d="m36.22,59.86l-.26-2.47s2.71-2.95,6.12-3.1c3.41-.16,3.64.86,3.64.86,0,0-2.08-.22-4.93,1.41s-4.57,3.3-4.57,3.3Z"/>
        <polygon class="cls-4" points="36.06 59.95 35.1 57.89 35.73 60.05 36.06 59.95"/>
        <polygon class="cls-4" points="35.58 60.48 34.49 58.71 35.35 60.75 35.58 60.48"/>
        <path class="cls-4" d="m20.12,65.38s-1.56-2.21-7.05-1.15l-.54-2.4s5.02-1.34,7.32,1l.27,2.55Z"/>
        <polygon class="cls-4" points="20.61 63.42 20.42 65.27 20.61 65.27 20.61 63.42"/>
        <path class="cls-3" d="m21.29,65.02s1.11-.6,1.15-1.31-.72-.73-.72-.73c0,0,.1,1.7-.43,2.04Z"/>
        <path class="cls-7" d="m43.46,99.27s-2.81,2.42-6.76,3.16-6.09.66-6.33-.06.18-.93.18-.93c0,0,3.77-4.23,12.91-2.16Z"/>
        <path class="cls-7" d="m39.29,65.63s7.2-2.81,9.34-1.85c0,0,.5.59-.9,1.43s-5.62,1.43-5.97,1.43-4.68-.59-2.47-1.01Z"/>
        <path class="cls-7" d="m16.12,72.34s4.86-1.98,6.41-.86c0,0,.73.5-.43,1.23s-4.47.99-4.74.96-2.98-1.08-1.23-1.33Z"/>
        <path class="cls-4" d="m38.04,66.8c2.73-4.22,8.85-4.69,13.03-2.51-1.2-.08-2.32-.32-3.47-.36-3.44-.16-6.79.64-9.56,2.86h0Z"/>
        <path class="cls-4" d="m40.52,67.02c2.3-.4,4.63-.67,6.71-1.71.66-.35,1.28-.85,1.56-1.6-.68,3.09-5.69,3.47-8.27,3.31h0Z"/>
        <path class="cls-4" d="m23.33,72.02c-3.01-1.37-5.87.1-8.62,1.27,1.89-2.47,6.34-4.03,8.62-1.27h0Z"/>
        <path class="cls-4" d="m22.73,72.44c-1.45,1.22-3.08,2.15-4.87,2.77,1.45-1.22,3.08-2.14,4.87-2.77h0Z"/>
        <ellipse class="cls-4" cx="45.54" cy="64.52" rx="1.67" ry="1.3"/>
        <ellipse class="cls-4" cx="20.07" cy="72.34" rx="1.46" ry="1.3"/>
        <path class="cls-2" d="m51.35,122.86c5.52-2.95,13.66-7.03,19.34-9.88,5.03-2.48,10.36-4.25,10.13-10.95.08-1.8.05-3.62-.03-5.42.16,1.8.27,3.61.28,5.43.39,6.91-4.97,8.8-10.15,11.39-5.73,2.81-13.84,6.81-19.57,9.43h0Z"/>
        <path class="cls-2" d="m27.06,100.11c1.11.65,2.21,1.33,3.29,2.03,0,0-.42.2-.42.2.53-2.71,3.53-3.52,5.84-3.88,2.38-.3,4.76-.14,7.11.18,1.25-.36,4.35-.94,6.22-1.36.7-.17,1.43-.27,2.1-.53-2.6,1.29-5.49,1.94-8.27,2.77-3.84-.14-8.41-.93-11.66,1.56-.53.47-.82,1.09-.89,1.75-1.13-.87-2.23-1.79-3.32-2.72h0Z"/>
        <path class="cls-4" d="m24.65,67.76c1.25.03,1.74,1.66,1.43,2.69-.44-.99-.56-1.99-1.43-2.69h0Z"/>
        <path class="cls-4" d="m37.39,64.13c2.94-2.6,7.13-3.37,10.96-3.06-3.83.03-7.82.75-10.96,3.06h0Z"/>
      </g>
      <path class="cls-4" d="m99.49,56.61c-1.37,1.05-2.74,2.22-3.53,3.75-.63,1.12-.49,2.49-.38,3.74.02.2.05.45.17.55.14.07.38-.1.58-.14-.21.08-.33.31-.64.25-.53-.51-.42-1.3-.57-1.95-.53-2.84,2.02-5.14,4.37-6.21h0Z"/>
      <g>
        <path class="cls-5" d="m94.97,75.21s1.65,11.29,6.37,13.8-4.37,7.14-4.37,7.14c0,0-4.85-10.59-4.89-14.85-.03-3.04,1.3-4.04,2.16-4.98.63-.69.74-1.11.74-1.11Z"/>
        <g>
          <path class="cls-1" d="m21.09,28.58s10.25-6.98,18.74,9.31c4.64,8.91,5.8-19.55.19-24.78-5.62-5.23-9.45-5.87-9.45-5.87l-12.8,7.75s-.89,11.42,3.32,13.59Z"/>
          <path class="cls-5" d="m7.25,21.59c4.47,1.86,8.22-3.39,8.22-7.42s2.52-7.33,5.95-11.13,23.28-3.97,28.55-.9,5.18.65,8.45.89,7.66,1.45,12.84,3.55c5.18,2.1,7.82,3.07,14.99,5.89s10.92,13.21,15.87,26.07c5.35,13.92-.45,24.78-1.03,25.21.33-1.01.69-3.75,1.1-5.49s-.87-3.58-2.69-3.59c-3.11-.03-10.51,1.78-13.39,7.38-5.09,9.89-13.88,10.22-13.88,10.22,0,0,2.89-5.03,1.09-8.56-2.78-5.46-2.39-6.21-8.59-9.44-8.66-4.51-8.87-4.5-8.87-4.5,1.28,3.95,4.85,6.4,4.85,6.4-5.46-.99-13.2-3.63-19.55-15.57s-8.13-26.21-17.4-27.11-2.7,15.09-2.7,15.09l-4.54,1.95c-12.95,3.89-7.88,28.74-7.42,36.57.48,8.13-7.1,4.92-7.1,4.92,0,0,1.67.08,4.15-4.52S.99,61.12.11,48.29c-.88-12.83,3.56-23.52,6.75-24.41,0,0-2.97-2.08-4.98-1.22s2.36-2.43,5.17-.96"/>
        </g>
      </g>
      <ellipse class="cls-6" cx="90.34" cy="67.56" rx="18.08" ry="10.66" transform="translate(-8.11 122.64) rotate(-66.02)"/>
      <path class="cls-4" d="m94.18,80.74c-2.02,2.5-6.26,3.74-7.69,0,2.01,3.11,5.24,1.78,7.69,0h0Z"/>
      <path class="cls-4" d="m89,60.46c-1.37,1.05-2.74,2.22-3.53,3.75-.63,1.12-.49,2.49-.38,3.74.02.2.05.45.17.55.14.07.38-.1.58-.14-.21.08-.33.31-.64.25-.53-.51-.42-1.3-.57-1.95-.53-2.84,2.02-5.14,4.37-6.21h0Z"/>
    </g>
  </g>
</svg>