<?xml version="1.0" encoding="UTF-8"?>
<svg id="Layer_2" data-name="Layer 2" xmlns="http://www.w3.org/2000/svg" xmlns:xlink="http://www.w3.org/1999/xlink" viewBox="0 0 556.46 572.22">
  <defs>
    <style>
      .cls-1 {
        fill: #fff2eb;
      }

      .cls-1, .cls-2, .cls-3, .cls-4, .cls-5, .cls-6, .cls-7, .cls-8, .cls-9, .cls-10, .cls-11, .cls-12, .cls-13, .cls-14, .cls-15, .cls-16, .cls-17, .cls-18, .cls-19, .cls-20, .cls-21, .cls-22, .cls-23, .cls-24, .cls-25, .cls-26, .cls-27, .cls-28, .cls-29, .cls-30 {
        stroke-width: 0px;
      }

      .cls-2, .cls-31 {
        fill: #da4e26;
      }

      .cls-3 {
        fill: #fdf3ee;
      }

      .cls-4 {
        fill: #4d4b4b;
      }

      .cls-32 {
        stroke: #231f20;
        stroke-width: .25px;
      }

      .cls-32, .cls-33, .cls-34, .cls-12, .cls-35 {
        fill: none;
      }

      .cls-32, .cls-33, .cls-34, .cls-35 {
        stroke-miterlimit: 10;
      }

      .cls-5 {
        fill: #e28226;
      }

      .cls-6 {
        fill: #131312;
      }

      .cls-33 {
        stroke: #7e6756;
      }

      .cls-34 {
        stroke: #131312;
        stroke-width: .5px;
      }

      .cls-7 {
        fill: #a7a6a5;
      }

      .cls-9 {
        fill: #323232;
      }

      .cls-10 {
        fill: #592e25;
      }

      .cls-36 {
        opacity: .64;
      }

      .cls-11 {
        fill: #0e0c0c;
      }

      .cls-13 {
        fill: #ffedd3;
      }

      .cls-14 {
        fill: #fffcfc;
      }

      .cls-15 {
        fill: #cc2027;
      }

      .cls-16 {
        fill: #fff;
      }

      .cls-17 {
        fill: #832d1a;
      }

      .cls-18 {
        fill: #fcbe43;
      }

      .cls-19 {
        fill: #e67a7f;
      }

      .cls-20 {
        fill: #41362d;
      }

      .cls-37 {
        clip-path: url(#clippath);
      }

      .cls-35 {
        stroke: #cc2027;
      }

      .cls-21 {
        fill: #844a3d;
      }

      .cls-22 {
        fill: #080d0c;
      }

      .cls-23 {
        fill: #7e6756;
      }

      .cls-24 {
        fill: #492917;
      }

      .cls-25 {
        fill: #ea8264;
      }

      .cls-26 {
        fill: #43382f;
      }

      .cls-27 {
        fill: #879f57;
      }

      .cls-28 {
        fill: #fffcfd;
      }

      .cls-29 {
        fill: #45382f;
      }

      .cls-30 {
        fill: #43372e;
      }
    </style>
    <clipPath id="clippath">
      <path class="cls-2" d="m257.72,471.42s-40,24.34-40.51,24.68-6.3,2.38-13.28-1.36-37.62-28.43-49.53-33.36c-11.91-4.94-23.32-10.55-23.32-10.55,0,0-6.3-1.7-2.38-7.83s22.64-37.28,22.64-37.28c0,0-7.15-2.72-8.85-7.32-1.7-4.6-.51-4.6,2.21-4.94s24.51-25.7,29.96-31.32c5.45-5.62,11.7-20.64,16.72-20.09s18.94-.26,23.06-.64c4.13-.38,10.94-1.57,10.94-1.57l12.17,1.45,7.32,9.11,14.72,87.83v33.7l-1.87-.51Z"/>
    </clipPath>
  </defs>
  <g id="Layer_2-2" data-name="Layer 2">
    <g>
      <path class="cls-30" d="m228.66,300.84c1.15-.35,2.33-.6,3.54-.73l-3.54.73Z"/>
      <path class="cls-30" d="m242.59,364.65c-1.76.63-3.61,1.02-5.53,1.13-.1.01-.2.01-.3.01l5.83-1.14Z"/>
      <path class="cls-30" d="m269.73,359.32h0s-.31.07-.31.07c.1-.02.21-.04.31-.07Z"/>
      <g>
        <path class="cls-19" d="m498.98,196.3l9.11-45.02s.77-1.36,2.04-1.19,3.4,1.79,2.89,3.57-10.04,45.45-10.04,45.45l-4-2.81Z"/>
        <path class="cls-19" d="m499.51,205.52l19.46-41.61s1.07-1.14,2.27-.68,2.89,2.54,1.97,4.16-20.47,41.8-20.47,41.8l-3.23-3.67Z"/>
        <path class="cls-7" d="m483.58,217.71l18.13-33.06s1.28-1.4,4.6-.26,47.11,27.83,47.11,27.83c0,0,6.13,1.91,1.02,9.45s-19.02,30.38-19.02,30.38l-46.21-16.72-5.62-17.62Z"/>
        <path class="cls-18" d="m433.38,411.26s32.43-5.11,37.53-6.64,14.3-15.06,14.3-15.06c0,0,34.72-56.43,37.28-67.15l8.68,5.62-1.28,5.36s6.13,4.09,7.4,4.34,3.83-3.83,3.83-3.83l7.4,1.53s-6.64-14.81-6.38-22.98,6.38-73.53,6.38-73.53l-8.94-1.02s-6.81-.77-18.21-7.06-32.26-22.64-33.28-23.83-6.98-4.77-11.15-5.87-8.26-1.96-10.64-.43-18.89,10.89-18.89,10.89l-14.04,1.02,7.91,60.26-7.91,138.38Z"/>
        <path class="cls-28" d="m479.91,134.97s.22-.01.63-.03c3.16-.11,17.34-.4,22.1,3.22,5.36,4.09,8.04,7.28,5.11,15.19l-2.94,7.91s4.21-1.66,5.74.64.13,4.85-.89,7.28-20.3,38.68-20.3,38.68c0,0-16.21-7.28-21.83-4.85s-9.83-7.91-9.83-7.91l4.09-15.32"/>
        <path class="cls-26" d="m367.98,94.29c1.15-.13,100.6,14.55,106.47,16.34s12.13,1.4,9.32,15.19-21.57,68.81-23.87,75.06-69.19-24.38-69.19-24.38l-18.51-18.89-16.85-31.66-.64-20.94,13.28-10.72Z"/>
        <path class="cls-4" d="m367.91,104.83c2.04-.26,88.6,13.28,91.66,13.79s6.13,2.55,3.32,13.02-11.74,48-11.74,48l-64.85-22.47-19.4-14.94-5.87-30.25,6.89-7.15Z"/>
        <path class="cls-5" d="m548.53,238.92s1.99,9.25-1.42,32.06-1.36,52.6,1.02,56.34,2.21,9.19,2.21,9.19l-9.22-2.61-2.3,3.38c-.37.54-1.09.7-1.66.37l-7.22-3.73c-.49-.28-.73-.86-.59-1.4l1.66-3.74-8.24-5.88s22.63-75.91,23.83-79.83,1.93-4.15,1.93-4.15Z"/>
        <ellipse class="cls-26" cx="457.69" cy="159.59" rx="9.52" ry="8.17" transform="translate(182.56 558.66) rotate(-74.64)"/>
        <ellipse class="cls-35" cx="459.45" cy="160.08" rx="6.59" ry="6.93" transform="translate(183.39 560.71) rotate(-74.64)"/>
      </g>
      <path class="cls-29" d="m251.18,412.59s2.81,29.62,2.55,34.21,3.06,52.85,3.06,60.26-2.09,62.59,4.34,63.83c13.61,2.62,89.19.57,89.19.57,0,0-3.65-40.4-3.65-45.76s-1.28-30.64-.26-34.47-2.04-9.19,1.02-7.91c3.06,1.28,23.74,43.4,28.09,51.06s17.87,37.08,17.87,37.08h86.3s-14.55-29.16-17.61-40.4-19.91-73.02-20.17-73.79-11.49-38.81-11.49-38.81l-9.7-19.91s-12.77,9.19-65.36,18.89-82.98-5.36-86.04-5.36-18.13.51-18.13.51Z"/>
      <g>
        <path class="cls-31" d="m257.72,471.42s-40,24.34-40.51,24.68-6.3,2.38-13.28-1.36-37.62-28.43-49.53-33.36c-11.91-4.94-23.32-10.55-23.32-10.55,0,0-6.3-1.7-2.38-7.83s22.64-37.28,22.64-37.28c0,0-7.15-2.72-8.85-7.32-1.7-4.6-.51-4.6,2.21-4.94s24.51-25.7,29.96-31.32c5.45-5.62,11.7-20.64,16.72-20.09s18.94-.26,23.06-.64c4.13-.38,10.94-1.57,10.94-1.57l12.17,1.45,7.32,9.11,14.72,87.83v33.7l-1.87-.51Z"/>
        <g class="cls-37">
          <path class="cls-17" d="m239.91,364.75l-37.37,126.98c-.04.15.06.3.21.31l-1.94,5.82c.06,0,45.04-.55,45.09-.59l32.37-24.84c.06-.05.1-.12.1-.19l.95-103.94c0-.13-.1-.24-.22-.25l-38.93-3.49c-.12-.01-.23.06-.26.18Z"/>
        </g>
      </g>
      <path class="cls-16" d="m320.13,141.65s4.34,14.55,9.96,18.38,23.49,6.38,32.94-2.04,16.09-10.72,17.36-18.38,9.45,9.45,9.7,10.21,8.17,13.79,10.98,29.11,2.3,32.68,1.79,41.62-13.28,144.51-13.28,144.51l4.34,12.77-14.04,36.51-7.4,6.64s-4.09-2.81-16.34-.26-55.15,5.87-66.13,2.04c-10.98-3.83-24.77-7.4-24.77-7.4l-7.4-14.3,5.87-38.55,21.96-121.79,15.57-46.21,7.15-24.77,6.51-26.1s3.51-6.92,5.23-1.98Z"/>
      <g>
        <path class="cls-13" d="m376.03,124.6s2.89-1.19,6.64,5.45,8.51,10.72,11.4,12.94,8.68,4.09,9.87,4.09,37.62,15.32,48.34,32.17,12.09,20.77,16,38.47,16.68,62.81,21.62,69.11c4.94,6.3,21.79,29.96,15.49,43.06s-11.91,18.38-12.26,19.91-5.28,8-5.28,8h-2.04l1.36-3.91s4.09-6.13,1.7-13.96-11.4-14.64-20.77-16.68c-9.36-2.04-24.34,1.36-25.36,2.55s-1.7,6.13-2.04,6.81l-1.7,3.4-14.3,35.06-10.21,21.62-13.28,6.64-17.87,9.02-6.3,17.87-4.94,11.4s-9.02-1.87-9.19-4.43,4.43-6.3,6.64-17.87,3.74-14.64.51-23.15c-3.23-8.51-16.34-42.21-19.23-66.72-2.89-24.51-3.91-48.85-4.77-56.17s-1.87-57.87,0-70.13,2.38-28.43,10.04-34.04,22.13-20.43,22.64-25.36-2.21-11.06-2.21-11.06c0,0-4.09-4.77-.51-4.09Z"/>
        <path class="cls-13" d="m321.97,135.65s-16.72,15.06-19.28,19.91-13.53,9.32-19.02,11.87-12.64,8.04-12.64,8.04c0,0-13.15,14.55-15.45,21.96s-7.28,19.02-7.4,21.7-4.98,2.04-8.17,3.83-8.04,7.79-10.21,12.38-11.62,14.55-13.66,14.81-6.77.13-9.06,1.79-25.02,18.26-25.79,19.4-.89,4.47-.89,4.47c0,0,12.21-2.13,16.89,8,4.68,10.13,5.02,20.09,3.91,27.49s-3.49,16.68-7.32,17.45-5.96,0-5.96,0c0,0-.43,7.06,6.3,8.68,6.72,1.62,25.62-8,32.51-5.19,6.89,2.81,17.62-1.02,17.62-1.02l-7.66,43.4-7.49,33.36s-2.55,18.21-5.62,21.28-6.3,5.11-5.28,8.34,5.11,3.91,6.81,3.91,14.3-4.09,21.96-2.38c7.66,1.7,16.17,2.04,16.68,2.38s1.53,0,1.53,0c0,0-.17-10.72.51-18.89.68-8.17,6.98-46.98,10.04-53.79,3.06-6.81,5.28-10.72,5.28-10.72l18.38-100.77,8.51-58.04,5.96-20.94,8-18.38v-24.34Z"/>
      </g>
      <path class="cls-2" d="m183.56,382.2s-6.3,11.91,3.4,14.3c9.7,2.38,22.3-9.36,22.3-9.36l109.41-108.6,64.03-53.96,32.17-28.6s3.06-2.55,3.4-3.23,17.36-10.04,24.34-11.4,10.89-1.7,10.89-1.7c0,0-16.85-17.53-19.06-17.53s-52.09,36.94-52.09,36.94l-86.47,73.19-112.34,109.96Z"/>
      <rect class="cls-26" x="17.18" y="107.48" width="3.7" height="8.42" rx="1.85" ry="1.85" transform="translate(-31.1 10.08) rotate(-16.59)"/>
      <g>
        <polygon class="cls-3" points="515.69 432.85 500.24 396.46 438.2 407.82 433.6 416.63 445.09 456.21 514.16 439.23 515.69 432.85"/>
        <path class="cls-27" d="m438.66,448.98l12,38.55,16.85,56.94h16.6l53.36-36.77-10.98-39.57s17.62-2.81,18.64-2.55.64-2.43-.21-3.62-15.02-22.77-16.89-26-5.62-10.3-7.45-10.55-6.34.68-8,.72-61.32,16.64-61.32,16.64l-2.72.17-14.64-49.19-24.85-80.68-9.7-25.02h-4.26l44.6,157.79s-1.87,1.02-1.02,3.15Z"/>
        <polygon class="cls-9" points="445.7 433.41 508.65 416.26 513.32 426.93 448.78 443.78 445.7 433.41"/>
        <polygon class="cls-9" points="454.25 404.88 467.79 416.85 463.21 428.64 473.84 425.75 476.63 414.75 463.99 403.1 454.25 404.88"/>
        <polygon class="cls-9" points="478 400.33 491.54 412.3 486.95 424.09 497.58 421.19 500.37 410.19 487.74 398.55 478 400.33"/>
        <polygon class="cls-9" points="443.64 414.02 451.68 412.29 460.43 422.19 461.04 429.23 448.58 432.63 443.64 414.02"/>
      </g>
      <path class="cls-12" d="m306.48,39.01s6.47-.43,8.43,1.02,2.38,0,2.38,0c0,0-5.28-4.51-8.34-4.09"/>
      <polygon class="cls-21" points="394 176.97 388.39 196.04 380.39 194.93 385.75 175.1 394 176.97"/>
      <polygon class="cls-21" points="386.6 198.59 380.39 197.4 379.79 202.51 385.83 202.93 386.6 198.59"/>
      <g>
        <path class="cls-32" d="m359.54,252.77c1.54,11.55,3.09,23.11,4.63,34.66,1.27,9.49,2.54,18.98,4.25,28.39.8,4.42,1.71,8.82,2.61,13.22,5.25,25.62,10.5,51.24,15.75,76.86"/>
        <path class="cls-32" d="m370.05,230.38c-.03,7.68,1,15.32,2.13,22.92,4.81,32.34,11.53,64.35,18.24,96.35,3.49,16.63,6.98,33.27,10.47,49.9"/>
        <path class="cls-32" d="m349.74,270.74c3.82-2.13,8-3.5,12.15-4.86,1.56-.51,3.13-1.03,4.74-1.38,2.2-.48,4.46-.66,6.7-.6,2.18.06,4.35.34,6.48.84.48.11.97.24,1.42.44.61.27,1.18.68,1.85.74"/>
        <path class="cls-32" d="m349.21,266.34c2.22-1.04,4.46-2.06,6.7-3.05,2.47-1.09,4.96-2.16,7.57-2.88,5.94-1.64,12.28-1.39,18.29-.05"/>
        <path class="cls-32" d="m352.09,300.54l4.75-1c2.09-.44,4.19-.88,6.22-1.52,2.93-.92,5.71-2.23,8.56-3.36,4.17-1.65,8.49-2.92,12.71-4.44,2.84-1.02,5.72-2.2,7.86-4.33"/>
        <path class="cls-32" d="m355.44,306.86c3.41-.22,6.68-1.36,9.91-2.48,6.36-2.21,12.72-4.43,19.08-6.64,1.81-.63,3.66-1.28,5.19-2.43,1.69-1.27,3.02-3.14,5.03-3.77"/>
        <path class="cls-32" d="m412.67,256.22c2.38-3.97,4.84-7.88,7.38-11.75,1.6-2.44,3.25-4.88,5.26-7,2.03-2.14,4.41-3.93,6.77-5.7,1.94-1.45,3.88-2.91,5.96-4.13,2.15-1.26,4.44-2.27,6.77-3.14,4-1.5,8.14-2.6,12.35-3.29,1.64-.27,3.31-.48,4.95-.21"/>
        <path class="cls-32" d="m415.39,261.1c-.23-.01-.16-.36-.03-.55,3.2-4.42,6.4-8.84,9.6-13.25,1.28-1.77,2.57-3.55,4.19-5,1.44-1.29,3.1-2.3,4.75-3.3,2.23-1.35,4.46-2.7,6.71-4.03,1.91-1.13,3.85-2.26,5.97-2.91,2.34-.71,4.82-.8,7.26-.79,3.14,0,6.28.16,9.41.31"/>
        <path class="cls-32" d="m402.2,231.04c.83-1.98,1.67-4,3.06-5.64,2.09-2.47,5.17-3.82,7.81-5.7,2.06-1.47,3.86-3.27,5.81-4.89,3.99-3.35,8.56-5.94,13.15-8.4,3.26-1.74,6.58-3.43,10.14-4.41s7.42-1.21,10.92-.03"/>
        <path class="cls-32" d="m402.26,226.92c.18-2.22.41-4.56,1.71-6.37.66-.91,1.55-1.62,2.43-2.32,1.45-1.15,2.9-2.31,4.35-3.46,1.66-1.32,3.32-2.64,5.04-3.88,1.1-.79,2.23-1.55,3.36-2.3,1.69-1.13,3.38-2.26,5.06-3.39,1.47-.99,2.95-1.97,4.49-2.85,7.27-4.12,16.02-5.57,24.23-4.01"/>
        <path class="cls-32" d="m407.15,200.8c6,8.85,9.95,18.91,13.85,28.87,8.04,20.54,16.08,41.08,24.12,61.62"/>
        <path class="cls-32" d="m402.84,211.4c5.12,8.98,8.31,18.9,11.74,28.65,4.06,11.57,8.51,23,13.31,34.28,3.38,7.94,6.98,15.86,11.97,22.9"/>
        <path class="cls-32" d="m434.91,188.13c4.63,13.1,9.26,26.22,13.11,39.57,1.14,3.98,2.22,7.98,3.61,11.87,1.92,5.38,4.44,10.53,6.47,15.87,1.45,3.82,2.65,7.73,3.84,11.64,1.11,3.63,2.22,7.26,3.33,10.89.84,2.75,1.69,5.51,2.53,8.26"/>
        <path class="cls-32" d="m442.36,189.54c.59,9.72,6.34,18.32,8.9,27.72.9,3.3,1.41,6.7,2.41,9.98,1,3.28,2.49,6.4,3.53,9.66,1.95,6.14,2.3,12.72,4.43,18.8,3.21,9.17,10.44,17.28,10.25,27"/>
        <path class="cls-32" d="m411.15,258.48c.72-5.26,6.79-7.94,9.36-12.59.83-1.5,1.3-3.23,2.41-4.54.92-1.09,2.21-1.8,3.33-2.68,2.29-1.79,3.92-4.28,5.32-6.83.81-1.47,1.59-3.01,2.83-4.13,1.22-1.09,2.78-1.7,4.33-2.22,6.92-2.33,14.28-3.37,21.58-3.07"/>
        <path class="cls-32" d="m415.23,263.62c2.22-6.2,8.51-9.9,12.27-15.3,1.22-1.76,2.18-3.7,3.59-5.31,2.08-2.38,5-3.85,7.92-5.06,7.64-3.17,15.83-4.99,24.1-5.34"/>
        <path class="cls-32" d="m423.87,286.92c.27-6.53,3-12.94,7.53-17.65,2.12-2.2,4.6-4.03,7.12-5.76,6.38-4.37,13.5-8.28,21.22-8.53,3.17-.1,6.37.43,9.34,1.55"/>
        <path class="cls-32" d="m430.98,291.32l3.76-10.91c.35-1.01.72-2.07,1.49-2.81.57-.55,1.31-.89,2.04-1.22,3.77-1.69,7.53-3.37,11.3-5.06,2.28-1.02,4.59-2.05,7.02-2.62,6.62-1.56,13.53.38,19.98,2.54"/>
        <path class="cls-32" d="m439.34,326.09c1.06-.65,2-1.48,2.98-2.23,5.6-4.26,12.72-6.07,19.73-6.71,6.57-.59,13.28-.23,19.57,1.77,2.22.71,4.39,1.61,6.42,2.76,1.49.84,2.93,1.83,3.92,3.22.82,1.15,1.28,2.52,1.72,3.86.9,2.76,1.76,5.53,2.58,8.32"/>
        <path class="cls-32" d="m445.14,312.27c4.14-3.41,9.25-5.64,14.57-6.33,6.15-.81,12.37.39,18.41,1.8,3.36.78,6.73,1.63,9.87,3.07s6.06,3.48,8.07,6.29"/>
        <path class="cls-32" d="m442.93,308.23c1.05-1.98,3.26-3.02,5.31-3.93,1.91-.84,3.81-1.68,5.72-2.53,3.67-1.62,7.4-3.26,11.36-3.92,8.16-1.37,16.48,1.54,23.67,5.63,1.27.72,2.52,1.49,3.6,2.47,1.44,1.31,2.59,3.02,4.36,3.83"/>
        <path class="cls-32" d="m448.22,299.3c.72,2.55.86,5.22,1,7.87.15,2.79.29,5.57.44,8.36"/>
        <path class="cls-32" d="m453.86,297.13c1.54,5.16,2.05,10.61,1.51,15.97"/>
        <path class="cls-32" d="m483.23,297.09c.14,1.26-.15,2.52-.35,3.77-.78,5.06.1,10.3-.94,15.31"/>
        <path class="cls-32" d="m491.01,299.46l-.67,4.66c-.74,5.12-1.47,10.24-2.21,15.35"/>
        <path class="cls-32" d="m292.28,180.64c-1.88,9.66-3.75,19.33-5.88,28.93-1.08,4.88-2.23,9.75-3.77,14.51-1.24,3.8-2.73,7.52-3.91,11.33-1.63,5.28-2.67,10.72-3.7,16.15-1.1,5.81-2.21,11.61-3.31,17.42"/>
        <path class="cls-32" d="m298.64,180.51c-.35,11.46-2.73,22.75-5.09,33.97-.64,3.04-1.28,6.08-1.92,9.12-2.83,13.45-5.68,26.92-9.84,40.01"/>
        <path class="cls-32" d="m283.16,192.62c.65-.14,1.32-.14,1.99-.17,2.57-.14,5.08-.84,7.6-1.33s5.17-.78,7.66-.1"/>
        <path class="cls-32" d="m287.13,184.04c5.07,1.1,10.29,1.51,15.47,1.24"/>
        <path class="cls-32" d="m270.04,243.32c1.48.39,3.05.17,4.56-.1,6.44-1.15,12.79-3.15,19.33-3.18"/>
        <path class="cls-32" d="m269.78,251.9c8.57-2.57,17.61-3.56,26.53-2.9"/>
        <path class="cls-32" d="m259.26,369.29c-3.18,9.33-4.88,19.17-5.03,29.02-.04,2.5.03,5.01-.33,7.49-.28,1.97-.83,3.89-1.1,5.87-.47,3.35-.14,6.85-1.22,10.06"/>
        <path class="cls-32" d="m250.63,371.23c-.83.71-1.35,1.7-1.82,2.68-2.7,5.59-4.58,11.58-5.55,17.71-1.59,10.1-.74,20.57-3.41,30.44"/>
        <path class="cls-32" d="m241.67,375.64c8,.42,16,.72,24,.9"/>
        <path class="cls-32" d="m241.86,399.85c5.95,1.4,12.1,1.94,18.2,1.58"/>
        <path class="cls-32" d="m238.78,406.78c6.19.21,12.35,1.09,18.35,2.62"/>
        <path class="cls-32" d="m199.54,257.32c2.37,1.71,4.76,3.46,6.57,5.75,3.03,3.84,4.11,8.82,5,13.63.55,2.94,1.07,5.93.86,8.91-.16,2.21-.71,4.38-1.07,6.57-1.75,10.75,1.19,22.27-2.87,32.38"/>
        <path class="cls-32" d="m208.94,255.8c2.05,4.9,4.11,9.81,6.16,14.71.92,2.19,1.84,4.38,2.49,6.66.59,2.04.96,4.14,1.33,6.23,1.86,10.63,3.59,21.45,2.3,32.16"/>
        <path class="cls-32" d="m204.05,278.35c5.98-5.4,13.72-8.82,21.74-9.61"/>
        <path class="cls-32" d="m199.4,271.39c2.29-2.59,5.51-4.12,8.63-5.59,3.98-1.87,8.14-3.78,12.54-3.73"/>
        <path class="cls-32" d="m206.47,299.41c6.1-1.55,12.11-3.41,18.12-5.28,1.89-.59,3.88-1.24,5.21-2.71"/>
        <path class="cls-32" d="m207.69,309.81c5.54-.47,10.98-1.98,15.97-4.44"/>
        <path class="cls-32" d="m225.84,240.32c1.94.54,3.83,1.3,5.59,2.28.87.48,1.72,1.02,2.42,1.73,1.86,1.89,2.39,4.69,2.91,7.29.96,4.7,2.22,9.34,3.78,13.87,1.27,3.67,2.73,7.29,3.73,11.04s1.54,7.7.9,11.53"/>
        <path class="cls-32" d="m230.04,234.22l7.11,3.12c1.05.46,2.12.93,2.99,1.68,1.5,1.28,2.26,3.19,2.96,5.03.68,1.78,1.37,3.56,2.05,5.34.75,1.96,1.51,3.93,1.98,5.97.64,2.76.75,5.61.67,8.44-.03,1.11-.1,2.23.07,3.33.21,1.4.8,2.71,1.19,4.06.97,3.3.83,6.8.69,10.24"/>
        <path class="cls-32" d="m226.61,252.99l7.44-5.39c1.48-1.07,3-2.19,3.96-3.75.91-1.48,1.28-3.32,2.52-4.53.87-.84,2.04-1.27,3.12-1.82,4.49-2.34,7.13-7.06,9.44-11.56"/>
        <path class="cls-32" d="m247.64,228.68c-4.46,3.31-8.97,6.67-12.5,10.96-.73.88-1.41,1.8-2.09,2.72-1.17,1.59-2.35,3.17-3.52,4.76-1.23,1.65-2.72,3.46-4.77,3.59"/>
        <path class="cls-32" d="m237.92,287.23c.5,0,.95-.27,1.38-.52,4.52-2.71,8.93-5.6,13.22-8.65"/>
        <path class="cls-32" d="m257.61,192.6c.03,1.09-.6,2.07-1.11,3.04-1.08,2.08-1.76,4.58-1.62,6.93.11,1.84,1.35,3.01,2.41,4.45"/>
        <path class="cls-32" d="m309.79,174.97c.44-3.19.87-6.48.1-9.61-.07-.29-.2-.63-.49-.71-.12-.03-.25-.01-.37,0-2.35.4-4.61,1.24-6.66,2.47-1.74,1.04-3.33,2.37-5.21,3.16-.93.39-1.92.65-2.77,1.19-.66.42-1.2,1.01-1.8,1.51-1.74,1.45-3.93,2.19-6.08,2.91-.31.11-.64.21-.97.17-.71-.09-1.18-.87-1.16-1.59s.38-1.38.75-2c1.05-1.76,2.23-3.44,3.64-4.93,2.13-2.26,4.77-4.07,6.48-6.66.78-1.18,1.38-2.53,2.51-3.38"/>
        <path class="cls-32" d="m349.13,192.29c3.36-5.11,5.44-10.93,7.5-16.69.99.18,1.52,1.24,1.93,2.16,1.23,2.77,1.97,1.28,4.7,2.59,3.17,1.53,11.77,4.34,13.37,9.71-.04-3.51.64-7.02,2-10.26.59-1.42,1.32-2.78,1.78-4.25.48-1.54.67-3.16,1.08-4.72.67-2.58,1.94-4.96,2.73-7.5.9-2.9,1.36-6.26,3.78-8.08"/>
        <path class="cls-32" d="m372.86,376.53c1.02-.19,2.05.29,2.87.92.4.31.78.66,1.05,1.1.39.65.49,1.43.47,2.18-.01.42-.06.84-.25,1.21-.37.72-1.16,1.08-1.91,1.37-.35.13-.71.26-1.08.26-.27,0-.54-.07-.8-.16-1.43-.48-2.58-1.7-2.55-3.28.03-1.49.52-3.29,2.2-3.6Z"/>
        <path class="cls-32" d="m362.21,333.74c.49.92.49,2.07.08,3.03-.07.18-.17.35-.31.48-.12.11-.28.17-.43.22-.57.22-1.13.44-1.7.65-.33.13-.66.25-1.01.25-1.12-.02-2.91-1.19-3.44-2.17s-.2-1.84.57-2.52c1.67-1.47,4.97-2.32,6.24.06Z"/>
        <path class="cls-32" d="m355.09,280.72c.47.8.47,1.86,0,2.66-.15.25-.35.48-.6.62-.64.34-1.43.03-2.02-.39-.3-.21-.6-.45-.79-.77-.58-.93-.2-2.16.46-2.93.85-.99,2.38-.19,2.96.8Z"/>
      </g>
      <path class="cls-6" d="m299.29,75.7c-1.15,3.51-2.18,7.07-2.77,10.69-.59,3.45-.8,8.45,3.96,8.4,3.8.62,7.19-.96,10.9-1.44.96-.09,1.87.04,2.71-.23,2.4-.53,4.82-4.47,2.2-6.05,2.06.74,1.44,3.58.29,4.9-.9,1.13-2.34,1.83-3.79,1.84-2.33-.06-4.45.73-6.76,1.2-1.84.37-3.75.31-5.58.06-.9-.15-1.89-.23-2.67-.82-4.11-3.56-.44-14.42,1.5-18.54h0Z"/>
      <path class="cls-6" d="m298.27,66.91c.52,1.18,1.73,3.04,1.14,4.27-.5-1.37-.83-2.92-1.14-4.27h0Z"/>
      <path class="cls-14" d="m300.78,105.55s2.47,4.28,9.56,1.69,8.09-1.69,8.09-1.69c0,0-11.78-.95-13.96-1.09s-3.69,1.1-3.69,1.1Z"/>
      <path class="cls-6" d="m326.17,68.86c-2.69,1.64-5.86,2.67-9.03,2.57,3.1-.59,6.04-1.55,9.03-2.57h0Z"/>
      <path class="cls-6" d="m296.5,72.61c-2.83-1.61-6.19-.88-9.06.21,2.59-1.77,6.56-2.49,9.06-.21h0Z"/>
      <path class="cls-1" d="m326.53,68.71s-6.05,2.55-7.94,2.71-5.16-1.63-5.16-1.63c0,0,1.4-1.26,3.08-1.82s6.36-1.03,7.99-.39,2.24.57,2.24.57l-.2.56Z"/>
      <g>
        <path class="cls-6" d="m298.41,67.72c.52,1.18,1.73,3.04,1.14,4.27-.5-1.37-.83-2.92-1.14-4.27h0Z"/>
        <path class="cls-6" d="m313.09,70.02c3.28-4.17,9.51-3.89,13.98-2.04-4.72-1.12-10.19-1.54-13.98,2.04h0Z"/>
        <path class="cls-6" d="m325.79,70.78c-.7.21-1.21.73-1.88,1.06-1.96.97-4.13,1.39-6.27,1.76,1.98-.9,4.1-1.34,6.11-2.1.65-.23,1.29-.7,2.04-.71h0Z"/>
        <path class="cls-6" d="m322.54,67.12c.29-.07.59.16.69.44s.04.6-.04.89c-.25.81-.76,1.53-1.43,2.04-.18.13-.37.25-.59.28-.19.03-.38-.02-.56-.06-.72-.17-1.54-.43-1.8-1.11-.1-.25-.1-.52-.09-.78.03-.54.14-1.07.34-1.57,1.17-.51,2.22-.24,3.49-.12Z"/>
        <path class="cls-6" d="m297.77,104.78c.92.73,2.01,1.27,2.74,2.22,0,0-.18.02-.18.02.25-.54.32-1.1.66-1.68,1.28-1.32,3.57-.74,5.24-.97,2.36-.08,4.79-.13,7.13.39,2.31.52,4.64.76,6.99.44,1.65-.32,3.68-.37,4.86-1.7.34-.46.51-1.1.27-1.65.28.54.14,1.21-.19,1.71-1.12,1.48-3.22,1.61-4.89,1.99-4.76.82-9.37-1.26-14.16-.74-1.57.22-3.79-.41-5.02.71-.31.48-.44,1.2-.79,1.75-.67-1.04-1.75-1.68-2.66-2.49h0Z"/>
        <path class="cls-34" d="m303.69,113.85c.93.18,1.66.42,2.59.6.52.1,1.24.15,1.76.04,1.02-.21,2.05-.43,3-.83.81-.34,1.62-.79,2.13-1.51"/>
      </g>
      <path class="cls-1" d="m296.5,72.87s-4.01-2.55-6.19-.77-2.18,2.75-2.18,2.75h5.49l2.88-1.98Z"/>
      <path class="cls-11" d="m308.81,59.39s-2.94,2.87-1.28,3.26,1.66-1.28,6.83-2.94,6.19-1.09,6.7-.83,1.02-1.15,0-1.6-7.34-.96-12.26,2.11Z"/>
      <path class="cls-11" d="m284.3,64.56s4.34.38,7.09,1.4,4.72-.64,1.15-2.43-7.85-1.61-8.23-.84-1.47,1.54,0,1.86Z"/>
      <path class="cls-6" d="m294.62,71.75c.22-.06.45.13.53.36s.03.49-.03.72c-.19.66-.58,1.25-1.09,1.66-.13.11-.28.21-.45.23-.14.02-.29-.02-.43-.05-.54-.14-1.16-.35-1.37-.91-.07-.2-.08-.42-.07-.64.02-.44.11-.87.26-1.27.88-.42,1.68-.2,2.64-.1Z"/>
      <path class="cls-6" d="m297.19,74.79c-1.82.91-3.03,1.87-5.23,2.17-1.17.05-2.19-.65-3.35-.53,1.09-.4,2.24.17,3.32.07,1.02-.22,2.14-.61,3.14-.97.68-.23,1.33-.73,2.12-.74h0Z"/>
      <path class="cls-10" d="m319.95,130.69c8.54-2.8,28.72-9.69,33.11-17.4,0,0,.09.03.09.03-2.31,5.96-9.6,8.91-15.05,11.34-5.86,2.36-12.17,4.73-18.16,6.02h0Z"/>
      <g>
        <path class="cls-25" d="m188.55,328.94s-16.36,1.22-37.64-3.38c-21.28-4.6-37.79-10.55-40.09-10.89s-5.87,0-5.87,0c0,0-21.53,1.02-23.06.94s-45.87,3.57-48.68,3.66c-2.81.09-10.21-.85-9.96-5.45s1.45-8.09,1.45-8.09c0,0-6.89-3.91-7.15-8.6s1.79-6.21,1.19-7.32-5.87-5.7-3.23-10.64c2.64-4.94,5.02-10.04,7.23-11.66s2.55-2.72,2.55-2.72c0,0-1.45-.43-5.36,0s-10.98-1.02-9.02-6.47c1.96-5.45,6.72-11.83,8.68-11.83s39.23,2.3,43.91,3.49,4.6,3.23,11.74,3.06l6.13.34s.26-.77,3.74,5.19c3.49,5.96,7.83,12.94,10.47,15.4s10.04,4.77,11.49,9.02,6.13,1.19,6.13,1.19c0,0,47.66-2.81,57.62-6.13s16.28-2.32,16.28-2.32l9.7,5.7,3.5,9.5,1.18,7.95.17,11.57-3.32,14.1-3.4,4.26-6.39.11Z"/>
        <path class="cls-25" d="m281.68,54.69s-3.03,13.97,0,19.33,1.76,17.62,2.52,23.23,7.15,20.43,13.02,27.83,12,9.19,20.43,6.38l4.34-1.79-1.02,16.6s1.02,16.34,12.26,18.89,34.21-4.09,38.81-12.26,9.45-18.38,9.45-18.38c0,0-6.13-5.11-7.91-14.3s-6.13-22.21-3.06-28.09,10.98-22.64,10.98-22.64l-5.87-20.25-24.26-15.57-25.74-14.55-22.77-12.26c7.79,13.48-9.15,7.57-9.06,12.11.11,5.97-6,12.4-6,12.4l-3.57,5.36-4.6,9.7,2.07,8.24Z"/>
        <path class="cls-8" d="m294.42,28.57s15.06-2.3,19.91,6c4.85,8.3,5.62-18.13,0-23.36s-9.45-5.87-9.45-5.87l-9.7,3.32s-4.98,17.74-.77,19.91Z"/>
        <path class="cls-24" d="m294.11,22.44s-2.83-16.43,7.51-15.44,4.82,16.15,11.9,29.32,10.91,20.4,19.26,24.65c0,0-1.43-.3-2.06-5.02,0,0-.36.87,9.7,5.02s16.29,9.4,16.38,13.76,0,11.57,0,11.57c0,0,1.6-7.66,10.59-16.11s12.91-7.48,13.18-3.12c0,0,.36,1.87-.71,5.25,0,0,7.39-14.33,2.49-28.76s-9.7-25.64-17.72-28.76-10.95-4.18-16.74-6.5-10.68-3.65-14.33-3.92-3.56,2.4-9.44-.98-20.83-5.16-24.66-.98-6.68,5.61-6.68,10.06,2.76,5.61-2.23,3.56-12.91-.27-14.07,2.23c0,0-.02-1.16,5.7-2.05s6.59,2.58,3.03,3.56-12.29,5.96-11.31,20.12c.98,14.16,6.5,16.11,3.74,21.19-2.76,5.07-4.63,4.99-4.63,4.99,0,0,6.77,3.47,7.92-5.43,1.16-8.9,5.19-31.09,13.11-32.33l.04-5.89Z"/>
        <path class="cls-22" d="m93.97,271.12s-8.95,12.42-14.48,12.42h-9.11l-31.57,14.91-13.02-2.91-8.43-7.23s-7.15,3.74-1.62,11.15,6.55,7.57,6.55,7.57c0,0-2.81-.51-2.21,3.32s1.02,7.49,5.28,8.17,9.75.66,10.52.66,26.25-.66,26.25-.66l16.26-2.11s17.68-.83,22.02-1.53,5.56,2.1,5.47-9.55c-.07-9.64,4.49-21.91.15-24.89-4.34-2.98-12.05-9.32-12.05-9.32Z"/>
        <g>
          <rect class="cls-23" x="16.52" y="93.16" width="8" height="23.71" rx="4" ry="4" transform="translate(-17.1 4.84) rotate(-9.53)"/>
          <path class="cls-26" d="m0,151.35l15-42.27c.32-.9.93-1.66,1.75-2.16,2.13-1.3,6.53-3.29,10.32-.51,5.23,3.83,28.85,34.09,28.85,34.09l64.09,427.66h-43.4L0,151.35Z"/>
          <path class="cls-15" d="m54.99,452.77s17.84-17.49,46.59-8.94l-1.18-8.68s-30.37-7.4-47.18,8.81l1.77,8.81Z"/>
          <g class="cls-36">
            <rect class="cls-23" x="30.45" y="230.19" width="12.38" height="77.74" rx="6.19" ry="6.19" transform="translate(-43.92 9.74) rotate(-9.5)"/>
            <rect class="cls-26" x="32.22" y="232.9" width="8.84" height="72.34" rx="4.42" ry="4.42" transform="translate(-43.92 9.74) rotate(-9.5)"/>
            <line class="cls-33" x1="31.75" y1="260.14" x2="38.36" y2="259.03"/>
          </g>
        </g>
        <path class="cls-25" d="m93.79,270.46s-11.94-17.49-13.15-19.28-5.74-1.09-9.45-1.79-11.81-2.36-12.83-2.87-6.83,5.87-.89,10.79,6.96,6.38,13.4,5.94c0,0,2.17.57,2.87,3.96s.96,8.68,1.02,10.47.88,2.7,1.91,3.83c4.16,4.55,14.04-2.23,14.04-2.23,0,0,4.28-6.13,3.06-8.81Z"/>
        <path class="cls-25" d="m23.32,278.51s9.3,7,7,13.3c-2.3,6.3-9.02,4.6-11.32.94s-6.04-8.94-4.17-13.45,6.41-10.23,6.41-10.23l2.08,9.44Z"/>
        <path class="cls-25" d="m440.91,325.5l-26.38,66.55s-30.47,14.98-31.15,16.17-11.23,30.13-11.23,30.13c0,0-.34,4.26-1.36,4.26s-1.19,3.91,5.96,3.57,12.09-8.17,12.94-11.57-3.06,3.91,8.85,10.89,29.11,12.09,31.66-1.36,6.81-33.87,6.81-33.87c0,0,33.19-34.89,35.91-39.49s13.11-15.49,13.11-15.49c0,0,9.53-15.49,6.64-20.26s-19.74-16.34-20.43-16.68-20.77-.68-21.96-.68-5.96,1.53-9.36,7.83Z"/>
      </g>
      <path class="cls-18" d="m419.59,154.01s-10.09,2.81-13.79,10.6-14.04,35.36-13.4,63.19,2.55,46.09,8.81,55.66,34.5,55.61,34.5,55.61l-5.31,13.61-26.77-34.63s-20.3-39.32-24.26-57.83-9.32-45.57-5.36-64.34,11.62-39.83,16.34-43.79,6.38-4.85,6.38-4.85c0,0,16.21-.51,22.85,6.77Z"/>
      <g>
        <path class="cls-20" d="m335.69,305.56l16-54.81s5.28,1.36,6.47-3.91,8.34-45.79,10.72-52.43,3.74-9.53,3.74-9.53l-9.87-4.77s-7.83,19.23-9.7,38.13-9.43,30.47-9.23,32,3.1,1.7,3.1,1.7c0,0-13.96,33.87-15.32,38.13-1.36,4.26-4.86,13.62-4.86,13.62,0,0,3.15,7.66,8.94,1.87Z"/>
        <path class="cls-20" d="m311.73,290.12s7.91-62.04,9.19-76.09,2.3-61.02,2.3-61.02l-2.3,1.28s-5.87,24.51-5.36,34.98c.51,10.47-5.87,46.72-6.13,54.64-.26,7.91-5.87,50.04-5.87,50.04l8.17-3.83Z"/>
        <polygon class="cls-30" points="337.49 287.31 337.49 352.92 313.75 359.39 256.39 342.71 256.39 273.94 280.13 267.48 337.49 287.31"/>
        <path class="cls-30" d="m281.68,350.84c-.1.03-.21.05-.31.07l-26.83,5.26-5.83,1.14h-.01c-13.84.59-25.85-13.39-26.9-31.42-.93-16.11,7.2-30.03,18.81-33.53l3.54-.73,27.12-5.58,1.86-.38h.06c.62-.12,1.26-.18,1.9-.22,13.97-.81,26.15,13.25,27.21,31.41.98,16.94-8.06,31.46-20.62,33.98Z"/>
      </g>
      <path class="cls-22" d="m26.58,296.02s8.89,6.18,3.74,9.25-7.19,1.62-7.19,1.62"/>
      <line class="cls-9" x1="442.48" y1="422.46" x2="505.04" y2="407.54"/>
    </g>
  </g>
</svg>