<?xml version="1.0" encoding="UTF-8"?>
<svg id="Layer_2" data-name="Layer 2" xmlns="http://www.w3.org/2000/svg" viewBox="0 0 604.38 415.83">
  <defs>
    <style>
      .cls-1 {
        fill: #7f713e;
        stroke-width: 0px;
      }
    </style>
  </defs>
  <g id="Layer_2-2" data-name="Layer 2">
    <g>
      <g>
        <path class="cls-1" d="m513.48,200.03s29.27-37.97,64.54-55.33,32.22-38.81,8.05-23.15-59.91,51.06-63.32,57.19-7.55,12.25-7.55,12.25l-1.72,9.04Z"/>
        <path class="cls-1" d="m501.58,251.59s-5.45-23.49-27.91-36.77c-22.47-13.28-42.89-27.57-26.89-34.04,16-6.47,53.45,45.62,54.81,52.09s0,18.72,0,18.72Z"/>
        <g>
          <path class="cls-1" d="m522.63,330.39s-39.83-13.62-31.66,12.6,21.11,38.13,34.38,45.96l13.28,7.83s13.28-29.96,14.3-37.45,1.02-29.71-8.85-31.7-23.49-7.1-21.45,2.77Z"/>
          <path class="cls-1" d="m531.65,307.07s-24.85,1.87-17.36-10.04,18.72-35.4,42.21-28.77,44.09,17.87,42.04,35.91c0,0-9.87,1.7-21.45,7.15s-16.51,15.49-28.43,13.62-32-5.11-17.02-17.87Z"/>
          <path class="cls-1" d="m496.71,296.13s20.64-11.7,9.66-18.6-33.19-12.77-51.06,0-16.09,11.49-16.09,11.49c0,0,15.06,5.11,26.81,12.51s29.44,17.54,30.68-5.4Z"/>
          <path class="cls-1" d="m493.28,333.05s13.06,9.91,13.99-1.4c4.21-51.24,12.86-217.61,28.75-254.7,19.4-45.28.68-103.15-15.66-64s-19.74,80.68-19.74,123.57-7.34,196.53-7.34,196.53Z"/>
          <path class="cls-1" d="m505.9,286.21s31.15-42.11,39.66-52.67,28.94-30.3,30.64-20.43-8.68,32.68-35.15,53.79-35.15,25.87-35.15,25.87v-6.57Z"/>
          <path class="cls-1" d="m62.52,389.1s-2.3-5.11,12.26-9.7,29.36-11.49,33.7-16.6,7.66-10.98,7.66-10.98c0,0-5.87,18.89-16.34,24.77s-26.81,12.51-26.81,12.51h-10.47Z"/>
          <path class="cls-1" d="m51.32,388.88s-14.04-23.49-31.66-39.83C2.04,332.71,0,330.41,0,330.41c0,0,1.79,13.53,15.06,31.15s18.38,26.81,20.43,27.32,15.83,0,15.83,0Z"/>
          <path class="cls-1" d="m173.62,384.22s-10.72-1.02-13.79-13.02c-3.06-12-15.32-8.17-18.89-13.02s-7.15-16.09-8.94-23.49-12-13.28-12.26-17.11,4.6,2.04,12,6.89,24.26,2.81,34.72,17.36,13.28,20.94,22.47,27.83c9.19,6.89,19.15,13.53,19.91,15.57s-35.23-1.02-35.23-1.02Z"/>
          <path class="cls-1" d="m216.24,386.09s-8.85-34.06-9.87-42.91c-1.02-8.85.68-33.02-4.43-40.17s-5.45-17.36-8.17-20.09-6.81,0-3.4,9.53c3.4,9.53,4.43,28.94,3.4,39.49s1.7,16.34,1.7,23.83-1.7,17.02.34,21.11c2.04,4.09,3.06,7.83,3.06,7.83l17.36,1.38Z"/>
          <path class="cls-1" d="m467.7,315.74s-19.74-28.89-52.77,2.77-27.91,87.83-25.53,96.34,62.64-41.19,86.81-53.11,60.94-29.62,35.74-42.89-48.68,4.09-49.7,5.45,5.45-8.56,5.45-8.56Z"/>
        </g>
      </g>
      <path class="cls-1" d="m508.53,155.99s-24.85-68.24-28.94-69.94c-4.09-1.7-6.13,13.28,5.79,39.49s19.74,35.06,19.74,35.06l5.04-4.61"/>
    </g>
  </g>
</svg>