<?xml version="1.0" encoding="UTF-8"?>
<svg id="Layer_2" data-name="Layer 2" xmlns="http://www.w3.org/2000/svg" viewBox="0 0 144.71 304.64">
  <defs>
    <style>
      .cls-1 {
        fill: #fbc8bc;
      }

      .cls-1, .cls-2, .cls-3 {
        stroke-width: 0px;
      }

      .cls-2 {
        fill: #ffedd3;
      }

      .cls-3 {
        fill: #ea8264;
      }
    </style>
  </defs>
  <g id="left_arm" data-name="left arm">
    <g>
      <g>
        <path class="cls-3" d="m81.43,180.88l-32.82,62.23c-.27.5-.7.89-1.23,1.1-4.95,1.95-30.86,12.2-31.56,13.22s-9.65,16.69-11,19.05c-.11.2-.19.4-.25.63-.46,1.95-2.89,12.02-4.15,13.55-.65.79-1.51,3.8,5.64,4.05,7.15.25,9.51-8.29,10.64-11.61s-.17,4.8,11.13,12.74c11.3,7.94,28.01,14.45,31.66,1.26,3.27-11.79,8.35-29.03,9.39-32.55.13-.42.36-.79.69-1.09,4.35-3.88,35.68-31.89,38.56-35.94s12.82-12.99,14.18-14.21c.11-.1.2-.2.29-.31,1.35-1.75,12.36-16.35,8.16-19.46-18.37-13.6-25.99-14.08-26.64-14.48-.65-.4-8.09-.86-9.28-.96-1.13-.09-4.34.66-11.61,1.55-.77.09-1.45.56-1.81,1.25Z"/>
        <path class="cls-1" d="m4.67,285.22c-.95.04-1.75.7-2.06,1.6-.46,1.33-1.23,3.54-1.34,3.56-.15.03,2.91-.14,4.31,1.03.89.75,1.3-1.72,1.48-3.61.13-1.37-.95-2.63-2.33-2.59-.02,0-.04,0-.06,0Z"/>
      </g>
      <path class="cls-2" d="m142.98,188.62c-6.91,12.8-12.76,17.8-13.18,19.31-.41,1.52-7.75,6.01-7.75,6.01l-.63.12,2.23-2.74s4.37-5.52,2.36-13.45c-2.01-7.93-10.7-15.16-19.95-17.64-9.26-2.48-27.68,5.59-29.09,9.09l-7.23-16.15s-17.92-55.79-20.49-66.14c-2.45-9.81-14.1-41.77-3.06-45.99.15-.06-3.57-5.26,2-5.26L43.65,2.68c-.23-1.8,1.57-3.18,3.25-2.5,1.56.63,2.87,1.03,3.37,1.05,1.2.06,36.86,17.08,46.78,34.42,9.91,17.34,11.09,21.32,14.17,39.18,2.88,16.75,8.84,58.98,13.83,69.44.33.7,4.2.21,4.49.62,4.64,6.52,20.35,30.94,13.44,43.74Z"/>
    </g>
  </g>
</svg>