<?xml version="1.0" encoding="UTF-8"?>
<svg id="Layer_2" data-name="Layer 2" xmlns="http://www.w3.org/2000/svg" viewBox="0 0 228.5 174.25">
  <defs>
    <style>
      .cls-1 {
        fill: #45382f;
        stroke-width: 0px;
      }
    </style>
  </defs>
  <g id="pant">
    <path class="cls-1" d="m0,14.04s2.81,29.62,2.55,34.21,3.06,52.85,3.06,60.26-1.45,62.12,4.34,63.83c13.29,3.93,89.19.57,89.19.57,0,0-3.65-40.4-3.65-45.76s-1.28-30.64-.26-34.47-2.04-9.19,1.02-7.91c3.06,1.28,23.74,43.4,28.09,51.06s17.87,37.08,17.87,37.08h86.3s-14.55-29.16-17.61-40.4-19.91-73.02-20.17-73.79-11.49-38.81-11.49-38.81L169.53,0s-12.77,9.19-65.36,18.89S21.19,13.53,18.13,13.53,0,14.04,0,14.04Z"/>
  </g>
</svg>