<?xml version="1.0" encoding="UTF-8"?>
<svg id="Layer_2" data-name="Layer 2" xmlns="http://www.w3.org/2000/svg" viewBox="0 0 274.38 233.71">
  <defs>
    <style>
      .cls-1 {
        fill: #da4e26;
      }

      .cls-1, .cls-2 {
        stroke-width: 0px;
      }

      .cls-2 {
        fill: #832d1a;
      }
    </style>
  </defs>
  <g id="Layer_43" data-name="Layer 43">
    <g>
      <path class="cls-1" d="m2.01,219.1s-6.3,11.91,3.4,14.3c9.7,2.38,22.3-9.36,22.3-9.36l109.41-108.6,64.03-53.96,32.17-28.6s3.06-2.55,3.4-3.23,17.36-10.04,24.34-11.4,13.31-1.36,13.31-1.36c0,0-9.99-8.53-24.33-16.86-1.91-1.11-49.23,35.92-49.23,35.92l-86.47,73.19L2.01,219.1Z"/>
      <path class="cls-2" d="m69.05,184.19l-3.75,2.28-37.86,35.9c-.21.2-.44.4-.66.6l-4.17,3.66s3.06.15,45.25-41.47"/>
      <ellipse class="cls-2" cx="22.46" cy="218.77" rx="3.69" ry="2.08" transform="translate(-137.47 67.82) rotate(-40.79)"/>
    </g>
  </g>
</svg>