<?xml version="1.0" encoding="UTF-8"?>
<svg id="Layer_2" data-name="Layer 2" xmlns="http://www.w3.org/2000/svg" xmlns:xlink="http://www.w3.org/1999/xlink" viewBox="0 0 232.07 216.36">
  <defs>
    <style>
      .cls-1, .cls-2 {
        fill: #da4e26;
      }

      .cls-1, .cls-3, .cls-4 {
        stroke-width: 0px;
      }

      .cls-3 {
        fill: #dc4f27;
      }

      .cls-4 {
        fill: #832d1a;
      }

      .cls-5 {
        clip-path: url(#clippath);
      }
    </style>
    <clipPath id="clippath">
      <path class="cls-1" d="m127.58,189.84s-37.28,23.2-37.79,23.54-6.3,2.38-13.28-1.36-37.62-28.43-49.53-33.36c-11.91-4.94-23.32-10.55-23.32-10.55,0,0-6.3-1.7-2.38-7.83,3.91-6.13,22.64-37.28,22.64-37.28,0,0-7.15-2.72-8.85-7.32-1.7-4.6-.51-4.6,2.21-4.94s24.51-25.7,29.96-31.32c5.45-5.62,11.7-20.64,16.72-20.09s18.94-.26,23.06-.64c4.13-.38,10.94-1.57,10.94-1.57l12.17,1.45,7.32,9.11,8.8,87.89,1.27,32.77.06,1.51Z"/>
    </clipPath>
  </defs>
  <g id="red_bag" data-name="red bag">
    <g>
      <g>
        <path class="cls-2" d="m127.58,189.84s-37.28,23.2-37.79,23.54-6.3,2.38-13.28-1.36-37.62-28.43-49.53-33.36c-11.91-4.94-23.32-10.55-23.32-10.55,0,0-6.3-1.7-2.38-7.83,3.91-6.13,22.64-37.28,22.64-37.28,0,0-7.15-2.72-8.85-7.32-1.7-4.6-.51-4.6,2.21-4.94s24.51-25.7,29.96-31.32c5.45-5.62,11.7-20.64,16.72-20.09s18.94-.26,23.06-.64c4.13-.38,10.94-1.57,10.94-1.57l12.17,1.45,7.32,9.11,8.8,87.89,1.27,32.77.06,1.51Z"/>
        <g class="cls-5">
          <path class="cls-4" d="m119.53,82.86l-34.3,127.34c-.04.15.04.29.17.31l-1.77,5.84c.06,0,38.86-1.28,38.9-1.32l28.32-25.32c.05-.05.08-.12.09-.19l2.52-103.75c0-.13-.08-.23-.19-.24l-33.52-2.84c-.1,0-.2.07-.23.18Z"/>
          <path class="cls-4" d="m60.93,60.58c1.37,0,7.32-2.38,5.16,2.12-2.16,4.5-42.17,60.29-42.17,60.29l-21.75-5.03,4.75-14.26,21.25-14.75,18.25-11.5,14.5-16.88Z"/>
        </g>
      </g>
      <polygon class="cls-4" points="83.63 216.36 222.88 141.68 232.07 17.87 119.53 82.86 83.63 216.36"/>
      <polygon class="cls-3" points="66.09 62.71 119.53 82.86 232.07 17.87 164.15 0 63.96 59.33 66.09 62.71"/>
    </g>
  </g>
</svg>