<?xml version="1.0" encoding="UTF-8"?>
<svg id="Layer_2" data-name="Layer 2" xmlns="http://www.w3.org/2000/svg" xmlns:xlink="http://www.w3.org/1999/xlink" viewBox="0 0 320.74 475.95">
  <defs>
    <style>
      .cls-1 {
        fill: none;
        stroke: #7e6756;
        stroke-miterlimit: 10;
      }

      .cls-2 {
        opacity: .64;
      }

      .cls-3 {
        fill: #fbc8bc;
      }

      .cls-3, .cls-4, .cls-5, .cls-6, .cls-7, .cls-8, .cls-9 {
        stroke-width: 0px;
      }

      .cls-4 {
        fill: #ffedd3;
      }

      .cls-10 {
        clip-path: url(#clippath-1);
      }

      .cls-5 {
        fill: #cc2027;
      }

      .cls-11, .cls-8 {
        fill: #ea8264;
      }

      .cls-12 {
        clip-path: url(#clippath);
      }

      .cls-6 {
        fill: #080d0c;
      }

      .cls-7 {
        fill: #7e6756;
      }

      .cls-9 {
        fill: #43382f;
      }
    </style>
    <clipPath id="clippath">
      <path class="cls-8" d="m92.07,177.99s-11.75-17.62-12.94-19.42-5.73-1.15-9.43-1.89-11.78-2.49-12.8-3.01-6.89,5.8-1.01,10.78c5.88,4.98,6.89,6.46,13.34,6.08,0,0,2.16.6,2.83,3.99s.86,8.69.91,10.48.85,2.71,1.87,3.85c4.11,4.59,14.07-2.08,14.07-2.08,0,0,4.34-6.08,3.16-8.78Z"/>
    </clipPath>
    <clipPath id="clippath-1">
      <path class="cls-8" d="m21.52,185.27s9.23,7.1,6.86,13.38c-2.37,6.27-9.07,4.5-11.33.81s-5.95-9-4.03-13.49,6.52-10.16,6.52-10.16l1.97,9.46Z"/>
    </clipPath>
  </defs>
  <g id="right_arm_with_pen" data-name="right arm with pen">
    <g>
      <path class="cls-8" d="m186.2,237.48s-16.38,1.04-37.6-3.79c-21.23-4.82-37.67-10.96-39.97-11.32s-5.87-.06-5.87-.06c0,0-21.54.79-23.07.69s-45.91,3.08-48.72,3.14-10.2-.96-9.9-5.55,1.53-8.07,1.53-8.07c0,0-6.85-3.99-7.06-8.67s1.85-6.19,1.27-7.31-5.81-5.77-3.12-10.67,5.13-9.99,7.36-11.58,2.58-2.7,2.58-2.7c0,0-1.44-.44-5.36-.06s-10.97-1.14-8.95-6.56c2.02-5.43,6.85-11.76,8.81-11.74s39.21,2.72,43.87,3.96c4.67,1.24,4.56,3.28,11.71,3.19l6.12.41s.26-.76,3.69,5.23c3.43,5.99,7.69,13.02,10.3,15.52,2.61,2.5,8.07,6.12,11.39,9.14,2.14,1.95,6.11,1.26,6.11,1.26,0,0,47.69-2.3,57.68-5.51,9.99-3.21,16.3-2.15,16.3-2.15l6.34,1.88,4.55,7.11,3.25,11.29.44,11.13-3.88,17.53-3.44,4.22-6.39.04Z"/>
      <path class="cls-6" d="m92.24,178.65s-9.08,12.33-14.61,12.27-9.11-.1-9.11-.1l-31.73,14.57-12.99-3.05-8.35-7.32s-7.19,3.67-1.74,11.13c5.45,7.46,6.47,7.64,6.47,7.64,0,0-2.8-.54-2.25,3.3s.94,7.5,5.19,8.23,9.76,1.01,10.53,1.01,26.24-.62,26.24-.62l16.28-1.94s17.69-.64,22.03-1.29,5.53,2.16,5.57-9.49c.03-9.64,4.73-21.86.42-24.89-4.31-3.03-11.95-9.45-11.95-9.45Z"/>
      <g>
        <rect class="cls-7" x="16.58" y="-.09" width="8" height="23.71" rx="4" ry="4" transform="translate(-1.57 3.33) rotate(-8.91)"/>
        <path class="cls-9" d="m.86,54.36L15.02,15.77c.33-.9.95-1.65,1.77-2.14,2.15-1.28,6.56-3.21,10.33-.4,4.49,3.36,22.7,27.99,27.55,34.6.78,1.07,1.29,2.31,1.47,3.62l58.94,424.49-43.4-.47L.2,61.57c-.42-2.42-.19-4.91.65-7.22Z"/>
        <path class="cls-5" d="m51.31,359.87s18.03-17.3,46.68-8.43l-1.09-8.69s-30.29-7.73-47.27,8.3l1.67,8.83Z"/>
        <g class="cls-2">
          <rect class="cls-7" x="28.74" y="137.1" width="12.38" height="77.74" rx="6.19" ry="6.19" transform="translate(-26.77 7.51) rotate(-8.89)"/>
          <rect class="cls-9" x="30.52" y="139.81" width="8.84" height="72.34" rx="4.42" ry="4.42" transform="translate(-26.77 7.51) rotate(-8.89)"/>
          <line class="cls-1" x1="30.14" y1="167" x2="36.76" y2="165.96"/>
        </g>
      </g>
      <g>
        <path class="cls-11" d="m92.07,177.99s-11.75-17.62-12.94-19.42-5.73-1.15-9.43-1.89-11.78-2.49-12.8-3.01-6.89,5.8-1.01,10.78c5.88,4.98,6.89,6.46,13.34,6.08,0,0,2.16.6,2.83,3.99s.86,8.69.91,10.48.85,2.71,1.87,3.85c4.11,4.59,14.07-2.08,14.07-2.08,0,0,4.34-6.08,3.16-8.78Z"/>
        <g class="cls-12">
          <path class="cls-3" d="m57.87,153.81s.66-.13-.01,1.01,2.61,1.62,2.8,1.62,4.64.31,4.64.31l.48-1.4-7.91-1.54Z"/>
        </g>
      </g>
      <g>
        <path class="cls-11" d="m21.52,185.27s9.23,7.1,6.86,13.38c-2.37,6.27-9.07,4.5-11.33.81s-5.95-9-4.03-13.49,6.52-10.16,6.52-10.16l1.97,9.46Z"/>
        <g class="cls-10">
          <path class="cls-3" d="m24.18,195.12s-3.85,2.37-4.16,3.9c0,0-2.61-2.81-3.35-3.42s2.94-3.44,2.94-3.44c0,0,1.34,1.94,4.56,2.96Z"/>
        </g>
      </g>
      <path class="cls-4" d="m295.96,166.06l9.14-57.95,6.18-20.87,8.2-18.3,1.26-17.04c.2-2.74-3-4.38-5.1-2.6-5.64,4.78-13.73,11.94-15.39,15.01-2.61,4.82-13.63,9.17-19.15,11.67s-12.72,7.91-12.72,7.91c0,0-13.3,14.41-15.68,21.79-2.38,7.38-7.48,18.94-7.64,21.62s-5,1.99-8.21,3.74-8.13,7.7-10.35,12.27-11.77,14.43-13.82,14.66-6.77.05-9.08,1.69-25.22,17.98-25.99,19.13-1.14,5.83-1.14,5.83c0,0,12.22-2.77,17.01,6.81,4.99,9.98,4.8,20.14,3.62,27.53-1.19,7.39-3.67,16.64-7.51,17.37-3.84.72-6.05,1.26-6.05,1.26,0,0-.41,5.74,6.3,7.43,6.71,1.69,25.7-7.72,32.56-4.84,6.86,2.88,17.63-.83,17.63-.83"/>
    </g>
  </g>
</svg>