<?xml version="1.0" encoding="UTF-8"?>
<svg id="Layer_2" data-name="Layer 2" xmlns="http://www.w3.org/2000/svg" viewBox="0 0 100.71 313.24">
  <defs>
    <style>
      .cls-1 {
        fill: #ffedd3;
        stroke-width: 0px;
      }
    </style>
  </defs>
  <g id="shirt">
    <path class="cls-1" d="m100.65,230.4c-.51,15.15-4.25,17.54-18.38,37.79-14.13,20.26-19.07,32-21.62,35.4-.17.23-.29.41-.38.54-.04-.76-1.89-1.99-16.13,3.06-12.94,4.6-16.57,5.84-17.29,6.05.2-.09.54-.22.54-.22,0,0-9.32-1.87-9.49-4.43-.17-2.55,4.43-6.3,6.64-17.87,2.22-11.57,3.75-14.64.51-23.15-3.23-8.51-16.34-42.21-19.23-66.72s-3.92-48.85-4.77-56.17c-.85-7.32-1.87-57.88,0-70.13,1.88-12.26,2.39-28.43,10.05-34.04,7.66-5.62,22.12-20.43,22.63-25.36.39-3.72-.91-6.44-1.65-8.38,0,0-.34-1.2-.53-1.65-1.04-2.76-.49-4.31.72-5.12,1.19.3,3.13,1.45,5.38,5.44,3.74,6.64,8.51,10.73,11.4,12.94,2.9,2.21,8.68,4.08,9.88,4.08.26,0,2.24.75,5.28,2.09h0c.03.11,2.93,3.32,3.32,4.67,4.28,14.73,25.89,97.73,29.83,164.5.21.12.34.21.37.26.32.51,3.43,21.27,2.92,36.42Z"/>
  </g>
</svg>