<?xml version="1.0" encoding="UTF-8"?>
<svg id="Layer_2" data-name="Layer 2" xmlns="http://www.w3.org/2000/svg" viewBox="0 0 56.68 132.25">
  <defs>
    <style>
      .cls-1 {
        fill: #fafbee;
      }

      .cls-1, .cls-2 {
        stroke-width: 0px;
      }

      .cls-2 {
        fill: #ea702f;
      }

      .cls-3 {
        fill: none;
        stroke: #5e6363;
        stroke-miterlimit: 10;
      }
    </style>
  </defs>
  <g id="f3">
    <g>
      <path class="cls-3" d="m23.25,28.53s-10.03,5.49,1.49,41.48,18.63,44.85,20.94,48.26c7.91,11.68,10.72,13.58,10.72,13.58"/>
      <g>
        <path class="cls-1" d="m20.24,24.85S3.48,34.13,3.3,39.92c-.17,5.79,9.02,5.19,16,.68s7.83-11.32,7.83-11.32c0,0-2.3,8.34,1.36,12.51s9.45,3.06,7.91-3.83c-1.53-6.89-4.68-10.55-4.68-10.55,0,0,3.57,13.7,9.62,15.15s13.62-2.04,8.85-10.04c-4.77-8-10.38-10.64-14.47-9.79s14.21-1.36,13.96-11.91c-.26-10.55-4.34-12.77-9.02-9.28s-10.89,14.47-10.21,18.89,1.87-6.13-1.62-10.98S14.28-1.11,10.54,3.24s-1.45,15.91,6.13,18.21,5.53,1.53,5.53,1.53c0,0-10.55-6.21-17.53-2.89s-6.47,7.23,3.83,7.23,11.74-2.47,11.74-2.47Z"/>
        <path class="cls-2" d="m25.28,20.13s7.6-3.64,9.19,0c1.6,3.64.77,6.64-1.6,9.19s-6.32,2.04-7.85-.7-3.19-8.62.26-8.49Z"/>
      </g>
    </g>
  </g>
</svg>