<?xml version="1.0" encoding="UTF-8"?>
<svg id="Layer_2" data-name="Layer 2" xmlns="http://www.w3.org/2000/svg" viewBox="0 0 58.61 78.34">
  <defs>
    <style>
      .cls-1 {
        fill: #fafbee;
      }

      .cls-1, .cls-2 {
        stroke-width: 0px;
      }

      .cls-2 {
        fill: #e97233;
      }

      .cls-3 {
        fill: none;
        stroke: #5e6363;
        stroke-miterlimit: 10;
      }
    </style>
  </defs>
  <g id="f5">
    <g>
      <path class="cls-3" d="m26.65,22.97s12.42,20.76,9.61,33.27-6.96,21.89-6.96,21.89"/>
      <g>
        <path class="cls-1" d="m25.16,27.86s-5.87,7.4-4.21,13.53,8.43,6.89,10.98-2.81,0-11.87,0-11.87c0,0,.38,5.11,8.17,7.66s12.38-1.28,7.28-5.62-12.28-4.72-12.28-4.72c0,0,7.05,4.85,15.86-1.02s10.72-12.38,2.04-11.49-13.53,1.02-16.09,4.6-3.06,4.21-3.06,4.21l-1.53-2.81s7.02-8.94,4.98-14.17-11.87-4.98-12.64,5.49l-.77,10.47s-10.09-7.79-16.85-2.81-12.51,12.26,2.04,12.26,16.09-.89,16.09-.89Z"/>
        <path class="cls-2" d="m25.13,23.55s1.27-2.48,4.67-3.52,5.19-1.93,6.49.75.66,3.58-1.24,4.7-4.67,3.14-7.55,1.36-2.36-3.29-2.36-3.29Z"/>
      </g>
    </g>
  </g>
</svg>