<?xml version="1.0" encoding="UTF-8"?>
<svg id="Layer_2" data-name="Layer 2" xmlns="http://www.w3.org/2000/svg" viewBox="0 0 60.12 87.83">
  <defs>
    <style>
      .cls-1 {
        fill: #fafbee;
      }

      .cls-1, .cls-2 {
        stroke-width: 0px;
      }

      .cls-2 {
        fill: #ea702f;
      }

      .cls-3 {
        fill: none;
        stroke: #5e6363;
        stroke-miterlimit: 10;
      }
    </style>
  </defs>
  <g id="f4">
    <g>
      <path class="cls-3" d="m35.75,28.91s-14.81,20.35-9.96,35.93,8.43,22.77,8.43,22.77"/>
      <g>
        <path class="cls-1" d="m20.94,23.4S10.22,12.09,10.39,5.11c.17-6.98,1.62-7.06,7.23,1.79s7.91,13.19,8,12.43-4.34-12.34-.09-16.51,18.04-4.68,15.91,5.36-4.77,14.62-4.77,14.62c0,0,2.47-10.02,11.57-6.96s17.53,8.34,6.89,12-15.83,3.4-16.51,2.81,3.06-1.11,6.21,4.85,4.26,10.38-.68,11.83-9.28,1.62-10.81-5.79c-1.53-7.4-3.15-7.4-3.15-7.4,0,0,5.7,13.11-1.87,17.02s-10.13,3.32-8.34-4.77,4.34-12.85,4.34-12.85c0,0-9.7,10.21-17.7,7.06,0,0-8.43.26-6.3-7.57s11.66-11.66,20.6-9.62Z"/>
        <path class="cls-2" d="m32.73,31.89s-10.72,2.72-9.36-3.23c1.36-5.96,4.43-8.85,8.26-7.23s5.79,3.66,5.11,5.62-3.06,4.68-4,4.85Z"/>
      </g>
    </g>
  </g>
</svg>