<?xml version="1.0" encoding="UTF-8"?>
<svg id="Layer_2" data-name="Layer 2" xmlns="http://www.w3.org/2000/svg" viewBox="0 0 66.3 121.81">
  <defs>
    <style>
      .cls-1 {
        fill: #fafbee;
      }

      .cls-1, .cls-2 {
        stroke-width: 0px;
      }

      .cls-2 {
        fill: #ea702f;
      }

      .cls-3 {
        fill: none;
        stroke: #5e6363;
        stroke-miterlimit: 10;
      }
    </style>
  </defs>
  <g id="f2">
    <g>
      <path class="cls-3" d="m45.54,24.44s21.09,2.24,17.34,32.87-24.18,49.94-2.48,64.08"/>
      <g>
        <path class="cls-1" d="m25.86,21.16S20.16,5.21,29.95.74s6.98,12.66,5.87,18.31,12.6-8.94,18.89-8.61,20.51,12.32,3.57,17.64c-16.94,5.32-21.11.59-21.11.59,0,0,6.64.17,6.98,11.98s-11.74,27.84-14.47,9.7c-2.72-18.14-2.81-17.04-2.81-17.04,0,0,.17,14.18-7.74,14.68s-12.94-.93-10.04-6.67,9.53-8.86,14.21-9.2S-7.67,30.94,1.52,21.32c9.19-9.62,19.57-6.75,25.45,2.62s-1.11-2.78-1.11-2.78Z"/>
        <path class="cls-2" d="m27.24,32.42c.06-.32-.96-8.99,3.06-10.13s8.81,1.2,8.81,5.76.45,6.58-2.3,7.28-3.57,1.77-5.55.82-4.02-3.73-4.02-3.73Z"/>
      </g>
    </g>
  </g>
</svg>