<?xml version="1.0" encoding="UTF-8"?>
<svg id="Layer_2" data-name="Layer 2" xmlns="http://www.w3.org/2000/svg" viewBox="0 0 158.72 158.32">
  <defs>
    <style>
      .cls-1 {
        fill: #fafbee;
      }

      .cls-1, .cls-2 {
        stroke-width: 0px;
      }

      .cls-2 {
        fill: #ea702f;
      }

      .cls-3 {
        fill: none;
        stroke: #545251;
        stroke-miterlimit: 10;
      }
    </style>
  </defs>
  <g id="f1">
    <g>
      <path class="cls-3" d="m29.51,35.51s-34,0-10.34,38.3c23.66,38.29,90.04,43.86,113.87,59.57,23.83,15.71,25.19,24.87,25.19,24.87"/>
      <path class="cls-1" d="m15.26,26.21s-7.63,2.5-11.31,6.99-7.63,14.15,2.42,11.22,12.93-5.26,15.35-10.36,1.08-3.28,1.08-3.28l1.44.6s-.81,14.76,8.08,12.08,11.4-6.39,6.37-12.34-8.62-4.31-8.62-4.31c0,0,6.1,2.07,13.19-1.55s10.68-10.27,3.59-10.36-16.34,1.21-17.23,4.14c0,0,6.1-6.47,6.01-12.08-.09-5.61-3.14-9.15-6.01-5.44s-7.18,7.08-5.83,14.41.81,5.52.81,5.52c0,0,1.8-10.27-6.82-13.98-8.62-3.71-22.62,6.13-8.71,14.07,13.91,7.94,6.19,4.66,6.19,4.66Z"/>
      <path class="cls-2" d="m21.3,20.36s2.54-3.2,4.87-2.51,4.5,1.53,4.34,4.63-4.45,5.07-6.46,4.68-4.02-.3-3.87-3.05c.16-2.76,1.11-3.74,1.11-3.74Z"/>
    </g>
  </g>
</svg>