<?xml version="1.0" encoding="UTF-8"?>
<svg id="Layer_2" data-name="Layer 2" xmlns="http://www.w3.org/2000/svg" viewBox="0 0 73.49 103.16">
  <defs>
    <style>
      .cls-1 {
        fill: #fafbee;
      }

      .cls-1, .cls-2 {
        stroke-width: 0px;
      }

      .cls-2 {
        fill: #e97233;
      }

      .cls-3 {
        fill: none;
        stroke: #5e6363;
        stroke-miterlimit: 10;
      }
    </style>
  </defs>
  <g id="f6">
    <g>
      <path class="cls-3" d="m16.95,22.25s-.05,28.32,27.94,52.94c27.99,24.61,28.1,27.95,28.1,27.95"/>
      <g>
        <path class="cls-1" d="m16.12,16.78s-11.93.64-15.23-7.76S3.9-2.4,12.35,2.06c8.45,4.46,11.34,8.26,11.4,9.96l.08,2.31s-2.61-6.6,2.96-9.23c5.57-2.62,15.71-.41,9.89,6-5.82,6.4-9.44,7.38-9.44,7.38,0,0,5.32-2.49,9.28,2.97,3.96,5.46,3.31,8.53-.55,9.87s-8.24,1.74-9.26-2.49-4.08-5.34-4.08-5.34l-1.22,1.14s2.08,10.88-1.09,13.18-10.79,3.89-9.07-1.28c1.71-5.17,6.84-13.62,6.84-13.62,0,0-5.33,9.67-12.53,8.94s-5.65-7.34.86-11.76,9.7-3.31,9.7-3.31Z"/>
        <path class="cls-2" d="m16.98,11.86s2.71-.4,5.49,1.66c2.78,2.06,4.52,2.94,3.12,5.44s-2.48,2.5-4.47,1.65-5.19-1.87-5.41-5.09,1.28-3.66,1.28-3.66Z"/>
      </g>
    </g>
  </g>
</svg>